ply
format ascii 1.0
comment VCGLIB generated
element vertex 8
property float x
property float y
property float z
property float nx
property float ny
property float nz
element face 12
property list uchar int vertex_indices
end_header
0 0 0 -0.7001401 -0.140028 -0.7001401 
32 0 0 0.4402254 -0.1760902 -0.8804509 
0 1 0 -0.7053456 0.07053456 -0.7053456 
32 1 0 0.8804509 0.1760902 -0.4402254 
0 0 32 -0.8804509 -0.1760902 0.4402254 
32 0 32 0.7053456 -0.07053456 0.7053456 
0 1 32 -0.4402254 0.1760902 0.8804509 
32 1 32 0.7001401 0.140028 0.7001401 
3 2 1 0 
3 1 2 3 
3 4 2 0 
3 2 4 6 
3 1 4 0 
3 4 1 5 
3 6 5 7 
3 5 6 4 
3 3 6 7 
3 6 3 2 
3 5 3 7 
3 3 5 1 
