ply
format ascii 1.0
comment VCGLIB generated
element vertex 522
property float x
property float y
property float z
property float nx
property float ny
property float nz
element face 1040
property list uchar int vertex_indices
end_header
0.01521003 -0.0343495 0.1525085 0.03239613 -0.9981982 0.05050769 
-0.000604994 -0.0343495 0.1575845 1.565659e-05 -0.9985514 0.0538063 
-0.01642001 -0.0343495 0.1525085 -0.03228302 -0.9982088 0.0503688 
-0.03076506 -0.0343495 0.1386404 -0.06546786 -0.9969041 0.04354389 
-0.175784 -0.03434949 -0.1417405 -0.03738167 -0.9990752 -0.02124634 
-0.161916 -0.03434949 -0.1556085 -0.0210783 -0.9988532 -0.04298783 
0.1622701 -0.0343495 -0.1556085 0.02085458 -0.9988435 -0.04332225 
0.176138 -0.0343495 -0.1417404 0.03749266 -0.9990751 -0.02105484 
0.02955496 -0.0343495 0.1386404 0.06587513 -0.9968665 0.04379103 
-0.180994 -0.03434949 -0.1227886 -0.05314342 -0.9985819 0.003139613 
0.1809571 -0.0343495 -0.1227885 0.05234272 -0.9986245 0.003054664 
0.009063955 -0.0343495 0.08479944 -4.371139e-08 -1 -1.910686e-15 
-0.0004500189 -0.0343495 0.08785245 -4.371139e-08 -1 -1.910686e-15 
-0.009963039 -0.0343495 0.08479944 -4.371139e-08 -1 -1.910686e-15 
-0.018592 -0.0343495 0.0764575 -4.371139e-08 -1 -1.910686e-15 
-0.105826 -0.03434949 -0.09220255 -4.371139e-08 -1 -1.910686e-15 
-0.09748399 -0.03434949 -0.1005445 -4.371139e-08 -1 -1.910686e-15 
0.09752596 -0.0343495 -0.1005444 -4.371139e-08 -1 -1.910686e-15 
0.105868 -0.0343495 -0.09220254 -4.371139e-08 -1 -1.910686e-15 
0.01769304 -0.0343495 0.0764575 -4.371139e-08 -1 -1.910686e-15 
-0.10896 -0.03434949 -0.08080245 -4.371139e-08 -1 -1.910686e-15 
0.108767 -0.0343495 -0.08080243 -4.371139e-08 -1 -1.910686e-15 
0.042387 -0.0343495 0.1177255 0.06830256 -0.9968167 0.0411244 
0.02541196 -0.0343495 0.06387556 -4.371139e-08 -1 -1.910686e-15 
0.110924 -0.0343495 0.003579502 0.06833128 -0.9968187 0.04102842 
0.1764411 -0.0343495 -0.1055355 0.06974253 -0.9967907 0.0392965 
0.06664002 -0.0343495 -0.004787442 -4.371139e-08 -1 -1.910686e-15 
0.106051 -0.0343495 -0.07042348 -4.371139e-08 -1 -1.910686e-15 
0.135849 -0.0343495 -0.1606845 0.00129197 -0.9982213 -0.05960366 
0.08163298 -0.0343495 -0.1035985 -4.371139e-08 -1 -1.910686e-15 
-0.00117194 -0.0343495 -0.1606845 -4.104357e-08 -0.9982417 -0.05927432 
-0.136844 -0.03434949 -0.1606845 -0.001380966 -0.9982201 -0.05962249 
-0.0007909491 -0.0343495 -0.1035985 -4.371139e-08 -1 -1.910686e-15 
-0.08240198 -0.03434949 -0.1035985 -4.371139e-08 -1 -1.910686e-15 
-0.174611 -0.03434949 -0.1017165 -0.06928364 -0.9968198 0.03937082 
-0.105121 -0.03434949 -0.06812645 -4.371139e-08 -1 -1.910686e-15 
-0.108466 -0.03434949 0.009041543 -0.06817163 -0.9968426 0.04071261 
-0.04257799 -0.0343495 0.1193675 -0.06813471 -0.9968404 0.04082865 
-0.06533206 -0.03434949 -0.001501444 -4.371139e-08 -1 -1.910686e-15 
-0.02569795 -0.0343495 0.06486452 -4.371139e-08 -1 -1.910686e-15 
-0.04671598 -0.0293475 0.1327305 -0.8177099 -0.2990884 0.4918299 
-0.119041 -0.02934749 0.01162552 -0.8193951 -0.2985446 0.4893495 
-0.191648 -0.02934749 -0.1099515 -0.843965 -0.3204611 0.4301486 
-0.1501909 -0.02934749 -0.1746805 -0.04636561 -0.3751803 -0.9257916 
-0.001265995 -0.0293475 -0.1746805 2.464483e-08 -0.366579 -0.930387 
0.1491411 -0.02934751 -0.1746805 0.04337231 -0.3746335 -0.926158 
0.193698 -0.02934751 -0.1141435 0.8496709 -0.32639 0.4141605 
0.1217819 -0.02934751 0.005630498 0.8184502 -0.2977256 0.4914253 
0.04654896 -0.0293475 0.1309275 0.8171011 -0.2981094 0.4934336 
0.198655 -0.02934751 -0.1330815 0.9117645 -0.4107131 0.0004710594 
-0.198655 -0.02934749 -0.1330816 -0.9121801 -0.4097082 -0.008164119 
0.03246295 -0.0293475 0.1538865 0.7683326 -0.3158366 0.5566977 
0.1933661 -0.02934751 -0.1538855 0.7770261 -0.442607 -0.4475818 
0.178143 -0.02934751 -0.1691085 0.4357453 -0.4259814 -0.7928846 
-0.177713 -0.02934749 -0.1691085 -0.4391695 -0.426331 -0.7908047 
-0.1929359 -0.02934749 -0.1538855 -0.7750382 -0.4425542 -0.4510672 
-0.03375006 -0.0293475 0.1538865 -0.7680401 -0.3170111 0.5564337 
-0.01800299 -0.0293475 0.1691094 -0.466661 -0.3768963 0.8001105 
-0.0006439762 -0.0293475 0.1746804 -6.53793e-05 -0.3968493 0.9178838 
0.016716 -0.0293475 0.1691094 0.4666972 -0.3763725 0.8003358 
0.016716 -0.001018502 0.1691094 0.5110094 -2.233693e-08 0.8595751 
-0.0006439762 -0.001018502 0.1746804 -9.652943e-06 4.200328e-13 1 
-0.01800299 -0.001018502 0.1691094 -0.5110095 2.233693e-08 0.8595752 
-0.03375006 -0.001018502 0.1538865 -0.8148417 3.561786e-08 0.5796835 
-0.1929359 -0.001018494 -0.1538855 -0.8652473 3.782116e-08 -0.5013454 
-0.177713 -0.001018494 -0.1691085 -0.4772924 2.086311e-08 -0.8787446 
0.178143 -0.001018509 -0.1691085 0.4730091 -2.067588e-08 -0.8810576 
0.1933661 -0.001018509 -0.1538855 0.8675417 -3.792145e-08 -0.4973644 
0.03246295 -0.001018502 0.1538865 0.8148487 -3.561816e-08 0.5796738 
-0.198655 -0.001018494 -0.1330816 -0.9999918 4.371103e-08 0.004052571 
0.198655 -0.001018509 -0.1330815 0.9999286 -4.370826e-08 0.01195125 
0.04654896 -0.001018502 0.1309275 0.8561782 -3.742473e-08 0.5166807 
0.1217819 -0.001018509 0.005630498 0.8573296 -3.747506e-08 0.5147679 
0.193698 -0.001018509 -0.1141435 0.8929713 -3.903302e-08 0.4501136 
0.1491411 -0.001018509 -0.1746805 0.04104646 -1.794196e-09 -0.9991572 
-0.001265995 -0.001018502 -0.1746805 4.371139e-08 0 -1 
-0.1501909 -0.001018494 -0.1746805 -0.04391072 1.9194e-09 -0.9990355 
-0.191648 -0.001018494 -0.1099515 -0.8861912 3.873664e-08 0.4633198 
-0.119041 -0.001018494 0.01162552 -0.8585491 3.752837e-08 0.5127313 
-0.04671598 -0.001018502 0.1327305 -0.8571314 3.74664e-08 0.5150978 
-0.04671598 0.0283295 0.1327305 -0.8277342 0.2588959 0.4978243 
-0.119041 0.0283295 0.01162552 -0.8293959 0.2583767 0.495322 
-0.191648 0.0283295 -0.1099515 -0.8553085 0.2791047 0.4365179 
-0.1501909 0.0283295 -0.1746805 -0.0469752 0.3327154 -0.9418566 
-0.001265995 0.0283295 -0.1746805 5.550764e-08 0.3237106 -0.9461562 
0.1491411 0.02832949 -0.1746805 0.04393747 0.3321359 -0.9422077 
0.193698 0.02832949 -0.1141435 0.8613936 0.2848411 0.4205551 
0.1217819 0.02832949 0.005630498 0.8283928 0.257611 0.4973952 
0.04654896 0.0283295 0.1309275 0.8270597 0.2579784 0.4994192 
0.198655 0.02832949 -0.1330815 0.9289256 0.3702661 0.0005521938 
-0.198655 0.0283295 -0.1330816 -0.9291356 0.3696473 -0.008251205 
0.03246295 0.0283295 0.1538865 0.7788975 0.2749364 0.5636743 
0.1933661 0.02832949 -0.1538855 0.7924992 0.4043952 -0.4565189 
0.178143 0.02832949 -0.1691085 0.4441093 0.3871875 -0.8079931 
-0.177713 0.0283295 -0.1691085 -0.4476178 0.387462 -0.8059228 
-0.1929359 0.0283295 -0.1538855 -0.7905125 0.4042318 -0.4600942 
-0.03375006 0.0283295 0.1538865 -0.7786573 0.2760611 0.5634564 
-0.01800299 0.0283295 0.1691094 -0.4748425 0.3355347 0.8135977 
-0.0006439762 0.0283295 0.1746804 -6.541947e-05 0.3570684 0.9340783 
0.016716 0.0283295 0.1691094 0.4748698 0.3350031 0.8138008 
0.01521003 0.03434949 0.1525085 0.03888063 0.9974028 0.06062932 
-0.000604994 0.03434949 0.1575845 1.885384e-05 0.9979099 0.06462065 
-0.01642001 0.03434949 0.1525085 -0.03874529 0.9974182 0.06046339 
-0.03076506 0.0343495 0.1386404 -0.07843892 0.9955522 0.05218334 
-0.175784 0.0343495 -0.1417405 -0.04492057 0.9986643 -0.02553202 
-0.161916 0.0343495 -0.1556085 -0.02532632 0.9983445 -0.05164201 
0.1622701 0.03434949 -0.1556085 0.02505775 0.9983304 -0.05204318 
0.176138 0.03434949 -0.1417404 0.04505428 0.9986641 -0.02530202 
0.02955496 0.03434949 0.1386404 0.07892311 0.9954985 0.05247703 
-0.180994 0.0343495 -0.1227886 -0.0638224 0.9979542 0.003763109 
0.1809571 0.03434949 -0.1227885 0.06286187 0.9980155 0.003663104 
0.009063955 0.03434949 0.08479944 4.371139e-08 1 1.910686e-15 
-0.0004500189 0.03434949 0.08785245 4.371139e-08 1 1.910686e-15 
-0.009963039 0.03434949 0.08479944 4.371139e-08 1 1.910686e-15 
-0.018592 0.03434949 0.0764575 4.371139e-08 1 1.910686e-15 
-0.105826 0.0343495 -0.09220255 4.371139e-08 1 1.910686e-15 
-0.09748399 0.0343495 -0.1005445 4.371139e-08 1 1.910686e-15 
0.09752596 0.03434949 -0.1005444 4.371139e-08 1 1.910686e-15 
0.105868 0.03434949 -0.09220254 4.371139e-08 1 1.910686e-15 
0.01769304 0.03434949 0.0764575 4.371139e-08 1 1.910686e-15 
-0.10896 0.0343495 -0.08080245 4.371139e-08 1 1.910686e-15 
0.108767 0.03434949 -0.08080243 4.371139e-08 1 1.910686e-15 
0.042387 0.03434949 0.1177255 0.0818242 0.9954284 0.04926606 
0.02541196 0.03434949 0.06387556 4.371139e-08 1 1.910686e-15 
0.110924 0.03434949 0.003579502 0.08185867 0.9954313 0.04915066 
0.1764411 0.03434949 -0.1055355 0.08355784 0.9953908 0.04706725 
0.06664002 0.03434949 -0.004787442 4.371139e-08 1 1.910686e-15 
0.106051 0.03434949 -0.07042348 4.371139e-08 1 1.910686e-15 
0.135849 0.03434949 -0.1606845 0.001553683 0.9974367 -0.07153835 
0.08163298 0.03434949 -0.1035985 4.371139e-08 1 1.910686e-15 
-0.00117194 0.03434949 -0.1606845 4.671035e-08 0.9974662 -0.07114206 
-0.136844 0.0343495 -0.1606845 -0.001660515 0.9974349 -0.07156102 
-0.0007909491 0.03434949 -0.1035985 4.371139e-08 1 1.910686e-15 
-0.08240198 0.0343495 -0.1035985 4.371139e-08 1 1.910686e-15 
-0.174611 0.0343495 -0.1017165 -0.08300868 0.9954324 0.04715991 
-0.105121 0.0343495 -0.06812645 4.371139e-08 1 1.910686e-15 
-0.108466 0.0343495 0.009041543 -0.08166978 0.9954653 0.04877386 
-0.04257799 0.0343495 0.1193675 -0.08162551 0.9954621 0.0489134 
-0.06533206 0.0343495 -0.001501444 4.371139e-08 1 1.910686e-15 
-0.025697 0.0343495 0.06486452 4.371139e-08 1 1.910686e-15 
0.01634001 -0.03309849 0.1649584 0.2384174 -0.8915483 0.3850959 
-0.0006339625 -0.03309849 0.1704064 7.088417e-05 -0.9054626 0.4244261 
-0.01760805 -0.03309849 0.1649584 -0.2379525 -0.8919364 0.3844842 
-0.03300405 -0.03309849 0.1500745 -0.432018 -0.8511238 0.2982429 
-0.188648 -0.03309849 -0.1508495 -0.3146523 -0.931961 -0.1801186 
-0.173764 -0.03309849 -0.1657335 -0.1771033 -0.9208996 -0.3472439 
0.174175 -0.0330985 -0.1657334 0.1753095 -0.9204905 -0.3492333 
0.189059 -0.0330985 -0.1508494 0.3154899 -0.9319826 -0.1785347 
0.03173601 -0.03309849 0.1500745 0.4332771 -0.8501906 0.2990767 
-0.19424 -0.03309849 -0.1305086 -0.4169724 -0.9087862 0.01554359 
0.194231 -0.0330985 -0.1305085 0.413468 -0.9103699 0.01645964 
0.02319204 -0.0343495 0.1465035 0.05201789 -0.9974757 0.04833691 
0.01292002 -0.0343495 0.1272815 -4.371139e-08 -1 -1.910686e-15 
0.006860011 -0.0343495 0.1563155 0.01743926 -0.9984808 0.05226829 
-0.0005470572 -0.0343495 0.1316034 -4.371139e-08 -1 -1.910686e-15 
-0.008070952 -0.0343495 0.1563155 -0.01739173 -0.9984855 0.05219409 
-0.01401401 -0.0343495 0.1272815 -4.371139e-08 -1 -1.910686e-15 
-0.02440203 -0.0343495 0.1465035 -0.05175159 -0.9974996 0.04812863 
-0.02622998 -0.0343495 0.1154725 -4.371139e-08 -1 -1.910686e-15 
-0.03649498 -0.0343495 0.1294264 -0.06754179 -0.9968681 0.04113588 
-0.179625 -0.03434949 -0.1326065 -0.04439176 -0.9989551 -0.0108681 
-0.149719 -0.03434949 -0.1232835 -4.371139e-08 -1 -1.910686e-15 
-0.1697789 -0.03434949 -0.1496035 -0.0302939 -0.9990596 -0.03102097 
-0.13791 -0.03434949 -0.1350925 -4.371139e-08 -1 -1.910686e-15 
-0.151252 -0.03434949 -0.1594155 -0.00895106 -0.998435 -0.05520464 
0.1512691 -0.0343495 -0.1594155 0.008568241 -0.9984215 -0.05550654 
0.170133 -0.0343495 -0.1496035 0.03021154 -0.9990643 -0.03094978 
0.138147 -0.0343495 -0.1350925 -4.371139e-08 -1 -1.910686e-15 
0.1499571 -0.0343495 -0.1232835 -4.371139e-08 -1 -1.910686e-15 
0.179881 -0.0343495 -0.1326065 0.0451266 -0.9989319 -0.009927999 
0.03553902 -0.0343495 0.1290155 0.06781501 -0.9968389 0.04139156 
0.02513503 -0.0343495 0.1154725 -4.371139e-08 -1 -1.910686e-15 
-0.1794651 -0.03434949 -0.1124395 -0.06449974 -0.9976169 0.02450058 
-0.154155 -0.03434949 -0.1071445 -4.371139e-08 -1 -1.910686e-15 
0.15406 -0.0343495 -0.1071445 -4.371139e-08 -1 -1.910686e-15 
0.1796991 -0.0343495 -0.1133945 0.06261042 -0.9978036 0.02163149 
0.003541943 -0.0343495 0.0739305 -4.371139e-08 -1 -1.910686e-15 
0.09440696 -0.0343495 -0.06799244 -4.371139e-08 -1 -1.910686e-15 
-0.094437 -0.03434949 -0.06741846 -4.371139e-08 -1 -1.910686e-15 
0.01863694 -0.0343495 0.05959451 -4.371139e-08 -1 -1.910686e-15 
0.09447801 -0.0343495 -0.07802152 -4.371139e-08 -1 -1.910686e-15 
0.08937801 -0.0343495 -0.08692347 -4.371139e-08 -1 -1.910686e-15 
0.07935203 -0.0343495 -0.09206247 -4.371139e-08 -1 -1.910686e-15 
-0.07957195 -0.03434949 -0.09206247 -4.371139e-08 -1 -1.910686e-15 
-0.08939397 -0.03434949 -0.08692349 -4.371139e-08 -1 -1.910686e-15 
-0.09455299 -0.03434949 -0.07802153 -4.371139e-08 -1 -1.910686e-15 
-0.01932395 -0.0343495 0.05984151 -4.371139e-08 -1 -1.910686e-15 
-0.01288498 -0.0343495 0.06879151 -4.371139e-08 -1 -1.910686e-15 
-0.004382971 -0.0343495 0.0739305 -4.371139e-08 -1 -1.910686e-15 
0.01204502 -0.0343495 0.06879151 -4.371139e-08 -1 -1.910686e-15 
0.04550898 -0.03309849 0.1276264 0.4569765 -0.8457268 0.2755335 
0.03606295 -0.0343495 0.09766147 -4.371139e-08 -1 -1.910686e-15 
0.06316102 -0.0343495 0.08312654 0.06832433 -0.9968193 0.04102416 
0.03415799 -0.0343495 0.03381348 -4.371139e-08 -1 -1.910686e-15 
0.119067 -0.0330985 0.005117541 0.4574863 -0.8457254 0.2746908 
0.189384 -0.0330985 -0.1119915 0.462953 -0.8512442 0.2470992 
0.09442496 -0.0343495 0.0004614633 -4.371139e-08 -1 -1.910686e-15 
0.1502141 -0.0343495 -0.09245347 -4.371139e-08 -1 -1.910686e-15 
0.157932 -0.0343495 -0.07471048 0.06832462 -0.9968193 0.0410248 
0.081954 -0.0343495 -0.04578948 -4.371139e-08 -1 -1.910686e-15 
0.145818 -0.0330985 -0.1711814 0.01382024 -0.8923975 -0.4510384 
0.115649 -0.0343495 -0.1394145 -4.371139e-08 -1 -1.910686e-15 
0.09277905 -0.0343495 -0.1606845 -4.104357e-08 -0.9982417 -0.05927432 
0.04681898 -0.0343495 -0.09282553 -4.371139e-08 -1 -1.910686e-15 
-0.001242034 -0.03309849 -0.1711814 -1.921195e-08 -0.8918499 -0.4523316 
-0.146855 -0.03309849 -0.1711814 -0.01476012 -0.8924392 -0.4509262 
-0.001029962 -0.0343495 -0.1394145 -4.371139e-08 -1 -1.910686e-15 
-0.11656 -0.03434949 -0.1394145 -4.371139e-08 -1 -1.910686e-15 
-0.09478604 -0.03434949 -0.1606845 -4.104357e-08 -0.9982417 -0.05927431 
-0.04805302 -0.0343495 -0.09282553 -4.371139e-08 -1 -1.910686e-15 
-0.187389 -0.03309849 -0.1078925 -0.4617262 -0.8505894 0.251608 
-0.14872 -0.03434949 -0.08920146 -4.371139e-08 -1 -1.910686e-15 
-0.154817 -0.03434949 -0.06857146 -0.06816588 -0.9968432 0.04070889 
-0.08059001 -0.03434949 -0.04267049 -4.371139e-08 -1 -1.910686e-15 
-0.116397 -0.03309849 0.01097953 -0.4572974 -0.8463418 0.273102 
-0.04568196 -0.03309849 0.1293894 -0.4566206 -0.8463808 0.2741116 
-0.09239495 -0.03434949 0.005112525 -4.371139e-08 -1 -1.910686e-15 
-0.03628803 -0.0343495 0.09906045 -4.371139e-08 -1 -1.910686e-15 
-0.06217897 -0.0343495 0.08654544 -0.06815995 -0.9968437 0.0407058 
-0.03383303 -0.0343495 0.03562248 -4.371139e-08 -1 -1.910686e-15 
-0.06823302 -0.0293475 0.09670249 -0.8193897 -0.2985542 0.4893526 
-0.04671598 -0.0197655 0.1327305 -0.8571314 3.74664e-08 0.5150979 
-0.04003895 -0.0293475 0.1437725 -0.8124517 -0.301147 0.4992321 
-0.16992 -0.02934749 -0.07356847 -0.819401 -0.2985245 0.4893517 
-0.119041 -0.01976549 0.01162552 -0.8585492 3.752837e-08 0.5127313 
-0.196977 -0.02934749 -0.1217225 -0.8966558 -0.3688342 0.2448874 
-0.191648 -0.01976549 -0.1099515 -0.8861911 3.873664e-08 0.4633198 
-0.104024 -0.0293475 -0.1746805 2.464483e-08 -0.366579 -0.930387 
-0.1501909 -0.01976549 -0.1746805 -0.04391072 1.9194e-09 -0.9990355 
-0.166007 -0.02934749 -0.1732875 -0.2078633 -0.4005588 -0.892382 
0.101863 -0.02934751 -0.1746805 2.464483e-08 -0.3665789 -0.930387 
-0.001265995 -0.0197655 -0.1746805 4.371139e-08 0 -1 
0.166067 -0.02934751 -0.1732875 0.2010604 -0.3998137 -0.8942727 
0.1491411 -0.01976551 -0.1746805 0.04104646 -1.794196e-09 -0.9991572 
0.173382 -0.02934751 -0.08030748 0.8184718 -0.297652 0.4914339 
0.193698 -0.01976551 -0.1141435 0.8929713 -3.903302e-08 0.4501137 
0.197275 -0.02934751 -0.1227705 0.8997337 -0.3737562 0.2253569 
0.06935298 -0.02934751 0.09294948 0.8184536 -0.297701 0.4914346 
0.1217819 -0.01976551 0.005630498 0.8573296 -3.747506e-08 0.5147679 
0.03903197 -0.0293475 0.1433215 0.8125119 -0.299896 0.4998869 
0.04654896 -0.0197655 0.1309275 0.8561782 -3.742473e-08 0.5166807 
0.198655 -0.01976551 -0.1330815 0.9999286 -4.370826e-08 0.01195125 
0.197474 -0.02934751 -0.1438595 0.8725729 -0.4315665 -0.2288384 
-0.197152 -0.02934749 -0.1438595 -0.8675407 -0.433006 -0.2447019 
-0.198655 -0.01976549 -0.1330816 -0.9999918 4.371103e-08 0.004052575 
0.025478 -0.0293475 0.1625175 0.6420628 -0.3477473 0.6832476 
0.03246295 -0.0197655 0.1538865 0.8148487 -3.561817e-08 0.5796738 
0.1933661 -0.01976551 -0.1538855 0.8675417 -3.792145e-08 -0.4973644 
0.186774 -0.02934751 -0.1625165 0.636146 -0.4416928 -0.632634 
0.178143 -0.01976551 -0.1691085 0.4730091 -2.067588e-08 -0.8810576 
-0.177713 -0.01976549 -0.1691085 -0.4772923 2.086311e-08 -0.8787446 
-0.186344 -0.02934749 -0.1625165 -0.6362986 -0.4411714 -0.6328443 
-0.1929359 -0.01976549 -0.1538855 -0.8652472 3.782116e-08 -0.5013454 
-0.03375006 -0.0197655 0.1538865 -0.8148417 3.561786e-08 0.5796835 
-0.026765 -0.0293475 0.1625175 -0.6419276 -0.348558 0.6829615 
-0.01800299 -0.0197655 0.1691094 -0.5110094 2.233693e-08 0.8595752 
-0.008838065 -0.0293475 0.1732875 -0.2651908 -0.3927859 0.8805641 
-0.0006439762 -0.0197655 0.1746804 -9.65655e-06 4.201905e-13 1 
0.007550947 -0.0293475 0.1732875 0.2651272 -0.3925201 0.8807018 
0.016716 -0.0197655 0.1691094 0.5110093 -2.233693e-08 0.8595752 
0.007550947 -0.001018502 0.1732875 0.2936538 -1.283602e-08 0.9559119 
0.016716 0.0179825 0.1691094 0.5110093 -2.233693e-08 0.8595752 
0.025478 -0.001018502 0.1625175 0.694486 -3.035695e-08 0.7195063 
-0.008838065 -0.001018502 0.1732875 -0.2936631 1.283642e-08 0.955909 
-0.0006439762 0.0179825 0.1746804 -9.656551e-06 4.201905e-13 1 
-0.026765 -0.001018502 0.1625175 -0.6944861 3.035695e-08 0.7195061 
-0.01800299 0.0179825 0.1691094 -0.5110094 2.233693e-08 0.8595752 
-0.04003895 -0.001018502 0.1437725 -0.8524818 3.726316e-08 0.5227569 
-0.03375006 0.0179825 0.1538865 -0.8148417 3.561786e-08 0.5796835 
-0.186344 -0.001018494 -0.1625165 -0.7071068 3.090862e-08 -0.7071068 
-0.1929359 0.0179825 -0.1538855 -0.8652472 3.782116e-08 -0.5013454 
-0.197152 -0.001018494 -0.1438595 -0.9642209 4.214743e-08 -0.2651002 
-0.166007 -0.001018494 -0.1732875 -0.2137109 9.341599e-09 -0.976897 
-0.177713 0.0179825 -0.1691085 -0.4772923 2.086311e-08 -0.8787446 
0.166067 -0.001018509 -0.1732875 0.2061485 -9.011034e-09 -0.9785208 
0.178143 0.01798249 -0.1691085 0.4730091 -2.067588e-08 -0.8810576 
0.186774 -0.001018509 -0.1625165 0.7071053 -3.090855e-08 -0.7071083 
0.197474 -0.001018509 -0.1438595 0.9691587 -4.236327e-08 -0.2464375 
0.1933661 0.01798249 -0.1538855 0.8675417 -3.792145e-08 -0.4973644 
0.03246295 0.0179825 0.1538865 0.8148487 -3.561817e-08 0.5796738 
0.03903197 -0.001018502 0.1433215 0.8521423 -3.724832e-08 0.5233102 
-0.198655 0.0179825 -0.1330816 -0.9999918 4.371103e-08 0.004052578 
-0.196977 -0.001018494 -0.1217225 -0.9594113 4.19372e-08 0.2820106 
0.197275 -0.001018509 -0.1227705 0.9656019 -4.220779e-08 0.2600251 
0.198655 0.01798249 -0.1330815 0.9999286 -4.370826e-08 0.01195126 
0.04654896 0.0179825 0.1309275 0.8561782 -3.742473e-08 0.5166807 
0.06935298 -0.001018509 0.09294948 0.8573258 -3.74749e-08 0.5147743 
0.1217819 0.01798249 0.005630498 0.8573297 -3.747507e-08 0.5147679 
0.173382 -0.001018509 -0.08030748 0.8573306 -3.74751e-08 0.5147664 
0.193698 0.01798249 -0.1141435 0.8929713 -3.903302e-08 0.4501136 
0.1491411 0.01798249 -0.1746805 0.04104646 -1.794196e-09 -0.9991572 
0.101863 -0.001018509 -0.1746805 4.371139e-08 0 -1 
-0.001265995 0.0179825 -0.1746805 4.371139e-08 0 -1 
-0.104024 -0.001018502 -0.1746805 4.371139e-08 0 -1 
-0.1501909 0.0179825 -0.1746805 -0.04391072 1.9194e-09 -0.9990355 
-0.191648 0.0179825 -0.1099515 -0.8861912 3.873664e-08 0.4633198 
-0.16992 -0.001018494 -0.07356847 -0.8585488 3.752836e-08 0.5127319 
-0.119041 0.0179825 0.01162552 -0.8585491 3.752837e-08 0.5127313 
-0.06823302 -0.001018502 0.09670249 -0.8585461 3.752824e-08 0.5127364 
-0.04671598 0.0179825 0.1327305 -0.8571314 3.74664e-08 0.5150978 
-0.06823302 0.0283295 0.09670249 -0.8293909 0.258386 0.4953254 
-0.04568196 0.0328445 0.1293894 -0.4975888 0.8143315 0.2987804 
-0.04003895 0.0283295 0.1437725 -0.8225478 0.2608292 0.5053547 
-0.16992 0.0283295 -0.07356847 -0.8294007 0.2583582 0.4953237 
-0.116397 0.0328445 0.01097953 -0.4983752 0.8142703 0.2976341 
-0.196977 0.0283295 -0.1217225 -0.9113956 0.3273714 0.2493713 
-0.187389 0.0328445 -0.1078925 -0.5037735 0.8196814 0.2726439 
-0.104024 0.0283295 -0.1746805 5.550764e-08 0.3237105 -0.9461562 
-0.146855 0.0328445 -0.1711814 -0.01719267 0.8651192 -0.5012717 
-0.166007 0.0283295 -0.1732875 -0.2115299 0.3597872 -0.90874 
0.101863 0.02832949 -0.1746805 5.550764e-08 0.3237105 -0.9461562 
-0.001242034 0.03284449 -0.1711814 5.976418e-08 0.8643441 -0.502901 
0.166067 0.02832949 -0.1732875 0.2045922 0.3589744 -0.9106478 
0.145818 0.03284449 -0.1711814 0.01609688 0.8650655 -0.5014007 
0.173382 0.02832949 -0.08030748 0.8284103 0.2575426 0.4974014 
0.189384 0.03284449 -0.1119915 0.505159 0.8206235 0.2671918 
0.197275 0.02832949 -0.1227705 0.9148338 0.3322554 0.229533 
0.06935298 0.02832949 0.09294948 0.8283947 0.2575884 0.4974037 
0.119067 0.03284449 0.005117541 0.4984679 0.8136035 0.2992976 
0.03903197 0.0283295 0.1433215 0.8225348 0.259655 0.5059801 
0.04550898 0.03284449 0.1276264 0.4978662 0.8136217 0.3002483 
0.194231 0.03284449 -0.1305085 0.46452 0.8853997 0.0169859 
0.197474 0.02832949 -0.1438595 0.8895605 0.392728 -0.2333384 
-0.197152 0.0283295 -0.1438595 -0.8845662 0.3940464 -0.2495395 
-0.194239 0.0328445 -0.1305086 -0.467996 0.8835924 0.01562501 
0.025478 0.0283295 0.1625175 0.6522744 0.3064885 0.6932554 
0.03173601 0.03284449 0.1500745 0.4715197 0.818853 0.327336 
0.189059 0.03284449 -0.1508494 0.3595945 0.9105889 -0.2037641 
0.186774 0.02832949 -0.1625165 0.6488133 0.4034452 -0.6451924 
0.174175 0.03284449 -0.1657334 0.199513 0.8969657 -0.3945212 
-0.173764 0.0328445 -0.1657335 -0.2015225 0.8974488 -0.3923956 
-0.186344 0.0283295 -0.1625165 -0.6489565 0.4028879 -0.6453966 
-0.188648 0.0328445 -0.1508495 -0.3586189 0.9105743 -0.205541 
-0.03300405 0.0328445 0.1500745 -0.47034 0.8198481 0.3265416 
-0.026765 0.0283295 0.1625175 -0.652162 0.3072931 0.6930048 
-0.01760805 0.03284449 0.1649584 -0.2636388 0.8642371 0.4284727 
-0.008838065 0.0283295 0.1732875 -0.2700177 0.3521384 0.8961524 
-0.0006339625 0.03284449 0.1704064 6.921556e-05 0.8791701 0.4765081 
0.007550947 0.0283295 0.1732875 0.2699522 0.3518641 0.8962798 
0.01634001 0.03284449 0.1649584 0.2640843 0.8638055 0.4290683 
0.02319204 0.03434949 0.1465035 0.06237065 0.9963678 0.05797661 
0.006860011 0.03434949 0.1563155 0.0209376 0.9978086 0.0627655 
0.01292002 0.03434949 0.1272815 4.371139e-08 1 1.910686e-15 
-0.008070952 0.03434949 0.1563155 -0.02088054 0.9978154 0.06267679 
-0.0005470572 0.03434949 0.1316034 4.371139e-08 1 1.910686e-15 
-0.02440203 0.0343495 0.1465035 -0.06205322 0.996402 0.05772848 
-0.01401401 0.03434949 0.1272815 4.371139e-08 1 1.910686e-15 
-0.03649498 0.0343495 0.1294264 -0.08091827 0.9955016 0.04928401 
-0.02622998 0.0343495 0.1154725 4.371139e-08 1 1.910686e-15 
-0.179625 0.0343495 -0.1326065 -0.05333584 0.9984912 -0.01306051 
-0.1697789 0.0343495 -0.1496035 -0.03640382 0.9986417 -0.0372762 
-0.149719 0.0343495 -0.1232835 4.371139e-08 1 1.910686e-15 
-0.151252 0.0343495 -0.1594155 -0.01075429 0.9977431 -0.06628107 
-0.13791 0.0343495 -0.1350925 4.371139e-08 1 1.910686e-15 
0.170133 0.03434949 -0.1496035 0.03630524 0.9986485 -0.03719085 
0.1512691 0.03434949 -0.1594155 0.01029465 0.9977238 -0.06664225 
0.1381481 0.03434949 -0.1350925 4.371139e-08 1 1.910686e-15 
0.179881 0.03434949 -0.1326065 0.05421769 0.9984578 -0.01193117 
0.1499571 0.03434949 -0.1232835 4.371139e-08 1 1.910686e-15 
0.03553902 0.03434949 0.1290155 0.08124266 0.99546 0.04958829 
0.02513503 0.03434949 0.1154725 4.371139e-08 1 1.910686e-15 
-0.1794651 0.0343495 -0.1124395 -0.07736443 0.9965702 0.02937121 
-0.154155 0.0343495 -0.1071445 4.371139e-08 1 1.910686e-15 
0.1796991 0.03434949 -0.1133945 0.07511539 0.9968374 0.02593855 
0.15406 0.03434949 -0.1071445 4.371139e-08 1 1.910686e-15 
0.01204502 0.03434949 0.06879151 4.371139e-08 1 1.910686e-15 
0.003541943 0.03434949 0.0739305 4.371139e-08 1 1.910686e-15 
-0.004382971 0.03434949 0.0739305 4.371139e-08 1 1.910686e-15 
-0.01288498 0.03434949 0.06879151 4.371139e-08 1 1.910686e-15 
-0.01932395 0.03434949 0.05984151 4.371139e-08 1 1.910686e-15 
-0.09455299 0.0343495 -0.07802153 4.371139e-08 1 1.910686e-15 
-0.08939397 0.0343495 -0.08692349 4.371139e-08 1 1.910686e-15 
-0.07957195 0.0343495 -0.09206247 4.371139e-08 1 1.910686e-15 
0.08937801 0.03434949 -0.08692347 4.371139e-08 1 1.910686e-15 
0.07935203 0.03434949 -0.09206247 4.371139e-08 1 1.910686e-15 
0.09447801 0.03434949 -0.07802152 4.371139e-08 1 1.910686e-15 
0.01863694 0.03434949 0.05959451 4.371139e-08 1 1.910686e-15 
-0.094437 0.0343495 -0.06741846 4.371139e-08 1 1.910686e-15 
0.09440696 0.03434949 -0.06799244 4.371139e-08 1 1.910686e-15 
0.06316102 0.03434949 0.08312654 0.08185042 0.9954322 0.04914559 
0.03606295 0.03434949 0.09766147 4.371139e-08 1 1.910686e-15 
0.03415799 0.03434949 0.03381348 4.371139e-08 1 1.910686e-15 
0.157932 0.03434949 -0.07471048 0.08185074 0.9954321 0.04914636 
0.09442496 0.03434949 0.0004614633 4.371139e-08 1 1.910686e-15 
0.1502141 0.03434949 -0.09245347 4.371139e-08 1 1.910686e-15 
0.081954 0.03434949 -0.04578948 4.371139e-08 1 1.910686e-15 
0.09277905 0.03434949 -0.1606845 4.671035e-08 0.9974662 -0.07114206 
0.115649 0.03434949 -0.1394145 4.371139e-08 1 1.910686e-15 
0.04681898 0.03434949 -0.09282553 4.371139e-08 1 1.910686e-15 
-0.09478604 0.0343495 -0.1606845 4.671035e-08 0.9974662 -0.07114206 
-0.001029962 0.03434949 -0.1394145 4.371139e-08 1 1.910686e-15 
-0.11656 0.0343495 -0.1394145 4.371139e-08 1 1.910686e-15 
-0.04805302 0.0343495 -0.09282553 4.371139e-08 1 1.910686e-15 
-0.154817 0.0343495 -0.06857146 -0.08166294 0.9954661 0.04876944 
-0.14872 0.0343495 -0.08920146 4.371139e-08 1 1.910686e-15 
-0.08059001 0.0343495 -0.04267049 4.371139e-08 1 1.910686e-15 
-0.06217897 0.0343495 0.08654544 -0.08165588 0.9954668 0.04876576 
-0.09239495 0.0343495 0.005112525 4.371139e-08 1 1.910686e-15 
-0.03628803 0.0343495 0.09906045 4.371139e-08 1 1.910686e-15 
-0.03383303 0.0343495 0.03562248 4.371139e-08 1 1.910686e-15 
0.02490699 -0.03309849 0.1585135 0.3541119 -0.8682883 0.3473904 
0.007377975 -0.03309849 0.1690445 0.1318223 -0.9026255 0.409744 
-0.008646019 -0.03309849 0.1690445 -0.1316061 -0.9028228 0.4093786 
-0.02617503 -0.03309849 0.1585135 -0.3532169 -0.8689616 0.3466175 
-0.03915299 -0.03309849 0.1401854 -0.4530128 -0.8473684 0.277031 
-0.19277 -0.03309849 -0.1410465 -0.3663073 -0.92575 -0.09384009 
-0.1822031 -0.03309849 -0.1592885 -0.2559287 -0.931137 -0.2597777 
-0.1623189 -0.03309849 -0.1698195 -0.07832751 -0.9026536 -0.42318 
0.1623681 -0.0330985 -0.1698195 0.07529854 -0.9021256 -0.4248524 
0.182614 -0.0330985 -0.1592885 0.2554087 -0.9314056 -0.2593262 
0.193076 -0.0330985 -0.1410465 0.3709041 -0.9246472 -0.0863591 
0.03815901 -0.03309849 0.1397444 0.4539272 -0.846536 0.278077 
-0.1925991 -0.03309849 -0.1194015 -0.457102 -0.8755699 0.1563178 
0.192881 -0.0330985 -0.1204265 0.4518637 -0.8808604 0.1410825 
0.01926195 -0.0343495 0.1190685 -4.371139e-08 -1 -1.910686e-15 
0.005684966 -0.0343495 0.1272335 -4.371139e-08 -1 -1.910686e-15 
-0.006765014 -0.0343495 0.1272335 -4.371139e-08 -1 -1.910686e-15 
-0.020342 -0.0343495 0.1190685 -4.371139e-08 -1 -1.910686e-15 
-0.03042996 -0.0343495 0.1048575 -4.371139e-08 -1 -1.910686e-15 
-0.149593 -0.03434949 -0.1133335 -4.371139e-08 -1 -1.910686e-15 
-0.1414011 -0.03434949 -0.1274765 -4.371139e-08 -1 -1.910686e-15 
-0.125955 -0.03434949 -0.1356415 -4.371139e-08 -1 -1.910686e-15 
0.12589 -0.0343495 -0.1356415 -4.371139e-08 -1 -1.910686e-15 
0.141623 -0.0343495 -0.1274765 -4.371139e-08 -1 -1.910686e-15 
0.1497331 -0.0343495 -0.1133335 -4.371139e-08 -1 -1.910686e-15 
0.029567 -0.0343495 0.1045075 -4.371139e-08 -1 -1.910686e-15 
-0.149453 -0.03434949 -0.09654249 -4.371139e-08 -1 -1.910686e-15 
0.149588 -0.0343495 -0.09735643 -4.371139e-08 -1 -1.910686e-15 
-0.0002000324 -0.0343495 -0.01813853 -4.371139e-08 -1 -1.910686e-15 
0.06780504 -0.0330985 0.09049347 0.4575024 -0.8457131 0.2747016 
0.05281496 -0.0343495 0.06588745 -4.371139e-08 -1 -1.910686e-15 
0.16952 -0.0330985 -0.07890844 0.457541 -0.8456852 0.2747231 
0.1312131 -0.0343495 -0.06468152 -4.371139e-08 -1 -1.910686e-15 
0.09959198 -0.0330985 -0.1711814 -1.921196e-08 -0.8918499 -0.4523315 
0.07674599 -0.0343495 -0.1367215 -4.371139e-08 -1 -1.910686e-15 
-0.101715 -0.03309849 -0.1711814 -1.921196e-08 -0.8918499 -0.4523316 
-0.07848298 -0.03434949 -0.1367215 -4.371139e-08 -1 -1.910686e-15 
-0.166144 -0.03309849 -0.07231856 -0.457309 -0.8463334 0.2731086 
-0.128709 -0.03434949 -0.0595975 -4.371139e-08 -1 -1.910686e-15 
-0.06672002 -0.03309849 0.09416243 -0.4572837 -0.8463517 0.2730943 
-0.05206597 -0.0343495 0.06873655 -4.371139e-08 -1 -1.910686e-15 
-0.06823302 -0.0197655 0.09670249 -0.8585461 3.752824e-08 0.5127363 
-0.16992 -0.01976549 -0.07356847 -0.8585488 3.752836e-08 0.5127319 
-0.104024 -0.0197655 -0.1746805 4.371139e-08 0 -1 
0.101863 -0.01976551 -0.1746805 4.371139e-08 0 -1 
0.173382 -0.01976551 -0.08030748 0.8573305 -3.747511e-08 0.5147665 
0.06935298 -0.01976551 0.09294948 0.8573258 -3.74749e-08 0.5147743 
0.197275 -0.01976551 -0.1227705 0.9656019 -4.220779e-08 0.2600251 
-0.196977 -0.01976549 -0.1217225 -0.9594113 4.19372e-08 0.2820106 
0.03903197 -0.0197655 0.1433215 0.8521423 -3.724832e-08 0.5233102 
0.197474 -0.01976551 -0.1438595 0.9691587 -4.236327e-08 -0.2464375 
0.186774 -0.01976551 -0.1625165 0.7071054 -3.090855e-08 -0.7071082 
0.166067 -0.01976551 -0.1732875 0.2061485 -9.011035e-09 -0.9785208 
-0.166007 -0.01976549 -0.1732875 -0.2137109 9.341599e-09 -0.976897 
-0.186344 -0.01976549 -0.1625165 -0.7071067 3.090862e-08 -0.7071069 
-0.197152 -0.01976549 -0.1438595 -0.9642209 4.214743e-08 -0.2651002 
-0.04003895 -0.0197655 0.1437725 -0.8524818 3.726316e-08 0.522757 
-0.026765 -0.0197655 0.1625175 -0.6944861 3.035695e-08 0.7195061 
-0.008838065 -0.0197655 0.1732875 -0.2936631 1.283642e-08 0.955909 
0.007550947 -0.0197655 0.1732875 0.2936538 -1.283602e-08 0.9559118 
0.025478 -0.0197655 0.1625175 0.694486 -3.035695e-08 0.7195063 
0.025478 0.0179825 0.1625175 0.694486 -3.035695e-08 0.7195063 
0.007550947 0.0179825 0.1732875 0.2936538 -1.283602e-08 0.9559119 
-0.008838065 0.0179825 0.1732875 -0.2936631 1.283642e-08 0.955909 
-0.026765 0.0179825 0.1625175 -0.6944861 3.035695e-08 0.7195061 
-0.04003895 0.0179825 0.1437725 -0.8524817 3.726316e-08 0.522757 
-0.197152 0.0179825 -0.1438595 -0.9642209 4.214743e-08 -0.2651002 
-0.186344 0.0179825 -0.1625165 -0.7071068 3.090862e-08 -0.7071069 
-0.166007 0.0179825 -0.1732875 -0.2137108 9.341599e-09 -0.976897 
0.166067 0.01798249 -0.1732875 0.2061485 -9.011034e-09 -0.9785208 
0.186774 0.01798249 -0.1625165 0.7071054 -3.090855e-08 -0.7071082 
0.197474 0.01798249 -0.1438595 0.9691587 -4.236327e-08 -0.2464375 
0.03903197 0.0179825 0.1433215 0.8521422 -3.724832e-08 0.5233104 
-0.196977 0.0179825 -0.1217225 -0.9594113 4.19372e-08 0.2820106 
0.197275 0.01798249 -0.1227705 0.9656019 -4.22078e-08 0.2600251 
0.06935298 0.01798249 0.09294948 0.8573258 -3.74749e-08 0.5147743 
0.173382 0.01798249 -0.08030748 0.8573306 -3.74751e-08 0.5147664 
0.101863 0.01798249 -0.1746805 4.371139e-08 0 -1 
-0.104024 0.0179825 -0.1746805 4.371139e-08 0 -1 
-0.16992 0.0179825 -0.07356847 -0.8585488 3.752836e-08 0.5127319 
-0.06823302 0.0179825 0.09670249 -0.8585461 3.752824e-08 0.5127364 
-0.05206597 0.0343495 0.06873655 4.371139e-08 1 1.910686e-15 
-0.06672002 0.0328445 0.09416243 -0.4983608 0.8142821 0.297626 
-0.128709 0.0343495 -0.0595975 4.371139e-08 1 1.910686e-15 
-0.166144 0.0328445 -0.07231856 -0.4983842 0.814263 0.2976389 
-0.07848298 0.0343495 -0.1367215 4.371139e-08 1 1.910686e-15 
-0.101715 0.0328445 -0.1711814 5.976418e-08 0.8643441 -0.502901 
0.07674599 0.03434949 -0.1367215 4.371139e-08 1 1.910686e-15 
0.09959198 0.03284449 -0.1711814 5.976418e-08 0.8643441 -0.502901 
0.1312131 0.03434949 -0.06468152 4.371139e-08 1 1.910686e-15 
0.16952 0.03284449 -0.07890844 0.4985155 0.813564 0.2993258 
0.05281496 0.03434949 0.06588745 4.371139e-08 1 1.910686e-15 
0.06780504 0.03284449 0.09049347 0.4984809 0.8135922 0.2993066 
-0.0002000324 0.03434949 -0.01813853 4.371139e-08 1 1.910686e-15 
0.149588 0.03434949 -0.09735643 4.371139e-08 1 1.910686e-15 
-0.149453 0.0343495 -0.09654249 4.371139e-08 1 1.910686e-15 
0.029567 0.03434949 0.1045075 4.371139e-08 1 1.910686e-15 
0.1497331 0.03434949 -0.1133335 4.371139e-08 1 1.910686e-15 
0.141623 0.03434949 -0.1274765 4.371139e-08 1 1.910686e-15 
0.12589 0.03434949 -0.1356415 4.371139e-08 1 1.910686e-15 
-0.125955 0.0343495 -0.1356415 4.371139e-08 1 1.910686e-15 
-0.1414011 0.0343495 -0.1274765 4.371139e-08 1 1.910686e-15 
-0.149593 0.0343495 -0.1133335 4.371139e-08 1 1.910686e-15 
-0.03042996 0.0343495 0.1048575 4.371139e-08 1 1.910686e-15 
-0.020342 0.0343495 0.1190685 4.371139e-08 1 1.910686e-15 
-0.006765014 0.03434949 0.1272335 4.371139e-08 1 1.910686e-15 
0.005684966 0.03434949 0.1272335 4.371139e-08 1 1.910686e-15 
0.01926195 0.03434949 0.1190685 4.371139e-08 1 1.910686e-15 
0.192881 0.03284449 -0.1204265 0.4995946 0.8526222 0.1531033 
-0.1925991 0.0328445 -0.1194015 -0.5040927 0.8469396 0.1690682 
0.03815901 0.03284449 0.1397444 0.4946139 0.8145237 0.3031639 
0.193076 0.03284449 -0.1410465 0.4205272 0.9018768 -0.09886932 
0.182614 0.03284449 -0.1592885 0.2913236 0.9098953 -0.2953323 
0.1623681 0.03284449 -0.1698195 0.0860059 0.8760588 -0.4744723 
-0.1623189 0.0328445 -0.1698195 -0.08941852 0.8766445 -0.4727566 
-0.1822031 0.0328445 -0.1592885 -0.2918631 0.9095706 -0.2957994 
-0.19277 0.0328445 -0.1410465 -0.4156005 0.9031977 -0.1072851 
-0.03915299 0.0328445 0.1401854 -0.4937582 0.8154268 0.3021294 
-0.02617503 0.0328445 0.1585135 -0.386601 0.8390966 0.3826964 
-0.008646019 0.03284449 0.1690445 -0.1465956 0.8763698 0.4587872 
0.007377975 0.03284449 0.1690445 0.1468049 0.8761468 0.4591461 
0.02490699 0.03284449 0.1585135 0.3874366 0.8383735 0.3834355 
3 0 140 401 
3 0 401 153 
3 0 153 415 
3 0 415 152 
3 0 152 414 
3 0 414 151 
3 0 151 400 
3 0 400 140 
3 1 141 402 
3 1 402 155 
3 1 155 416 
3 1 416 154 
3 1 154 415 
3 1 415 153 
3 1 153 401 
3 1 401 141 
3 2 142 403 
3 2 403 157 
3 2 157 417 
3 2 417 156 
3 2 156 416 
3 2 416 155 
3 2 155 402 
3 2 402 142 
3 3 143 404 
3 3 404 159 
3 3 159 418 
3 3 418 158 
3 3 158 417 
3 3 417 157 
3 3 157 403 
3 3 403 143 
3 4 144 406 
3 4 406 162 
3 4 162 420 
3 4 420 161 
3 4 161 419 
3 4 419 160 
3 4 160 405 
3 4 405 144 
3 5 145 407 
3 5 407 164 
3 5 164 421 
3 5 421 163 
3 5 163 420 
3 5 420 162 
3 5 162 406 
3 5 406 145 
3 6 165 408 
3 6 408 146 
3 6 146 409 
3 6 409 166 
3 6 166 423 
3 6 423 167 
3 6 167 422 
3 6 422 165 
3 7 147 410 
3 7 410 169 
3 7 169 424 
3 7 424 168 
3 7 168 423 
3 7 423 166 
3 7 166 409 
3 7 409 147 
3 8 148 400 
3 8 400 151 
3 8 151 414 
3 8 414 171 
3 8 171 425 
3 8 425 170 
3 8 170 411 
3 8 411 148 
3 9 149 405 
3 9 405 160 
3 9 160 419 
3 9 419 173 
3 9 173 426 
3 9 426 172 
3 9 172 412 
3 9 412 149 
3 10 150 413 
3 10 413 175 
3 10 175 427 
3 10 427 174 
3 10 174 424 
3 10 424 169 
3 10 169 410 
3 10 410 150 
3 11 152 415 
3 11 415 176 
3 11 176 428 
3 11 428 189 
3 11 189 414 
3 11 414 152 
3 12 154 416 
3 12 416 188 
3 12 188 428 
3 12 428 176 
3 12 176 415 
3 12 415 154 
3 13 156 417 
3 13 417 187 
3 13 187 428 
3 13 428 188 
3 13 188 416 
3 13 416 156 
3 14 158 418 
3 14 418 186 
3 14 186 428 
3 14 428 187 
3 14 187 417 
3 14 417 158 
3 15 161 420 
3 15 420 184 
3 15 184 428 
3 15 428 185 
3 15 185 419 
3 15 419 161 
3 16 163 421 
3 16 421 183 
3 16 183 428 
3 16 428 184 
3 16 184 420 
3 16 420 163 
3 17 182 422 
3 17 422 167 
3 17 167 423 
3 17 423 181 
3 17 181 428 
3 17 428 182 
3 18 168 424 
3 18 424 180 
3 18 180 428 
3 18 428 181 
3 18 181 423 
3 18 423 168 
3 19 171 414 
3 19 414 189 
3 19 189 428 
3 19 428 179 
3 19 179 425 
3 19 425 171 
3 20 173 419 
3 20 419 185 
3 20 185 428 
3 20 428 178 
3 20 178 426 
3 20 426 173 
3 21 174 427 
3 21 427 177 
3 21 177 428 
3 21 428 180 
3 21 180 424 
3 21 424 174 
3 22 190 411 
3 22 411 170 
3 22 170 425 
3 22 425 191 
3 22 191 430 
3 22 430 192 
3 22 192 429 
3 22 429 190 
3 23 191 425 
3 23 425 179 
3 23 179 428 
3 23 428 193 
3 23 193 430 
3 23 430 191 
3 24 194 429 
3 24 429 192 
3 24 192 430 
3 24 430 196 
3 24 196 432 
3 24 432 198 
3 24 198 431 
3 24 431 194 
3 25 195 431 
3 25 431 198 
3 25 198 432 
3 25 432 197 
3 25 197 427 
3 25 427 175 
3 25 175 413 
3 25 413 195 
3 26 196 430 
3 26 430 193 
3 26 193 428 
3 26 428 199 
3 26 199 432 
3 26 432 196 
3 27 197 432 
3 27 432 199 
3 27 199 428 
3 27 428 177 
3 27 177 427 
3 27 427 197 
3 28 200 408 
3 28 408 165 
3 28 165 422 
3 28 422 201 
3 28 201 434 
3 28 434 202 
3 28 202 433 
3 28 433 200 
3 29 201 422 
3 29 422 182 
3 29 182 428 
3 29 428 203 
3 29 203 434 
3 29 434 201 
3 30 204 433 
3 30 433 202 
3 30 202 434 
3 30 434 206 
3 30 206 436 
3 30 436 208 
3 30 208 435 
3 30 435 204 
3 31 205 435 
3 31 435 208 
3 31 208 436 
3 31 436 207 
3 31 207 421 
3 31 421 164 
3 31 164 407 
3 31 407 205 
3 32 206 434 
3 32 434 203 
3 32 203 428 
3 32 428 209 
3 32 209 436 
3 32 436 206 
3 33 207 436 
3 33 436 209 
3 33 209 428 
3 33 428 183 
3 33 183 421 
3 33 421 207 
3 34 210 412 
3 34 412 172 
3 34 172 426 
3 34 426 211 
3 34 211 438 
3 34 438 212 
3 34 212 437 
3 34 437 210 
3 35 211 426 
3 35 426 178 
3 35 178 428 
3 35 428 213 
3 35 213 438 
3 35 438 211 
3 36 214 437 
3 36 437 212 
3 36 212 438 
3 36 438 216 
3 36 216 440 
3 36 440 218 
3 36 218 439 
3 36 439 214 
3 37 215 439 
3 37 439 218 
3 37 218 440 
3 37 440 217 
3 37 217 418 
3 37 418 159 
3 37 159 404 
3 37 404 215 
3 38 216 438 
3 38 438 213 
3 38 213 428 
3 38 428 219 
3 38 219 440 
3 38 440 216 
3 39 217 440 
3 39 440 219 
3 39 219 428 
3 39 428 186 
3 39 186 418 
3 39 418 217 
3 40 215 404 
3 40 404 222 
3 40 222 456 
3 40 456 221 
3 40 221 441 
3 40 441 220 
3 40 220 439 
3 40 439 215 
3 41 214 439 
3 41 439 220 
3 41 220 441 
3 41 441 224 
3 41 224 442 
3 41 442 223 
3 41 223 437 
3 41 437 214 
3 42 210 437 
3 42 437 223 
3 42 223 442 
3 42 442 226 
3 42 226 448 
3 42 448 225 
3 42 225 412 
3 42 412 210 
3 43 205 407 
3 43 407 229 
3 43 229 453 
3 43 453 228 
3 43 228 443 
3 43 443 227 
3 43 227 435 
3 43 435 205 
3 44 204 435 
3 44 435 227 
3 44 227 443 
3 44 443 231 
3 44 231 444 
3 44 444 230 
3 44 230 433 
3 44 433 204 
3 45 200 433 
3 45 433 230 
3 45 230 444 
3 45 444 233 
3 45 233 452 
3 45 452 232 
3 45 232 408 
3 45 408 200 
3 46 195 413 
3 46 413 236 
3 46 236 447 
3 46 447 235 
3 46 235 445 
3 46 445 234 
3 46 234 431 
3 46 431 195 
3 47 194 431 
3 47 431 234 
3 47 234 445 
3 47 445 238 
3 47 238 446 
3 47 446 237 
3 47 237 429 
3 47 429 194 
3 48 190 429 
3 48 429 237 
3 48 237 446 
3 48 446 240 
3 48 240 449 
3 48 449 239 
3 48 239 411 
3 48 411 190 
3 49 150 410 
3 49 410 242 
3 49 242 450 
3 49 450 241 
3 49 241 447 
3 49 447 236 
3 49 236 413 
3 49 413 150 
3 50 149 412 
3 50 412 225 
3 50 225 448 
3 50 448 244 
3 50 244 455 
3 50 455 243 
3 50 243 405 
3 50 405 149 
3 51 148 411 
3 51 411 239 
3 51 239 449 
3 51 449 246 
3 51 246 460 
3 51 460 245 
3 51 245 400 
3 51 400 148 
3 52 147 409 
3 52 409 248 
3 52 248 451 
3 52 451 247 
3 52 247 450 
3 52 450 242 
3 52 242 410 
3 52 410 147 
3 53 248 409 
3 53 409 146 
3 53 146 408 
3 53 408 232 
3 53 232 452 
3 53 452 249 
3 53 249 451 
3 53 451 248 
3 54 145 406 
3 54 406 251 
3 54 251 454 
3 54 454 250 
3 54 250 453 
3 54 453 229 
3 54 229 407 
3 54 407 145 
3 55 144 405 
3 55 405 243 
3 55 243 455 
3 55 455 252 
3 55 252 454 
3 55 454 251 
3 55 251 406 
3 55 406 144 
3 56 143 403 
3 56 403 254 
3 56 254 457 
3 56 457 253 
3 56 253 456 
3 56 456 222 
3 56 222 404 
3 56 404 143 
3 57 142 402 
3 57 402 256 
3 57 256 458 
3 57 458 255 
3 57 255 457 
3 57 457 254 
3 57 254 403 
3 57 403 142 
3 58 141 401 
3 58 401 258 
3 58 258 459 
3 58 459 257 
3 58 257 458 
3 58 458 256 
3 58 256 402 
3 58 402 141 
3 59 140 400 
3 59 400 245 
3 59 245 460 
3 59 460 259 
3 59 259 459 
3 59 459 258 
3 59 258 401 
3 59 401 140 
3 60 259 460 
3 60 460 262 
3 60 262 461 
3 60 461 261 
3 60 261 462 
3 60 462 260 
3 60 260 459 
3 60 459 259 
3 61 257 459 
3 61 459 260 
3 61 260 462 
3 61 462 264 
3 61 264 463 
3 61 463 263 
3 61 263 458 
3 61 458 257 
3 62 255 458 
3 62 458 263 
3 62 263 463 
3 62 463 266 
3 62 266 464 
3 62 464 265 
3 62 265 457 
3 62 457 255 
3 63 253 457 
3 63 457 265 
3 63 265 464 
3 63 464 268 
3 63 268 465 
3 63 465 267 
3 63 267 456 
3 63 456 253 
3 64 252 455 
3 64 455 271 
3 64 271 466 
3 64 466 270 
3 64 270 467 
3 64 467 269 
3 64 269 454 
3 64 454 252 
3 65 250 454 
3 65 454 269 
3 65 269 467 
3 65 467 273 
3 65 273 468 
3 65 468 272 
3 65 272 453 
3 65 453 250 
3 66 276 451 
3 66 451 249 
3 66 249 452 
3 66 452 274 
3 66 274 469 
3 66 469 275 
3 66 275 470 
3 66 470 276 
3 67 247 451 
3 67 451 276 
3 67 276 470 
3 67 470 278 
3 67 278 471 
3 67 471 277 
3 67 277 450 
3 67 450 247 
3 68 246 449 
3 68 449 280 
3 68 280 472 
3 68 472 279 
3 68 279 461 
3 68 461 262 
3 68 262 460 
3 68 460 246 
3 69 244 448 
3 69 448 282 
3 69 282 473 
3 69 473 281 
3 69 281 466 
3 69 466 271 
3 69 271 455 
3 69 455 244 
3 70 241 450 
3 70 450 277 
3 70 277 471 
3 70 471 284 
3 70 284 474 
3 70 474 283 
3 70 283 447 
3 70 447 241 
3 71 240 446 
3 71 446 286 
3 71 286 475 
3 71 475 285 
3 71 285 472 
3 71 472 280 
3 71 280 449 
3 71 449 240 
3 72 238 445 
3 72 445 288 
3 72 288 476 
3 72 476 287 
3 72 287 475 
3 72 475 286 
3 72 286 446 
3 72 446 238 
3 73 235 447 
3 73 447 283 
3 73 283 474 
3 73 474 289 
3 73 289 476 
3 73 476 288 
3 73 288 445 
3 73 445 235 
3 74 233 444 
3 74 444 291 
3 74 291 477 
3 74 477 290 
3 74 290 469 
3 74 469 274 
3 74 274 452 
3 74 452 233 
3 75 231 443 
3 75 443 293 
3 75 293 478 
3 75 478 292 
3 75 292 477 
3 75 477 291 
3 75 291 444 
3 75 444 231 
3 76 228 453 
3 76 453 272 
3 76 272 468 
3 76 468 294 
3 76 294 478 
3 76 478 293 
3 76 293 443 
3 76 443 228 
3 77 226 442 
3 77 442 296 
3 77 296 479 
3 77 479 295 
3 77 295 473 
3 77 473 282 
3 77 282 448 
3 77 448 226 
3 78 224 441 
3 78 441 298 
3 78 298 480 
3 78 480 297 
3 78 297 479 
3 78 479 296 
3 78 296 442 
3 78 442 224 
3 79 221 456 
3 79 456 267 
3 79 267 465 
3 79 465 299 
3 79 299 480 
3 79 480 298 
3 79 298 441 
3 79 441 221 
3 80 299 465 
3 80 465 302 
3 80 302 517 
3 80 517 301 
3 80 301 482 
3 80 482 300 
3 80 300 480 
3 80 480 299 
3 81 297 480 
3 81 480 300 
3 81 300 482 
3 81 482 304 
3 81 304 484 
3 81 484 303 
3 81 303 479 
3 81 479 297 
3 82 295 479 
3 82 479 303 
3 82 303 484 
3 82 484 306 
3 82 306 509 
3 82 509 305 
3 82 305 473 
3 82 473 295 
3 83 294 468 
3 83 468 309 
3 83 309 514 
3 83 514 308 
3 83 308 486 
3 83 486 307 
3 83 307 478 
3 83 478 294 
3 84 292 478 
3 84 478 307 
3 84 307 486 
3 84 486 311 
3 84 311 488 
3 84 488 310 
3 84 310 477 
3 84 477 292 
3 85 290 477 
3 85 477 310 
3 85 310 488 
3 85 488 313 
3 85 313 513 
3 85 513 312 
3 85 312 469 
3 85 469 290 
3 86 289 474 
3 86 474 316 
3 86 316 508 
3 86 508 315 
3 86 315 490 
3 86 490 314 
3 86 314 476 
3 86 476 289 
3 87 287 476 
3 87 476 314 
3 87 314 490 
3 87 490 318 
3 87 318 492 
3 87 492 317 
3 87 317 475 
3 87 475 287 
3 88 285 475 
3 88 475 317 
3 88 317 492 
3 88 492 320 
3 88 320 510 
3 88 510 319 
3 88 319 472 
3 88 472 285 
3 89 284 471 
3 89 471 322 
3 89 322 511 
3 89 511 321 
3 89 321 508 
3 89 508 316 
3 89 316 474 
3 89 474 284 
3 90 281 473 
3 90 473 305 
3 90 305 509 
3 90 509 324 
3 90 324 516 
3 90 516 323 
3 90 323 466 
3 90 466 281 
3 91 279 472 
3 91 472 319 
3 91 319 510 
3 91 510 326 
3 91 326 521 
3 91 521 325 
3 91 325 461 
3 91 461 279 
3 92 278 470 
3 92 470 328 
3 92 328 512 
3 92 512 327 
3 92 327 511 
3 92 511 322 
3 92 322 471 
3 92 471 278 
3 93 328 470 
3 93 470 275 
3 93 275 469 
3 93 469 312 
3 93 312 513 
3 93 513 329 
3 93 329 512 
3 93 512 328 
3 94 273 467 
3 94 467 331 
3 94 331 515 
3 94 515 330 
3 94 330 514 
3 94 514 309 
3 94 309 468 
3 94 468 273 
3 95 270 466 
3 95 466 323 
3 95 323 516 
3 95 516 332 
3 95 332 515 
3 95 515 331 
3 95 331 467 
3 95 467 270 
3 96 268 464 
3 96 464 334 
3 96 334 518 
3 96 518 333 
3 96 333 517 
3 96 517 302 
3 96 302 465 
3 96 465 268 
3 97 266 463 
3 97 463 336 
3 97 336 519 
3 97 519 335 
3 97 335 518 
3 97 518 334 
3 97 334 464 
3 97 464 266 
3 98 264 462 
3 98 462 338 
3 98 338 520 
3 98 520 337 
3 98 337 519 
3 98 519 336 
3 98 336 463 
3 98 463 264 
3 99 261 461 
3 99 461 325 
3 99 325 521 
3 99 521 339 
3 99 339 520 
3 99 520 338 
3 99 338 462 
3 99 462 261 
3 100 340 507 
3 100 507 342 
3 100 342 506 
3 100 506 341 
3 100 341 520 
3 100 520 339 
3 100 339 521 
3 100 521 340 
3 101 341 506 
3 101 506 344 
3 101 344 505 
3 101 505 343 
3 101 343 519 
3 101 519 337 
3 101 337 520 
3 101 520 341 
3 102 343 505 
3 102 505 346 
3 102 346 504 
3 102 504 345 
3 102 345 518 
3 102 518 335 
3 102 335 519 
3 102 519 343 
3 103 345 504 
3 103 504 348 
3 103 348 503 
3 103 503 347 
3 103 347 517 
3 103 517 333 
3 103 333 518 
3 103 518 345 
3 104 349 502 
3 104 502 351 
3 104 351 501 
3 104 501 350 
3 104 350 515 
3 104 515 332 
3 104 332 516 
3 104 516 349 
3 105 350 501 
3 105 501 353 
3 105 353 500 
3 105 500 352 
3 105 352 514 
3 105 514 330 
3 105 330 515 
3 105 515 350 
3 106 356 498 
3 106 498 354 
3 106 354 512 
3 106 512 329 
3 106 329 513 
3 106 513 355 
3 106 355 499 
3 106 499 356 
3 107 354 498 
3 107 498 358 
3 107 358 497 
3 107 497 357 
3 107 357 511 
3 107 511 327 
3 107 327 512 
3 107 512 354 
3 108 359 496 
3 108 496 360 
3 108 360 507 
3 108 507 340 
3 108 340 521 
3 108 521 326 
3 108 326 510 
3 108 510 359 
3 109 361 495 
3 109 495 362 
3 109 362 502 
3 109 502 349 
3 109 349 516 
3 109 516 324 
3 109 324 509 
3 109 509 361 
3 110 357 497 
3 110 497 364 
3 110 364 494 
3 110 494 363 
3 110 363 508 
3 110 508 321 
3 110 321 511 
3 110 511 357 
3 111 365 493 
3 111 493 366 
3 111 366 506 
3 111 506 342 
3 111 342 507 
3 111 507 365 
3 112 366 493 
3 112 493 367 
3 112 367 505 
3 112 505 344 
3 112 344 506 
3 112 506 366 
3 113 367 493 
3 113 493 368 
3 113 368 504 
3 113 504 346 
3 113 346 505 
3 113 505 367 
3 114 368 493 
3 114 493 369 
3 114 369 503 
3 114 503 348 
3 114 348 504 
3 114 504 368 
3 115 370 493 
3 115 493 371 
3 115 371 501 
3 115 501 351 
3 115 351 502 
3 115 502 370 
3 116 371 493 
3 116 493 372 
3 116 372 500 
3 116 500 353 
3 116 353 501 
3 116 501 371 
3 117 374 493 
3 117 493 373 
3 117 373 498 
3 117 498 356 
3 117 356 499 
3 117 499 374 
3 118 373 493 
3 118 493 375 
3 118 375 497 
3 118 497 358 
3 118 358 498 
3 118 498 373 
3 119 376 493 
3 119 493 365 
3 119 365 507 
3 119 507 360 
3 119 360 496 
3 119 496 376 
3 120 377 493 
3 120 493 370 
3 120 370 502 
3 120 502 362 
3 120 362 495 
3 120 495 377 
3 121 375 493 
3 121 493 378 
3 121 378 494 
3 121 494 364 
3 121 364 497 
3 121 497 375 
3 122 379 491 
3 122 491 380 
3 122 380 496 
3 122 496 359 
3 122 359 510 
3 122 510 320 
3 122 320 492 
3 122 492 379 
3 123 381 493 
3 123 493 376 
3 123 376 496 
3 123 496 380 
3 123 380 491 
3 123 491 381 
3 124 382 489 
3 124 489 383 
3 124 383 491 
3 124 491 379 
3 124 379 492 
3 124 492 318 
3 124 318 490 
3 124 490 382 
3 125 363 494 
3 125 494 384 
3 125 384 489 
3 125 489 382 
3 125 382 490 
3 125 490 315 
3 125 315 508 
3 125 508 363 
3 126 385 493 
3 126 493 381 
3 126 381 491 
3 126 491 383 
3 126 383 489 
3 126 489 385 
3 127 378 493 
3 127 493 385 
3 127 385 489 
3 127 489 384 
3 127 384 494 
3 127 494 378 
3 128 386 487 
3 128 487 387 
3 128 387 499 
3 128 499 355 
3 128 355 513 
3 128 513 313 
3 128 313 488 
3 128 488 386 
3 129 388 493 
3 129 493 374 
3 129 374 499 
3 129 499 387 
3 129 387 487 
3 129 487 388 
3 130 389 485 
3 130 485 390 
3 130 390 487 
3 130 487 386 
3 130 386 488 
3 130 488 311 
3 130 311 486 
3 130 486 389 
3 131 352 500 
3 131 500 391 
3 131 391 485 
3 131 485 389 
3 131 389 486 
3 131 486 308 
3 131 308 514 
3 131 514 352 
3 132 392 493 
3 132 493 388 
3 132 388 487 
3 132 487 390 
3 132 390 485 
3 132 485 392 
3 133 372 493 
3 133 493 392 
3 133 392 485 
3 133 485 391 
3 133 391 500 
3 133 500 372 
3 134 393 483 
3 134 483 394 
3 134 394 495 
3 134 495 361 
3 134 361 509 
3 134 509 306 
3 134 306 484 
3 134 484 393 
3 135 395 493 
3 135 493 377 
3 135 377 495 
3 135 495 394 
3 135 394 483 
3 135 483 395 
3 136 396 481 
3 136 481 397 
3 136 397 483 
3 136 483 393 
3 136 393 484 
3 136 484 304 
3 136 304 482 
3 136 482 396 
3 137 347 503 
3 137 503 398 
3 137 398 481 
3 137 481 396 
3 137 396 482 
3 137 482 301 
3 137 301 517 
3 137 517 347 
3 138 399 493 
3 138 493 395 
3 138 395 483 
3 138 483 397 
3 138 397 481 
3 138 481 399 
3 139 369 493 
3 139 493 399 
3 139 399 481 
3 139 481 398 
3 139 398 503 
3 139 503 369 
