ply
format ascii 1.0
comment VCGLIB generated
element vertex 38
property float x
property float y
property float z
property float nx
property float ny
property float nz
property float texture_u
property float texture_v
element face 72
property list uchar int vertex_indices
end_header
49.92154 7 48.5359 0 1 1.21324e-07 52 52
49.92154 1 48.5359 0 -1 -8.742278e-08 52 52
52.92154 1 48.5359 1 0 0 55 52
52.87596 1 48.01495 0.9848078 3.425023e-08 -0.1736482 54.95442 51.47905
52.74062 1 47.50984 0.9396927 4.896977e-08 -0.3420202 54.81908 50.97394
52.51962 1 47.0359 0.8660254 4.371138e-08 -0.4999999 54.59808 50.5
52.21967 1 46.60754 0.7660445 5.619427e-08 -0.6427876 54.29813 50.07164
51.8499 1 46.23777 0.6427876 6.696974e-08 -0.7660445 53.92836 49.70187
51.42154 1 45.93782 0.4999999 7.571036e-08 -0.8660254 53.5 49.40192
50.9476 1 45.71682 0.3420202 1.0122e-07 -0.9396927 53.02606 49.18092
50.44248 1 45.58148 0.1736482 1.05164e-07 -0.9848078 52.52094 49.04558
49.92154 1 45.5359 0 8.742278e-08 -1 52 49
49.4006 1 45.58148 -0.1736482 1.05164e-07 -0.9848078 51.47906 49.04558
48.89548 1 45.71682 -0.3420202 1.0122e-07 -0.9396927 50.97394 49.18092
48.42154 1 45.93782 -0.4999999 7.571036e-08 -0.8660254 50.5 49.40192
47.99318 1 46.23777 -0.6427876 6.696974e-08 -0.7660445 50.07164 49.70187
47.62341 1 46.60754 -0.7660445 5.619427e-08 -0.6427876 49.70187 50.07164
47.32346 1 47.0359 -0.8660254 4.371138e-08 -0.4999999 49.40192 50.5
47.10246 1 47.50984 -0.9396927 4.896977e-08 -0.3420202 49.18092 50.97394
46.96712 1 48.01495 -0.9848078 3.425023e-08 -0.1736482 49.04558 51.47905
46.92154 1 48.5359 -1 0 0 49 52
46.96712 1 49.05684 -0.9848078 3.888605e-09 0.1736482 49.04558 52.52094
47.10246 1 49.56196 -0.9396927 -1.083094e-08 0.3420202 49.18092 53.02606
47.32346 0.9999998 50.0359 -0.8660254 -4.371138e-08 0.4999999 49.40192 53.5
47.62341 0.9999998 50.46426 -0.7660445 -5.619427e-08 0.6427876 49.70187 53.92836
47.99318 0.9999998 50.83403 -0.6427876 -6.696974e-08 0.7660445 50.07164 54.29813
48.42154 0.9999998 51.13398 -0.4999999 -7.571036e-08 0.8660254 50.5 54.59808
48.89548 0.9999998 51.35498 -0.3420202 -6.308112e-08 0.9396927 50.97394 54.81908
49.4006 0.9999998 51.49032 -0.1736482 -6.702521e-08 0.9848078 51.47906 54.95442
49.92154 0.9999998 51.5359 0 -8.742278e-08 1 52 55
50.44248 0.9999998 51.49032 0.1736482 -6.702521e-08 0.9848078 52.52094 54.95442
50.9476 0.9999998 51.35498 0.3420202 -6.308112e-08 0.9396927 53.02606 54.81908
51.42154 0.9999998 51.13398 0.4999999 -7.571036e-08 0.8660254 53.5 54.59808
51.8499 0.9999998 50.83403 0.6427876 -6.696974e-08 0.7660445 53.92836 54.29813
52.21967 0.9999998 50.46426 0.7660445 -5.619427e-08 0.6427876 54.29813 53.92836
52.51962 0.9999998 50.0359 0.8660254 -4.371138e-08 0.4999999 54.59808 53.5
52.74062 1 49.56196 0.9396927 -1.083094e-08 0.3420202 54.81908 53.02606
52.87596 1 49.05684 0.9848078 3.888605e-09 0.1736482 54.95442 52.52094
3 1 3 2 
3 1 4 3 
3 1 5 4 
3 1 6 5 
3 1 7 6 
3 1 8 7 
3 1 9 8 
3 1 10 9 
3 1 11 10 
3 1 12 11 
3 1 13 12 
3 1 14 13 
3 1 15 14 
3 1 16 15 
3 1 17 16 
3 1 18 17 
3 1 19 18 
3 1 20 19 
3 1 21 20 
3 1 22 21 
3 1 23 22 
3 1 24 23 
3 1 25 24 
3 1 26 25 
3 1 27 26 
3 1 28 27 
3 1 29 28 
3 1 30 29 
3 1 31 30 
3 1 32 31 
3 1 33 32 
3 1 34 33 
3 1 35 34 
3 1 36 35 
3 1 37 36 
3 1 2 37 
3 0 2 3 
3 0 3 4 
3 0 4 5 
3 0 5 6 
3 0 6 7 
3 0 7 8 
3 0 8 9 
3 0 9 10 
3 0 10 11 
3 0 11 12 
3 0 12 13 
3 0 13 14 
3 0 14 15 
3 0 15 16 
3 0 16 17 
3 0 17 18 
3 0 18 19 
3 0 19 20 
3 0 20 21 
3 0 21 22 
3 0 22 23 
3 0 23 24 
3 0 24 25 
3 0 25 26 
3 0 26 27 
3 0 27 28 
3 0 28 29 
3 0 29 30 
3 0 30 31 
3 0 31 32 
3 0 32 33 
3 0 33 34 
3 0 34 35 
3 0 35 36 
3 0 36 37 
3 0 37 2 
