ply
format ascii 1.0
comment VCGLIB generated
element vertex 74
property float x
property float y
property float z
property float nx
property float ny
property float nz
property float texture_u
property float texture_v
element face 144
property list uchar int vertex_indices
end_header
30.65952 1 32 0 -1 0 75 32
30.65952 7 32 0 1 0 75 32
33.65952 1 32 0.9483204 -0.3161069 0.02765581 78 32
33.61395 1 32.52094 0.929111 -0.3161068 0.1919096 77.95442 32.52094
33.4786 1 33.02606 0.8816709 -0.3161068 0.3503327 77.81908 33.02606
33.25761 1 33.5 0.8074418 -0.3161068 0.4981108 77.59808 33.5
32.95765 1 33.92836 0.7086789 -0.3161068 0.6307542 77.29813 33.92836
32.58788 1 34.29813 0.588383 -0.3161068 0.7442325 76.92836 34.29813
32.15952 1 34.59808 0.4502098 -0.3161068 0.8350974 76.5 34.59808
31.68558 1 34.81908 0.2983567 -0.3161069 0.9005886 76.02606 34.81908
31.18046 1 34.95442 0.1374385 -0.3161068 0.9387157 75.52094 34.95442
30.65952 1 35 -0.02765581 -0.3161069 0.9483204 75 35
30.13858 1 34.95442 -0.1919096 -0.3161068 0.929111 74.47906 34.95442
29.63346 1 34.81908 -0.3503327 -0.3161068 0.8816708 73.97394 34.81908
29.15952 1 34.59808 -0.4981108 -0.3161068 0.8074418 73.5 34.59808
28.73116 1 34.29813 -0.6307542 -0.3161068 0.7086789 73.07164 34.29813
28.36139 1 33.92836 -0.7442325 -0.3161068 0.588383 72.70187 33.92836
28.06144 1 33.5 -0.8350974 -0.3161068 0.4502098 72.40192 33.5
27.84044 1 33.02606 -0.9005886 -0.3161069 0.2983567 72.18092 33.02606
27.7051 1 32.52094 -0.9387157 -0.3161068 0.1374385 72.04558 32.52094
27.65952 1 32 -0.9483204 -0.3161069 -0.02765581 72 32
27.7051 1 31.47906 -0.929111 -0.3161068 -0.1919096 72.04558 31.47906
27.84044 1 30.97394 -0.8816709 -0.3161068 -0.3503327 72.18092 30.97394
28.06144 1 30.5 -0.8074418 -0.3161068 -0.4981108 72.40192 30.5
28.36139 1 30.07164 -0.7086789 -0.3161068 -0.6307542 72.70187 30.07164
28.73116 1 29.70187 -0.588383 -0.3161068 -0.7442325 73.07164 29.70187
29.15952 1 29.40192 -0.4502098 -0.3161068 -0.8350974 73.5 29.40192
29.63346 1 29.18092 -0.2983567 -0.3161069 -0.9005886 73.97394 29.18092
30.13858 1 29.04558 -0.1374385 -0.3161068 -0.9387157 74.47906 29.04558
30.65952 1 29 0.02765581 -0.3161069 -0.9483204 75 29
31.18046 1 29.04558 0.1919096 -0.3161068 -0.929111 75.52094 29.04558
31.68558 1 29.18092 0.3503327 -0.3161068 -0.8816708 76.02606 29.18092
32.15952 1 29.40192 0.4981108 -0.3161068 -0.8074418 76.5 29.40192
32.58788 1 29.70187 0.6307542 -0.3161068 -0.7086789 76.92836 29.70187
32.95765 1 30.07164 0.7442325 -0.3161068 -0.588383 77.29813 30.07164
33.25761 1 30.5 0.8350974 -0.3161068 -0.4502098 77.59808 30.5
33.4786 1 30.97394 0.9005886 -0.3161069 -0.2983567 77.81908 30.97394
33.61395 1 31.47906 0.9387157 -0.3161068 -0.1374385 77.95442 31.47906
33.65952 7 32 0.9483204 0.3161069 -0.02765581 78 32
33.61395 7 32.52094 0.9387157 0.3161068 0.1374385 77.95442 32.52094
33.4786 7 33.02606 0.9005886 0.3161068 0.2983567 77.81908 33.02606
33.25761 7 33.5 0.8350974 0.3161068 0.4502098 77.59808 33.5
32.95765 7 33.92836 0.7442325 0.3161068 0.588383 77.29813 33.92836
32.58788 7 34.29813 0.6307542 0.3161068 0.7086789 76.92836 34.29813
32.15952 7 34.59808 0.4981108 0.3161068 0.8074418 76.5 34.59808
31.68558 7 34.81908 0.3503327 0.3161068 0.8816708 76.02606 34.81908
31.18046 7 34.95442 0.1919096 0.3161068 0.929111 75.52094 34.95442
30.65952 7 35 0.02765581 0.3161069 0.9483204 75 35
30.13858 7 34.95442 -0.1374385 0.3161068 0.9387157 74.47906 34.95442
29.63346 7 34.81908 -0.2983567 0.3161068 0.9005886 73.97394 34.81908
29.15952 7 34.59808 -0.4502098 0.3161068 0.8350974 73.5 34.59808
28.73116 7 34.29813 -0.588383 0.3161068 0.7442325 73.07164 34.29813
28.36139 7 33.92836 -0.7086789 0.3161068 0.6307542 72.70187 33.92836
28.06144 7 33.5 -0.8074418 0.3161068 0.4981108 72.40192 33.5
27.84044 7 33.02606 -0.8816709 0.3161068 0.3503327 72.18092 33.02606
27.7051 7 32.52094 -0.929111 0.3161068 0.1919096 72.04558 32.52094
27.65952 7 32 -0.9483204 0.3161069 0.02765581 72 32
27.7051 7 31.47906 -0.9387157 0.3161068 -0.1374385 72.04558 31.47906
27.84044 7 30.97394 -0.9005886 0.3161068 -0.2983567 72.18092 30.97394
28.06144 7 30.5 -0.8350974 0.3161068 -0.4502098 72.40192 30.5
28.36139 7 30.07164 -0.7442325 0.3161068 -0.588383 72.70187 30.07164
28.73116 7 29.70187 -0.6307542 0.3161068 -0.7086789 73.07164 29.70187
29.15952 7 29.40192 -0.4981108 0.3161068 -0.8074418 73.5 29.40192
29.63346 7 29.18092 -0.3503327 0.3161068 -0.8816708 73.97394 29.18092
30.13858 7 29.04558 -0.1919096 0.3161068 -0.929111 74.47906 29.04558
30.65952 7 29 -0.02765581 0.3161069 -0.9483204 75 29
31.18046 7 29.04558 0.1374385 0.3161068 -0.9387157 75.52094 29.04558
31.68558 7 29.18092 0.2983567 0.3161068 -0.9005886 76.02606 29.18092
32.15952 7 29.40192 0.4502098 0.3161068 -0.8350974 76.5 29.40192
32.58788 7 29.70187 0.588383 0.3161068 -0.7442325 76.92836 29.70187
32.95765 7 30.07164 0.7086789 0.3161068 -0.6307542 77.29813 30.07164
33.25761 7 30.5 0.8074418 0.3161068 -0.4981108 77.59808 30.5
33.4786 7 30.97394 0.8816709 0.3161068 -0.3503327 77.81908 30.97394
33.61395 7 31.47906 0.929111 0.3161068 -0.1919096 77.95442 31.47906
3 0 2 3 
3 0 3 4 
3 0 4 5 
3 0 5 6 
3 0 6 7 
3 0 7 8 
3 0 8 9 
3 0 9 10 
3 0 10 11 
3 0 11 12 
3 0 12 13 
3 0 13 14 
3 0 14 15 
3 0 15 16 
3 0 16 17 
3 0 17 18 
3 0 18 19 
3 0 19 20 
3 0 20 21 
3 0 21 22 
3 0 22 23 
3 0 23 24 
3 0 24 25 
3 0 25 26 
3 0 26 27 
3 0 27 28 
3 0 28 29 
3 0 29 30 
3 0 30 31 
3 0 31 32 
3 0 32 33 
3 0 33 34 
3 0 34 35 
3 0 35 36 
3 0 36 37 
3 0 37 2 
3 1 39 38 
3 1 40 39 
3 1 41 40 
3 1 42 41 
3 1 43 42 
3 1 44 43 
3 1 45 44 
3 1 46 45 
3 1 47 46 
3 1 48 47 
3 1 49 48 
3 1 50 49 
3 1 51 50 
3 1 52 51 
3 1 53 52 
3 1 54 53 
3 1 55 54 
3 1 56 55 
3 1 57 56 
3 1 58 57 
3 1 59 58 
3 1 60 59 
3 1 61 60 
3 1 62 61 
3 1 63 62 
3 1 64 63 
3 1 65 64 
3 1 66 65 
3 1 67 66 
3 1 68 67 
3 1 69 68 
3 1 70 69 
3 1 71 70 
3 1 72 71 
3 1 73 72 
3 1 38 73 
3 2 38 39 
3 2 39 3 
3 3 39 40 
3 3 40 4 
3 4 40 41 
3 4 41 5 
3 5 41 42 
3 5 42 6 
3 6 42 43 
3 6 43 7 
3 7 43 44 
3 7 44 8 
3 8 44 45 
3 8 45 9 
3 9 45 46 
3 9 46 10 
3 10 46 47 
3 10 47 11 
3 11 47 48 
3 11 48 12 
3 12 48 49 
3 12 49 13 
3 13 49 50 
3 13 50 14 
3 14 50 51 
3 14 51 15 
3 15 51 52 
3 15 52 16 
3 16 52 53 
3 16 53 17 
3 17 53 54 
3 17 54 18 
3 18 54 55 
3 18 55 19 
3 19 55 56 
3 19 56 20 
3 20 56 57 
3 20 57 21 
3 21 57 58 
3 21 58 22 
3 22 58 59 
3 22 59 23 
3 23 59 60 
3 23 60 24 
3 24 60 61 
3 24 61 25 
3 25 61 62 
3 25 62 26 
3 26 62 63 
3 26 63 27 
3 27 63 64 
3 27 64 28 
3 28 64 65 
3 28 65 29 
3 29 65 66 
3 29 66 30 
3 30 66 67 
3 30 67 31 
3 31 67 68 
3 31 68 32 
3 32 68 69 
3 32 69 33 
3 33 69 70 
3 33 70 34 
3 34 70 71 
3 34 71 35 
3 35 71 72 
3 35 72 36 
3 36 72 73 
3 36 73 37 
3 37 73 38 
3 37 38 2 
