ply
format ascii 1.0
comment VCGLIB generated
element vertex 8
property float x
property float y
property float z
property float nx
property float ny
property float nz
property float texture_u
property float texture_v
element face 12
property list uchar int vertex_indices
end_header
38.3045 1 11.9893 -0.9753429 -0.1560549 -0.1560549 55.625 78.5
57.0545 1 11.9893 0.9110507 -0.2915362 -0.2915362 74.375 78.5
38.3045 4 11.9893 -0.984374 0.07874995 -0.1574999 55.625 78.5
57.0545 4 11.9893 0.984374 0.1574999 -0.07874995 74.375 78.5
38.3045 1 14.9893 -0.984374 -0.1574999 0.07874995 55.625 81.5
57.0545 1 14.9893 0.984374 -0.07874995 0.1574999 74.375 81.5
38.3045 4 14.9893 -0.9110507 0.2915362 0.2915362 55.625 81.5
57.0545 4 14.9893 0.9753429 0.1560549 0.1560549 74.375 81.5
3 2 1 0 
3 1 2 3 
3 4 2 0 
3 2 4 6 
3 1 4 0 
3 4 1 5 
3 6 5 7 
3 5 6 4 
3 3 6 7 
3 6 3 2 
3 5 3 7 
3 3 5 1 
