ply
format ascii 1.0
comment VCGLIB generated
element vertex 8
property float x
property float y
property float z
property float nx
property float ny
property float nz
property float texture_u
property float texture_v
element face 12
property list uchar int vertex_indices
end_header
64 0 64 0.5773503 -0.5773502 0.5773503 0 0
1.222839e-13 0 64 -0.3333333 -0.6666666 0.6666667 64 0
64 12 64 0.6666667 0.3333333 0.6666667 0 0
1.222839e-13 12 64 -0.6666667 0.6666666 0.3333334 64 0
64 0 63 0.6666667 -0.6666666 -0.3333334 0 1
-4.371127e-08 0 63 -0.6666667 -0.3333333 -0.6666667 64 1
64 12 63 0.3333333 0.6666666 -0.6666667 0 1
-4.371127e-08 12 63 -0.5773503 0.5773502 -0.5773503 64 1
3 2 1 0 
3 1 2 3 
3 4 2 0 
3 2 4 6 
3 1 4 0 
3 4 1 5 
3 6 5 7 
3 5 6 4 
3 3 6 7 
3 6 3 2 
3 5 3 7 
3 3 5 1 
