ply
format ascii 1.0
comment VCGLIB generated
element vertex 8
property float x
property float y
property float z
property float nx
property float ny
property float nz
property float texture_u
property float texture_v
element face 12
property list uchar int vertex_indices
end_header
63.99999 0 0 0.5773503 -0.5773501 -0.5773503 0 0
64 0 64 0.6666668 -0.6666666 0.3333333 64 0
63.99999 12 0 0.6666667 0.3333333 -0.6666667 0 0
64 12 64 0.3333335 0.6666666 0.6666667 64 0
62.99999 0 0 -0.3333335 -0.6666666 -0.6666667 0 1
63 0 64 -0.6666667 -0.3333333 0.6666667 64 1
62.99999 12 0 -0.6666668 0.6666666 -0.3333333 0 1
63 12 64 -0.5773503 0.5773501 0.5773503 64 1
3 2 1 0 
3 1 2 3 
3 4 2 0 
3 2 4 6 
3 1 4 0 
3 4 1 5 
3 6 5 7 
3 5 6 4 
3 3 6 7 
3 6 3 2 
3 5 3 7 
3 3 5 1 
