ply
format ascii 1.0
comment VCGLIB generated
element vertex 65
property float x
property float y
property float z
property float nx
property float ny
property float nz
property float texture_u
property float texture_v
element face 62
property list uchar int vertex_indices
end_header
4.768372e-07 0.5411612 -4.299215 4.37908e-07 0.9921708 0.1248886 0.25 0.49
4.768372e-07 -5.960497e-07 1.549721e-05 -2.950085e-07 -4.152483e-07 1 0.25 0.25
0.1062715 0.5307631 -4.299215 0.1923642 0.9733403 0.1249192 0.2968217 0.4853885
0.2084596 0.4999679 -4.299215 0.3775938 0.9174947 0.1250063 0.341844 0.4717311
0.3026366 0.4499593 -4.299215 0.5487444 0.8265714 0.1251373 0.3833368 0.4495527
0.3851836 0.3826591 -4.299215 0.6992686 0.7037936 0.1252921 0.4197056 0.4197056
0.4529276 0.3006531 -4.299215 0.8232549 0.5536373 0.1254475 0.4495527 0.3833368
0.5032656 0.2070936 -4.299215 0.9156953 0.3817486 0.1255795 0.4717311 0.341844
0.5342646 0.1055755 -4.299215 0.97277 0.1947462 0.1256682 0.4853885 0.2968217
0.5447304 3.758493e-07 -4.299215 0.9920685 -7.80442e-08 0.1256991 0.49 0.25
0.5342646 -0.1055747 -4.299215 0.97277 -0.1947462 0.1256682 0.4853885 0.2031783
0.5032656 -0.2070928 -4.299215 0.9156951 -0.3817492 0.1255794 0.4717311 0.158156
0.4529276 -0.3006523 -4.299215 0.823255 -0.5536373 0.1254473 0.4495527 0.1166631
0.3851836 -0.3826583 -4.299215 0.6992686 -0.7037937 0.1252917 0.4197056 0.08029437
0.3026366 -0.4499585 -4.299215 0.548745 -0.8265711 0.1251368 0.3833368 0.05044729
0.2084596 -0.4999671 -4.299215 0.3775945 -0.9174944 0.125006 0.341844 0.0282689
0.1062715 -0.5307624 -4.299215 0.1923624 -0.9733407 0.1249187 0.2968217 0.01461153
4.768372e-07 -0.5411605 -4.299215 4.304223e-07 -0.9921709 0.124888 0.25 0.01000001
-0.1062715 -0.5307624 -4.299215 -0.1923623 -0.9733406 0.1249188 0.2031783 0.01461153
-0.2084594 -0.4999671 -4.299215 -0.3775967 -0.9174935 0.125006 0.158156 0.0282689
-0.3026354 -0.4499585 -4.299215 -0.5487463 -0.8265702 0.1251369 0.1166631 0.05044729
-0.3851824 -0.3826583 -4.299215 -0.6992683 -0.7037939 0.1252919 0.08029439 0.08029437
-0.4529264 -0.3006523 -4.299215 -0.8232529 -0.5536405 0.1254472 0.05044729 0.1166631
-0.5032654 -0.2070928 -4.299215 -0.9156951 -0.3817489 0.1255796 0.02826892 0.158156
-0.5342634 -0.1055747 -4.299215 -0.9727698 -0.1947474 0.1256681 0.01461154 0.2031783
-0.5447304 3.758493e-07 -4.299215 -0.9920684 -7.804422e-08 0.1256993 0.01000001 0.25
-0.5342634 0.1055755 -4.299215 -0.9727698 0.1947474 0.1256681 0.01461154 0.2968217
-0.5032654 0.2070936 -4.299215 -0.9156954 0.3817482 0.1255797 0.02826892 0.341844
-0.4529264 0.3006531 -4.299215 -0.8232528 0.5536405 0.1254475 0.05044729 0.3833368
-0.3851824 0.3826591 -4.299215 -0.6992683 0.7037939 0.125292 0.08029439 0.4197056
-0.3026354 0.4499593 -4.299215 -0.5487459 0.8265704 0.1251373 0.1166631 0.4495527
-0.2084594 0.4999679 -4.299215 -0.377596 0.9174937 0.1250065 0.158156 0.4717311
4.768372e-07 0.5411612 -4.299215 0 8.742278e-08 -1 0.75 0.49
0.1062715 0.5307631 -4.299215 0 1.470274e-07 -1 0.7968217 0.4853885
0.2084596 0.4999679 -4.299215 0 1.470274e-07 -1 0.841844 0.4717311
0.3026366 0.4499593 -4.299215 0 1.470274e-07 -1 0.8833368 0.4495527
0.3851836 0.3826591 -4.299215 0 1.470274e-07 -1 0.9197056 0.4197056
0.4529276 0.3006531 -4.299215 0 1.470274e-07 -1 0.9495527 0.3833368
0.5032656 0.2070936 -4.299215 0 1.470274e-07 -1 0.9717311 0.341844
0.5342646 0.1055755 -4.299215 0 1.470274e-07 -1 0.9853885 0.2968217
0.5447304 3.758493e-07 -4.299215 0 1.470274e-07 -1 0.99 0.25
0.5342646 -0.1055747 -4.299215 0 1.470274e-07 -1 0.9853885 0.2031783
0.5032656 -0.2070928 -4.299215 0 1.470274e-07 -1 0.9717311 0.158156
0.4529276 -0.3006523 -4.299215 0 1.470274e-07 -1 0.9495527 0.1166631
0.3851836 -0.3826583 -4.299215 0 1.470274e-07 -1 0.9197056 0.08029437
0.3026366 -0.4499585 -4.299215 0 1.470274e-07 -1 0.8833368 0.05044729
0.2084596 -0.4999671 -4.299215 0 1.470274e-07 -1 0.841844 0.0282689
0.1062715 -0.5307624 -4.299215 0 1.470274e-07 -1 0.7968217 0.01461153
4.768372e-07 -0.5411605 -4.299215 0 1.470274e-07 -1 0.75 0.01000001
-0.1062715 -0.5307624 -4.299215 0 1.470274e-07 -1 0.7031783 0.01461153
-0.2084594 -0.4999671 -4.299215 0 1.470274e-07 -1 0.658156 0.0282689
-0.3026354 -0.4499585 -4.299215 0 1.470274e-07 -1 0.6166632 0.05044729
-0.3851824 -0.3826583 -4.299215 0 1.470274e-07 -1 0.5802944 0.08029437
-0.4529264 -0.3006523 -4.299215 0 1.470274e-07 -1 0.5504473 0.1166631
-0.5032654 -0.2070928 -4.299215 0 1.470274e-07 -1 0.5282689 0.158156
-0.5342634 -0.1055747 -4.299215 0 1.470274e-07 -1 0.5146115 0.2031783
-0.5447304 3.758493e-07 -4.299215 0 1.470274e-07 -1 0.51 0.25
-0.5342634 0.1055755 -4.299215 0 1.470274e-07 -1 0.5146115 0.2968217
-0.5032654 0.2070936 -4.299215 0 1.470274e-07 -1 0.5282689 0.341844
-0.4529264 0.3006531 -4.299215 0 1.470274e-07 -1 0.5504473 0.3833368
-0.3851824 0.3826591 -4.299215 0 1.470274e-07 -1 0.5802944 0.4197056
-0.3026354 0.4499593 -4.299215 0 1.470274e-07 -1 0.6166632 0.4495527
-0.2084594 0.4999679 -4.299215 0 1.470274e-07 -1 0.658156 0.4717311
-0.1062715 0.5307631 -4.299215 0 1.470274e-07 -1 0.7031783 0.4853885
-0.1062715 0.5307631 -4.299215 -0.1923641 0.9733403 0.1249192 0.2031783 0.4853885
3 0 1 2 
3 2 1 3 
3 3 1 4 
3 4 1 5 
3 5 1 6 
3 6 1 7 
3 7 1 8 
3 8 1 9 
3 9 1 10 
3 10 1 11 
3 11 1 12 
3 12 1 13 
3 13 1 14 
3 14 1 15 
3 15 1 16 
3 16 1 17 
3 17 1 18 
3 18 1 19 
3 19 1 20 
3 20 1 21 
3 21 1 22 
3 22 1 23 
3 23 1 24 
3 24 1 25 
3 25 1 26 
3 26 1 27 
3 27 1 28 
3 28 1 29 
3 29 1 30 
3 30 1 31 
3 32 33 34 
3 32 34 35 
3 32 35 36 
3 32 36 37 
3 32 37 38 
3 32 38 39 
3 32 39 40 
3 32 40 41 
3 32 41 42 
3 32 42 43 
3 32 43 44 
3 32 44 45 
3 32 45 46 
3 32 46 47 
3 32 47 48 
3 32 48 49 
3 32 49 50 
3 32 50 51 
3 32 51 52 
3 32 52 53 
3 32 53 54 
3 32 54 55 
3 32 55 56 
3 32 56 57 
3 32 57 58 
3 32 58 59 
3 32 59 60 
3 32 60 61 
3 32 61 62 
3 32 62 63 
3 31 1 64 
3 64 1 0 
