ply
format ascii 1.0
comment VCGLIB generated
element vertex 65
property float x
property float y
property float z
property float nx
property float ny
property float nz
property float texture_u
property float texture_v
element face 62
property list uchar int vertex_indices
end_header
4.768372e-07 -3.422663 15.94408 9.163566e-08 -0.1283297 -0.9917316 0.25 0.49
4.768372e-07 1.137965e-05 -6.322026e-05 -6.858811e-08 0.1643991 -0.9863939 0.25 0.25
0.1062715 -3.41531 15.98819 0.04091185 -0.1275914 -0.9909827 0.2968217 0.4853885
0.2084596 -3.393535 16.11884 0.08439218 -0.1252435 -0.9885303 0.341844 0.4717311
0.3026366 -3.358173 16.33101 0.1336787 -0.1208271 -0.9836315 0.3833368 0.4495527
0.3851836 -3.310585 16.61654 0.1937247 -0.1133263 -0.9744886 0.4197056 0.4197056
0.4529276 -3.252598 16.96447 0.2733538 -0.1005339 -0.9566455 0.4495527 0.3833368
0.5032656 -3.186441 17.3614 0.3903055 -0.07720855 -0.9174423 0.4717311 0.341844
0.5342646 -3.114657 17.79211 0.5816899 -0.02920829 -0.8128861 0.4853885 0.2968217
0.5447304 -3.040004 18.24002 0.8780727 0.07866947 -0.4720164 0.49 0.25
0.5342646 -2.965351 18.68794 0.9345326 0.2176614 0.2815535 0.4853885 0.2031783
0.5032656 -2.893567 19.11864 0.6247311 0.2447466 0.7414919 0.4717311 0.158156
0.4529276 -2.827411 19.51559 0.4012983 0.2340679 0.8855348 0.4495527 0.1166631
0.3851836 -2.769424 19.86351 0.2670476 0.2238871 0.9373154 0.4197056 0.08029437
0.3026366 -2.721835 20.14904 0.1770129 0.2170816 0.9599698 0.3833368 0.05044729
0.2084596 -2.686474 20.36121 0.1090446 0.2128824 0.970974 0.341844 0.0282689
0.1062715 -2.664698 20.49186 0.05216764 0.2106061 0.9761781 0.2968217 0.01461153
4.768372e-07 -2.657346 20.53598 1.143708e-07 0.209885 0.9777261 0.25 0.01000001
-0.1062715 -2.664698 20.49186 -0.05216761 0.2106061 0.9761781 0.2031783 0.01461153
-0.2084594 -2.686474 20.36121 -0.1090454 0.2128824 0.9709738 0.158156 0.0282689
-0.3026354 -2.721835 20.14904 -0.1770136 0.2170817 0.9599696 0.1166631 0.05044729
-0.3851824 -2.769424 19.86351 -0.2670474 0.2238871 0.9373154 0.08029439 0.08029437
-0.4529264 -2.827411 19.51559 -0.4012948 0.2340675 0.8855365 0.05044729 0.1166631
-0.5032654 -2.893567 19.11864 -0.6247316 0.2447467 0.7414914 0.02826892 0.158156
-0.5342634 -2.965351 18.68794 -0.9345311 0.2176618 0.2815583 0.01461154 0.2031783
-0.5447304 -3.040004 18.24002 -0.8780723 0.07866958 -0.472017 0.01000001 0.25
-0.5342634 -3.114657 17.79211 -0.5816885 -0.02920876 -0.8128871 0.01461154 0.2968217
-0.5032654 -3.186441 17.3614 -0.3903056 -0.07720839 -0.9174423 0.02826892 0.341844
-0.4529264 -3.252598 16.96447 -0.2733519 -0.1005342 -0.956646 0.05044729 0.3833368
-0.3851824 -3.310585 16.61654 -0.1937246 -0.1133263 -0.9744886 0.08029439 0.4197056
-0.3026354 -3.358173 16.33101 -0.1336792 -0.120827 -0.9836314 0.1166631 0.4495527
-0.2084594 -3.393535 16.11884 -0.08439272 -0.1252434 -0.9885302 0.158156 0.4717311
4.768372e-07 -3.422663 15.94408 0 -0.164399 0.9863939 0.75 0.49
0.1062715 -3.41531 15.98819 0 -0.164399 0.9863939 0.7968217 0.4853885
0.2084596 -3.393535 16.11884 0 -0.164399 0.9863939 0.841844 0.4717311
0.3026366 -3.358173 16.33101 0 -0.164399 0.9863939 0.8833368 0.4495527
0.3851836 -3.310585 16.61654 0 -0.164399 0.9863939 0.9197056 0.4197056
0.4529276 -3.252598 16.96447 0 -0.164399 0.9863939 0.9495527 0.3833368
0.5032656 -3.186441 17.3614 0 -0.164399 0.9863939 0.9717311 0.341844
0.5342646 -3.114657 17.79211 0 -0.164399 0.9863939 0.9853885 0.2968217
0.5447304 -3.040004 18.24002 0 -0.164399 0.9863939 0.99 0.25
0.5342646 -2.965351 18.68794 0 -0.164399 0.9863939 0.9853885 0.2031783
0.5032656 -2.893567 19.11864 0 -0.164399 0.9863939 0.9717311 0.158156
0.4529276 -2.827411 19.51559 0 -0.164399 0.9863939 0.9495527 0.1166631
0.3851836 -2.769424 19.86351 0 -0.164399 0.9863939 0.9197056 0.08029437
0.3026366 -2.721835 20.14904 0 -0.164399 0.9863939 0.8833368 0.05044729
0.2084596 -2.686474 20.36121 0 -0.164399 0.9863939 0.841844 0.0282689
0.1062715 -2.664698 20.49186 0 -0.164399 0.9863939 0.7968217 0.01461153
4.768372e-07 -2.657346 20.53598 0 -0.164399 0.9863939 0.75 0.01000001
-0.1062715 -2.664698 20.49186 0 -0.164399 0.9863939 0.7031783 0.01461153
-0.2084594 -2.686474 20.36121 0 -0.164399 0.9863939 0.658156 0.0282689
-0.3026354 -2.721835 20.14904 0 -0.164399 0.9863939 0.6166632 0.05044729
-0.3851824 -2.769424 19.86351 0 -0.164399 0.9863939 0.5802944 0.08029437
-0.4529264 -2.827411 19.51559 0 -0.164399 0.9863939 0.5504473 0.1166631
-0.5032654 -2.893567 19.11864 0 -0.164399 0.9863939 0.5282689 0.158156
-0.5342634 -2.965351 18.68794 0 -0.164399 0.9863939 0.5146115 0.2031783
-0.5447304 -3.040004 18.24002 0 -0.164399 0.9863939 0.51 0.25
-0.5342634 -3.114657 17.79211 0 -0.164399 0.9863939 0.5146115 0.2968217
-0.5032654 -3.186441 17.3614 0 -0.164399 0.9863939 0.5282689 0.341844
-0.4529264 -3.252598 16.96447 0 -0.164399 0.9863939 0.5504473 0.3833368
-0.3851824 -3.310585 16.61654 0 -0.164399 0.9863939 0.5802944 0.4197056
-0.3026354 -3.358173 16.33101 0 -0.164399 0.9863939 0.6166632 0.4495527
-0.2084594 -3.393535 16.11884 0 -0.164399 0.9863939 0.658156 0.4717311
-0.1062715 -3.41531 15.98819 0 -0.164399 0.9863939 0.7031783 0.4853885
-0.1062715 -3.41531 15.98819 -0.04091182 -0.1275914 -0.9909827 0.2031783 0.4853885
3 0 1 2 
3 2 1 3 
3 3 1 4 
3 4 1 5 
3 5 1 6 
3 6 1 7 
3 7 1 8 
3 8 1 9 
3 9 1 10 
3 10 1 11 
3 11 1 12 
3 12 1 13 
3 13 1 14 
3 14 1 15 
3 15 1 16 
3 16 1 17 
3 17 1 18 
3 18 1 19 
3 19 1 20 
3 20 1 21 
3 21 1 22 
3 22 1 23 
3 23 1 24 
3 24 1 25 
3 25 1 26 
3 26 1 27 
3 27 1 28 
3 28 1 29 
3 29 1 30 
3 30 1 31 
3 32 33 34 
3 32 34 35 
3 32 35 36 
3 32 36 37 
3 32 37 38 
3 32 38 39 
3 32 39 40 
3 32 40 41 
3 32 41 42 
3 32 42 43 
3 32 43 44 
3 32 44 45 
3 32 45 46 
3 32 46 47 
3 32 47 48 
3 32 48 49 
3 32 49 50 
3 32 50 51 
3 32 51 52 
3 32 52 53 
3 32 53 54 
3 32 54 55 
3 32 55 56 
3 32 56 57 
3 32 57 58 
3 32 58 59 
3 32 59 60 
3 32 60 61 
3 32 61 62 
3 32 62 63 
3 31 1 64 
3 64 1 0 
