ply
format ascii 1.0
comment VCGLIB generated
element vertex 36
property float x
property float y
property float z
property float nx
property float ny
property float nz
element face 60
property list uchar int vertex_indices
end_header
4.172842 -0.145503 2.595323 2.060034 -1.721349 -0.2968804 
3.987482 -0.088751 2.283339 0.0265431 -0.9235139 -2.536197 
3.680226 0.094901 2.365668 -2.345028 0.6086443 -1.189139 
3.675691 0.151653 2.728534 -1.778221 0.7586498 1.88497 
3.980145 0.003075 2.870468 0.9456376 -0.6820621 2.436812 
5.008067 1.032311 2.406858 2.814991 -1.251642 0.8245806 
4.727883 1.118095 1.935275 1.439142 -1.029583 -2.649109 
4.263444 1.395698 2.05972 -1.818823 0.8031291 -2.487736 
4.25659 1.481482 2.608216 -2.458513 1.714613 1.08422 
4.716791 1.256896 2.822759 0.4051234 0.4450806 3.132934 
3.743918 -0.258285 2.571876 -0.2242054 -0.4020337 0.06007566 
4.979287 1.943153 2.271566 0.5122721 0.9185805 -0.1372624 
3.758073 0.122427 2.240913 0.2665522 -1.812919 -2.085381 
3.350187 0.188692 2.355688 -2.495633 -0.9954853 -0.6847336 
3.350187 0.40313 2.727106 -1.808284 0.5749797 2.021022 
3.758073 0.469395 2.84188 1.380643 0.7290621 2.294148 
4.01016 0.295911 2.541397 2.663702 -0.7474363 -0.2449778 
3.797924 1.49768 1.241954 1.60499 -1.241814 -2.795389 
3.181377 1.597844 1.415443 -2.395627 -0.9703032 -2.285528 
3.181377 1.921981 1.976866 -3.082979 1.014448 1.166532 
3.797924 2.022146 2.150356 0.490896 1.970443 2.791715 
4.17897 1.759913 1.696155 3.3897 0.5763825 0.343737 
3.602005 -0.009261 2.717588 1.41561e-07 -0.5481182 0.3164558 
3.636638 2.561207 1.233528 -2.384186e-07 1.252359 -0.7230493 
3.758073 0.380148 2.514146 0.2862494 0.261912 -2.804543 
3.350187 0.345846 2.64216 -2.551337 -0.1519419 -1.210263 
3.350187 0.234845 3.056423 -1.862646 -0.9766744 1.889814 
3.758073 0.200544 3.184437 1.401796 -1.072809 2.212576 
4.01016 0.290346 2.849292 2.730354 -0.3070846 -0.689556 
3.797924 2.484594 2.894272 1.684621 1.211881 -3.076458 
3.181377 2.432745 3.087774 -2.603088 1.025567 -2.433654 
3.181377 2.26496 3.71396 -3.291778 -0.08870293 1.702723 
3.797924 2.213111 3.907462 0.5690719 -0.5913497 3.617418 
4.17897 2.348852 3.400867 3.64559 0.2123462 0.6641726 
3.602005 -0.138751 2.734316 6.705523e-07 -0.6113459 -0.1638095 
3.636638 3.475538 3.702762 5.960464e-07 1.396824 0.3742771 
3 0 1 6 
3 0 6 5 
3 1 2 7 
3 1 7 6 
3 2 3 8 
3 2 8 7 
3 3 4 9 
3 3 9 8 
3 4 0 5 
3 4 5 9 
3 1 0 10 
3 2 1 10 
3 3 2 10 
3 4 3 10 
3 0 4 10 
3 5 6 11 
3 6 7 11 
3 7 8 11 
3 8 9 11 
3 9 5 11 
3 12 13 18 
3 12 18 17 
3 13 14 19 
3 13 19 18 
3 14 15 20 
3 14 20 19 
3 15 16 21 
3 15 21 20 
3 16 12 17 
3 16 17 21 
3 13 12 22 
3 14 13 22 
3 15 14 22 
3 16 15 22 
3 12 16 22 
3 17 18 23 
3 18 19 23 
3 19 20 23 
3 20 21 23 
3 21 17 23 
3 24 25 30 
3 24 30 29 
3 25 26 31 
3 25 31 30 
3 26 27 32 
3 26 32 31 
3 27 28 33 
3 27 33 32 
3 28 24 29 
3 28 29 33 
3 25 24 34 
3 26 25 34 
3 27 26 34 
3 28 27 34 
3 24 28 34 
3 29 30 35 
3 30 31 35 
3 31 32 35 
3 32 33 35 
3 33 29 35 
