ply
format ascii 1.0
comment VCGLIB generated
element vertex 12
property float x
property float y
property float z
property float nx
property float ny
property float nz
property float texture_u
property float texture_v
element face 20
property list uchar int vertex_indices
end_header
3.474492 3.09733 -6.141803 0.2081017 -0.3897527 -0.897099 3.474492 3.09733
2.038569 3.09733 -5.675242 -0.7912635 -0.3831139 -0.4765772 2.038569 3.09733
2.038569 3.097329 -4.165423 -0.6973953 -0.383941 0.6051687 2.038569 3.097329
3.474492 3.097329 -3.698864 0.3589501 -0.3910855 0.8474709 3.474492 3.097329
4.361942 3.097329 -4.920333 0.915406 -0.3946491 -0.07927229 4.361942 3.097329
3.432537 4.819832 -5.954931 0.371679 0.4064097 -0.8346772 3.432537 4.819832
2.216296 4.819832 -5.55975 -0.6744893 0.4198884 -0.6072544 2.216296 4.819832
2.216295 4.819832 -4.280917 -0.7854477 0.4209222 0.4537582 2.216295 4.819832
3.432537 4.819832 -3.885736 0.1900455 0.4081093 0.8929331 3.432537 4.819832
4.184216 4.819832 -4.920333 0.9119294 0.3990124 0.0957812 4.184216 4.819832
3.066107 1.318583 -4.920333 -1.823738e-07 -1 -5.623193e-07 3.066107 1.318583
3.125542 6.346152 -4.920333 0 1 2.11838e-08 3.125542 6.346152
3 0 1 6 
3 0 6 5 
3 1 2 7 
3 1 7 6 
3 2 3 8 
3 2 8 7 
3 3 4 9 
3 3 9 8 
3 4 0 5 
3 4 5 9 
3 1 0 10 
3 2 1 10 
3 3 2 10 
3 4 3 10 
3 0 4 10 
3 5 6 11 
3 6 7 11 
3 7 8 11 
3 8 9 11 
3 9 5 11 
