ply
format ascii 1.0
comment VCGLIB generated
element vertex 7
property float x
property float y
property float z
property float nx
property float ny
property float nz
element face 10
property list uchar int vertex_indices
end_header
0.420009 2.666398 -2.1612 1.232815 0.05663317 -3.806943 
-0.21064 2.666398 -1.956289 -3.230032 0.09391192 -2.343931 
-0.21064 2.666398 -1.293185 -3.230029 0.09391192 2.343931 
0.420009 2.666398 -1.088275 1.232818 0.05663326 3.806949 
0.809772 2.666398 -1.624737 4.008413 0.03324527 1.370907e-06 
0.235768 1.389921 -1.624737 -0.005465686 -0.8074179 2.384186e-07 
0.264034 3.820822 -1.624737 0.01287782 0.9591308 1.788139e-07 
3 1 0 5 
3 2 1 5 
3 3 2 5 
3 4 3 5 
3 0 4 5 
3 0 1 6 
3 1 2 6 
3 2 3 6 
3 3 4 6 
3 4 0 6 
