ply
format ascii 1.0
comment VCGLIB generated
comment TextureFile Dungeons_2_Texture_01_A.png
element vertex 339
property float x
property float y
property float z
property float nx
property float ny
property float nz
property uchar red
property uchar green
property uchar blue
property uchar alpha
property float texture_u
property float texture_v
element face 500
property list uchar int vertex_indices
end_header
477.6299 -0.012166 262.7256 -0.08795482 0.9959169 -0.02033667 192 192 192 255 0.224073 0.632924
70.1748 -0.00221 406.4336 -0.01552753 0.9981681 -0.05847647 192 192 192 255 0.03736 0.803877
64.92773 -0.635316 19.88867 0.0463225 0.9964421 -0.07040963 192 192 192 255 0.03497 0.979973
379.7988 -3.624518 459.9717 -0.04837707 0.9957805 -0.07798083 192 192 192 255 0.186486 0.557017
93.23047 0.001021 429.2324 0.05401323 0.9982852 0.02256526 192 192 192 255 0.076387 0.568846
471.0596 3.744848 456.5342 0.1629953 0.9864451 -0.01893459 192 192 192 255 0.219989 0.781053
380.1533 -3.765796 40.78711 -0.0509236 0.9963623 0.0683296 192 192 192 255 0.186622 0.718334
429.415 -3.766011 119.7588 0.05386277 0.9945486 0.0892852 192 192 192 255 0.205549 0.687943
70.85156 -3.649605 118.8213 -0.05426104 0.9947385 0.08689765 192 192 192 255 0.067789 0.688304
20.48926 -1.94683 494.6074 -0.1076314 0.9331294 0.3430527 192 192 192 255 0.048439 0.543688
277.1807 -0.010191 223.1934 -0.115242 0.9859254 0.1211217 192 192 192 255 0.131665 0.887355
0.336914 -0.220465 118.7217 -0.6742411 0.7380577 -0.02587798 192 192 192 255 0.040697 0.688342
339.623 -2.921909 463.9443 -0.01233686 0.9897445 -0.1423149 192 192 192 255 0.17105 0.555488
3.713867 -22.90053 496.4336 -0.01044979 -0.9998612 0.01297859 192 192 192 255 0.041994 0.542985
357.0986 -0.004755 251.3467 0.2500971 0.968032 0.01912028 192 192 192 255 0.177765 0.637303
276.9326 -0.036573 263.4219 -0.1370509 0.9904407 0.0156349 192 192 192 255 0.131552 0.869028
499.4102 -0.098003 269.9834 0.6852825 0.7278602 -0.02464746 192 192 192 255 0.232905 0.866039
243.3135 -3.76667 381.2783 -0.004945901 0.9999606 -0.007377306 192 192 192 255 0.134048 0.587301
380.3799 -3.765709 431.0293 -0.08571629 0.9953012 0.0450373 192 192 192 255 0.186709 0.568155
29.27734 3.788573 471.0664 -0.1259982 0.9828587 0.1345861 192 192 192 255 0.018729 0.774433
93.22656 0.000854 71.83301 0.0520916 0.9985275 -0.01514106 192 192 192 255 0.047862 0.956309
422.5723 0.000981 76.85742 -0.05394399 0.9978991 0.03588293 192 192 192 255 0.1979 0.95402
429.8418 -0.124023 94.42773 0.01969114 0.9981403 0.05769125 192 192 192 255 0.205712 0.697691
459.2275 -3.762556 119.6289 -0.08534964 0.9950981 0.04995169 192 192 192 255 0.217003 0.687993
435.1641 3.719271 27.87012 -0.1280822 0.9858527 -0.1081173 192 192 192 255 0.203637 0.976337
70.3623 -0.002519 92.71875 -0.0180523 0.9984279 0.0530651 192 192 192 255 0.037446 0.946794
29.03516 3.786111 436.6963 -0.1054545 0.985987 -0.1292631 192 192 192 255 0.018618 0.790091
406.6797 -0.00183 429.0391 -0.05204324 0.9985065 0.01662638 192 192 192 255 0.196814 0.568921
26.62695 -4.018684 499.5977 -0.03097494 0.5578747 0.829347 192 192 192 255 0.050797 0.541767
25.2959 -0.006461 92.43945 0.01770629 0.999503 0.0260827 192 192 192 255 0.050286 0.698456
435.1611 3.701482 472.4053 -0.09865978 0.9890631 0.1096376 192 192 192 255 0.203635 0.773823
178.8936 -3.541445 131.6406 0.0327905 0.9880977 -0.1502918 192 192 192 255 0.109298 0.68337
177.9629 -3.770316 101.2607 0.02276538 0.9991232 -0.03513682 192 192 192 255 0.108941 0.695062
41.40332 -3.763694 381.3535 0.07621795 0.9958048 -0.05063238 192 192 192 255 0.056475 0.587272
0.00293 -7.276219 236.0459 -0.9704939 0.2404172 -0.01847135 192 192 192 255 0.040569 0.643191
9.902344 -0.020114 232.3936 -0.1656291 0.9860852 -0.01424555 192 192 192 255 0.009902 0.883163
476.1992 -0.130639 94.79492 -0.02842447 0.9992896 0.02474797 192 192 192 255 0.223523 0.69755
356.8535 -0.000541 165.6465 0.07060561 0.9968426 0.03632778 192 192 192 255 0.17767 0.670284
274.2744 -3.371429 499.0703 0.07326074 0.6072953 0.7910912 192 192 192 255 0.145944 0.54197
471.0107 3.789235 471.2432 0.1274948 0.9872084 0.09573302 192 192 192 255 0.219967 0.774352
383.7852 -7.955212 0.008789 -0.03255845 0.347078 -0.937271 192 192 192 255 0.188017 0.734027
77.94629 -0.067581 499.8057 -0.04115472 0.7022898 0.7107007 192 192 192 255 0.040901 0.76134
0.494141 -0.107931 86.33203 -0.6784354 0.7331598 0.04692724 192 192 192 255 0.005616 0.949704
0.119141 -6.139949 476.0293 -0.9660836 0.2560438 0.03352839 192 192 192 255 0.040613 0.550837
130.957 -3.658355 320.957 -0.1524433 0.9880014 -0.02478642 192 192 192 255 0.090881 0.610515
227.5166 -3.768543 64.17383 -0.04656303 0.9987895 -0.01585438 192 192 192 255 0.127979 0.709334
105.5146 -0.019938 384.4707 -0.0385233 0.9983423 -0.04276222 192 192 192 255 0.081106 0.586072
348.6963 -0.387128 480.4355 -0.07417568 0.9945986 -0.07260571 192 192 192 255 0.164245 0.770165
165.2734 -0.122094 358.9482 0.04925973 0.9957319 0.07804772 192 192 192 255 0.080684 0.82551
334.2168 -0.203057 359.0117 -0.04159579 0.9963226 0.07490791 192 192 192 255 0.168973 0.59587
75.62109 0.242156 42.16797 0.1254315 0.9912462 -0.04120602 192 192 192 255 0.039841 0.969823
500.0049 -21.56668 484.9443 0.979976 -0.1987888 0.01140514 192 192 192 255 0.232669 0.547406
22.87402 -0.018816 311.5518 0.1068965 0.9921896 -0.06428722 192 192 192 255 0.015812 0.847102
498.6748 -1.52871 476.8125 0.7781852 0.6278822 0.01384965 192 192 192 255 0.232158 0.550536
277.5752 2.861774 176.7783 -0.01742233 0.9764474 -0.215051 192 192 192 255 0.131844 0.908499
250.083 -22.75629 499.9492 0.0168681 -0.6520824 0.7579604 192 192 192 255 0.136649 0.541632
90.50781 -21.88633 0.004883 -0.00339391 -0.6225928 -0.7825387 192 192 192 255 0.07534 0.734029
242.7734 -0.002411 481.2295 0.008128828 0.9970118 -0.07681972 192 192 192 255 0.11599 0.769803
347.6445 -0.004479 304.0576 0.122201 0.9925054 -8.621575e-05 192 192 192 255 0.163766 0.850516
22.27832 -0.108324 0.817383 -0.06711286 0.722202 -0.6884186 192 192 192 255 0.01554 0.988661
121.9697 -3.766203 222.4697 0.04299472 0.9990237 -0.01015176 192 192 192 255 0.087428 0.648416
15.10938 -0.0964 145.2109 -0.04127305 0.9962878 0.07554582 192 192 192 255 0.046372 0.678148
164.79 -3.767143 55.39258 0.009680988 0.9998829 0.01185014 192 192 192 255 0.10388 0.712713
361.6357 -2.565238 108.0205 -0.0762318 0.9949376 -0.06548233 192 192 192 255 0.179508 0.69246
378.8115 -0.985067 99.46777 -0.0760335 0.9939478 -0.07928803 192 192 192 255 0.186107 0.695752
496.2676 -0.223439 419.8193 0.3117009 0.9499117 0.02259427 192 192 192 255 0.231233 0.572469
259.3145 3.140716 190.8184 -0.01328966 0.9982783 -0.05712993 192 192 192 255 0.123526 0.902104
218.0693 -0.119756 347.0439 0.01292727 0.9923851 0.1224935 192 192 192 255 0.12435 0.600475
222.1826 -0.039088 223.4258 0.2005815 0.9728981 0.1150493 192 192 192 255 0.10661 0.887249
313.8643 -9.485622 499.9717 -0.05960599 0.4492305 0.8914253 192 192 192 255 0.161154 0.541623
139.165 -2.65024 1.660156 -0.008299269 0.7143741 -0.6997147 192 192 192 255 0.094035 0.733392
0.067383 -22.82741 485.2305 -0.7145872 -0.6995465 -2.873142e-05 192 192 192 255 0.040593 0.547296
330.2139 -0.630986 7.610352 0.05278012 0.9881004 -0.144471 192 192 192 255 0.155825 0.985566
63.96387 3.790703 471.1729 0.09772217 0.9856701 0.1374948 192 192 192 255 0.034531 0.774384
459.3408 -3.733385 208.2393 -0.06566384 0.9978391 0.002322883 192 192 192 255 0.217046 0.653893
222.1094 -4.542243 362.9541 0.0100369 0.993425 0.1140439 192 192 192 255 0.125902 0.594353
93.6543 -0.017821 19.58789 0.009388806 0.9999549 -0.001457001 192 192 192 255 0.048057 0.98011
80.91211 -0.098542 0.762695 0.01202058 0.7367762 -0.6760298 192 192 192 255 0.071654 0.733737
333.96 0.001155 143.1748 -0.0301754 0.9960638 -0.08334468 192 192 192 255 0.168875 0.678932
320.0186 -3.60847 131.4697 -0.02566849 0.9883558 -0.1499797 192 192 192 255 0.163518 0.683436
324.1094 2.865792 175.6602 0.1324712 0.9789249 -0.1554265 192 192 192 255 0.153044 0.909009
216.7588 3.143423 213.5732 0.04657063 0.9974369 0.05432253 192 192 192 255 0.104139 0.891737
173.0918 -5.594772 77.81348 0.3495326 0.9331568 -0.08393597 192 192 192 255 0.107069 0.704085
483.6904 -0.000296 77.23242 0.03508927 0.998804 0.03405042 192 192 192 255 0.225743 0.953849
212.7354 -5.826872 79.73145 -0.02852694 0.9986167 0.04416968 192 192 192 255 0.1223 0.703347
331.6592 -0.015128 168.6348 0.04664915 0.9977627 -0.04788961 192 192 192 255 0.156483 0.912209
312.8799 -0.108284 0.730469 0.01885873 0.7568068 -0.6533665 192 192 192 255 0.147928 0.9887
0.139648 -22.78774 499.8936 -0.5754833 -0.5709772 0.5854947 192 192 192 255 0.040621 0.541654
331.7031 -0.032161 330.0918 0.05251147 0.9973071 0.05119793 192 192 192 255 0.156503 0.838656
500.002 -19.85359 196.4014 0.9989952 0.04468341 -0.003464997 192 192 192 255 0.232668 0.658448
476.2891 -0.109311 161.4707 -0.07814606 0.9968359 0.01453958 192 192 192 255 0.222372 0.915473
0.011719 -11.90921 0.291016 -0.6779022 0.1990841 -0.7076823 192 192 192 255 0.040572 0.733918
386.4854 -0.168665 361.9453 0.06520571 0.9946299 -0.08037242 192 192 192 255 0.189055 0.594741
151.4561 -0.000982 147.6484 -0.01787939 0.9996225 0.02086532 192 192 192 255 0.074389 0.92177
108.2705 -0.188893 6.203125 0.05027879 0.8882815 -0.4565392 192 192 192 255 0.054715 0.986207
210.2607 2.949285 176.0801 0.02363995 0.9808196 -0.1934787 192 192 192 255 0.101178 0.908818
40.22754 -3.649873 308.2324 0.08284763 0.9964901 -0.01199615 192 192 192 255 0.056023 0.615412
392.0391 -2.588535 84.74316 -0.1036668 0.9886786 -0.1084802 192 192 192 255 0.191189 0.701418
70.90918 -21.73984 500.0361 -0.01086352 -0.034767 0.9993364 192 192 192 255 0.067811 0.541599
18.33594 -0.330899 482.6084 -0.08652645 0.9881274 0.1269543 192 192 192 255 0.013744 0.769175
197.4824 -0.003136 14.48926 -0.02626984 0.9871964 -0.1573314 192 192 192 255 0.095357 0.982432
485.6191 -0.593404 197.7422 -0.05607189 0.9981452 0.02370748 192 192 192 255 0.227142 0.657932
317.7842 -3.042259 463.3828 0.002124201 0.9925348 -0.1219442 192 192 192 255 0.16266 0.555704
179.4971 -3.689478 368.7236 0.0547136 0.9895113 0.1336931 192 192 192 255 0.10953 0.592132
493.2227 -0.4406 197.3008 0.2916761 0.9562199 -0.02384532 192 192 192 255 0.230063 0.658102
355.5088 -5.39339 1.359375 0.006377387 0.513153 -0.8582734 192 192 192 255 0.177154 0.733507
427.3135 0.055597 424.0293 -0.04553138 0.9976151 -0.05187573 192 192 192 255 0.20006 0.795861
497.5293 -2.432151 206.2949 0.6675358 0.7418062 0.06418377 192 192 192 255 0.231718 0.654641
0.762695 -6.586026 177.418 -0.8736611 0.476521 -0.09820443 192 192 192 255 0.04086 0.665754
212.8184 0.057324 168.457 0.02131139 0.9871633 -0.1582857 192 192 192 255 0.102344 0.91229
249.1279 -0.249705 170.6006 -0.002901839 0.9968258 -0.07956117 192 192 192 255 0.118885 0.911314
316.3389 -22.72136 499.8945 -0.00764522 -0.6445191 0.7645501 192 192 192 255 0.162105 0.541653
349.1445 -0.002051 342.7617 0.04341898 0.9986168 -0.02965378 192 192 192 255 0.164449 0.832884
0.038086 -9.792742 499.834 -0.6502179 0.3742945 0.6611508 192 192 192 255 0.040582 0.541676
299.1055 -22.75864 0.550781 -0.001832044 -0.8030264 -0.5959406 192 192 192 255 0.155484 0.733819
129.2666 -0.045971 361.0381 -0.04674857 0.99806 -0.04111904 192 192 192 255 0.06428 0.824558
2.612305 -1.706024 103.1543 -0.2867723 0.9579411 -0.01051728 192 192 192 255 0.006581 0.94204
22.58496 0.005162 273.8398 0.02707142 0.9985992 0.0454621 192 192 192 255 0.049245 0.628647
15.19824 -0.002128 20.39844 -0.1007141 0.9914774 -0.0826393 192 192 192 255 0.012315 0.97974
332.1436 -5.21675 0.005859 0.03285309 0.1753203 -0.9839631 192 192 192 255 0.168177 0.734028
142.3594 -0.087279 332.5732 -0.1025774 0.9942455 -0.03088323 192 192 192 255 0.070245 0.837525
283.2256 -1.922834 469.5947 0.009211465 0.9935499 -0.1130208 192 192 192 255 0.134419 0.775103
77.37012 0.005151 481.668 0.05169787 0.9981582 0.031743 192 192 192 255 0.040638 0.769603
185.0449 -7.05363 -0.008789 0.04025652 0.4534976 -0.8903479 192 192 192 255 0.111662 0.734034
277.6924 -1.017051 487.3086 0.044158 0.9959424 0.07841466 192 192 192 255 0.131898 0.767034
213.0361 3.145362 286.0127 0.04161545 0.9984477 -0.03702028 192 192 192 255 0.102443 0.858737
495.2842 -22.90054 496.4971 0.009180198 -0.9998948 0.01123122 192 192 192 255 0.230855 0.542961
4.298828 -22.90057 4.800781 -0.00837947 -0.9998341 -0.01617389 192 192 192 255 0.042219 0.732183
499.7158 -22.7893 75.49121 0.7088877 -0.7053207 -0.001032567 192 192 192 255 0.232558 0.704979
3.041992 -2.922962 224.542 -0.6111898 0.7909314 0.02957492 192 192 192 255 0.041736 0.647619
366.5322 -3.58437 86.07715 -0.03680237 0.998168 -0.04802411 192 192 192 255 0.181389 0.700905
242.75 2.997868 285.2119 0.01017486 0.9811521 -0.1929692 192 192 192 255 0.115979 0.859101
3.804688 -3.166787 146.3691 -0.1423227 0.9839743 0.1074187 192 192 192 255 0.042029 0.677702
175.0029 -2.477468 3.361328 0.04218355 0.8544855 -0.5177597 192 192 192 255 0.107803 0.732737
164.3047 0.008513 143.2363 0.03579582 0.9971299 -0.06671303 192 192 192 255 0.103693 0.678908
270.2988 -22.95389 498.4062 0.01957249 -0.7423467 0.6697301 192 192 192 255 0.144416 0.542226
2.130859 -1.335636 188.6006 -0.6111102 0.7885017 -0.06935097 192 192 192 255 0.006362 0.903114
130.5771 -3.75561 242.835 -0.08474904 0.9963518 -0.01004017 192 192 192 255 0.090735 0.640579
235.6367 -0.095927 332.5391 8.899462e-05 0.9878974 0.1551088 192 192 192 255 0.112739 0.837541
409.6357 -0.140953 0.764648 -0.02215054 0.7389027 -0.673448 192 192 192 255 0.192007 0.988685
289.9971 3.142382 289.8369 -0.02922361 0.9991361 -0.02954875 192 192 192 255 0.137504 0.856994
458.4404 3.446743 434.8457 0.02948821 0.9924746 -0.1188475 192 192 192 255 0.21424 0.790934
127.21 -4.516768 214.5996 0.02199761 0.9996775 0.01268929 192 192 192 255 0.089441 0.651445
499.4287 -0.083767 139.8008 0.4964119 0.8680048 0.0119584 192 192 192 255 0.232913 0.925345
344.6533 -0.08307 499.7578 -0.04356796 0.7315293 0.6804167 192 192 192 255 0.162403 0.761362
487.2119 -1.442442 231.4141 0.1710231 0.9851579 -0.01466453 192 192 192 255 0.227754 0.644974
130.4277 -3.765108 180.0693 -0.08090139 0.9962892 0.02937542 192 192 192 255 0.090678 0.664733
469.7773 3.811599 28.5625 0.1033157 0.9891763 -0.1041926 192 192 192 255 0.219405 0.976021
359.3711 -3.386209 302.7471 0.1669309 0.9859626 0.003450198 192 192 192 255 0.178638 0.617523
167.8057 -0.047031 172.0137 -0.05908868 0.9971685 -0.04651317 192 192 192 255 0.081837 0.91067
206 -4.700775 74.79199 0.002660248 0.9908618 0.1348544 192 192 192 255 0.119713 0.705248
65.25879 3.57404 41.70215 0.1978624 0.9725686 -0.1223141 192 192 192 255 0.035121 0.970035
156.2646 0.000514 206.3613 -0.07087103 0.9974849 0.001163542 192 192 192 255 0.07658 0.895023
125.3574 -0.002569 15.47656 0.01778942 0.9979621 -0.06128068 192 192 192 255 0.062499 0.981983
480.4668 -0.001935 418.2715 0.01289126 0.9987071 -0.04917412 192 192 192 255 0.224275 0.798484
490.2783 -0.072515 0.738281 0.07012426 0.7144281 -0.6961861 192 192 192 255 0.228745 0.988697
0.00293 -10.86313 290.625 -0.9799117 0.1900779 -0.06036064 192 192 192 255 0.040569 0.622187
15.85645 -2.266118 291.0615 0.01729772 0.9998003 -0.01000878 192 192 192 255 0.046659 0.62202
380.3174 -3.765501 70.6582 -0.06227025 0.9980339 -0.007120924 192 192 192 255 0.186685 0.706839
482.4424 0.004685 484.5283 0.08638157 0.995211 0.04575258 192 192 192 255 0.225175 0.7683
479.4414 0.79562 438.7686 0.1206711 0.9923769 -0.02503132 192 192 192 255 0.223808 0.789147
366.2139 -3.572993 331.9697 0.1166115 0.9888202 -0.09293228 192 192 192 255 0.181267 0.606277
231.7803 -0.122124 0.813477 -0.01218507 0.7495406 -0.6618463 192 192 192 255 0.110982 0.988663
119.6309 -3.765139 69.95215 0.08668307 0.9952433 -0.04446106 192 192 192 255 0.08653 0.70711
307.6035 -1.332959 483.3574 0.002010323 0.9908633 0.1348549 192 192 192 255 0.158749 0.548017
117.7617 -11.92321 0.012695 -0.01349533 0.1931455 -0.9810773 192 192 192 255 0.085811 0.734026
287.1602 3.144799 213.6758 -0.03653523 0.9985852 0.0386374 192 192 192 255 0.136211 0.89169
462.9766 -2.961851 240.0537 -0.1542054 0.9879501 -0.01324517 192 192 192 255 0.218443 0.641649
247.8838 -3.697778 40.55566 -0.001460884 0.9959545 0.08984734 192 192 192 255 0.135804 0.718423
494.9316 -22.90051 4.744141 0.009485591 -0.9998903 -0.01137439 192 192 192 255 0.23072 0.732205
175.874 2.866545 236.9746 -0.2505624 0.9681005 -3.463308e-06 192 192 192 255 0.085513 0.881076
177.7002 3.144515 176.9072 -0.1175248 0.970832 -0.2089813 192 192 192 255 0.086345 0.908441
369.0713 -3.668378 179.0254 0.1461677 0.9886249 0.0354376 192 192 192 255 0.182364 0.665135
406.3564 -0.009372 56.72266 -0.07243786 0.997291 0.01278743 192 192 192 255 0.196689 0.712201
222.8271 0.024891 276.5254 0.114797 0.985583 -0.1242895 192 192 192 255 0.106903 0.863059
387.1377 -3.766795 336.4072 0.02621632 0.9979146 -0.0589854 192 192 192 255 0.189306 0.604569
64.17383 3.787832 436.4443 0.1033386 0.9884389 -0.1109489 192 192 192 255 0.034626 0.790205
331.916 -0.030984 207.0479 0.1761807 0.9843578 -4.94388e-05 192 192 192 255 0.1566 0.89471
15.7666 -0.000443 426.3906 -0.04529803 0.9983139 -0.03629621 192 192 192 255 0.012574 0.794786
0.397461 -0.107509 306.8008 -0.6858687 0.7252672 -0.05976314 192 192 192 255 0.005572 0.849266
435.6133 3.790091 63.00195 -0.1113353 0.9890158 0.09722323 192 192 192 255 0.203841 0.960332
1.039063 -3.293522 8.087891 -0.6703177 0.6865396 -0.2816692 192 192 192 255 0.040967 0.730918
384.5078 -0.413903 8.101563 -0.04356219 0.9381001 -0.343614 192 192 192 255 0.180559 0.985342
481.5508 0.278038 51.48242 0.1842743 0.9828749 -0.0002390248 192 192 192 255 0.224769 0.96558
23.33789 -0.191093 135.8203 0.1154985 0.9919185 0.05251561 192 192 192 255 0.049534 0.681762
429.6885 -3.766033 379.6914 0.05379014 0.9949532 -0.0847047 192 192 192 255 0.205654 0.587912
312.2168 -0.090069 20.07129 0.004462836 0.9965276 0.08314383 192 192 192 255 0.160521 0.726306
274.873 -0.002698 348.3076 -0.01296614 0.9971919 0.07375742 192 192 192 255 0.146174 0.599989
424.2295 0.006761 15.5957 -0.03954608 0.9982212 -0.04461681 192 192 192 255 0.198655 0.981928
499.8564 -22.70561 171.6152 0.7171727 -0.6968914 -0.002424271 192 192 192 255 0.232612 0.667987
77.39355 0.003097 423.7539 0.03567226 0.9987168 -0.03594819 192 192 192 255 0.040649 0.795987
22.7373 -0.002126 408.5107 0.0182204 0.9996099 -0.02116585 192 192 192 255 0.049303 0.576821
429.8203 0.002278 406.835 0.02194943 0.9982497 -0.05491685 192 192 192 255 0.201202 0.803694
375.6934 -0.003192 138.0459 -0.01192245 0.9997308 -0.0199028 192 192 192 255 0.184909 0.680905
51.27148 3.505312 27.9541 0.05764545 0.9706041 -0.2336764 192 192 192 255 0.028748 0.976298
0.105469 -22.81971 143.5762 -0.7212598 -0.692652 0.004177487 192 192 192 255 0.040608 0.678777
406.2109 -0.000901 478.751 -0.02398896 0.9996492 -0.01123043 192 192 192 255 0.196634 0.54979
121.9268 -3.76448 40.74414 0.04584211 0.9964128 0.07113469 192 192 192 255 0.087412 0.718351
64.20898 3.79033 62.91602 0.1321781 0.9864124 0.09756824 192 192 192 255 0.034642 0.960371
406.5078 -0.005172 19.37793 -0.02349304 0.9996419 0.01281337 192 192 192 255 0.190582 0.980205
368.5283 -4.900103 317.6641 -0.07895302 0.9894821 0.121209 192 192 192 255 0.182156 0.611782
500.0195 -1.073074 152.1475 0.7362214 0.6743716 0.05657737 192 192 192 255 0.232675 0.675479
7.757813 -2.468263 274.5977 -0.3255157 0.939917 0.1029348 192 192 192 255 0.043548 0.628355
119.833 -3.766231 457.6846 0.03930127 0.9975175 -0.0584325 192 192 192 255 0.086607 0.557897
499.6855 -7.706063 232.79 0.8663715 0.49851 -0.02980399 192 192 192 255 0.232546 0.644444
99.04883 -2.649755 360.0361 -0.1013682 0.9893775 -0.1041955 192 192 192 255 0.078622 0.595476
346.4248 -16.98584 0.00293 0.01117813 -0.01580202 -0.9998127 192 192 192 255 0.173664 0.734029
29.14355 3.78497 28.24707 -0.08686445 0.9782327 -0.1884554 192 192 192 255 0.018668 0.976165
499.373 -22.79813 499.959 0.5743587 -0.5651689 0.5921961 192 192 192 255 0.232426 0.541628
177.5381 3.147139 322.7764 -0.1195538 0.9849771 0.1246079 192 192 192 255 0.086271 0.841988
60.42285 -2.624046 497.7812 -0.09751642 0.4963636 0.8626203 192 192 192 255 0.063782 0.542466
0.09668 -22.76706 0.364258 -0.5746502 -0.57357 -0.5837763 192 192 192 255 0.040605 0.73389
200.9033 -3.7707 108.8604 0.002717295 0.9993459 -0.03606296 192 192 192 255 0.117754 0.692137
483.8281 0.006338 15.54102 0.03105123 0.9987783 -0.03844079 192 192 192 255 0.225806 0.981953
497.9189 -9.68841 188.4355 0.9335817 0.3579627 0.01697313 192 192 192 255 0.231868 0.661514
15.93945 -1.109884 164.8301 -0.06315178 0.9978776 0.01588067 192 192 192 255 0.046691 0.670598
0.489258 -0.096226 32.33301 -0.686684 0.7263297 -0.0301699 192 192 192 255 0.040755 0.721588
34.66602 -4.578427 157.8857 -0.0351332 0.9992839 0.0140496 192 192 192 255 0.053886 0.67327
493.0635 -2.091244 181.7705 0.5098483 0.8602246 0.00827292 192 192 192 255 0.230002 0.664079
421.7773 -0.002783 485.0254 -0.03550617 0.9986883 0.03689276 192 192 192 255 0.197538 0.768074
499.5371 -22.77949 0.619141 0.5754312 -0.572375 -0.5841797 192 192 192 255 0.232489 0.733792
22.79004 -0.009174 193.1191 0.05872812 0.9964917 -0.05962732 192 192 192 255 0.049323 0.659711
41.44043 -3.765424 118.6689 0.08143985 0.9953383 0.05166547 192 192 192 255 0.056489 0.688362
459.0254 -3.754328 381.4287 -0.06810801 0.9968097 -0.04161386 192 192 192 255 0.216925 0.587243
248.4199 -0.041169 499.7227 0.02991261 0.712637 0.700895 192 192 192 255 0.13601 0.541719
119.1367 -3.694995 429.1367 0.08933739 0.9945705 0.05336996 192 192 192 255 0.08634 0.568883
40.41016 -3.638993 169.7119 0.03755139 0.999011 -0.02381193 192 192 192 255 0.056093 0.668719
262.1582 -0.060048 19.94434 9.187959e-05 0.9963081 0.08584886 192 192 192 255 0.124821 0.979947
499 -7.385539 499.6846 0.6580861 0.3928863 0.6423108 192 192 192 255 0.232283 0.541734
228.54 -3.768557 104.9668 -0.01426631 0.9997845 -0.01508122 192 192 192 255 0.128372 0.693635
252.8877 -3.71214 369.3477 -0.02488987 0.9977413 0.06239219 192 192 192 255 0.137727 0.591892
1.955078 -1.256592 257.2148 -0.6384764 0.7684057 0.04359575 192 192 192 255 0.006282 0.871856
35.79004 -2.70067 136.7109 0.1719161 0.9845722 0.03259506 192 192 192 255 0.054318 0.681419
28.83691 3.700391 64.45215 -0.1003342 0.9882432 0.1153631 192 192 192 255 0.018528 0.959671
0.09082 -22.81947 321.0869 -0.7193007 -0.6946973 0.001487704 192 192 192 255 0.040602 0.610465
435.332 3.786561 436.6777 -0.1510015 0.9829258 -0.105145 192 192 192 255 0.203713 0.790099
271.3164 -1.114947 276.6787 -0.0425133 0.9920748 -0.1182382 192 192 192 255 0.128993 0.862989
123.5645 -0.001933 145.6328 -0.05730599 0.9953056 0.07799223 192 192 192 255 0.061683 0.922688
15.94922 0.000888 76.85547 -0.039057 0.9985625 0.03670832 192 192 192 255 0.012657 0.954021
481.6611 -0.098271 499.8057 0.09957657 0.7169879 0.6899369 192 192 192 255 0.225621 0.541687
499.583 -22.81398 353.8662 0.6313197 -0.7755219 -0.001147194 192 192 192 255 0.232507 0.59785
320.0518 -3.7694 369.8975 -0.0332337 0.9874046 0.1546856 192 192 192 255 0.163531 0.591681
73.87305 -0.001847 76.87695 0.03692373 0.9982994 0.04511051 192 192 192 255 0.039045 0.954011
-0.000977 -4.742293 87.51855 -0.996128 0.08170213 0.03246459 192 192 192 255 0.040567 0.70035
500.0068 -1.378274 1.625 0.6452019 0.5405067 -0.5399696 192 192 192 255 0.23267 0.733405
470.3828 3.791852 62.83008 0.1128813 0.9893143 0.09227767 192 192 192 255 0.219681 0.96041
70.66797 -3.766515 379.2041 -0.0364667 0.9963675 -0.07695465 192 192 192 255 0.067718 0.588099
500.002 -1.212099 395.2285 0.8059326 0.5919735 0.006331822 192 192 192 255 0.232668 0.581932
0.407227 -0.07992 433.2598 -0.6976915 0.7163845 0.004469728 192 192 192 255 0.005577 0.791656
167.9238 -0.064291 332.1924 -0.04165973 0.9982193 0.04269289 192 192 192 255 0.081891 0.837699
323.9102 2.945117 322.7031 0.1399201 0.9799149 0.142089 192 192 192 255 0.152953 0.842022
3.133789 -1.565578 481.8398 -0.5191286 0.8434223 0.1383631 192 192 192 255 0.041771 0.548601
93.22656 0.000854 71.83301 0.0520916 0.9985275 -0.01514106 192 192 192 255 0.076385 0.706387
312.2168 -0.090069 20.07129 0.004462836 0.9965276 0.08314383 192 192 192 255 0.147626 0.979889
93.23047 0.001021 429.2324 0.05401323 0.9982852 0.02256526 192 192 192 255 0.047863 0.793491
386.4854 -0.168665 361.9453 0.06520571 0.9946299 -0.08037242 192 192 192 255 0.18146 0.824144
406.6797 -0.00183 429.0391 -0.05204324 0.9985065 0.01662638 192 192 192 255 0.19066 0.793579
406.5078 -0.005172 19.37793 -0.02349304 0.9996419 0.01281337 192 192 192 255 0.196748 0.726573
165.2734 -0.122094 358.9482 0.04925973 0.9957319 0.07804772 192 192 192 255 0.104065 0.595894
70.3623 -0.002519 92.71875 -0.0180523 0.9984279 0.0530651 192 192 192 255 0.067601 0.698349
274.873 -0.002698 348.3076 -0.01296614 0.9971919 0.07375742 192 192 192 255 0.130614 0.830357
481.6611 -0.098271 499.8057 0.09957657 0.7169879 0.6899369 192 192 192 255 0.224819 0.76134
476.2891 -0.109311 161.4707 -0.07814606 0.9968359 0.01453958 192 192 192 255 0.223557 0.671891
344.6533 -0.08307 499.7578 -0.04356796 0.7315293 0.6804167 192 192 192 255 0.172983 0.541706
477.6299 -0.012166 262.7256 -0.08795482 0.9959169 -0.02033667 192 192 192 255 0.222983 0.869345
356.8535 -0.000541 165.6465 0.07060561 0.9968426 0.03632778 192 192 192 255 0.167961 0.913571
333.96 0.001155 143.1748 -0.0301754 0.9960638 -0.08334468 192 192 192 255 0.157531 0.923808
22.27832 -0.108324 0.817383 -0.06711286 0.722202 -0.6884186 192 192 192 255 0.049127 0.733716
429.8203 0.002278 406.835 0.02194943 0.9982497 -0.05491685 192 192 192 255 0.205704 0.577466
22.79004 -0.009174 193.1191 0.05872812 0.9964917 -0.05962732 192 192 192 255 0.015773 0.901055
0.407227 -0.07992 433.2598 -0.6976915 0.7163845 0.004469728 192 192 192 255 0.040724 0.567297
0.397461 -0.107509 306.8008 -0.6858687 0.7252672 -0.05976314 192 192 192 255 0.04072 0.615963
357.0986 -0.004755 251.3467 0.2500971 0.968032 0.01912028 192 192 192 255 0.168073 0.874529
334.2168 -0.203057 359.0117 -0.04159579 0.9963226 0.07490791 192 192 192 255 0.157648 0.825481
499.4102 -0.098003 269.9834 0.6852825 0.7278602 -0.02464746 192 192 192 255 0.232441 0.630131
142.3594 -0.087279 332.5732 -0.1025774 0.9942455 -0.03088323 192 192 192 255 0.095262 0.606044
123.5645 -0.001933 145.6328 -0.05730599 0.9953056 0.07799223 192 192 192 255 0.088041 0.677986
93.6543 -0.017821 19.58789 0.009388806 0.9999549 -0.001457001 192 192 192 255 0.076549 0.726492
429.8418 -0.124023 94.42773 0.01969114 0.9981403 0.05769125 192 192 192 255 0.201212 0.946015
375.6934 -0.003192 138.0459 -0.01192245 0.9997308 -0.0199028 192 192 192 255 0.176544 0.926145
476.1992 -0.130639 94.79492 -0.02842447 0.9992896 0.02474797 192 192 192 255 0.222331 0.945848
2.130859 -1.335636 188.6006 -0.6111102 0.7885017 -0.06935097 192 192 192 255 0.041386 0.66145
262.1582 -0.060048 19.94434 9.187959e-05 0.9963081 0.08584886 192 192 192 255 0.141288 0.726355
231.7803 -0.122124 0.813477 -0.01218507 0.7495406 -0.6618463 192 192 192 255 0.129617 0.733717
312.8799 -0.108284 0.730469 0.01885873 0.7568068 -0.6533665 192 192 192 255 0.160776 0.733749
0.489258 -0.096226 32.33301 -0.686684 0.7263298 -0.03016991 192 192 192 255 0.005614 0.974303
330.2139 -0.630986 7.610352 0.05278012 0.9881004 -0.144471 192 192 192 255 0.167435 0.731102
25.2959 -0.006461 92.43945 0.01770629 0.999503 0.0260827 192 192 192 255 0.016915 0.946921
70.1748 -0.00221 406.4336 -0.01552753 0.9981681 -0.05847647 192 192 192 255 0.067529 0.57762
22.7373 -0.002126 408.5107 0.0182204 0.9996099 -0.02116585 192 192 192 255 0.015749 0.802931
406.2109 -0.000901 478.751 -0.02398896 0.9996492 -0.01123043 192 192 192 255 0.190446 0.770932
242.7734 -0.002411 481.2295 0.008128828 0.9970118 -0.07681972 192 192 192 255 0.133841 0.548836
283.2256 -1.922834 469.5947 0.009211465 0.9935499 -0.1130208 192 192 192 255 0.149383 0.553314
348.6963 -0.387128 480.4355 -0.07417568 0.9945986 -0.07260571 192 192 192 255 0.174536 0.549142
164.3047 0.008513 143.2363 0.03579582 0.9971299 -0.06671303 192 192 192 255 0.080242 0.92378
129.2666 -0.045971 361.0381 -0.04674857 0.99806 -0.04111904 192 192 192 255 0.090232 0.59509
22.58496 0.005162 273.8398 0.02707142 0.9985992 0.0454621 192 192 192 255 0.01568 0.864282
498.6748 -1.52871 476.8125 0.7781852 0.6278822 0.01384965 192 192 192 255 0.23257 0.771815
378.8115 -0.985067 99.46777 -0.0760335 0.9939478 -0.07928803 192 192 192 255 0.177964 0.943719
406.3564 -0.009372 56.72266 -0.07243786 0.997291 0.01278743 192 192 192 255 0.190513 0.963193
349.1445 -0.002051 342.7617 0.04341898 0.9986168 -0.02965378 192 192 192 255 0.174709 0.602123
9.902344 -0.020114 232.3936 -0.1656291 0.9860852 -0.01424555 192 192 192 255 0.044372 0.644597
1.955078 -1.256592 257.2148 -0.6384764 0.7684057 0.04359575 192 192 192 255 0.041319 0.635045
277.6924 -1.017051 487.3086 0.044158 0.9959424 0.07841466 192 192 192 255 0.147257 0.546497
108.2705 -0.188893 6.203125 0.05027879 0.8882815 -0.4565392 192 192 192 255 0.082165 0.731643
125.3574 -0.002569 15.47656 0.01778942 0.9979621 -0.06128068 192 192 192 255 0.08873 0.728074
77.94629 -0.067581 499.8057 -0.04115472 0.7022898 0.7107007 192 192 192 255 0.070514 0.541687
23.33789 -0.191093 135.8203 0.1154985 0.9919185 0.05251561 192 192 192 255 0.016023 0.927158
2.612305 -1.706024 103.1543 -0.2867723 0.9579411 -0.01051728 192 192 192 255 0.041571 0.694333
0.494141 -0.107931 86.33203 -0.6784354 0.7331598 0.04692724 192 192 192 255 0.040757 0.700807
105.5146 -0.019938 384.4707 -0.0385233 0.9983423 -0.04276222 192 192 192 255 0.05346 0.813883
347.6445 -0.004479 304.0576 0.122201 0.9925054 -8.621575e-05 192 192 192 255 0.174132 0.617018
500.0068 -1.378274 1.625 0.6452019 0.5405067 -0.5399696 192 192 192 255 0.233177 0.988293
500.0195 -1.073074 152.1475 0.7362214 0.6743716 0.05657737 192 192 192 255 0.233182 0.919721
384.5078 -0.413903 8.101563 -0.04356219 0.9381001 -0.343614 192 192 192 255 0.188295 0.730913
22.87402 -0.018816 311.5518 0.1068965 0.9921896 -0.06428722 192 192 192 255 0.049356 0.614134
409.6357 -0.140953 0.764648 -0.02215054 0.7389027 -0.673448 192 192 192 255 0.197949 0.733736
490.2783 -0.072515 0.738281 0.07012426 0.7144281 -0.6961861 192 192 192 255 0.228932 0.733746
422.5723 0.000981 76.85742 -0.05394399 0.9978991 0.03588293 192 192 192 255 0.202919 0.704453
496.2676 -0.223439 419.8193 0.3117009 0.9499117 0.02259427 192 192 192 255 0.231473 0.797779
248.4199 -0.041169 499.7227 0.02991261 0.712637 0.700895 192 192 192 255 0.118562 0.761378
15.19824 -0.002128 20.39844 -0.1007141 0.9914774 -0.0826393 192 192 192 255 0.046407 0.72618
218.0693 -0.119756 347.0439 0.01292727 0.9923851 0.1224935 192 192 192 255 0.104736 0.830933
151.4561 -0.000982 147.6484 -0.01787939 0.9996225 0.02086532 192 192 192 255 0.098757 0.67721
307.6035 -1.332959 483.3574 0.002010323 0.9908633 0.1348549 192 192 192 255 0.145524 0.768834
500.002 -1.212099 395.2285 0.8059326 0.5919735 0.006331822 192 192 192 255 0.233174 0.808982
80.91211 -0.098542 0.762695 0.01202058 0.7367762 -0.6760298 192 192 192 255 0.042252 0.988686
487.2119 -1.442442 231.4141 0.1710231 0.9851579 -0.01466453 192 192 192 255 0.227348 0.88361
18.33594 -0.330899 482.6084 -0.08652645 0.9881274 0.1269543 192 192 192 255 0.047612 0.548305
156.2646 0.000514 206.3613 -0.07087103 0.9974849 0.001163542 192 192 192 255 0.100604 0.654615
485.6191 -0.593404 197.7422 -0.05607189 0.9981452 0.02370748 192 192 192 255 0.226622 0.898949
493.2227 -0.4406 197.3008 0.2916761 0.9562199 -0.02384532 192 192 192 255 0.230086 0.89915
197.4824 -0.003136 14.48926 -0.02626984 0.9871964 -0.1573314 192 192 192 255 0.11644 0.728454
3.133789 -1.565578 481.8398 -0.5191286 0.8434223 0.1383631 192 192 192 255 0.006819 0.769525
0.336914 -0.220465 118.7217 -0.6742411 0.7380577 -0.02587798 192 192 192 255 0.005544 0.934948
15.10938 -0.0964 145.2109 -0.04127305 0.9962878 0.07554582 192 192 192 255 0.012274 0.922881
20.48926 -1.94683 494.6074 -0.1076314 0.9331294 0.3430527 192 192 192 255 0.014725 0.763709
480.4668 -0.001935 418.2715 0.01289126 0.9987071 -0.04917412 192 192 192 255 0.225163 0.573065
77.37012 0.005151 481.668 0.05169787 0.9981582 0.031743 192 192 192 255 0.070293 0.548667
3 195 127 13 
3 243 91 195 
3 186 168 6 
3 74 175 185 
3 169 126 13 
3 224 98 55 
3 244 201 220 
3 226 221 96 
3 44 60 246 
3 20 25 237 
3 27 49 18 
3 6 45 158 
3 163 252 134 
3 185 175 92 
3 31 134 78 
3 166 66 81 
3 138 250 209 
3 199 182 253 
3 242 198 238 
3 7 172 175 
3 49 241 18 
3 203 225 4 
3 48 1 254 
3 57 122 41 
3 208 239 111 
3 89 51 240 
3 247 228 51 
3 255 256 106 
3 39 30 159 
3 163 197 252 
3 45 229 79 
3 155 139 188 
3 155 83 143 
3 172 7 22 
3 83 90 143 
3 6 257 186 
3 173 6 158 
3 118 238 207 
3 34 108 195 
3 258 4 103 
3 187 67 75 
3 60 226 246 
3 64 63 193 
3 79 31 78 
3 52 179 178 
3 96 191 33 
3 18 17 203 
3 27 3 196 
3 3 203 102 
3 219 235 106 
3 172 14 148 
3 22 37 172 
3 29 222 259 
3 146 8 226 
3 173 257 6 
3 155 188 213 
3 23 36 22 
3 155 213 183 
3 138 260 88 
3 216 91 243 
3 209 170 249 
3 125 171 209 
3 247 51 89 
3 0 167 223 
3 192 106 154 
3 69 111 239 
3 261 219 144 
3 59 118 2 
3 36 23 262 
3 74 7 175 
3 3 12 196 
3 47 144 219 
3 38 55 135 
3 239 263 69 
3 16 264 154 
3 145 167 0 
3 234 13 71 
3 98 87 55 
3 13 126 135 
3 13 135 87 
3 265 177 88 
3 266 93 109 
3 250 80 140 
3 140 209 250 
3 88 177 250 
3 177 80 250 
3 267 56 211 
3 268 185 92 
3 227 153 76 
3 109 149 171 
3 118 42 238 
3 179 248 178 
3 43 234 71 
3 152 120 249 
3 249 115 48 
3 96 221 117 
3 136 35 269 
3 80 166 140 
3 140 131 209 
3 270 271 234 
3 166 15 140 
3 68 15 10 
3 95 171 81 
3 81 171 125 
3 68 10 81 
3 188 21 180 
3 204 247 89 
3 272 88 58 
3 58 88 273 
3 151 233 198 
3 44 205 46 
3 145 274 204 
3 275 137 44 
3 259 8 276 
3 259 222 8 
3 203 3 18 
3 27 18 3 
3 159 219 261 
3 228 53 239 
3 45 79 130 
3 266 85 265 
3 20 76 50 
3 277 252 197 
3 163 134 31 
3 166 10 15 
3 23 74 262 
3 147 24 180 
3 245 147 180 
3 213 147 183 
3 213 24 147 
3 201 262 218 
3 176 26 19 
3 278 21 279 
3 21 278 280 
3 74 185 223 
3 223 185 268 
3 215 281 226 
3 121 57 124 
3 267 165 56 
3 80 54 66 
3 80 66 166 
3 168 197 62 
3 197 282 277 
3 62 197 163 
3 7 23 22 
3 23 7 74 
3 56 123 206 
3 213 188 24 
3 86 162 227 
3 283 284 119 
3 118 285 42 
3 72 86 253 
3 105 284 286 
3 20 242 25 
3 25 242 287 
3 246 33 288 
3 288 33 191 
3 289 190 1 
3 254 1 190 
3 254 190 122 
3 219 256 290 
3 251 113 9 
3 113 43 71 
3 251 43 113 
3 8 222 226 
3 222 184 232 
3 242 238 287 
3 238 42 287 
3 141 30 5 
3 235 219 30 
3 106 235 141 
3 141 235 30 
3 160 141 5 
3 212 31 79 
3 62 32 82 
3 62 163 32 
3 50 151 198 
3 117 157 96 
3 203 291 292 
3 3 102 12 
3 12 263 293 
3 146 226 60 
3 152 249 149 
3 294 93 266 
3 294 20 237 
3 275 44 295 
3 249 120 115 
3 296 269 35 
3 289 178 190 
3 52 178 289 
3 297 159 261 
3 21 298 279 
3 112 273 256 
3 153 94 76 
3 188 139 199 
3 21 199 299 
3 161 300 92 
3 107 204 89 
3 158 45 130 
3 130 63 64 
3 28 87 98 
3 281 108 34 
3 278 279 265 
3 279 266 265 
3 35 231 296 
3 301 129 302 
3 184 222 29 
3 217 232 61 
3 83 21 280 
3 83 280 90 
3 272 265 88 
3 172 37 14 
3 164 303 38 
3 5 30 39 
3 156 34 234 
3 271 156 234 
3 70 304 305 
3 100 153 227 
3 162 100 227 
3 105 40 206 
3 133 70 305 
3 108 11 195 
3 97 130 64 
3 97 158 130 
3 224 306 98 
3 210 28 98 
3 42 116 307 
3 247 65 228 
3 32 163 31 
3 119 105 206 
3 131 125 209 
3 308 309 243 
3 266 109 110 
3 274 247 204 
3 271 202 156 
3 44 246 205 
3 310 1 48 
3 168 45 6 
3 168 150 45 
3 45 150 84 
3 58 273 112 
3 161 311 300 
3 151 207 233 
3 218 262 104 
3 232 184 61 
3 167 74 223 
3 75 67 258 
3 312 143 313 
3 165 123 56 
3 215 108 281 
3 215 61 108 
3 273 88 260 
3 230 241 49 
3 241 230 18 
3 114 206 220 
3 99 122 19 
3 122 99 41 
3 314 40 105 
3 15 236 140 
3 60 44 137 
3 51 208 240 
3 302 129 34 
3 294 237 93 
3 229 212 79 
3 150 82 84 
3 142 60 137 
3 226 281 221 
3 214 89 201 
3 96 315 191 
3 316 317 40 
3 123 119 206 
3 169 189 126 
3 111 38 135 
3 87 135 55 
3 135 208 111 
3 281 129 301 
3 66 109 95 
3 287 42 307 
3 318 97 64 
3 319 16 154 
3 154 141 160 
3 75 103 17 
3 57 41 320 
3 267 77 165 
3 139 182 199 
3 63 79 78 
3 11 132 61 
3 61 132 108 
3 11 243 195 
3 308 243 11 
3 267 181 321 
3 218 104 107 
3 226 96 246 
3 104 204 107 
3 102 292 164 
3 160 159 297 
3 74 101 262 
3 26 178 19 
3 253 86 227 
3 186 282 168 
3 17 225 203 
3 225 103 4 
3 168 62 150 
3 132 11 108 
3 66 95 81 
3 138 322 260 
3 200 148 161 
3 69 164 38 
3 311 148 14 
3 282 197 168 
3 56 114 169 
3 102 164 12 
3 198 233 238 
3 276 146 323 
3 122 176 73 
3 121 124 324 
3 130 79 63 
3 16 319 325 
3 326 59 2 
3 77 304 165 
3 214 107 89 
3 236 174 131 
3 16 327 264 
3 328 9 210 
3 117 202 157 
3 2 194 50 
3 314 105 286 
3 218 107 214 
3 329 142 137 
3 82 32 212 
3 84 212 229 
3 183 147 245 
3 83 245 21 
3 155 183 83 
3 85 266 110 
3 110 54 85 
3 28 113 87 
3 226 232 217 
3 175 148 200 
3 175 172 148 
3 175 200 161 
3 171 170 209 
3 201 89 189 
3 124 57 320 
3 321 181 216 
3 245 180 21 
3 53 228 65 
3 319 160 297 
3 90 330 331 
3 46 246 288 
3 173 158 97 
3 318 173 97 
3 181 267 91 
3 240 208 126 
3 135 126 208 
3 189 240 126 
3 89 240 189 
3 68 174 15 
3 125 68 81 
3 295 44 46 
3 178 99 19 
3 150 62 82 
3 15 174 236 
3 102 203 292 
3 149 93 152 
3 157 271 315 
3 164 69 263 
3 304 70 165 
3 228 239 208 
3 110 109 66 
3 188 180 24 
3 56 206 114 
3 114 220 169 
3 138 48 322 
3 84 82 212 
3 154 106 141 
3 175 161 92 
3 85 54 80 
3 123 283 119 
3 63 78 193 
3 306 210 98 
3 302 202 117 
3 246 96 33 
3 181 91 216 
3 190 176 122 
3 190 26 176 
3 96 157 315 
3 68 125 174 
3 56 169 127 
3 127 169 13 
3 169 128 189 
3 129 281 34 
3 103 225 17 
3 182 72 253 
3 142 146 60 
3 133 305 332 
3 123 133 332 
3 9 28 210 
3 38 224 55 
3 187 75 230 
3 106 256 219 
3 160 39 159 
3 248 333 99 
3 267 211 91 
3 230 75 17 
3 28 9 113 
3 20 50 242 
3 50 198 242 
3 323 146 142 
3 113 71 87 
3 34 195 234 
3 202 302 156 
3 143 90 313 
3 307 334 335 
3 204 104 145 
3 194 118 207 
3 70 123 165 
3 99 333 336 
3 236 131 140 
3 169 220 128 
3 220 201 128 
3 73 19 122 
3 50 194 151 
3 0 223 337 
3 223 268 337 
3 312 155 143 
3 319 154 160 
3 217 61 215 
3 131 174 125 
3 4 338 203 
3 203 338 291 
3 160 5 39 
3 205 246 46 
3 109 171 95 
3 255 112 256 
3 284 105 119 
3 326 2 94 
3 176 19 73 
3 123 332 283 
3 69 38 111 
3 226 222 232 
3 2 76 94 
3 76 2 50 
3 302 34 156 
3 115 310 48 
3 177 85 80 
3 178 248 99 
3 116 334 307 
3 149 170 171 
3 149 249 170 
3 83 183 245 
3 54 110 66 
3 188 199 21 
3 331 330 327 
3 101 167 145 
3 70 133 123 
3 128 201 189 
3 192 255 106 
3 211 127 195 
3 329 323 142 
3 328 210 306 
3 290 47 219 
3 40 317 206 
3 211 56 127 
3 212 32 31 
3 71 13 87 
3 219 159 30 
3 329 137 275 
3 251 270 43 
3 206 317 220 
3 265 85 177 
3 271 157 202 
3 217 215 226 
3 51 228 208 
3 10 166 81 
3 187 230 49 
3 230 17 18 
3 148 311 161 
3 91 211 195 
3 195 13 234 
3 8 146 276 
3 316 40 314 
3 207 238 233 
3 263 12 164 
3 201 218 214 
3 194 207 151 
3 103 75 258 
3 249 138 209 
3 101 74 167 
3 190 178 26 
3 317 244 220 
3 138 88 250 
3 309 216 243 
3 38 303 224 
3 196 12 293 
3 270 234 43 
3 93 149 109 
3 249 48 138 
3 84 229 45 
3 2 118 194 
