ply
format ascii 1.0
comment VCGLIB generated
comment TextureFile Dungeons_2_Texture_01_A.png
element vertex 431
property float x
property float y
property float z
property float nx
property float ny
property float nz
property uchar red
property uchar green
property uchar blue
property uchar alpha
property float texture_u
property float texture_v
element face 600
property list uchar int vertex_indices
end_header
499.7734 -22.78248 0.124023 0.5810235 -0.5715373 -0.5794453 192 192 192 255 0.23258 0.733983
445.3555 -0.124829 54.60254 0.05467908 0.997018 -0.05445478 192 192 192 255 0.211673 0.713017
325.916 -0.111365 490.5703 -2.454776e-06 0.9555407 -0.2948595 192 192 192 255 0.165784 0.545241
100.7227 -8.166191 0.006836 -0.03336648 0.3907941 -0.9198732 192 192 192 255 0.079265 0.734028
293.0264 -3.017413 35.39258 0.00759391 0.9975439 -0.06963108 192 192 192 255 0.153148 0.72041
492.125 0.044343 7.666016 -0.04128569 0.9980719 0.04634717 192 192 192 255 0.229642 0.73108
499.7695 -8.086342 271.4746 0.8459145 0.5329813 0.01896377 192 192 192 255 0.232579 0.629557
287.6162 -1.197411 334.6982 -0.01991815 0.9978744 -0.06204776 192 192 192 255 0.136419 0.836557
327.3525 -1.187525 173.5342 -0.01992907 0.9996061 0.01975915 192 192 192 255 0.154521 0.909977
125.7832 -0.097588 490.6338 0.03397934 0.9455042 -0.323832 192 192 192 255 0.062693 0.765519
432.8604 -0.409793 122.3877 0.08858734 0.9951744 0.04219226 192 192 192 255 0.202587 0.933278
452.3975 -1.616709 386.458 0.1710126 0.9852656 -0.002558997 192 192 192 255 0.211487 0.812977
186.9287 -0.042848 414.7881 0.003906088 0.9994187 0.0338688 192 192 192 255 0.090549 0.800071
131.3867 -3.495509 50.92969 0.05949938 0.9979903 -0.02180219 192 192 192 255 0.091046 0.714431
424.8213 -0.174879 0.102539 -0.05254337 0.7078487 -0.7044071 192 192 192 255 0.198925 0.988986
27.19922 -2.938055 13.3584 -0.2297049 0.9615358 0.1506146 192 192 192 255 0.051017 0.72889
448.873 -4.589374 138.667 0.0432116 0.9990582 -0.003932741 192 192 192 255 0.213024 0.680666
342.2178 -4.913463 45.09082 -0.007691967 0.979977 0.1989622 192 192 192 255 0.172047 0.716678
115.1387 -0.041245 326.3955 0.01943518 0.9996961 0.01516358 192 192 192 255 0.057844 0.84034
436.9678 -0.041369 377.498 0.06036526 0.9981726 0.002742154 192 192 192 255 0.204458 0.817059
455.5791 -1.624686 347.46 0.1348682 0.9905 0.02683768 192 192 192 255 0.215601 0.600315
148.1592 -4.237537 486.1426 0.08055531 0.9888096 0.1255642 192 192 192 255 0.09749 0.546945
9.490234 -0.285359 249.8906 0.2287998 0.9559894 0.1836711 192 192 192 255 0.044214 0.637864
1.081055 -1.019196 241.2539 -0.6960945 0.7142227 0.07306434 192 192 192 255 0.040983 0.641187
5.448242 -6.74363 268.0898 -0.4013324 0.91355 -0.06602172 192 192 192 255 0.042661 0.63086
0.323242 -0.108054 213.123 -0.6850746 0.7236508 0.08368129 192 192 192 255 0.040692 0.652013
7.516602 0.041341 213.0879 0.1671773 0.9845387 0.05229974 192 192 192 255 0.008815 0.891958
445.0684 -0.076361 343.9688 0.07974176 0.9957744 0.04554618 192 192 192 255 0.208149 0.832334
118.9404 -0.042724 424.4229 -0.0007843488 0.9999961 0.002686898 192 192 192 255 0.059576 0.795682
221.9404 -1.173869 434.1875 -0.1403518 0.9644205 0.2240414 192 192 192 255 0.106499 0.791234
222.6787 -0.046761 431.6191 -0.1307796 0.9767768 0.1697172 192 192 192 255 0.106836 0.792404
265.874 -3.08455 311.3184 -0.01080811 0.9999406 -0.001399373 192 192 192 255 0.142716 0.614224
54.3252 -0.167064 445.6973 -0.05360851 0.9968926 0.05771789 192 192 192 255 0.03014 0.78599
203.9727 -1.191794 336.7734 0.01334251 0.9994166 -0.03143956 192 192 192 255 0.098314 0.835612
392.7178 -2.583606 234.6543 -0.212409 0.9767546 -0.02886006 192 192 192 255 0.1843 0.882133
187.3691 -0.041219 68.46484 -0.06595437 0.9866736 -0.1487457 192 192 192 255 0.09075 0.957843
101.9551 -3.091599 21.73535 -0.02635458 0.996521 -0.07906567 192 192 192 255 0.079739 0.725666
149.1338 -2.625312 164.6523 -0.04944646 0.9980347 0.03849423 192 192 192 255 0.097865 0.670666
485.3799 -3.417591 275.3477 0.08709803 0.9959418 -0.02267224 192 192 192 255 0.22705 0.628067
14.95898 -9.67559 0.915039 -0.03558486 0.4224719 -0.9056773 192 192 192 255 0.046315 0.733678
386.1328 -0.186816 264.5479 -0.09641879 0.9935761 -0.05924475 192 192 192 255 0.1813 0.868515
411.0703 -0.047138 238.9219 -0.0005814505 0.9999998 0.0004529752 192 192 192 255 0.19266 0.880189
313.9482 -0.048311 57.10938 0.1145945 0.9871499 -0.1113701 192 192 192 255 0.148415 0.963016
495.1172 -22.90051 495.5488 0.009652073 -0.9998842 0.01176526 192 192 192 255 0.230791 0.543326
40.2373 -2.620935 131.1963 0.01089318 0.9955847 0.09323402 192 192 192 255 0.056027 0.683541
404.8076 -3.144553 466.2773 0.01725531 0.9989374 0.04273567 192 192 192 255 0.196094 0.55459
0.621094 -8.397097 499.4238 -0.6905926 0.1950263 0.6964529 192 192 192 255 0.040806 0.541834
207.2412 -7.217254 499.3682 0.02488562 -0.03213513 0.9991737 192 192 192 255 0.120189 0.541856
499.999 -7.538566 241.0479 0.9062245 0.422528 -0.01508036 192 192 192 255 0.232667 0.641267
498.2188 -4.311374 221.5557 0.5247748 0.8509545 0.02208625 192 192 192 255 0.231983 0.648768
490.2773 -0.589787 239.7891 0.05892663 0.9982373 -0.007073191 192 192 192 255 0.228932 0.641751
245.6182 -3.139363 466.3398 -0.01409523 0.9994088 0.03135727 192 192 192 255 0.134934 0.554566
9.517578 -0.207634 478.4336 0.3058534 0.9480184 0.08783481 192 192 192 255 0.044224 0.549912
33.9873 -3.095781 34.03125 -0.02170885 0.9997497 -0.005409834 192 192 192 255 0.053625 0.720934
163.1787 -2.215156 353.9004 0.008190211 0.9999102 -0.01061043 192 192 192 255 0.079729 0.827809
381.9395 -1.654001 455.7383 0.007358271 0.9902193 0.1393258 192 192 192 255 0.187308 0.558646
379.5244 -0.096128 445.2051 0.008034709 0.9970104 0.0768497 192 192 192 255 0.178289 0.786214
444.8174 -0.042953 85.94727 0.07413811 0.9971806 0.01158989 192 192 192 255 0.208034 0.949879
129.2588 -2.938019 187.3223 0.1077563 0.9941624 0.005441122 192 192 192 255 0.090229 0.661942
348.9121 -0.026661 70.51953 0.03522391 0.9746155 -0.2210971 192 192 192 255 0.164343 0.956907
60.7959 -0.460095 0.400391 0.1349224 0.783594 -0.6064457 192 192 192 255 0.063925 0.733876
444.5742 -4.198368 460.1797 -0.003087368 0.9969952 -0.07740303 192 192 192 255 0.211373 0.556937
150.1768 -1.301056 224.8428 -0.08028847 0.9956962 -0.04628999 192 192 192 255 0.098265 0.647503
174.0234 -0.454242 431.5342 0.1500404 0.9732298 0.1741027 192 192 192 255 0.08467 0.792442
240.3047 -1.152499 497.5791 0.07978887 0.3706628 0.9253339 192 192 192 255 0.132892 0.542544
54.84277 -4.441031 171.542 -0.03399748 0.9989418 -0.03097571 192 192 192 255 0.061638 0.668015
494.5781 -0.008193 494.8701 0.005473971 0.99997 0.00547298 192 192 192 255 0.230704 0.763589
258.6943 -0.007573 494.8477 -0.101951 0.974136 0.2016559 192 192 192 255 0.123243 0.763599
454.46 -2.133528 374.5508 0.09976652 0.9949976 -0.005141897 192 192 192 255 0.215171 0.58989
430.6953 -0.049126 354.8359 0.02775736 0.9995867 0.007484789 192 192 192 255 0.201601 0.827383
160.8975 -1.18977 205.3359 -0.04392356 0.9990184 -0.005752378 192 192 192 255 0.07869 0.89549
4.12793 -22.90053 4.230469 -0.01355401 -0.9998778 -0.007792608 192 192 192 255 0.042153 0.732402
185.8896 -1.001469 449.3477 0.03673441 0.9992039 -0.01556523 192 192 192 255 0.090076 0.784327
0.176758 -7.897787 12.35059 -0.7554016 0.6491687 -0.08915442 192 192 192 255 0.040635 0.729277
218.0137 -3.826949 451.0811 -0.004761175 0.9989663 0.04520763 192 192 192 255 0.124328 0.560438
93.00488 -0.167543 54.29785 0.01247448 0.9966627 -0.08067182 192 192 192 255 0.0763 0.713135
378.9697 -8.88635 1.904297 -0.01669853 0.6059682 -0.7953136 192 192 192 255 0.186167 0.733298
-0.040039 -21.93046 259.6641 -0.9989289 -0.0461857 -0.002835341 192 192 192 255 0.040552 0.634102
314.2148 -3.119154 311.2461 -0.07105027 0.9968952 -0.03393857 192 192 192 255 0.161289 0.614252
500.0039 -0.867797 178.8584 0.7517332 0.6593586 0.01198157 192 192 192 255 0.232669 0.665199
28.91211 -0.110877 490.5986 -0.03486171 0.9740657 -0.2235637 192 192 192 255 0.051675 0.545231
154.4316 -0.043721 375.0225 -0.01494573 0.9947463 -0.1012743 192 192 192 255 0.075745 0.818187
500.001 -21.26887 148.1523 0.9925249 -0.1219666 -0.004311041 192 192 192 255 0.232668 0.677016
125.8193 -0.451146 73.55371 0.01896401 0.998372 -0.05379362 192 192 192 255 0.06271 0.955525
10.62891 -3.28227 287.79 -0.07039358 0.9955369 -0.06285785 192 192 192 255 0.044651 0.623278
272.9219 -1.187568 356.4658 -0.02523237 0.9991985 -0.03107503 192 192 192 255 0.129725 0.826641
178.6846 -2.318918 41.10254 -0.02604283 0.9980747 -0.05629222 192 192 192 255 0.109218 0.718213
361.2109 -3.388884 10.49707 0.06389634 0.9803105 -0.1868385 192 192 192 255 0.179345 0.729991
250.583 -0.109536 0.341797 -1.930778e-05 0.8203545 -0.5718554 192 192 192 255 0.119548 0.988877
122.3555 -1.099537 350.0498 0.1775921 0.9840751 -0.007565748 192 192 192 255 0.087576 0.599319
377.3301 -3.625745 250.5312 -0.01551515 0.9973453 -0.07114567 192 192 192 255 0.185538 0.637617
206.2275 -0.042442 418.0107 -0.009790586 0.9992347 0.03787145 192 192 192 255 0.099341 0.798603
490.6328 -0.106463 488.6104 -0.1157464 0.9888694 -0.09348805 192 192 192 255 0.229068 0.545996
236.7002 -1.512699 340.5898 0.06147337 0.9947669 -0.08160829 192 192 192 255 0.113223 0.833873
490.6367 -0.091364 299.5732 -0.2430612 0.9685399 -0.05340151 192 192 192 255 0.22907 0.618744
429.2705 -0.067051 394.8301 0.09842674 0.9941421 0.04464947 192 192 192 255 0.200952 0.809163
486.6377 -2.982599 16.51172 -0.2067575 0.9715498 0.1155093 192 192 192 255 0.227533 0.727676
29.46484 -0.276059 9.476563 -0.2150714 0.9592968 0.1830132 192 192 192 255 0.018814 0.984716
146.2734 -8.712841 500.001 0.1587785 0.4585966 0.8743447 192 192 192 255 0.096766 0.541612
143.2822 -1.190221 335.3486 0.008958434 0.9995444 0.02882199 192 192 192 255 0.070665 0.836261
68.72852 -2.518605 169.8369 -0.4183523 0.9082212 0.01075262 192 192 192 255 0.066973 0.668671
157.1426 -1.422889 369.5547 0.01387283 0.9899192 -0.1409523 192 192 192 255 0.100942 0.591813
413.6611 -0.050826 429.4316 0.03896588 0.9985011 0.03843594 192 192 192 255 0.193841 0.7934
237.6582 -18.08303 500.001 -0.01575869 0.0189485 0.9996963 192 192 192 255 0.131876 0.541612
239.7393 -3.234117 317.8779 0.0105322 0.9994598 0.03113209 192 192 192 255 0.132675 0.6117
499.5605 -22.80616 175.6396 0.6112454 -0.7914412 4.71664e-05 192 192 192 255 0.232498 0.666438
16.89258 -6.443498 4.291016 -0.2328845 0.9124667 -0.3364066 192 192 192 255 0.047058 0.732379
429.1025 -3.255338 449.252 0.06185649 0.994652 0.08271195 192 192 192 255 0.205428 0.561142
176.8389 -1.754457 432.9834 0.1203782 0.9814749 0.1490507 192 192 192 255 0.085953 0.791782
466.2861 -3.118077 260.9414 0.07506184 0.9971782 0.001137537 192 192 192 255 0.219714 0.633611
116.9619 -0.043903 219.5 0.09301087 0.9956637 -0.001667753 192 192 192 255 0.058675 0.889037
311.3564 -0.058393 9.337891 0.01462021 0.947127 0.3205256 192 192 192 255 0.16019 0.730437
0.743164 -9.07356 0.779297 -0.5801079 0.5340965 -0.6149925 192 192 192 255 0.040853 0.733731
318.832 -2.350569 49.94434 0.104177 0.9801627 -0.1686072 192 192 192 255 0.163063 0.71481
156 -4.234205 50.00879 -0.01682506 0.9988261 0.04542414 192 192 192 255 0.100503 0.714785
380.5488 -3.170355 33.79883 0.000445715 0.9967141 -0.08099924 192 192 192 255 0.186774 0.721023
377.5225 -1.068321 500.0352 -7.736948e-05 0.6307954 0.7759493 192 192 192 255 0.177377 0.761236
314.9336 -3.101481 185.4609 -0.05477192 0.9965894 0.06172301 192 192 192 255 0.161565 0.662658
15.69922 -3.146113 186.957 0.1815318 0.9833851 -6.771289e-05 192 192 192 255 0.046599 0.662083
226.4131 -3.145691 33.93555 -0.0004693809 0.9978422 -0.06565674 192 192 192 255 0.127555 0.720971
184.1318 -1.40153 359.0391 -0.01134544 0.9999225 -0.005118323 192 192 192 255 0.089275 0.825468
0.076172 -5.552118 296.8438 -0.9266562 0.3664903 -0.08362442 192 192 192 255 0.040597 0.619794
345.2666 -14.714 0.036133 0.01757032 0.08669797 -0.9960797 192 192 192 255 0.173219 0.734017
367.1191 -1.840639 219.6777 0.02510555 0.9991009 0.03416326 192 192 192 255 0.172638 0.888956
156.0107 -1.826549 450.293 0.0159911 0.9967706 0.07869345 192 192 192 255 0.100507 0.560742
495.4854 -22.90051 4.077148 0.01012904 -0.9998848 -0.01130086 192 192 192 255 0.230933 0.732461
1.233398 -2.361112 223.2666 -0.6577816 0.7430134 0.1235095 192 192 192 255 0.005953 0.887321
241.0605 -1.807385 450.7041 -0.05150402 0.9914597 0.1198123 192 192 192 255 0.133183 0.560583
375.2412 -0.054793 196.2559 -0.06655473 0.9974448 0.02596795 192 192 192 255 0.176338 0.899626
250.6943 -3.082341 477.416 -0.004161844 0.9999865 -0.003101413 192 192 192 255 0.136884 0.550304
38.23828 -0.04802 0.417969 -0.06402113 0.7279805 -0.6826021 192 192 192 255 0.055259 0.73387
125.0449 -0.040806 124.4004 0.008577699 0.9999247 0.008782077 192 192 192 255 0.062357 0.932361
356.6797 -1.187948 143.0479 -0.02706859 0.9994975 0.0164968 192 192 192 255 0.167882 0.923866
246.7324 -1.028933 368.9082 0.004708573 0.9946429 -0.1032634 192 192 192 255 0.117794 0.820972
102.7568 -3.006392 486.2949 0.002946251 0.9557475 -0.2941734 192 192 192 255 0.080047 0.546887
466.3965 -3.096421 465.6973 -0.009051577 0.9999561 -0.002400918 192 192 192 255 0.219757 0.554814
0.134766 -0.14171 319.2363 -0.6549012 0.7543258 -0.04579407 192 192 192 255 0.040619 0.611177
274.8008 -0.069522 444.9346 -0.006094939 0.996648 0.08158206 192 192 192 255 0.130581 0.786338
1.071289 -9.681844 253.5322 -0.896596 0.4198401 0.1408904 192 192 192 255 0.040979 0.636462
367.3125 -3.20419 238.4922 0.2199162 0.9745234 0.04405635 192 192 192 255 0.181689 0.64225
2.147461 -4.059513 496.2676 -0.4700908 0.7820411 0.4091778 192 192 192 255 0.041392 0.543049
376.4902 -0.0407 376.4814 -0.008118479 0.9999367 -0.00778884 192 192 192 255 0.176907 0.817522
13.39941 -2.793478 99.65332 0.2777103 0.9606594 -0.003263005 192 192 192 255 0.045715 0.69568
143.9043 -2.706827 201.1299 -0.04930076 0.998782 0.00198706 192 192 192 255 0.095855 0.656628
495.7588 -3.837071 500.0029 0.02160994 0.007963441 0.9997348 192 192 192 255 0.231038 0.541611
436.6162 -1.668741 156.5312 0.004982509 0.9898787 -0.1418287 192 192 192 255 0.208315 0.673792
84.00684 -2.32655 458.8916 -7.153324e-05 0.9905874 0.1368818 192 192 192 255 0.043662 0.779979
332.1709 -2.966489 486.1562 0.0004923291 0.9569337 -0.2903062 192 192 192 255 0.168187 0.54694
316.2051 -1.109408 -0.013672 0.02106823 0.194645 -0.9806475 192 192 192 255 0.162053 0.734036
24.39453 -0.055906 499.4365 -0.08607991 0.7425498 0.6642365 192 192 192 255 0.04994 0.541829
424.5684 -22.76795 499.751 0.0003659103 -0.7019686 0.7122079 192 192 192 255 0.203686 0.541708
317.8682 -0.091825 0.411133 0.1087676 0.7814027 -0.614475 192 192 192 255 0.150201 0.988846
298.8496 -0.911704 370.0078 -0.0003673005 0.995954 -0.08986437 192 192 192 255 0.141536 0.820472
0.140625 -4.791148 32.16699 -0.7691548 0.6243219 -0.1364669 192 192 192 255 0.040621 0.721651
7.53418 0.051314 53.5791 0.2543526 0.9661933 -0.04213512 192 192 192 255 0.008823 0.964625
54.40918 -0.154748 114.8848 -0.09099168 0.9956805 0.01846458 192 192 192 255 0.061471 0.689819
52.37305 -3.094178 147.7725 -0.1020427 0.9935534 0.04938667 192 192 192 255 0.060689 0.677162
323.3008 -1.099386 130.6592 0.01298769 0.9987602 0.0480553 192 192 192 255 0.152675 0.92951
273.4336 -0.040436 124.5029 -0.002332159 0.9989955 0.04474903 192 192 192 255 0.129958 0.932314
157.0723 -1.245438 148.5703 -0.003921648 0.9995202 0.03072597 192 192 192 255 0.076948 0.92135
497.8096 -3.272134 255.4043 0.5979296 0.7996488 0.05515534 192 192 192 255 0.231826 0.635742
433.2305 -0.552939 429.1582 0.1821189 0.9832764 -0.0004981421 192 192 192 255 0.207014 0.568875
54.5918 -0.134967 54.5752 -0.05810277 0.9969611 -0.0518918 192 192 192 255 0.061542 0.713028
169.8633 -1.382446 81.52637 -0.1012518 0.9907649 -0.09018402 192 192 192 255 0.082775 0.951893
186.7939 -3.130569 15.64844 0.002896033 0.9797818 0.200048 192 192 192 255 0.112334 0.728008
306.3086 -2.937577 13.27734 0.0004968628 0.9387926 0.3444825 192 192 192 255 0.158251 0.728921
148.5791 -0.07764 9.239258 -0.015602 0.9808089 0.1943463 192 192 192 255 0.097651 0.730475
100.1416 -0.041546 73.33301 0.005530476 0.9999622 -0.006706493 192 192 192 255 0.051012 0.955625
130.7373 -1.085538 249.9756 0.07747771 0.9962717 -0.03794835 192 192 192 255 0.06495 0.875154
125.4473 -0.057387 321.2725 0.03511564 0.9992119 0.01850803 192 192 192 255 0.06254 0.842673
229.2754 -0.038389 56.78418 -0.005507069 0.9976763 -0.06790976 192 192 192 255 0.109841 0.963164
41.1084 -4.206427 137.749 0.1555439 0.9834186 0.09324117 192 192 192 255 0.056361 0.68102
331.166 -3.122383 15.81152 0.07233724 0.9964327 0.04346558 192 192 192 255 0.167801 0.727946
193.3496 -1.094734 130.7441 0.0008500876 0.9962201 0.08686175 192 192 192 255 0.093474 0.929471
43.88672 -1.666326 195.3428 -0.06385879 0.9970477 -0.04263755 192 192 192 255 0.057429 0.658856
371.7324 -0.041605 77.35254 -0.01972016 0.9990888 -0.03785258 192 192 192 255 0.174739 0.953794
486.1113 -3.084505 188.7109 -0.1485628 0.9877576 0.04758273 192 192 192 255 0.227331 0.661408
172.9043 -2.617618 64.58594 -0.07838896 0.9944825 -0.06971275 192 192 192 255 0.106997 0.709175
130.3291 -0.17733 445.7988 0.02972494 0.996387 0.07955787 192 192 192 255 0.064764 0.785944
69.55273 -3.488105 21.98047 0.0437771 0.9979087 -0.04756061 192 192 192 255 0.06729 0.725572
119.4746 -3.214169 15.10156 -0.0519099 0.9986246 0.007367045 192 192 192 255 0.08647 0.728219
103.498 -5.013708 3.408203 -0.1366451 0.9325143 -0.3342834 192 192 192 255 0.080331 0.732719
0.087891 -22.80953 297.2939 -0.613485 -0.7897004 -0.003081913 192 192 192 255 0.040601 0.619621
456.5498 -1.866972 427.5068 0.03370022 0.9992321 0.01998997 192 192 192 255 0.215974 0.569511
326.1729 -1.187657 325.5273 -0.02438896 0.9994842 -0.02089261 192 192 192 255 0.153984 0.840735
367.2402 -3.661747 13.79492 0.06496972 0.9884902 -0.1366241 192 192 192 255 0.181661 0.728722
143.3975 -0.04182 430.168 0.01235072 0.9993526 0.03379329 192 192 192 255 0.070718 0.793065
141.5469 -0.043495 396.2227 -0.006029331 0.9996975 -0.02384295 192 192 192 255 0.069875 0.808529
185.3564 -3.100077 185.7061 0.06091153 0.9964508 0.05810102 192 192 192 255 0.111781 0.662564
492.1055 0.053087 182.1523 -0.1786665 0.9828892 0.04480189 192 192 192 255 0.229577 0.906051
0.125977 -22.79061 0.128906 -0.5841343 -0.5536659 -0.5934992 192 192 192 255 0.040616 0.733981
499.291 -0.078012 119.4258 0.7038369 0.7103404 -0.005479396 192 192 192 255 0.232851 0.934627
404.9248 -0.792533 444.7939 0.04848885 0.9944395 0.093482 192 192 192 255 0.189861 0.786402
11.7793 -3.252462 266.2451 -0.3323093 0.9417352 0.05201313 192 192 192 255 0.045093 0.63157
129.7598 -3.080824 472.5137 0.008490252 0.9997715 0.01962174 192 192 192 255 0.090421 0.55219
291.749 -3.182709 318.9951 -0.01231092 0.9976765 -0.06700805 192 192 192 255 0.152657 0.61127
134.8232 -0.162524 499.4141 0.174749 0.7667415 0.6177139 192 192 192 255 0.092366 0.541838
155.293 -3.033332 68.625 0.04489709 0.9940789 -0.09895141 192 192 192 255 0.100231 0.707621
436.2061 -2.821568 410.042 0.07271086 0.9964792 0.04174102 192 192 192 255 0.208158 0.576232
90.40137 -7.687965 0.673828 -0.02898911 0.707083 -0.7065361 192 192 192 255 0.0753 0.733771
203.3965 -22.76395 499.334 0.01113699 -0.6928791 0.7209678 192 192 192 255 0.118712 0.541869
13.50781 -2.925813 424.8232 0.3003734 0.9538217 0.0003205927 192 192 192 255 0.045757 0.570543
499.998 -6.213543 212.6123 0.9894942 0.1341383 0.0539277 192 192 192 255 0.232666 0.65221
420.4668 -2.884256 13.35645 -0.017125 0.9729436 0.2304072 192 192 192 255 0.202111 0.72889
145.9756 -21.90115 500.0195 0.004054992 -0.5225468 0.8526011 192 192 192 255 0.096651 0.541605
401.8789 -0.047993 226.1846 -0.06795748 0.9974611 0.0212888 192 192 192 255 0.188473 0.885992
500 -21.23883 298.3906 0.9883738 -0.1520423 0.0006138473 192 192 192 255 0.232667 0.619199
185.29 -3.093082 314.5449 0.06663162 0.9964114 -0.05219804 192 192 192 255 0.111756 0.612982
465.8721 -3.110619 336.8857 0.07058299 0.9975041 0.001914976 192 192 192 255 0.219555 0.604385
360.4229 -1.401195 267.4922 0.01741621 0.9996092 -0.02186447 192 192 192 255 0.179042 0.63109
208.5625 -0.10161 499.833 -0.01135259 0.6746597 0.7380417 192 192 192 255 0.120697 0.541677
9.633789 -1.814086 34.69336 -0.09314287 0.978516 -0.1839317 192 192 192 255 0.044269 0.720679
0.133789 -0.078157 355.8711 -0.7090292 0.7051777 0.001434942 192 192 192 255 0.005452 0.826912
130.3154 -1.061652 153.2246 0.05188866 0.997541 0.04711277 192 192 192 255 0.090635 0.675064
375.2939 -0.040906 124.5938 -0.007763985 0.9999362 0.008208307 192 192 192 255 0.176362 0.932273
202.3232 -22.8034 0.109375 -7.329381e-05 -0.700579 -0.7135749 192 192 192 255 0.1183 0.733988
350.6328 -3.640675 62.57227 0.01290741 0.9772043 -0.2119087 192 192 192 255 0.17528 0.70995
368.3799 -1.917095 43.41504 -0.05759523 0.9964623 -0.06120175 192 192 192 255 0.182099 0.717323
452.2344 -3.215364 116.8496 0.08944543 0.9931445 0.07525622 192 192 192 255 0.214316 0.689062
216.6572 -0.077507 374.6533 -0.002395176 0.9952864 -0.09694988 192 192 192 255 0.104092 0.818355
124.3125 -0.040968 248.1904 0.1035929 0.9941372 -0.03097893 192 192 192 255 0.062023 0.875967
192.1318 -2.511069 446.377 0.08564516 0.9960874 -0.02178833 192 192 192 255 0.09292 0.785681
461.1826 -2.777061 146.8057 -0.01921986 0.9984539 -0.05215867 192 192 192 255 0.217754 0.677534
445.5234 -0.138649 183.6113 0.07709916 0.9967939 -0.02139292 192 192 192 255 0.208356 0.905387
162.998 -0.044593 104.123 -0.00319841 0.9997783 -0.02081018 192 192 192 255 0.079647 0.941599
267.1426 -2.354775 328.9307 -0.08628295 0.9955236 -0.03857505 192 192 192 255 0.127092 0.839185
9.355469 -1.167715 234.3232 0.07360595 0.9969563 -0.02569702 192 192 192 255 0.044162 0.643854
401.2305 -22.81379 0.126953 -0.01914471 -0.6776791 -0.7351085 192 192 192 255 0.19472 0.733982
319.8818 -2.626777 249.4229 -0.1479246 0.9889982 -0.0009815653 192 192 192 255 0.163466 0.638044
172.6865 -3.130022 466.7256 -0.004847013 0.9994539 0.03268791 192 192 192 255 0.106914 0.554418
443.5234 -4.236389 445.5361 0.01476901 0.9986373 0.050055 192 192 192 255 0.210969 0.562572
499.5391 -22.81254 89.49316 0.7159437 -0.6981575 0.0008916956 192 192 192 255 0.23249 0.69959
-0.014648 -0.430402 45.37695 -0.6161194 0.7638177 -0.1923005 192 192 192 255 0.040562 0.716568
500.0049 -1.748685 203.8486 0.6738686 0.736379 0.06039231 192 192 192 255 0.232669 0.655582
499.5225 -0.113684 418.4609 0.7025595 0.7116249 -0.0003934924 192 192 192 255 0.232956 0.798398
486.3076 -2.971788 397.3184 -0.3284432 0.9445226 -0.00149786 192 192 192 255 0.227407 0.581128
481.8906 -3.085255 481.7705 -0.01415667 0.9998153 -0.0129975 192 192 192 255 0.22571 0.548628
258.0488 -1.451771 499.9854 -0.2660968 0.6468909 0.71465 192 192 192 255 0.122949 0.761259
56.25195 -1.579898 9.621094 0.08229065 0.9896693 0.1174005 192 192 192 255 0.031017 0.98465
44.71582 -1.589276 263.5225 -0.1440856 0.9895653 4.271491e-05 192 192 192 255 0.025762 0.868982
132.3369 -0.895663 0.013672 -0.06883495 0.7315894 -0.6782615 192 192 192 255 0.091411 0.734025
0 -21.94976 143.6172 -0.78597 -0.6182646 0.0003626662 192 192 192 255 0.040567 0.678761
319.6846 -0.041921 69.57227 0.03665461 0.9979488 -0.05248595 192 192 192 255 0.151028 0.957339
470.7266 -3.093243 134.1172 -0.01573187 0.9998741 -0.002066777 192 192 192 255 0.22142 0.682417
40.51074 -2.54382 74.19727 -0.1297229 0.9915487 0.001820986 192 192 192 255 0.056132 0.705477
499.7959 -0.116094 499.8223 0.5830692 0.5771873 0.5717387 192 192 192 255 0.233081 0.761333
140.166 -0.990567 66.25 0.07770469 0.9855457 -0.1505379 192 192 192 255 0.094419 0.708535
24.7832 -3.085572 294.3984 -0.002059178 0.9999979 5.744556e-05 192 192 192 255 0.050089 0.620735
25.05566 -3.086944 25.20312 -0.05425211 0.9973267 -0.04895065 192 192 192 255 0.050194 0.724331
253.7148 -4.370772 331.1699 -0.02053437 0.9994529 -0.02592648 192 192 192 255 0.138045 0.606584
199.7344 -0.136117 490.5771 -0.06250317 0.9359364 -0.3465782 192 192 192 255 0.117305 0.545239
0.107422 -22.80943 397.2334 -0.7169472 -0.6971257 0.001572648 192 192 192 255 0.040609 0.581161
391.0078 -4.165554 14.05762 -0.08306935 0.9938002 -0.07389685 192 192 192 255 0.190792 0.728621
356.4375 -1.186967 356.9873 -0.02121336 0.9995722 -0.02013367 192 192 192 255 0.167771 0.826403
500.0068 -21.50719 498.2158 0.9693808 -0.1870826 0.1590627 192 192 192 255 0.23267 0.542299
327.5391 -0.522196 9.255859 0.2207772 0.9711635 0.08999462 192 192 192 255 0.166408 0.730468
140.8135 -3.131803 466.2461 0.008237069 0.9987782 0.04872631 192 192 192 255 0.094668 0.554602
70.38574 -0.042179 148.5986 -0.09018181 0.9951788 0.03855396 192 192 192 255 0.037456 0.921337
486.2705 -2.921522 486.5127 -0.2120308 0.9008897 -0.3787358 192 192 192 255 0.227392 0.546803
34.1582 -3.129182 465.8457 -0.01713944 0.9996727 0.01899515 192 192 192 255 0.053691 0.554756
465.9697 -3.128768 33.82812 0.01599068 0.9997742 -0.0140014 192 192 192 255 0.219593 0.721012
266.0664 -2.668483 460.8945 -0.008303652 0.9962031 0.08666241 192 192 192 255 0.14279 0.556662
201.7783 -2.57841 460.5371 0.02941161 0.9990362 0.03258388 192 192 192 255 0.118091 0.556799
434.8662 -0.090476 499.9502 -0.01197851 0.778858 0.627086 192 192 192 255 0.203501 0.761275
54.51367 -0.133517 211.3486 -0.07325614 0.9970656 -0.02222021 192 192 192 255 0.030226 0.892751
391.5312 -4.217452 1.87207 -0.1922218 0.7318764 -0.6537643 192 192 192 255 0.190994 0.73331
47.37598 -19.40097 0.011719 -0.002694445 -0.003964635 -0.9999885 192 192 192 255 0.058769 0.734026
44.88867 -1.564867 316.0039 -0.1448306 0.9894565 5.996671e-05 192 192 192 255 0.025841 0.845074
132.001 -2.613348 356.6572 0.03237138 0.9993867 0.01335502 192 192 192 255 0.091282 0.596776
461.4668 -22.72388 499.8828 -0.0004645017 -0.6895352 0.724252 192 192 192 255 0.217863 0.541658
9.370117 -0.083225 341.9463 0.2867046 0.9579884 -0.007659581 192 192 192 255 0.00966 0.833255
4.212891 -22.90054 495.3018 -0.0182789 -0.9997674 0.01144456 192 192 192 255 0.042186 0.543421
205.1865 -2.540064 320.8955 0.02046688 0.994722 -0.1005447 192 192 192 255 0.098867 0.842845
133.0215 -3.812093 228.2988 0.04536632 0.9973609 -0.05668565 192 192 192 255 0.091674 0.646173
499.3994 -0.02514 303.2666 0.6778789 0.7334962 -0.04963414 192 192 192 255 0.2329 0.850876
173.4268 -1.187449 326.0674 0.02156678 0.9997057 -0.01111735 192 192 192 255 0.084398 0.840489
173.5742 -1.187456 173.5459 0.0190493 0.9996397 0.01891087 192 192 192 255 0.084465 0.909972
72.21289 -0.042323 194.6592 -0.04640355 0.9984909 -0.02937429 192 192 192 255 0.038289 0.900354
118.9902 -0.043802 373.8281 0.09491625 0.9950492 -0.02946135 192 192 192 255 0.059599 0.818731
452.9326 -1.761952 404.4668 0.02854727 0.9994313 0.01795022 192 192 192 255 0.214584 0.578377
13.42578 -3.16539 484.1689 0.09242468 0.9951421 0.0339104 192 192 192 255 0.045726 0.547705
336.2168 -5.198193 1.670898 0.1577904 0.7194646 -0.6763675 192 192 192 255 0.169742 0.733387
375.2471 -0.049459 282.0625 -0.0402954 0.9989857 -0.02009628 192 192 192 255 0.184737 0.625483
499.7734 -0.094006 0.129883 0.5798278 0.5739093 -0.5782974 192 192 192 255 0.23258 0.73398
465.6426 -3.089197 97.3623 0.0572775 0.9982386 0.015463 192 192 192 255 0.219467 0.696562
0.34375 -0.120672 481.5352 -0.6641656 0.7374102 0.1229239 192 192 192 255 0.040699 0.548719
117.2881 -0.042445 154.2773 0.04615646 0.9988045 0.01610135 192 192 192 255 0.058823 0.91875
484.1172 -3.114843 214.2715 -0.004009083 0.9999706 0.006533565 192 192 192 255 0.226565 0.651571
499.3447 -22.78456 499.5508 0.4831022 -0.6239688 0.6142274 192 192 192 255 0.232416 0.541785
34.16016 -3.095621 153.3164 0.01517464 0.9998759 -0.004256384 192 192 192 255 0.053692 0.675029
134.8711 -2.76571 208.0166 0.07632214 0.996944 0.01666037 192 192 192 255 0.092385 0.653978
354.8809 -4.541262 49.36328 -0.1003534 0.9941292 0.04045329 192 192 192 255 0.176913 0.715034
176.4072 -2.950016 488.3691 -0.08847768 0.9930884 0.07711823 192 192 192 255 0.108343 0.546089
175.1152 -7.573269 498.5029 -0.08347253 0.5916036 0.8018962 192 192 192 255 0.107847 0.542189
394.9873 -0.139883 54.49902 -0.009454472 0.9970406 -0.07629315 192 192 192 255 0.192321 0.713057
13.70996 -2.934441 334.8193 0.266122 0.9638033 -0.01619643 192 192 192 255 0.045835 0.60518
129.6982 -2.543544 376.9912 0.122358 0.9834972 -0.1332737 192 192 192 255 0.090397 0.588951
413.6113 -0.04193 172.7422 0.01670759 0.9998103 -0.01001586 192 192 192 255 0.193818 0.910338
453.4541 -1.314522 246.1641 0.1448584 0.9894516 -0.001271059 192 192 192 255 0.214784 0.639298
132.8926 -2.613981 39.13574 0.02324937 0.999626 0.01439654 192 192 192 255 0.091625 0.71897
425.3203 0.052392 7.625 -0.04398628 0.979581 0.1961794 192 192 192 255 0.203975 0.731096
1.988281 -22.78825 499.4199 -0.543842 -0.5969746 0.5897942 192 192 192 255 0.041331 0.541836
0.323242 -0.108054 213.123 -0.6850746 0.7236508 0.08368129 192 192 192 255 0.005538 0.891942
490.6367 -0.091364 299.5732 -0.2430612 0.9685399 -0.05340151 192 192 192 255 0.228908 0.852559
327.3525 -1.187525 173.5342 -0.01992907 0.9996061 0.01975915 192 192 192 255 0.166336 0.667248
173.5742 -1.187456 173.5459 0.0190493 0.9996397 0.01891087 192 192 192 255 0.107255 0.667244
425.3203 0.052392 7.625 -0.04398628 0.979581 0.1961794 192 192 192 255 0.199152 0.985559
492.125 0.044343 7.666016 -0.04128569 0.9980719 0.04634717 192 192 192 255 0.229586 0.985541
424.8213 -0.174879 0.102539 -0.05254337 0.7078487 -0.7044071 192 192 192 255 0.203784 0.733991
499.7734 -0.094006 0.129883 0.5798278 0.5739093 -0.5782974 192 192 192 255 0.23307 0.988974
54.5918 -0.134967 54.5752 -0.05810277 0.9969611 -0.0518918 192 192 192 255 0.030261 0.964171
40.51074 -2.54382 74.19727 -0.1297229 0.9915487 0.001820986 192 192 192 255 0.023846 0.955232
54.40918 -0.154748 114.8848 -0.09099168 0.9956805 0.01846458 192 192 192 255 0.030178 0.936696
93.00488 -0.167543 54.29785 0.01247448 0.9966627 -0.08067182 192 192 192 255 0.047761 0.964297
70.38574 -0.042179 148.5986 -0.09018181 0.9951788 0.03855396 192 192 192 255 0.06761 0.676844
394.9873 -0.139883 54.49902 -0.009454472 0.9970406 -0.07629315 192 192 192 255 0.185333 0.964205
371.7324 -0.041605 77.35254 -0.01972016 0.9990888 -0.03785258 192 192 192 255 0.183387 0.704262
311.3564 -0.058393 9.337891 0.01462021 0.947127 0.3205256 192 192 192 255 0.147234 0.984779
24.39453 -0.055906 499.4365 -0.08607991 0.7425498 0.6642365 192 192 192 255 0.016504 0.761509
134.8232 -0.162524 499.4141 0.174749 0.7667415 0.6177139 192 192 192 255 0.066812 0.761519
492.1055 0.053087 182.1523 -0.1786665 0.9828892 0.04480189 192 192 192 255 0.229634 0.663932
444.8174 -0.042953 85.94727 0.07413811 0.9971806 0.01158989 192 192 192 255 0.211466 0.700955
130.3291 -0.17733 445.7988 0.02972494 0.996387 0.07955787 192 192 192 255 0.09064 0.562471
84.00684 -2.32655 458.8916 -7.153324e-05 0.9905874 0.1368818 192 192 192 255 0.072843 0.557433
229.2754 -0.038389 56.78418 -0.005507069 0.9976763 -0.06790976 192 192 192 255 0.128655 0.712178
60.7959 -0.460095 0.400391 0.1349224 0.783594 -0.6064457 192 192 192 255 0.033088 0.988851
38.23828 -0.04802 0.417969 -0.06402113 0.7279805 -0.6826021 192 192 192 255 0.022811 0.988843
413.6611 -0.050826 429.4316 0.03896588 0.9985011 0.03843594 192 192 192 255 0.199496 0.56877
432.8604 -0.409793 122.3877 0.08858734 0.9951744 0.04219226 192 192 192 255 0.206872 0.686931
160.8975 -1.18977 205.3359 -0.04392356 0.9990184 -0.005752378 192 192 192 255 0.102384 0.65501
116.9619 -0.043903 219.5 0.09301087 0.9956637 -0.001667753 192 192 192 255 0.085504 0.649559
445.3555 -0.124829 54.60254 0.05467908 0.997018 -0.05445478 192 192 192 255 0.208279 0.964158
453.4541 -1.314522 246.1641 0.1448584 0.9894516 -0.001271059 192 192 192 255 0.211969 0.87689
0.134766 -0.14171 319.2363 -0.6549012 0.7543258 -0.04579407 192 192 192 255 0.005452 0.843601
454.46 -2.133528 374.5508 0.09976652 0.9949976 -0.005141897 192 192 192 255 0.212427 0.818402
154.4316 -0.043721 375.0225 -0.01494573 0.9947463 -0.1012743 192 192 192 255 0.0999 0.589708
9.355469 -1.167715 234.3232 0.07360595 0.9969563 -0.02569702 192 192 192 255 0.009653 0.882284
1.081055 -1.019196 241.2539 -0.6960945 0.7142227 0.07306434 192 192 192 255 0.005883 0.879127
9.490234 -0.285359 249.8906 0.2287998 0.9559894 0.1836711 192 192 192 255 0.009714 0.875192
272.9219 -1.187568 356.4658 -0.02523237 0.9991985 -0.03107503 192 192 192 255 0.145424 0.59685
246.7324 -1.028933 368.9082 0.004708573 0.9946429 -0.1032634 192 192 192 255 0.135362 0.592061
1.233398 -2.361112 223.2666 -0.6577816 0.7430134 0.1235095 192 192 192 255 0.041041 0.648109
7.53418 0.051314 53.5791 0.2543526 0.9661933 -0.04213512 192 192 192 255 0.043462 0.713411
348.9121 -0.026661 70.51953 0.03522391 0.9746155 -0.2210971 192 192 192 255 0.174619 0.706892
455.5791 -1.624686 347.46 0.1348682 0.9905 0.02683768 192 192 192 255 0.212937 0.830743
150.1768 -1.301056 224.8428 -0.08028847 0.9956962 -0.04628999 192 192 192 255 0.073806 0.886603
143.3975 -0.04182 430.168 0.01235072 0.9993526 0.03379329 192 192 192 255 0.095661 0.568486
124.3125 -0.040968 248.1904 0.1035929 0.9941372 -0.03097893 192 192 192 255 0.088328 0.638518
157.0723 -1.245438 148.5703 -0.003921648 0.9995202 0.03072597 192 192 192 255 0.100915 0.676855
267.1426 -2.354775 328.9307 -0.08628295 0.9955236 -0.03857505 192 192 192 255 0.143204 0.607446
436.9678 -0.041369 377.498 0.06036526 0.9981726 0.002742154 192 192 192 255 0.20845 0.588756
199.7344 -0.136117 490.5771 -0.06250317 0.9359364 -0.3465782 192 192 192 255 0.096383 0.765545
208.5625 -0.10161 499.833 -0.01135259 0.6746597 0.7380417 192 192 192 255 0.100405 0.761328
429.2705 -0.067051 394.8301 0.09842674 0.9941421 0.04464947 192 192 192 255 0.205493 0.582086
392.7178 -2.583606 234.6543 -0.212409 0.9767546 -0.02886006 192 192 192 255 0.19145 0.643727
386.1328 -0.186816 264.5479 -0.09641879 0.9935761 -0.05924475 192 192 192 255 0.18892 0.632223
201.7783 -2.57841 460.5371 0.02941161 0.9990362 0.03258388 192 192 192 255 0.097314 0.77923
413.6113 -0.04193 172.7422 0.01670759 0.9998103 -0.01001586 192 192 192 255 0.199477 0.667553
368.3799 -1.917095 43.41504 -0.05759523 0.9964623 -0.06120175 192 192 192 255 0.173212 0.969255
287.6162 -1.197411 334.6982 -0.01991815 0.9978744 -0.06204776 192 192 192 255 0.151069 0.605227
56.25195 -1.579898 9.621094 0.08229065 0.9896693 0.1174005 192 192 192 255 0.062179 0.730328
44.88867 -1.564867 316.0039 -0.1448306 0.9894565 5.996671e-05 192 192 192 255 0.057814 0.612421
156.0107 -1.826549 450.293 0.0159911 0.9967706 0.07869345 192 192 192 255 0.076464 0.783897
240.3047 -1.152499 497.5791 0.07978887 0.3706628 0.9253339 192 192 192 255 0.114865 0.762355
9.370117 -0.083225 341.9463 0.2867046 0.9579884 -0.007659581 192 192 192 255 0.044167 0.602437
157.1426 -1.422889 369.5547 0.01387283 0.9899192 -0.1409523 192 192 192 255 0.07698 0.820678
381.9395 -1.654001 455.7383 0.007358271 0.9902193 0.1393258 192 192 192 255 0.179389 0.781416
117.2881 -0.042445 154.2773 0.04615646 0.9988045 0.01610135 192 192 192 255 0.085629 0.674659
319.6846 -0.041921 69.57227 0.03665461 0.9979488 -0.05248595 192 192 192 255 0.16339 0.707257
143.2822 -1.190221 335.3486 0.008958434 0.9995444 0.02882199 192 192 192 255 0.095616 0.604976
499.5225 -0.113684 418.4609 0.7025595 0.7116249 -0.0003934924 192 192 192 255 0.232484 0.572992
313.9482 -0.048311 57.10938 0.1145945 0.9871499 -0.1113701 192 192 192 255 0.161186 0.712053
326.1729 -1.187657 325.5273 -0.02438896 0.9994842 -0.02089261 192 192 192 255 0.165883 0.608756
29.46484 -0.276059 9.476563 -0.2150714 0.9592968 0.1830132 192 192 192 255 0.051888 0.730384
122.3555 -1.099537 350.0498 0.1775921 0.9840751 -0.007565748 192 192 192 255 0.061132 0.829564
129.6982 -2.543544 376.9912 0.122358 0.9834972 -0.1332737 192 192 192 255 0.064477 0.81729
54.51367 -0.133517 211.3486 -0.07325614 0.9970656 -0.02222021 192 192 192 255 0.061512 0.652696
452.9326 -1.761952 404.4668 0.02854727 0.9994313 0.01795022 192 192 192 255 0.211731 0.804773
456.5498 -1.866972 427.5068 0.03370022 0.9992321 0.01998997 192 192 192 255 0.213379 0.794277
187.3691 -0.041219 68.46484 -0.06595437 0.9866736 -0.1487457 192 192 192 255 0.112555 0.707683
185.8896 -1.001469 449.3477 0.03673441 0.9992039 -0.01556523 192 192 192 255 0.111986 0.561105
445.5234 -0.138649 183.6113 0.07709916 0.9967939 -0.02139292 192 192 192 255 0.211737 0.66337
241.0605 -1.807385 450.7041 -0.05150402 0.9914597 0.1198123 192 192 192 255 0.11521 0.783709
317.8682 -0.091825 0.411133 0.1087676 0.7814027 -0.614475 192 192 192 255 0.162692 0.733872
132.3369 -0.895663 0.013672 -0.06883495 0.7315894 -0.6782615 192 192 192 255 0.065679 0.989027
316.2051 -1.109408 -0.013672 0.02106823 0.194645 -0.9806475 192 192 192 255 0.149443 0.989039
367.1191 -1.840639 219.6777 0.02510555 0.9991009 0.03416326 192 192 192 255 0.181615 0.649491
169.8633 -1.382446 81.52637 -0.1012518 0.9907649 -0.09018402 192 192 192 255 0.105829 0.702656
162.998 -0.044593 104.123 -0.00319841 0.9997783 -0.02081018 192 192 192 255 0.103191 0.69396
28.91211 -0.110877 490.5986 -0.03486171 0.9740657 -0.2235637 192 192 192 255 0.018562 0.765535
125.7832 -0.097588 490.6338 0.03397934 0.9455042 -0.323832 192 192 192 255 0.088893 0.545217
125.4473 -0.057387 321.2725 0.03511564 0.9992119 0.01850803 192 192 192 255 0.088764 0.610393
-0.014648 -0.430402 45.37695 -0.6161194 0.7638177 -0.1923005 192 192 192 255 0.005384 0.968361
436.6162 -1.668741 156.5312 0.004982509 0.9898787 -0.1418287 192 192 192 255 0.204298 0.917723
404.9248 -0.792533 444.7939 0.04848885 0.9944395 0.093482 192 192 192 255 0.196139 0.562858
130.7373 -1.085538 249.9756 0.07747771 0.9962717 -0.03794835 192 192 192 255 0.090797 0.637831
115.1387 -0.041245 326.3955 0.01943518 0.9996961 0.01516358 192 192 192 255 0.084804 0.608422
43.88672 -1.666326 195.3428 -0.06385879 0.9970477 -0.04263755 192 192 192 255 0.025384 0.900042
176.8389 -1.754457 432.9834 0.1203782 0.9814749 0.1490507 192 192 192 255 0.108509 0.567403
375.2471 -0.049459 282.0625 -0.0402954 0.9989857 -0.02009628 192 192 192 255 0.17634 0.860536
173.4268 -1.187449 326.0674 0.02156678 0.9997057 -0.01111735 192 192 192 255 0.107198 0.608548
205.1865 -2.540064 320.8955 0.02046688 0.994722 -0.1005447 192 192 192 255 0.1194 0.610538
327.5391 -0.522196 9.255859 0.2207772 0.9711635 0.08999462 192 192 192 255 0.154606 0.984817
274.8008 -0.069522 444.9346 -0.006094939 0.996648 0.08158206 192 192 192 255 0.146146 0.562804
236.7002 -1.512699 340.5898 0.06147337 0.9947669 -0.08160829 192 192 192 255 0.131508 0.602959
140.166 -0.990567 66.25 0.07770469 0.9855457 -0.1505379 192 192 192 255 0.069246 0.958852
54.3252 -0.167064 445.6973 -0.05360851 0.9968926 0.05771789 192 192 192 255 0.061439 0.56251
44.71582 -1.589276 263.5225 -0.1440856 0.9895653 4.271491e-05 192 192 192 255 0.057747 0.632618
148.5791 -0.07764 9.239258 -0.015602 0.9808089 0.1943463 192 192 192 255 0.073078 0.984824
377.5225 -1.068321 500.0352 -7.736948e-05 0.6307954 0.7759493 192 192 192 255 0.185611 0.541599
125.8193 -0.451146 73.55371 0.01896401 0.998372 -0.05379362 192 192 192 255 0.088907 0.705724
68.72852 -2.518605 169.8369 -0.4183523 0.9082212 0.01075262 192 192 192 255 0.036701 0.911662
325.916 -0.111365 490.5703 -2.454776e-06 0.9555407 -0.2948595 192 192 192 255 0.153867 0.765548
490.6328 -0.106463 488.6104 -0.1157464 0.9888694 -0.09348805 192 192 192 255 0.228906 0.766441
500.0039 -0.867797 178.8584 0.7517332 0.6593586 0.01198157 192 192 192 255 0.233175 0.907552
0.133789 -0.078157 355.8711 -0.7090292 0.7051777 0.001434942 192 192 192 255 0.040619 0.597079
360.4229 -1.401195 267.4922 0.01741621 0.9996092 -0.02186447 192 192 192 255 0.169587 0.867174
434.8662 -0.090476 499.9502 -0.01197851 0.778858 0.627086 192 192 192 255 0.207643 0.541632
499.7959 -0.116094 499.8223 0.5830692 0.5771873 0.5717387 192 192 192 255 0.232589 0.541681
318.832 -2.350569 49.94434 0.104177 0.9801627 -0.1686072 192 192 192 255 0.15064 0.96628
7.516602 0.041341 213.0879 0.1671773 0.9845387 0.05229974 192 192 192 255 0.043455 0.652027
221.9404 -1.173869 434.1875 -0.1403518 0.9644205 0.2240414 192 192 192 255 0.125837 0.56694
192.1318 -2.511069 446.377 0.08564516 0.9960874 -0.02178833 192 192 192 255 0.114384 0.562249
499.291 -0.078012 119.4258 0.7038369 0.7103404 -0.005479396 192 192 192 255 0.232395 0.688071
499.3994 -0.02514 303.2666 0.6778789 0.7334962 -0.04963414 192 192 192 255 0.232437 0.617323
258.0488 -1.451771 499.9854 -0.2660968 0.6468909 0.71465 192 192 192 255 0.13971 0.541618
258.6943 -0.007573 494.8477 -0.101951 0.974136 0.2016559 192 192 192 255 0.139958 0.543595
130.3154 -1.061652 153.2246 0.05188866 0.997541 0.04711277 192 192 192 255 0.064758 0.91923
500.0049 -1.748685 203.8486 0.6738686 0.736379 0.06039231 192 192 192 255 0.233176 0.896167
9.517578 -0.207634 478.4336 0.3058534 0.9480184 0.08783481 192 192 192 255 0.009727 0.771077
0.34375 -0.120672 481.5352 -0.6641656 0.7374102 0.1229239 192 192 192 255 0.005548 0.769664
3 81 186 12 
3 71 43 271 
3 77 241 182 
3 285 121 251 
3 231 202 82 
3 43 71 125 
3 144 103 150 
3 242 170 158 
3 109 298 208 
3 60 199 266 
3 36 53 299 
3 275 276 70 
3 132 184 253 
3 141 219 56 
3 275 168 99 
3 253 85 133 
3 96 5 300 
3 256 259 194 
3 38 235 94 
3 264 267 32 
3 15 106 248 
3 248 247 259 
3 25 153 241 
3 98 149 46 
3 35 224 158 
3 84 247 193 
3 154 302 26 
3 96 203 260 
3 188 31 117 
3 299 162 75 
3 35 163 224 
3 248 153 211 
3 234 303 66 
3 22 23 138 
3 159 70 276 
3 31 188 104 
3 253 184 85 
3 260 294 1 
3 96 260 176 
3 56 219 137 
3 159 276 8 
3 132 8 184 
3 304 305 117 
3 48 206 82 
3 135 45 236 
3 109 208 236 
3 247 201 259 
3 196 149 98 
3 131 277 286 
3 220 32 18 
3 99 168 169 
3 14 306 307 
3 283 227 308 
3 309 14 307 
3 191 307 189 
3 244 44 155 
3 310 311 312 
3 313 310 312 
3 277 32 286 
3 167 312 257 
3 155 156 314 
3 169 220 18 
3 260 217 294 
3 315 175 214 
3 316 291 216 
3 175 59 158 
3 304 117 228 
3 236 45 129 
3 36 179 53 
3 179 36 199 
3 281 122 148 
3 165 111 166 
3 240 148 122 
3 88 317 151 
3 292 21 293 
3 9 318 319 
3 315 214 57 
3 214 10 57 
3 214 128 297 
3 278 32 28 
3 146 178 32 
3 49 287 50 
3 176 243 109 
3 79 202 231 
3 19 141 95 
3 69 40 141 
3 281 255 172 
3 233 320 176 
3 260 1 321 
3 176 260 243 
3 130 60 266 
3 69 223 41 
3 205 128 34 
3 131 167 257 
3 158 224 131 
3 275 99 54 
3 203 96 300 
3 265 252 300 
3 217 115 4 
3 219 81 12 
3 322 323 256 
3 119 86 324 
3 42 170 242 
3 325 326 97 
3 141 56 102 
3 198 230 183 
3 198 327 161 
3 198 161 230 
3 16 218 328 
3 260 284 243 
3 143 273 329 
3 286 32 110 
3 290 58 330 
3 37 58 143 
3 331 315 57 
3 332 223 27 
3 84 24 136 
3 270 333 212 
3 112 39 266 
3 112 266 190 
3 208 20 68 
3 141 19 69 
3 69 19 334 
3 284 328 218 
3 101 268 335 
3 104 188 207 
3 194 259 134 
3 93 120 133 
3 183 279 198 
3 193 226 22 
3 336 337 338 
3 26 302 126 
3 339 249 340 
3 7 225 85 
3 172 164 36 
3 135 61 45 
3 136 24 121 
3 87 76 281 
3 336 126 337 
3 77 25 241 
3 23 341 77 
3 118 142 342 
3 316 216 343 
3 38 109 236 
3 133 219 152 
3 76 185 252 
3 344 27 69 
3 27 223 69 
3 176 287 233 
3 287 176 109 
3 80 280 149 
3 329 273 62 
3 275 70 345 
3 32 178 28 
3 124 346 256 
3 166 240 180 
3 273 290 330 
3 273 330 347 
3 44 171 155 
3 348 37 329 
3 268 89 296 
3 261 127 51 
3 229 194 129 
3 30 91 29 
3 219 91 30 
3 325 97 238 
3 117 31 195 
3 195 31 349 
3 170 35 158 
3 86 177 324 
3 279 350 198 
3 168 220 169 
3 3 266 199 
3 58 290 143 
3 91 219 12 
3 29 91 221 
3 250 292 210 
3 7 85 184 
3 67 351 352 
3 353 327 198 
3 287 109 38 
3 114 197 177 
3 114 13 197 
3 244 53 44 
3 299 53 162 
3 74 262 51 
3 106 130 39 
3 354 90 355 
3 205 41 223 
3 221 72 356 
3 231 82 105 
3 258 147 2 
3 223 297 128 
3 16 357 145 
3 140 285 46 
3 222 298 109 
3 355 90 282 
3 55 261 45 
3 83 167 131 
3 299 75 13 
3 214 132 128 
3 358 175 315 
3 106 73 248 
3 46 285 251 
3 243 218 16 
3 222 243 16 
3 142 211 342 
3 262 229 51 
3 15 248 53 
3 242 158 59 
3 131 257 277 
3 202 48 82 
3 49 48 202 
3 50 160 48 
3 195 349 359 
3 349 249 339 
3 281 172 87 
3 360 15 53 
3 199 360 179 
3 360 53 179 
3 186 28 178 
3 240 181 180 
3 361 289 259 
3 12 186 63 
3 63 186 362 
3 139 209 282 
3 64 210 47 
3 66 67 116 
3 67 352 363 
3 201 364 52 
3 33 275 120 
3 54 365 120 
3 84 295 247 
3 295 84 364 
3 56 137 366 
3 366 192 56 
3 128 123 34 
3 193 24 84 
3 58 367 330 
3 50 38 160 
3 216 368 343 
3 93 272 33 
3 188 305 207 
3 214 297 10 
3 350 353 198 
3 291 17 216 
3 369 268 101 
3 143 290 273 
3 275 345 168 
3 329 37 143 
3 280 140 149 
3 149 140 46 
3 370 254 6 
3 76 87 185 
3 4 371 113 
3 261 129 45 
3 243 284 218 
3 195 359 372 
3 15 373 106 
3 341 25 77 
3 374 278 375 
3 64 200 103 
3 49 233 287 
3 69 41 40 
3 121 138 77 
3 65 174 376 
3 308 265 300 
3 274 303 234 
3 203 115 260 
3 183 230 135 
3 334 377 378 
3 324 177 379 
3 334 344 69 
3 128 132 123 
3 262 380 229 
3 275 54 120 
3 11 334 19 
3 236 208 135 
3 208 68 135 
3 51 229 129 
3 186 81 187 
3 193 138 24 
3 91 12 221 
3 137 219 30 
3 248 118 247 
3 106 112 73 
3 48 6 206 
3 298 222 381 
3 299 13 114 
3 299 114 86 
3 382 30 29 
3 383 281 148 
3 348 213 37 
3 166 180 164 
3 384 88 385 
3 386 209 139 
3 230 161 107 
3 25 232 153 
3 187 28 186 
3 139 282 90 
3 387 197 388 
3 280 52 140 
3 197 246 388 
3 134 280 80 
3 9 389 318 
3 49 50 48 
3 134 80 390 
3 369 391 268 
3 154 392 302 
3 102 56 192 
3 197 13 246 
3 11 19 377 
3 95 141 102 
3 185 172 115 
3 118 226 247 
3 210 293 47 
3 292 293 210 
3 117 305 188 
3 393 297 223 
3 365 81 219 
3 394 55 45 
3 38 50 287 
3 66 263 245 
3 165 164 172 
3 395 273 347 
3 181 3 199 
3 172 119 4 
3 17 113 368 
3 160 6 48 
3 33 120 93 
3 12 108 221 
3 206 288 105 
3 265 76 252 
3 227 0 125 
3 135 68 183 
3 396 89 268 
3 190 266 215 
3 64 47 200 
3 233 49 202 
3 264 397 239 
3 241 271 182 
3 271 150 200 
3 271 204 301 
3 398 124 229 
3 124 256 229 
3 380 398 229 
3 40 399 141 
3 63 362 108 
3 204 98 46 
3 313 312 167 
3 207 400 401 
3 402 151 317 
3 403 127 261 
3 187 278 28 
3 375 278 187 
3 314 156 100 
3 367 58 213 
3 129 194 21 
3 38 6 160 
3 249 401 404 
3 31 104 249 
3 43 150 271 
3 405 83 224 
3 83 131 224 
3 137 30 382 
3 24 138 121 
3 108 12 63 
3 107 394 45 
3 243 222 109 
3 248 73 153 
3 194 134 21 
3 293 98 204 
3 293 204 47 
3 241 71 271 
3 235 92 94 
3 153 73 241 
3 23 77 138 
3 46 301 204 
3 323 259 256 
3 248 259 289 
3 406 361 259 
3 407 174 289 
3 239 267 264 
3 117 195 78 
3 6 254 206 
3 206 254 288 
3 88 408 317 
3 304 228 372 
3 76 265 227 
3 293 21 98 
3 391 396 268 
3 201 295 364 
3 349 31 249 
3 409 103 144 
3 119 324 371 
3 4 119 371 
3 181 240 3 
3 386 139 90 
3 379 177 387 
3 13 75 410 
3 313 167 83 
3 411 264 277 
3 26 126 336 
3 106 39 112 
3 217 291 316 
3 125 105 43 
3 247 226 193 
3 82 206 105 
3 236 129 147 
3 46 251 301 
3 375 187 81 
3 76 227 122 
3 412 67 66 
3 66 303 413 
3 21 134 390 
3 71 227 125 
3 15 360 373 
3 156 289 65 
3 65 289 174 
3 145 381 16 
3 222 16 381 
3 191 189 414 
3 259 280 134 
3 173 159 132 
3 158 131 173 
3 173 132 158 
3 21 196 98 
3 256 194 229 
3 257 411 277 
3 129 21 292 
3 255 165 172 
3 165 255 111 
3 284 321 328 
3 129 292 147 
3 147 292 250 
3 152 219 141 
3 415 121 285 
3 84 136 364 
3 41 205 40 
3 205 34 40 
3 53 244 162 
3 181 199 36 
3 45 61 107 
3 99 365 54 
3 399 416 141 
3 52 285 140 
3 252 203 300 
3 116 67 237 
3 66 116 263 
3 417 409 144 
3 418 144 288 
3 418 417 144 
3 406 259 323 
3 133 365 219 
3 412 351 67 
3 147 250 2 
3 43 288 269 
3 144 269 288 
3 144 150 269 
3 248 211 142 
3 248 142 118 
3 419 42 242 
3 21 390 196 
3 61 135 230 
3 230 107 61 
3 118 342 420 
3 214 158 157 
3 175 158 214 
3 158 132 157 
3 16 328 357 
3 164 165 166 
3 164 180 36 
3 156 65 100 
3 171 289 156 
3 96 176 320 
3 289 53 248 
3 86 114 177 
3 47 204 200 
3 177 197 387 
3 271 200 204 
3 36 180 181 
3 240 122 3 
3 121 77 182 
3 421 422 74 
3 115 217 260 
3 228 117 78 
3 327 394 107 
3 256 346 322 
3 252 115 203 
3 190 215 71 
3 115 172 4 
3 266 3 215 
3 283 231 0 
3 423 79 231 
3 283 423 231 
3 123 132 416 
3 252 185 115 
3 43 269 150 
3 215 227 71 
3 125 231 105 
3 125 0 231 
3 150 103 200 
3 384 408 88 
3 247 295 201 
3 272 275 33 
3 235 236 258 
3 39 130 266 
3 424 370 6 
3 223 128 205 
3 416 132 253 
3 415 136 121 
3 211 153 342 
3 342 153 232 
3 110 32 220 
3 17 368 216 
3 74 422 262 
3 96 320 5 
3 214 157 132 
3 425 426 103 
3 426 64 103 
3 13 410 246 
3 17 4 113 
3 131 159 173 
3 199 60 360 
3 6 38 424 
3 233 202 79 
3 245 234 66 
3 235 258 92 
3 235 38 236 
3 131 427 159 
3 131 286 427 
3 161 327 107 
3 241 73 190 
3 71 241 190 
3 334 11 377 
3 280 201 52 
3 152 253 133 
3 43 105 288 
3 87 172 185 
3 208 298 20 
3 344 332 27 
3 217 4 17 
3 3 122 215 
3 251 271 301 
3 100 65 376 
3 182 271 251 
3 251 121 182 
3 236 147 258 
3 120 365 133 
3 414 189 428 
3 249 104 401 
3 370 418 254 
3 132 159 8 
3 407 289 361 
3 44 53 289 
3 420 226 118 
3 354 386 90 
3 249 404 340 
3 108 72 221 
3 78 195 372 
3 409 425 103 
3 18 32 278 
3 374 18 278 
3 119 36 299 
3 277 264 32 
3 74 51 127 
3 265 308 227 
3 259 201 280 
3 309 307 191 
3 335 268 296 
3 401 104 207 
3 62 273 395 
3 416 253 141 
3 141 253 152 
3 207 305 400 
3 418 288 254 
3 424 38 94 
3 281 76 122 
3 281 383 255 
3 74 127 421 
3 37 213 58 
3 88 151 385 
3 283 0 227 
3 284 260 321 
3 270 212 429 
3 429 212 430 
3 44 289 171 
3 122 227 215 
3 172 36 119 
3 51 129 261 
3 403 261 55 
3 119 299 86 
3 217 17 291 
3 171 156 155 
3 112 190 73 
3 228 78 372 
3 130 106 373 
3 258 2 92 
3 413 412 66 
3 22 138 193 
