ply
format ascii 1.0
comment VCGLIB generated
comment TextureFile Dungeons_2_Texture_01_A.png
element vertex 367
property float x
property float y
property float z
property float nx
property float ny
property float nz
property uchar red
property uchar green
property uchar blue
property uchar alpha
property float texture_u
property float texture_v
element face 500
property list uchar int vertex_indices
end_header
431.4287 -0.014174 66.0625 0.06819166 0.9947135 -0.07677852 192 192 192 255 0.206322 0.708607
276.0332 -0.042727 69.09863 0.0501258 0.9951571 -0.084557 192 192 192 255 0.146619 0.707439
373.2842 -0.128499 249.5146 -0.02761873 0.9996153 0.002546248 192 192 192 255 0.183983 0.638008
430.8896 -0.040299 275.1621 0.08816037 0.9948102 0.05079786 192 192 192 255 0.206115 0.628138
479.5146 -0.067231 18.18457 -0.07484276 0.9934781 0.0860218 192 192 192 255 0.223841 0.980749
22.20801 -0.087323 18.08008 0.0862742 0.9904488 0.1075541 192 192 192 255 0.015508 0.980797
224.1182 -0.041988 430.877 -0.04823518 0.9952093 0.0850403 192 192 192 255 0.126674 0.568214
226.0332 -0.070592 68.90332 -0.04954918 0.9950649 -0.08596985 192 192 192 255 0.127409 0.707514
18.02637 -0.129653 434.3428 0.2583048 0.9660634 0.0003427672 192 192 192 255 0.047493 0.56688
260.7061 -0.16478 481.377 -0.009824497 0.9760529 -0.2173117 192 192 192 255 0.12416 0.769736
154.9883 -0.136689 481.4346 0.05403071 0.967627 -0.2465335 192 192 192 255 0.100114 0.548757
134.624 -0.112447 434.3682 0.06170231 0.9972903 0.04006265 192 192 192 255 0.315911 0.791151
133.7383 -0.085282 68.85352 0.07779688 0.9969552 -0.005297984 192 192 192 255 0.09195 0.707533
432.457 -0.140194 135.4824 0.02757593 0.9978122 0.06008705 192 192 192 255 0.206717 0.681892
380.0098 -0.082802 80.84375 -0.09098519 0.9955633 0.02398998 192 192 192 255 0.4277 0.952204
248.0615 -3.832736 205.1816 0.0009973247 0.9987343 -0.05028791 192 192 192 255 0.135873 0.655069
250.0889 -0.041377 374.9355 -0.001528042 0.9997952 -0.02018184 192 192 192 255 0.119323 0.818227
396.0439 -22.90047 496.3428 0.0004997633 -0.9997566 0.02205841 192 192 192 255 0.192727 0.54302
297.8643 -3.832589 249.7744 0.04269011 0.9990883 -0.0003228001 192 192 192 255 0.155007 0.637908
102.3955 -0.019447 68.0918 -0.01416933 0.9937924 -0.1103447 192 192 192 255 0.079908 0.707826
499.9014 -0.106594 284.2412 0.706863 0.7072973 -0.008671539 192 192 192 255 0.232629 0.624644
127.334 -18.18983 0.000977 -0.01576687 0.04153071 -0.9990128 192 192 192 255 0.089489 0.73403
412.7598 -22.73329 499.8389 -0.01603945 -0.6836194 0.7296625 192 192 192 255 0.19915 0.541675
342.2627 -2.402835 118.2959 0.01128704 0.9998537 -0.01285526 192 192 192 255 0.172065 0.688506
488.4795 -0.094531 160.2441 0.139648 0.9787799 0.1499619 192 192 192 255 0.227925 0.916032
495.0537 -22.90044 164.9277 0.009697656 -0.9999529 -0.0004452331 192 192 192 255 0.230767 0.67056
433.6211 -0.010765 389.543 0.06858647 0.9971013 -0.03293711 192 192 192 255 0.207165 0.58412
499.9453 -12.13432 499.7939 0.6836335 0.2971305 0.6666024 192 192 192 255 0.232646 0.541692
160.2773 -3.799897 499.7275 0.1331504 0.5113453 0.8489977 192 192 192 255 0.102146 0.541717
228.9678 -3.880025 472.9727 -0.01672039 0.9968484 -0.0775478 192 192 192 255 0.128537 0.552014
4.802734 -22.90056 496.1084 -0.009895827 -0.9998706 0.01268346 192 192 192 255 0.042413 0.54311
65.46875 -0.157267 135.46 -0.01387419 0.9972423 0.07290678 192 192 192 255 0.284407 0.927323
324.7178 -1.615175 328.6719 -0.1361389 0.9838457 -0.1162492 192 192 192 255 0.153321 0.839303
31.22266 -3.831946 230.4814 -0.05384124 0.9985427 -0.003696386 192 192 192 255 0.052563 0.645333
71.33008 -0.04884 242.8906 -0.06699324 0.9975062 0.02221343 192 192 192 255 0.037887 0.878381
45.12305 -3.776035 248.0537 -0.07896845 0.996801 0.01232231 192 192 192 255 0.057904 0.63857
0.797852 -0.107135 234.6895 -0.6521605 0.7565293 -0.04847843 192 192 192 255 0.040874 0.643714
43.39453 -5.241123 498.7354 0.001422144 -0.08025359 0.9967735 192 192 192 255 0.05724 0.542099
111.2705 -3.682581 450.7363 -0.01068348 0.9959439 0.0893401 192 192 192 255 0.083318 0.560571
291.0801 -3.721079 285.4561 -0.02195594 0.9994285 -0.02570169 192 192 192 255 0.1524 0.624177
208.7168 -3.965258 321.3838 0.01875845 0.9993431 -0.03100783 192 192 192 255 0.120756 0.61035
269.6807 -0.004882 17.65918 0.005528166 0.9704661 0.2411745 192 192 192 255 0.128248 0.980988
58.8457 -2.607309 79.86914 0.1083897 0.9872583 -0.116502 192 192 192 255 0.063176 0.703294
326.2471 -3.821398 51.59277 -0.006764085 0.9999737 -0.002616683 192 192 192 255 0.165911 0.714176
0.016602 -8.793648 433.0762 -0.9982119 0.05317642 0.02730004 192 192 192 255 0.040574 0.567367
105.6377 -0.06153 187.3584 -0.06786306 0.9951597 -0.07107653 192 192 192 255 0.053516 0.90368
100.8301 -3.750624 166.7051 -0.07563466 0.9941671 -0.07688379 192 192 192 255 0.079306 0.669876
192.3672 -0.04643 346.8955 0.03136392 0.9985956 -0.04269797 192 192 192 255 0.093027 0.831001
231.3311 -1.324011 344.7725 0.02637309 0.9961414 -0.08370697 192 192 192 255 0.129445 0.60135
499.9746 -6.527056 158.501 0.8446236 0.338018 0.4151565 192 192 192 255 0.232658 0.673034
0.292969 -22.77628 499.8955 -0.5729939 -0.5700384 0.5888415 192 192 192 255 0.04068 0.541653
179.7607 -0.583395 490.1465 0.01240755 0.9961317 0.08699226 192 192 192 255 0.109631 0.545405
162.6445 -3.785309 475.0703 0.03937789 0.9869321 -0.1562511 192 192 192 255 0.103055 0.551206
353.8428 -22.76536 499.9609 0.02119532 -0.6837854 0.7293753 192 192 192 255 0.176514 0.541628
12.04883 -0.884818 488.124 -0.2557612 0.931671 0.2580221 192 192 192 255 0.01088 0.766662
357.3438 -3.386672 2.726563 -0.01274273 0.8712963 -0.4905919 192 192 192 255 0.177859 0.732981
136.585 -3.833147 128.7139 -0.04451116 0.9970872 -0.06193395 192 192 192 255 0.093043 0.684497
92.49316 -1.497879 293.7334 -0.1385365 0.9880245 0.06793661 192 192 192 255 0.076103 0.620991
249.0078 -3.820926 177.3281 0.008639227 0.9984055 0.05578469 192 192 192 255 0.136236 0.665788
0.600586 -0.117231 22.29785 -0.6882469 0.7232443 -0.05686699 192 192 192 255 0.040798 0.725449
406.9492 -0.114095 499.9277 -0.05850014 0.7108891 0.700867 192 192 192 255 0.190783 0.761285
499.0752 -6.560979 231.0176 0.7581287 0.6476787 -0.07585037 192 192 192 255 0.232312 0.645127
323.5557 -7.87674 3.486328 -0.006130721 0.8981586 -0.4396288 192 192 192 255 0.164877 0.732689
188.2354 -2.703763 318.8438 0.1676006 0.9828918 -0.07637881 192 192 192 255 0.091144 0.84378
146.7002 -0.056198 146.2773 -0.05769397 0.9946805 -0.08533631 192 192 192 255 0.072222 0.922395
430.9092 -0.047016 224.0029 0.08519299 0.9951633 -0.04890988 192 192 192 255 0.206123 0.647826
165.9727 -2.845119 121.0684 -0.03842911 0.9971755 -0.06453119 192 192 192 255 0.081002 0.933879
358.2598 -4.133187 67.51465 0.1666862 0.9171054 -0.3621234 192 192 192 255 0.178211 0.708048
193.3994 -2.556972 494.1953 0.00439437 0.7584261 0.6517443 192 192 192 255 0.114871 0.543846
-0.000977 -17.53705 30.55273 -0.9998058 -0.01953173 0.00261717 192 192 192 255 0.040567 0.722273
168.3428 -0.091772 293.2363 0.06573044 0.9975181 -0.02524272 192 192 192 255 0.082082 0.855446
220.8545 -2.177548 488.3984 -0.005862201 0.993705 0.1118756 192 192 192 255 0.106005 0.766537
380.8848 -3.829866 461.3525 0.01008138 0.9996363 0.02501508 192 192 192 255 0.186903 0.556485
66.5957 -2.654876 437.6191 -0.05267653 0.9949223 0.08575981 192 192 192 255 0.066153 0.565619
475.123 -3.782341 334.1797 -0.257948 0.9661589 -5.002969e-06 192 192 192 255 0.223109 0.605426
475.4746 -3.733159 475.2031 -0.2079831 0.943747 -0.2570691 192 192 192 255 0.223245 0.551155
350.8232 -1.976879 276.4912 -0.05078986 0.9987085 -0.001290315 192 192 192 255 0.165214 0.863074
362.0615 -6.643925 0.017578 0.03762254 0.4321931 -0.9009959 192 192 192 255 0.179671 0.734024
299.668 -10.45244 0.012695 0.05940286 0.2279812 -0.9718518 192 192 192 255 0.1557 0.734026
204.4609 -3.826442 255.0674 -0.03236392 0.9994759 0.0007359965 192 192 192 255 0.119121 0.635871
0.202148 -6.763869 0.192383 -0.6473988 0.4105794 -0.6421054 192 192 192 255 0.040645 0.733956
0.146484 -21.50278 0.150391 -0.6057125 -0.5165293 -0.6052354 192 192 192 255 0.040624 0.733973
499.9824 -0.108845 153.1631 0.6944352 0.6901248 0.2036852 192 192 192 255 0.232661 0.675088
276.6504 -3.83266 457.7471 0.01662474 0.9985573 0.05105961 192 192 192 255 0.146856 0.557873
312.9678 -0.042892 123.3301 0.07222351 0.9962168 -0.04833178 192 192 192 255 0.147968 0.932849
474.7383 -3.84297 225.1045 -0.05851293 0.9966198 -0.0576666 192 192 192 255 0.222962 0.647402
499.7256 -4.4406 482.3477 0.7657716 0.6357415 0.09709068 192 192 192 255 0.232562 0.548406
477.8184 -0.102792 499.8857 0.1152907 0.7177926 0.6866454 192 192 192 255 0.224145 0.541657
343.3662 -0.043589 178.5303 0.0240426 0.9994103 -0.0245144 192 192 192 255 0.161817 0.907701
23.94238 -3.518065 474.8389 0.2808574 0.9430292 -0.1783677 192 192 192 255 0.049766 0.551295
90.62598 -0.053763 274.5547 -0.0777562 0.995878 0.04670031 192 192 192 255 0.046677 0.863956
481.4326 -0.123911 479.6494 0.02478519 0.998113 -0.05617941 192 192 192 255 0.225534 0.549444
359.0938 -3.759287 475.3828 0.04435757 0.9715067 -0.2328246 192 192 192 255 0.178531 0.551086
396.3164 -0.218903 17.90234 -0.1293336 0.9535282 0.2721338 192 192 192 255 0.185939 0.980878
49.30371 -2.770257 262.0215 -0.1754056 0.9837883 0.03732946 192 192 192 255 0.05951 0.633195
146.2051 -22.74972 499.8652 0.01807395 -0.6659912 0.7457407 192 192 192 255 0.096739 0.541664
161.4189 -0.933479 19.98828 -0.008118608 0.9598217 0.2804932 192 192 192 255 0.102585 0.726338
186.4121 -2.685363 88.2373 -0.08083905 0.9947957 -0.06202174 192 192 192 255 0.112187 0.700074
-0.00293 -21.81807 300.4209 -0.9476373 -0.3193484 -0.0005064044 192 192 192 255 0.040566 0.618418
342.7148 -3.823267 25.71582 0.0278588 0.9978516 0.05929831 192 192 192 255 0.172238 0.724134
332.9131 -1.382085 273.5166 -0.03451588 0.9993032 -0.01420899 192 192 192 255 0.168472 0.628771
499.8975 -22.78458 499.8369 0.5786027 -0.5765506 0.5768955 192 192 192 255 0.232628 0.541675
156.0859 -3.828359 100.1357 -0.02176474 0.9996529 -0.0148504 192 192 192 255 0.100536 0.695495
250.4375 -0.04171 223.8506 0.01294202 0.9888847 -0.1481199 192 192 192 255 0.136785 0.647885
289.7002 -1.211089 20.16504 0.03443409 0.9689214 0.2449604 192 192 192 255 0.137368 0.979847
473.1387 -3.869345 188.0459 -0.08684582 0.9961686 0.01030032 192 192 192 255 0.222347 0.661664
496.5205 -22.90058 4.760742 0.01038856 -0.9999182 -0.0074663 192 192 192 255 0.23133 0.732198
105.2832 0.027933 2.484375 0.1053537 0.7773058 -0.620239 192 192 192 255 0.053354 0.987901
93.19336 -3.840621 463.957 0.0002109053 0.9999911 -0.004236349 192 192 192 255 0.076372 0.555483
-0.000977 -7.198459 210.9111 -0.8825484 0.4658517 -0.06395802 192 192 192 255 0.040567 0.652864
47.08105 -3.834477 49.37109 -0.006907993 0.9999347 -0.00910619 192 192 192 255 0.058656 0.715031
499.2637 -5.177509 206.4287 0.8220432 0.5693544 0.008979137 192 192 192 255 0.232384 0.654589
124.9482 -7.511071 3.026367 -0.01556976 0.682604 -0.7306226 192 192 192 255 0.088572 0.732866
481.5098 -0.08746 228.9268 -0.001152893 0.890249 -0.4554729 192 192 192 255 0.225563 0.645931
142.4922 -1.292705 0.616211 -0.1436778 0.7033876 -0.696134 192 192 192 255 0.095313 0.733793
305.9834 -0.042816 359.2725 0.0006930174 0.9998719 -0.01599667 192 192 192 255 0.144786 0.825362
18.49023 -0.070708 151.7979 0.210966 0.9772822 0.02032219 192 192 192 255 0.013814 0.91988
25.07715 -3.733229 273.5645 0.243895 0.9698005 -0.001459941 192 192 192 255 0.050202 0.628753
205.7334 -0.043157 101.3193 -0.06985389 0.9974438 -0.01504473 192 192 192 255 0.099116 0.942876
356.9238 -0.042689 295.9395 -0.0390921 0.9988843 -0.02649454 192 192 192 255 0.167993 0.854214
9.094727 -0.021018 476.127 -0.1036345 0.9922633 0.06836311 192 192 192 255 0.009534 0.772128
499.9131 -22.81469 171.5176 0.8002021 -0.599481 0.01729866 192 192 192 255 0.232634 0.668024
107.9961 -0.0872 18.21387 0.06385921 0.9786173 0.1955259 192 192 192 255 0.05459 0.980736
451.3496 -3.831394 46.96387 0.02083552 0.9995305 -0.02246448 192 192 192 255 0.213976 0.715957
201.3672 -0.521838 347.0986 0.04741806 0.9884534 -0.1439142 192 192 192 255 0.097127 0.830908
324.5352 -3.687258 447.6074 -0.01085513 0.9998947 0.00963434 192 192 192 255 0.165254 0.561775
17.05762 -5.480666 499.2471 -0.1228569 0.5433361 0.830477 192 192 192 255 0.047121 0.541902
0.540039 -22.80655 448.5674 -0.6986586 -0.7154522 -0.002118021 192 192 192 255 0.040775 0.561406
434.1221 -0.161035 432.5869 0.08987735 0.9926645 0.08086686 192 192 192 255 0.207357 0.567556
236.7549 -6.918416 499.998 -0.1290855 0.3178081 0.9393269 192 192 192 255 0.131529 0.541613
69.13574 -0.044332 223.8799 -0.07634924 0.9963025 -0.03939751 192 192 192 255 0.036887 0.887042
490.0977 -0.006525 130.7686 -0.1045534 0.9944764 0.009228778 192 192 192 255 0.228662 0.92946
0.917969 -22.7411 146.2598 -0.6231413 -0.7821051 -0.002560542 192 192 192 255 0.04092 0.677744
450.708 -3.828832 181.04 0.003631053 0.9999522 0.009087987 192 192 192 255 0.213729 0.66436
326.9336 -1.875421 295.3584 -0.05713282 0.9983211 -0.009541719 192 192 192 255 0.154331 0.854479
51.42871 -3.636196 415.6338 -0.09512877 0.9953626 0.01427571 192 192 192 255 0.060326 0.57408
457.4951 -3.831723 222.3389 0.05195703 0.9984782 -0.01848766 192 192 192 255 0.216337 0.648466
79.53711 -3.832088 314.874 -0.0469294 0.9987448 0.01750432 192 192 192 255 0.071126 0.612856
222.333 -3.829648 457.4844 -0.01738324 0.9985731 0.05049424 192 192 192 255 0.125988 0.557974
389.0625 -0.284001 65.88086 -0.03064117 0.9938493 -0.1064179 192 192 192 255 0.190045 0.708677
497.0469 -1.483836 439.4502 0.7027901 0.7066602 0.08196105 192 192 192 255 0.231533 0.564914
5.895508 -0.004293 433.6455 -0.02442042 0.99959 0.01495191 192 192 192 255 0.008077 0.791481
357.9492 -0.113963 481.4287 0.06602209 0.9574565 -0.2809238 192 192 192 255 0.16846 0.769712
155.7041 -0.83491 269.8066 0.06817555 0.9954297 -0.06687163 192 192 192 255 0.076324 0.866119
74.9834 -4.313709 293.1494 -0.07892786 0.9963346 0.0329827 192 192 192 255 0.069376 0.621216
309.0166 -3.139393 304.5381 -0.01954583 0.9994169 -0.02799663 192 192 192 255 0.159291 0.616833
183.791 -1.559648 -0.030273 -0.003209629 0.6093862 -0.7928671 192 192 192 255 0.11118 0.734042
22.63477 -4.422414 218.375 0.07982402 0.9964642 -0.02621693 192 192 192 255 0.049264 0.649992
407.3115 -0.043124 200.7236 0.06171903 0.995665 -0.0695843 192 192 192 255 0.190948 0.897591
80.93359 -22.78779 500.0078 -0.01652072 -0.6675062 0.744421 192 192 192 255 0.071662 0.54161
475.333 -3.691772 118.0566 -0.1972224 0.9796175 0.03811649 192 192 192 255 0.22319 0.688598
79.19727 -0.338059 78.20215 -0.07475747 0.9935691 -0.08504034 192 192 192 255 0.070995 0.703936
205.6582 -0.044034 131.9951 -0.0208416 0.9996516 -0.01619774 192 192 192 255 0.099082 0.928901
384.377 -3.834198 387.8223 -0.03709268 0.9983919 -0.04286909 192 192 192 255 0.188245 0.584783
298.7871 -22.76599 0.59668 0.0009868687 -0.7126249 -0.7015446 192 192 192 255 0.155361 0.733801
26.22461 -3.831043 45.45801 0.1665511 0.9860328 -2.493139e-06 192 192 192 255 0.050643 0.716537
331.1201 -0.043585 147.9229 0.07320104 0.9957289 -0.05626452 192 192 192 255 0.156238 0.921645
499.8418 -8.029971 432.8408 0.9913921 0.1236059 0.04316671 192 192 192 255 0.232606 0.567458
499.9121 -22.82232 355.749 0.7088256 -0.7053837 0.0002674584 192 192 192 255 0.232633 0.597125
49.00879 -3.829818 321.6416 0.0005527571 0.9999585 -0.009099569 192 192 192 255 0.059397 0.610251
46.24023 -4.264586 281.9453 0.009404618 0.9999374 -0.006062994 192 192 192 255 0.058333 0.625528
275.4072 -0.040244 430.4717 0.04847689 0.9952948 0.08389407 192 192 192 255 0.130857 0.792926
224.7598 -3.785299 43.36035 -0.01742073 0.9987397 -0.04707019 192 192 192 255 0.12692 0.717344
128.6602 -0.040662 334.2607 -0.06537713 0.9960229 0.06053374 192 192 192 255 0.064004 0.836756
172.373 -3.662532 448.0557 0.01324586 0.9999029 0.004326881 192 192 192 255 0.106793 0.561603
239.7578 -3.829029 312.9785 0.01381437 0.9998364 -0.01167533 192 192 192 255 0.132682 0.613585
165.2217 -0.609543 487.8496 0.05451981 0.9985119 0.001307665 192 192 192 255 0.08066 0.766787
4.767578 -22.90048 4.758789 -0.1083298 -0.9878568 -0.1113716 192 192 192 255 0.042399 0.732199
25.95605 -3.791012 193.3809 0.07101554 0.997314 0.0179318 192 192 192 255 0.05054 0.659611
128.9834 -3.375888 14.60938 -0.3915683 0.9185236 -0.05466935 192 192 192 255 0.090123 0.728408
0.938477 -0.020206 461.5117 -0.6753387 0.7372909 0.01788131 192 192 192 255 0.005819 0.778786
384.0244 -1.625043 489.457 -0.003868169 0.9943695 -0.1058977 192 192 192 255 0.18811 0.54567
365.2158 -0.080188 432.2637 -0.06020238 0.9976406 0.03299888 192 192 192 255 0.180883 0.56768
137.0723 -0.110967 499.9082 0.01965969 0.7078366 0.7061026 192 192 192 255 0.067836 0.761294
174.7939 -3.831241 49.15625 0.008139728 0.999965 -0.001939823 192 192 192 255 0.107723 0.715113
18.08301 -0.084365 238.6768 0.3065543 0.9506904 -0.0470351 192 192 192 255 0.013629 0.880301
0.682617 -0.10423 431.1162 -0.6938848 0.7177278 0.05822868 192 192 192 255 0.04083 0.568121
68.4502 -0.002959 367.0264 -0.02099141 0.9976786 -0.06478293 192 192 192 255 0.066866 0.592786
409.9912 -0.014856 406.1807 -0.03599853 0.9980822 -0.05035875 192 192 192 255 0.441359 0.803993
429.418 -0.159949 481.3779 -0.008680935 0.9669169 -0.2549441 192 192 192 255 0.201019 0.769735
0 -13.48375 145.2402 -0.9918585 0.1216607 0.03762156 192 192 192 255 0.040567 0.678137
402.0596 -3.837042 25.92383 -0.02358882 0.9796543 0.1993016 192 192 192 255 0.195039 0.724054
346.668 -4.059839 134.5459 -0.140197 0.98894 0.04839997 192 192 192 255 0.173757 0.682252
180.3623 -2.583018 269.9736 0.07106197 0.9957232 -0.05903774 192 192 192 255 0.087558 0.866043
481.377 -0.169165 112.8447 -0.2742974 0.9608959 0.03794823 192 192 192 255 0.224689 0.937625
372.2334 -3.546498 401.7227 -0.06046061 0.994653 -0.08372488 192 192 192 255 0.183579 0.579433
49.74609 -0.08776 499.8809 -0.04933516 0.6676534 0.7428358 192 192 192 255 0.028054 0.761306
247.7412 -0.119931 499.8682 -0.07480671 0.7264785 0.6831055 192 192 192 255 0.118253 0.761312
0.151367 -11.53802 499.8184 -0.6619273 0.3377992 0.6691368 192 192 192 255 0.040626 0.541682
88.02344 -3.653664 51.38965 -0.02212823 0.9933348 -0.1131215 192 192 192 255 0.074386 0.714254
392.8369 -22.82231 0.665039 0.004578413 -0.7116653 -0.7025037 192 192 192 255 0.191495 0.733775
15.07812 -0.010145 11.01465 -0.1018059 0.9870344 -0.1240913 192 192 192 255 0.01226 0.984015
224.9824 -0.033862 251.0625 -0.1334916 0.9909671 -0.01281573 192 192 192 255 0.357075 0.874658
276.2686 -0.046275 249.7607 0.1293605 0.9915976 0.0003813528 192 192 192 255 0.14671 0.637914
362.0273 -2.585839 160.1494 0.03382571 0.9979495 -0.05433829 192 192 192 255 0.170318 0.916075
499.8984 -0.101287 0.270508 0.575867 0.5740438 -0.5821091 192 192 192 255 0.233127 0.98891
46.79199 -3.833487 175.5801 -0.004179192 0.999945 0.009618737 192 192 192 255 0.058545 0.666461
496.2979 -3.450512 244.1191 0.3876272 0.9143904 -0.1167708 192 192 192 255 0.231245 0.640085
248.2617 -3.038356 168.4971 0.04877451 0.9960787 0.07381257 192 192 192 255 0.135949 0.669187
70.33301 -22.94777 498.4971 -0.0461851 -0.7920951 0.608648 192 192 192 255 0.067589 0.542191
372.3184 -2.387774 9.670898 -0.0528705 0.9940341 -0.09539943 192 192 192 255 0.183612 0.730309
485.4268 -22.84046 499.9404 0.004394402 -0.7053952 0.7088006 192 192 192 255 0.227068 0.541635
250.1377 -0.040594 123.8047 -7.853749e-05 0.9998512 0.01725227 192 192 192 255 0.13667 0.686386
323.9873 -3.830516 89.19043 0.0430338 0.9986462 -0.02922037 192 192 192 255 0.165043 0.699707
250.8398 -3.176589 330.4619 -0.01229021 0.9980464 -0.06125695 192 192 192 255 0.13694 0.606857
169.9658 -3.177522 248.709 0.05588857 0.9984316 0.003303698 192 192 192 255 0.105868 0.638318
288.0352 -0.118689 0.737305 0.2103291 0.7514169 -0.6254074 192 192 192 255 0.13661 0.988697
24.47949 -3.426227 23.7998 0.3908397 0.8986783 0.199052 192 192 192 255 0.049972 0.724871
327.7607 -3.128869 113.4355 0.05889795 0.9972119 -0.04582002 192 192 192 255 0.166493 0.690376
499.8955 -0.079794 420.8867 0.7086538 0.7050894 0.02566435 192 192 192 255 0.232627 0.572058
323.1465 -3.824826 250.4619 -0.05523019 0.9984735 -0.0005970739 192 192 192 255 0.16472 0.637644
184.2939 -2.199388 286.4688 0.07417826 0.9970238 -0.02100663 192 192 192 255 0.089349 0.858529
450.9473 -3.713435 326.9072 0.002606177 0.9999725 -0.006961158 192 192 192 255 0.213821 0.608225
123.9521 -0.040622 249.9844 0.01675503 0.9998596 6.204291e-05 192 192 192 255 0.08819 0.637828
68.01855 -0.03416 420.4561 -0.1186064 0.9903759 0.07133183 192 192 192 255 0.0667 0.572224
3.277344 -0.93646 447.7246 -0.9060097 0.3983383 -0.1430838 192 192 192 255 0.006884 0.785067
7.527344 -1.842853 215.3438 -0.1786387 0.97667 -0.1191809 192 192 192 255 0.043459 0.651158
377.6514 -2.802398 150.8281 0.06779796 0.9944072 -0.08098016 192 192 192 255 0.185661 0.675986
5.080078 -0.275646 149.9736 -0.537525 0.840434 0.06883045 192 192 192 255 0.007705 0.920711
249.7588 -3.832312 297.6934 0.009161972 0.9990637 0.04228398 192 192 192 255 0.136525 0.619467
411.3184 -0.162999 0.535156 -0.01627194 0.7080554 -0.7059695 192 192 192 255 0.192773 0.988789
217.3525 -2.690388 309.2588 0.01350838 0.9985598 0.051922 192 192 192 255 0.124074 0.615017
260.7246 -3.555529 24.08008 0.001012327 0.9660313 0.2584234 192 192 192 255 0.140738 0.724764
250.4268 -0.041859 276.1338 0.01127407 0.9915559 0.129189 192 192 192 255 0.136781 0.627764
178.2783 -1.976409 128.6357 -0.0589854 0.980069 -0.1896984 192 192 192 255 0.086608 0.930432
226.0488 -3.653703 228.4902 -0.08501427 0.993161 -0.08002435 192 192 192 255 0.127415 0.646099
219.9434 -0.051339 355.2598 0.0167638 0.9985969 -0.05023198 192 192 192 255 0.105589 0.82719
50.36719 -3.82981 451.46 -0.002142853 0.9999581 0.00889953 192 192 192 255 0.059918 0.560292
374.7822 -1.751927 497.2432 0.07507003 0.6920797 0.7179068 192 192 192 255 0.184559 0.542673
358.458 -0.116247 499.8701 0.08491391 0.6906324 0.7182037 192 192 192 255 0.178287 0.541663
395.6523 -4.728878 473.168 -0.01476514 0.9956911 -0.09154959 192 192 192 255 0.192577 0.551938
146.0088 -0.001472 8.508789 -0.09038171 0.995783 -0.01572875 192 192 192 255 0.071908 0.985157
13.43848 -1.941425 182.8574 -0.04952756 0.9966755 0.06469231 192 192 192 255 0.04573 0.66366
19.44043 -1.247545 -0.003906 -0.07139951 0.6775503 -0.7320026 192 192 192 255 0.048036 0.734032
0.613281 -0.122302 133.5615 -0.6967142 0.715494 0.05155297 192 192 192 255 0.040803 0.682631
63.32324 -22.79865 499.918 0.1188782 -0.5591694 0.8204862 192 192 192 255 0.064896 0.541644
178.3633 -0.101727 133.042 -0.0547228 0.9739258 -0.2201681 192 192 192 255 0.086647 0.928424
20.16113 -0.120667 481.4385 0.05556063 0.997157 -0.05090286 192 192 192 255 0.048313 0.548756
293.3096 -3.012768 4.029297 0.3754983 0.8792757 -0.2930447 192 192 192 255 0.153257 0.73248
448.7861 -3.708979 448.9814 0.02489945 0.9990336 0.03622139 192 192 192 255 0.212991 0.561246
490.5859 -1.178212 197.3145 0.1384706 0.989859 0.03170225 192 192 192 255 0.22905 0.658097
286.6992 -0.110318 337.6045 -0.008235049 0.9987117 -0.05007138 192 192 192 255 0.150717 0.604108
499.8643 -22.7476 119.9746 0.7266493 -0.6870024 -0.002939384 192 192 192 255 0.232615 0.68786
499.9287 -22.81168 0.56543 0.5800433 -0.5756798 -0.5763182 192 192 192 255 0.23264 0.733813
127.4668 -3.808989 25.82129 -0.003067102 0.9995354 0.0303261 192 192 192 255 0.08954 0.724093
475.5156 -3.683132 24.48242 -0.2854148 0.9381912 0.195795 192 192 192 255 0.22326 0.724609
250.876 -3.171656 169.4746 -0.0274595 0.9969118 0.07357227 192 192 192 255 0.136954 0.668811
455.6221 -3.717909 276.7148 0.05706397 0.9981858 0.01921124 192 192 192 255 0.215617 0.627541
278.6963 -3.827956 43.55371 0.02009984 0.9986644 -0.04759661 192 192 192 255 0.147642 0.717269
499.2373 -0.26346 107.4199 0.7066989 0.7075141 0.0006782693 192 192 192 255 0.232374 0.692691
64.76758 -0.29633 105.3965 -0.1033248 0.9945793 -0.01166375 192 192 192 255 0.065451 0.69347
331.6543 -1.270533 15.7373 0.01597441 0.9965528 -0.08140963 192 192 192 255 0.167989 0.727974
275.4072 -0.040244 430.4717 0.04847689 0.9952948 0.08389407 192 192 192 255 0.146379 0.56837
186.4121 -2.685363 88.2373 -0.08083905 0.9947957 -0.06202174 192 192 192 255 0.090314 0.948836
250.1377 -0.040594 123.8047 -7.853749e-05 0.9998512 0.01725227 192 192 192 255 0.119345 0.932632
373.2842 -0.128499 249.5146 -0.02761873 0.9996153 0.002546248 192 192 192 255 0.175446 0.875364
430.8896 -0.040299 275.1621 0.08816037 0.9948102 0.05079786 192 192 192 255 0.201689 0.86368
411.3184 -0.162999 0.535156 -0.01627194 0.7080554 -0.7059695 192 192 192 255 0.198596 0.733824
499.8984 -0.101287 0.270508 0.575867 0.5740438 -0.5821091 192 192 192 255 0.232628 0.733926
123.9521 -0.040622 249.9844 0.01675503 0.9998596 6.204291e-05 192 192 192 255 0.061859 0.87515
107.9961 -0.0872 18.21387 0.06385921 0.9786173 0.1955259 192 192 192 255 0.082059 0.727021
22.20801 -0.087323 18.08008 0.0862742 0.9904488 0.1075541 192 192 192 255 0.0491 0.727073
481.4326 -0.123911 479.6494 0.02478519 0.998113 -0.05617941 192 192 192 255 0.224715 0.770523
429.418 -0.159949 481.3779 -0.008680935 0.9669169 -0.2549441 192 192 192 255 0.20555 0.548779
154.9883 -0.136689 481.4346 0.05403071 0.967627 -0.2465335 192 192 192 255 0.075998 0.76971
20.16113 -0.120667 481.4385 0.05556063 0.997157 -0.05090286 192 192 192 255 0.014576 0.769708
137.0723 -0.110967 499.9082 0.01965969 0.7078366 0.7061026 192 192 192 255 0.093231 0.541648
479.5146 -0.067231 18.18457 -0.07484276 0.9934781 0.0860218 192 192 192 255 0.224797 0.727032
490.0977 -0.006525 130.7686 -0.1045534 0.9944764 0.009228778 192 192 192 255 0.228863 0.683706
224.1182 -0.041988 430.877 -0.04823518 0.9952093 0.0850403 192 192 192 255 0.107491 0.792742
276.0332 -0.042727 69.09863 0.0501258 0.9951571 -0.084557 192 192 192 255 0.131142 0.957554
226.0332 -0.070592 68.90332 -0.04954918 0.9950649 -0.08596985 192 192 192 255 0.108364 0.957643
250.4375 -0.04171 223.8506 0.01294202 0.9888847 -0.1481199 192 192 192 255 0.368672 0.887055
250.4268 -0.041859 276.1338 0.01127407 0.9915559 0.129189 192 192 192 255 0.368667 0.863237
276.2686 -0.046275 249.7607 0.1293605 0.9915976 0.0003813528 192 192 192 255 0.38044 0.875252
68.4502 -0.002959 367.0264 -0.02099141 0.9976786 -0.06478293 192 192 192 255 0.285765 0.82183
68.01855 -0.03416 420.4561 -0.1186064 0.9903759 0.07133183 192 192 192 255 0.285568 0.797489
128.6602 -0.040662 334.2607 -0.06537713 0.9960229 0.06053374 192 192 192 255 0.089999 0.605395
431.4287 -0.014174 66.0625 0.06819166 0.9947135 -0.07677852 192 192 192 255 0.451125 0.958938
389.0625 -0.284001 65.88086 -0.03064117 0.9938493 -0.1064179 192 192 192 255 0.431825 0.95902
250.0889 -0.041377 374.9355 -0.001528042 0.9997952 -0.02018184 192 192 192 255 0.136651 0.589742
365.2158 -0.080188 432.2637 -0.06020238 0.9976406 0.03299888 192 192 192 255 0.420961 0.79211
434.1221 -0.161035 432.5869 0.08987735 0.9926645 0.08086686 192 192 192 255 0.452352 0.791963
220.8545 -2.177548 488.3984 -0.005862201 0.993705 0.1118756 192 192 192 255 0.12542 0.546077
247.7412 -0.119931 499.8682 -0.07480671 0.7264785 0.6831055 192 192 192 255 0.13575 0.541663
406.9492 -0.114095 499.9277 -0.05850014 0.7108891 0.700867 192 192 192 255 0.196917 0.54164
269.6807 -0.004882 17.65918 0.005528166 0.9704661 0.2411745 192 192 192 255 0.144179 0.727234
231.3311 -1.324011 344.7725 0.02637309 0.9961414 -0.08370697 192 192 192 255 0.110777 0.831968
288.0352 -0.118689 0.737305 0.2103291 0.7514169 -0.6254074 192 192 192 255 0.15123 0.733747
481.377 -0.169165 112.8447 -0.2742974 0.9608959 0.03794823 192 192 192 255 0.225512 0.690604
0.938477 -0.020206 461.5117 -0.6753387 0.7372909 0.01788131 192 192 192 255 0.040928 0.556424
146.0088 -0.001472 8.508789 -0.09038171 0.995783 -0.01572875 192 192 192 255 0.096664 0.730756
499.9014 -0.106594 284.2412 0.706863 0.7072973 -0.008671539 192 192 192 255 0.233129 0.859543
481.5098 -0.08746 228.9268 -0.001152893 0.890249 -0.4554729 192 192 192 255 0.22475 0.884743
19.44043 -1.247545 -0.003906 -0.07139951 0.6775503 -0.7320026 192 192 192 255 0.014247 0.989035
105.2832 0.027933 2.484375 0.1053537 0.7773058 -0.620239 192 192 192 255 0.081017 0.733074
224.9824 -0.033862 251.0625 -0.1334916 0.9909671 -0.01281573 192 192 192 255 0.127006 0.637413
260.7061 -0.16478 481.377 -0.009824497 0.9760529 -0.2173117 192 192 192 255 0.140731 0.548779
12.04883 -0.884818 488.124 -0.2557612 0.931671 0.2580221 192 192 192 255 0.045197 0.546183
433.6211 -0.010765 389.543 0.06858647 0.9971013 -0.03293711 192 192 192 255 0.452124 0.811572
289.7002 -1.211089 20.16504 0.03443409 0.9689214 0.2449604 192 192 192 255 0.15187 0.72627
69.13574 -0.044332 223.8799 -0.07634924 0.9963025 -0.03939751 192 192 192 255 0.067129 0.647873
105.6377 -0.06153 187.3584 -0.06786306 0.9951597 -0.07107653 192 192 192 255 0.081153 0.661928
499.8955 -0.079794 420.8867 0.7086538 0.7050894 0.02566435 192 192 192 255 0.233126 0.797293
133.7383 -0.085282 68.85352 0.07779688 0.9969552 -0.005297984 192 192 192 255 0.315508 0.957666
102.3955 -0.019447 68.0918 -0.01416933 0.9937924 -0.1103447 192 192 192 255 0.301229 0.958013
65.46875 -0.157267 135.46 -0.01387419 0.9972423 0.07290678 192 192 192 255 0.06572 0.681901
165.9727 -2.845119 121.0684 -0.03842911 0.9971755 -0.06453119 192 192 192 255 0.104334 0.687439
146.7002 -0.056198 146.2773 -0.05769397 0.9946805 -0.08533631 192 192 192 255 0.09693 0.677738
380.0098 -0.082802 80.84375 -0.09098519 0.9955633 0.02398998 192 192 192 255 0.186567 0.702919
409.9912 -0.014856 406.1807 -0.03599853 0.9980822 -0.05035875 192 192 192 255 0.198086 0.577718
15.07812 -0.010145 11.01465 -0.1018059 0.9870344 -0.1240913 192 192 192 255 0.04636 0.729792
332.9131 -1.382085 273.5166 -0.03451588 0.9993032 -0.01420899 192 192 192 255 0.157055 0.864429
357.9492 -0.113963 481.4287 0.06602209 0.9574565 -0.2809238 192 192 192 255 0.178091 0.548759
0.797852 -0.107135 234.6895 -0.6521605 0.7565293 -0.04847843 192 192 192 255 0.005754 0.882117
326.9336 -1.875421 295.3584 -0.05713282 0.9983211 -0.009541719 192 192 192 255 0.166175 0.620366
324.7178 -1.615175 328.6719 -0.1361389 0.9838457 -0.1162492 192 192 192 255 0.165324 0.607546
155.7041 -0.83491 269.8066 0.06817555 0.9954297 -0.06687163 192 192 192 255 0.100389 0.630199
71.33008 -0.04884 242.8906 -0.06699324 0.9975062 0.02221343 192 192 192 255 0.067972 0.640557
184.2939 -2.199388 286.4688 0.07417826 0.9970238 -0.02100663 192 192 192 255 0.111373 0.623787
201.3672 -0.521838 347.0986 0.04741806 0.9884534 -0.1439142 192 192 192 255 0.117933 0.600454
188.2354 -2.703763 318.8438 0.1676006 0.9828918 -0.07637881 192 192 192 255 0.112887 0.611328
179.7607 -0.583395 490.1465 0.01240755 0.9961317 0.08699226 192 192 192 255 0.087284 0.765741
193.3994 -2.556972 494.1953 0.00439437 0.7584261 0.6517443 192 192 192 255 0.093497 0.763896
342.2627 -2.402835 118.2959 0.01128704 0.9998537 -0.01285526 192 192 192 255 0.161314 0.935142
377.6514 -2.802398 150.8281 0.06779796 0.9944072 -0.08098016 192 192 192 255 0.177436 0.920322
499.9824 -0.108845 153.1631 0.6944352 0.6901248 0.2036852 192 192 192 255 0.233165 0.919258
499.2373 -0.26346 107.4199 0.7066989 0.7075141 0.0006782693 192 192 192 255 0.232826 0.940097
165.2217 -0.609543 487.8496 0.05451981 0.9985119 0.001307665 192 192 192 255 0.104046 0.546288
305.9834 -0.042816 359.2725 0.0006930174 0.9998719 -0.01599667 192 192 192 255 0.158126 0.59577
79.19727 -0.338059 78.20215 -0.07475747 0.9935691 -0.08504034 192 192 192 255 0.290661 0.953407
64.76758 -0.29633 105.3965 -0.1033248 0.9945793 -0.01166375 192 192 192 255 0.284087 0.941018
372.3184 -2.387774 9.670898 -0.0528705 0.9940341 -0.09539943 192 192 192 255 0.175006 0.984628
430.9092 -0.047016 224.0029 0.08519299 0.9951633 -0.04890988 192 192 192 255 0.201698 0.886986
407.3115 -0.043124 200.7236 0.06171903 0.995665 -0.0695843 192 192 192 255 0.197056 0.656785
396.3164 -0.218903 17.90234 -0.1293336 0.9535282 0.2721338 192 192 192 255 0.192832 0.727141
0.682617 -0.10423 431.1162 -0.6938848 0.7177278 0.05822868 192 192 192 255 0.005702 0.792633
358.458 -0.116247 499.8701 0.08491391 0.6906324 0.7182037 192 192 192 255 0.168692 0.761311
3.277344 -0.93646 447.7246 -0.9060097 0.3983383 -0.1430838 192 192 192 255 0.041827 0.56173
362.0273 -2.585839 160.1494 0.03382571 0.9979495 -0.05433829 192 192 192 255 0.179658 0.672399
488.4795 -0.094531 160.2441 0.139648 0.9787799 0.1499619 192 192 192 255 0.228241 0.672363
286.6992 -0.110318 337.6045 -0.008235049 0.9987117 -0.05007138 192 192 192 255 0.136001 0.835233
331.1201 -0.043585 147.9229 0.07320104 0.9957289 -0.05626452 192 192 192 255 0.167784 0.677104
180.3623 -2.583018 269.9736 0.07106197 0.9957232 -0.05903774 192 192 192 255 0.109863 0.630135
312.9678 -0.042892 123.3301 0.07222351 0.9962168 -0.04833178 192 192 192 255 0.160809 0.686569
477.8184 -0.102792 499.8857 0.1152907 0.7177926 0.6866454 192 192 192 255 0.223068 0.761304
13.43848 -1.941425 182.8574 -0.04952756 0.9966755 0.06469231 192 192 192 255 0.011513 0.90573
49.74609 -0.08776 499.8809 -0.04933516 0.6676534 0.7428358 192 192 192 255 0.05968 0.541658
5.080078 -0.275646 149.9736 -0.537525 0.840434 0.06883045 192 192 192 255 0.042519 0.676315
183.791 -1.559648 -0.030273 -0.003209629 0.6093862 -0.7928671 192 192 192 255 0.08912 0.989047
18.02637 -0.129653 434.3428 0.2583048 0.9660634 0.0003427672 192 192 192 255 0.013603 0.791163
0.613281 -0.122302 133.5615 -0.6967142 0.715494 0.05155297 192 192 192 255 0.00567 0.928188
384.0244 -1.625043 489.457 -0.003868169 0.9943695 -0.1058977 192 192 192 255 0.180339 0.766055
18.49023 -0.070708 151.7979 0.210966 0.9772822 0.02032219 192 192 192 255 0.047671 0.675613
432.457 -0.140194 135.4824 0.02757593 0.9978122 0.06008705 192 192 192 255 0.451594 0.927312
142.4922 -1.292705 0.616211 -0.1436778 0.7033876 -0.696134 192 192 192 255 0.070305 0.988752
374.7822 -1.751927 497.2432 0.07507003 0.6920797 0.7179068 192 192 192 255 0.176129 0.762508
90.62598 -0.053763 274.5547 -0.0777562 0.995878 0.04670031 192 192 192 255 0.075386 0.628372
92.49316 -1.497879 293.7334 -0.1385365 0.9880245 0.06793661 192 192 192 255 0.047528 0.855219
58.8457 -2.607309 79.86914 0.1083897 0.9872583 -0.116502 192 192 192 255 0.281389 0.952648
18.08301 -0.084365 238.6768 0.3065543 0.9506904 -0.0470351 192 192 192 255 0.047515 0.642179
497.0469 -1.483836 439.4502 0.7027901 0.7066602 0.08196105 192 192 192 255 0.231828 0.788836
134.624 -0.112447 434.3682 0.06170231 0.9972903 0.04006265 192 192 192 255 0.09229 0.56687
161.4189 -0.933479 19.98828 -0.008118608 0.9598217 0.2804932 192 192 192 255 0.078928 0.979927
217.3525 -2.690388 309.2588 0.01350838 0.9985598 0.051922 192 192 192 255 0.104409 0.848146
0.600586 -0.117231 22.29785 -0.6882469 0.7232443 -0.05686699 192 192 192 255 0.005665 0.978875
7.527344 -1.842853 215.3438 -0.1786387 0.97667 -0.1191809 192 192 192 255 0.00882 0.890931
3 180 69 98 
3 167 25 201 
3 21 78 154 
3 30 167 17 
3 52 237 10 
3 138 137 159 
3 224 66 64 
3 181 43 123 
3 213 205 202 
3 202 246 2 
3 119 115 161 
3 43 203 133 
3 102 97 162 
3 3 252 247 
3 247 252 83 
3 210 39 100 
3 198 202 205 
3 103 15 225 
3 219 193 223 
3 18 103 193 
3 145 39 241 
3 224 253 66 
3 88 254 255 
3 256 119 161 
3 88 255 148 
3 195 184 131 
3 220 93 4 
3 257 258 243 
3 55 251 99 
3 259 236 64 
3 259 90 70 
3 206 231 41 
3 244 155 174 
3 196 155 33 
3 250 110 196 
3 174 196 33 
3 174 110 189 
3 174 33 102 
3 162 174 102 
3 78 77 190 
3 191 5 122 
3 207 260 261 
3 245 123 150 
3 233 21 81 
3 247 136 3 
3 150 123 133 
3 148 255 119 
3 74 91 113 
3 262 179 60 
3 212 239 247 
3 125 83 72 
3 125 72 239 
3 75 230 263 
3 142 9 187 
3 229 129 53 
3 264 265 173 
3 129 95 53 
3 68 95 129 
3 266 149 95 
3 50 188 44 
3 120 170 54 
3 245 181 123 
3 181 245 267 
3 114 112 169 
3 20 209 158 
3 150 105 268 
3 148 119 256 
3 136 65 3 
3 252 6 138 
3 16 269 161 
3 1 248 7 
3 270 271 254 
3 84 270 254 
3 203 248 1 
3 194 88 148 
3 43 248 203 
3 272 192 273 
3 159 117 135 
3 164 108 52 
3 108 89 52 
3 135 117 89 
3 159 135 177 
3 138 164 52 
3 83 138 52 
3 138 83 252 
3 47 163 269 
3 44 109 98 
3 175 141 120 
3 9 71 187 
3 176 36 109 
3 258 242 243 
3 106 25 167 
3 152 259 254 
3 271 118 254 
3 123 139 0 
3 99 222 248 
3 248 162 7 
3 133 203 136 
3 133 136 105 
3 264 173 166 
3 274 272 273 
3 177 135 214 
3 275 276 11 
3 6 277 138 
3 206 41 104 
3 80 233 81 
3 259 64 90 
3 79 205 221 
3 174 189 12 
3 0 13 133 
3 278 279 14 
3 43 99 248 
3 35 33 117 
3 75 263 91 
3 62 251 55 
3 234 59 69 
3 212 247 83 
3 16 226 269 
3 204 48 280 
3 239 212 128 
3 128 172 239 
3 178 281 282 
3 185 125 172 
3 128 212 26 
3 39 204 241 
3 39 210 165 
3 85 247 74 
3 85 136 247 
3 114 169 244 
3 83 29 92 
3 83 52 29 
3 58 205 15 
3 210 58 15 
3 155 110 174 
3 110 155 196 
3 115 16 161 
3 241 204 280 
3 283 129 284 
3 129 283 68 
3 167 201 17 
3 87 285 201 
3 210 18 165 
3 210 15 18 
3 17 53 95 
3 224 64 236 
3 143 259 70 
3 157 86 27 
3 222 286 96 
3 18 219 165 
3 265 186 173 
3 287 124 226 
3 211 70 63 
3 288 238 78 
3 245 289 267 
3 245 150 289 
3 150 268 289 
3 12 189 19 
3 226 47 269 
3 108 227 89 
3 123 43 139 
3 290 44 188 
3 176 109 44 
3 121 20 158 
3 117 159 137 
3 144 137 57 
3 254 88 84 
3 126 50 235 
3 291 114 244 
3 236 259 152 
3 292 293 262 
3 107 294 122 
3 295 260 244 
3 217 136 203 
3 38 108 164 
3 265 54 186 
3 17 201 22 
3 120 141 170 
3 72 83 92 
3 230 92 171 
3 23 208 182 
3 160 117 137 
3 225 79 296 
3 15 205 225 
3 156 84 88 
3 25 121 158 
3 100 39 145 
3 29 297 92 
3 126 298 188 
3 178 282 299 
3 239 72 230 
3 27 87 201 
3 86 87 27 
3 62 77 78 
3 77 55 200 
3 55 77 62 
3 29 51 283 
3 29 52 51 
3 244 222 96 
3 144 160 137 
3 238 288 300 
3 30 17 199 
3 45 130 34 
3 33 301 302 
3 292 262 303 
3 304 305 31 
3 250 196 306 
3 307 56 308 
3 139 67 309 
3 310 153 185 
3 59 80 69 
3 311 80 59 
3 98 69 132 
3 195 220 4 
3 195 4 184 
3 119 134 32 
3 47 70 163 
3 312 134 76 
3 28 266 95 
3 92 313 171 
3 140 86 157 
3 175 314 141 
3 33 147 117 
3 190 257 243 
3 308 56 46 
3 64 45 90 
3 315 145 316 
3 30 235 50 
3 199 17 95 
3 2 210 100 
3 205 213 317 
3 222 99 300 
3 301 35 318 
3 221 319 40 
3 48 40 320 
3 109 180 98 
3 40 321 320 
3 124 63 47 
3 30 199 235 
3 287 226 16 
3 71 322 323 
3 324 194 325 
3 217 203 23 
3 44 127 50 
3 232 216 168 
3 147 168 216 
3 155 168 33 
3 33 168 147 
3 110 250 42 
3 152 224 236 
3 57 137 277 
3 200 99 181 
3 148 325 194 
3 223 296 79 
3 181 99 43 
3 22 285 228 
3 249 82 49 
3 131 24 326 
3 327 131 326 
3 132 167 30 
3 50 127 30 
3 43 67 139 
3 46 302 308 
3 302 46 33 
3 146 288 21 
3 294 191 122 
3 233 80 311 
3 51 52 328 
3 228 229 53 
3 25 243 242 
3 33 35 301 
3 36 216 109 
3 316 145 329 
3 141 215 170 
3 151 189 42 
3 89 117 8 
3 112 295 244 
3 305 330 331 
3 103 225 296 
3 205 58 198 
3 77 200 257 
3 220 332 93 
3 148 256 333 
3 136 334 65 
3 181 267 335 
3 68 51 28 
3 22 228 53 
3 141 336 215 
3 329 145 241 
3 69 80 81 
3 105 150 133 
3 142 187 337 
3 183 143 70 
3 290 338 44 
3 102 56 307 
3 239 230 75 
3 26 153 310 
3 76 134 119 
3 32 115 119 
3 253 224 152 
3 61 197 20 
3 135 89 227 
3 339 23 182 
3 318 35 94 
3 19 189 151 
3 82 340 49 
3 51 328 28 
3 341 16 115 
3 105 136 85 
3 328 52 10 
3 339 182 342 
3 221 205 343 
3 81 154 167 
3 208 344 182 
3 262 60 345 
3 288 78 21 
3 208 203 1 
3 219 18 193 
3 222 300 286 
3 102 33 46 
3 190 243 106 
3 106 243 25 
3 258 249 242 
3 185 172 310 
3 340 111 121 
3 135 227 73 
3 260 207 244 
3 165 48 204 
3 111 240 61 
3 240 85 61 
3 45 34 90 
3 116 218 346 
3 347 126 37 
3 348 109 232 
3 225 205 79 
3 340 121 49 
3 189 110 42 
3 295 112 21 
3 318 94 144 
3 206 349 231 
3 119 255 76 
3 350 175 120 
3 266 28 328 
3 111 61 121 
3 61 20 121 
3 181 335 200 
3 73 38 214 
3 62 238 251 
3 212 83 153 
3 194 156 88 
3 25 242 121 
3 191 351 116 
3 109 348 180 
3 7 162 97 
3 347 37 149 
3 263 230 171 
3 98 132 127 
3 127 132 30 
3 340 268 105 
3 154 106 167 
3 69 81 132 
3 81 167 132 
3 179 352 60 
3 168 155 353 
3 205 317 343 
3 99 200 55 
3 238 300 251 
3 99 251 300 
3 338 176 44 
3 74 239 75 
3 222 162 248 
3 211 183 70 
3 92 297 313 
3 278 14 354 
3 348 234 180 
3 180 234 69 
3 105 85 240 
3 61 113 197 
3 37 126 235 
3 35 160 94 
3 314 336 141 
3 116 351 218 
3 112 114 21 
3 39 165 204 
3 221 40 165 
3 203 208 23 
3 114 146 21 
3 349 355 231 
3 72 92 230 
3 17 22 53 
3 199 95 149 
3 352 356 60 
3 226 124 47 
3 306 196 12 
3 246 58 210 
3 266 347 149 
3 91 87 86 
3 357 318 144 
3 201 25 158 
3 61 85 113 
3 149 37 199 
3 37 235 199 
3 190 106 154 
3 207 261 353 
3 353 155 207 
3 44 98 127 
3 298 290 188 
3 238 62 78 
3 78 190 154 
3 158 157 27 
3 68 28 95 
3 182 344 342 
3 135 73 214 
3 70 90 163 
3 90 358 163 
3 137 138 277 
3 165 40 48 
3 359 331 330 
3 209 157 158 
3 209 140 157 
3 340 240 111 
3 123 0 133 
3 15 103 18 
3 340 105 240 
3 222 244 174 
3 21 154 81 
3 133 309 43 
3 35 117 160 
3 63 70 47 
3 117 360 8 
3 212 153 26 
3 118 253 152 
3 118 152 254 
3 140 91 86 
3 344 208 1 
3 303 262 361 
3 305 331 31 
3 164 159 362 
3 138 159 164 
3 229 284 129 
3 353 232 168 
3 38 227 108 
3 56 102 46 
3 222 174 162 
3 201 285 22 
3 197 113 20 
3 246 198 58 
3 202 198 246 
3 255 312 76 
3 52 89 237 
3 100 145 315 
3 195 131 327 
3 97 102 307 
3 185 83 125 
3 153 83 185 
3 231 363 41 
3 232 109 216 
3 125 239 172 
3 77 257 190 
3 85 74 113 
3 169 112 244 
3 94 160 144 
3 253 118 271 
3 79 221 219 
3 219 221 165 
3 67 43 309 
3 38 164 362 
3 40 319 321 
3 244 207 155 
3 183 211 364 
3 362 214 38 
3 159 177 362 
3 298 126 347 
3 352 142 337 
3 352 337 356 
3 291 244 96 
3 13 309 133 
3 126 188 50 
3 191 365 351 
3 117 147 360 
3 89 8 237 
3 350 120 265 
3 366 314 175 
3 120 54 265 
3 74 247 239 
3 249 49 242 
3 12 196 174 
3 79 219 223 
3 5 191 116 
3 147 216 360 
3 297 29 283 
3 233 295 21 
3 246 210 2 
3 49 121 242 
3 357 144 57 
3 27 201 101 
3 201 158 101 
3 27 101 158 
3 136 217 334 
3 38 73 227 
3 74 75 91 
