ply
format ascii 1.0
comment VCGLIB generated
comment TextureFile Dungeons_2_Texture_01_A.png
element vertex 205
property float x
property float y
property float z
property float nx
property float ny
property float nz
property uchar red
property uchar green
property uchar blue
property uchar alpha
property float texture_u
property float texture_v
element face 213
property list uchar int vertex_indices
end_header
182.8851 458.1918 17.02089 -0.570083 -0.6923763 0.4422901 192 192 192 255 0.088051 0.720403
250 396.0704 19.31346 -0.00181347 -0.6957811 0.7182516 192 192 192 255 0.119651 0.69012
189.0546 465.718 36.7772 -0.5690044 -0.691941 0.4443554 192 192 192 255 0.090956 0.723947
257.9156 421.8851 36.7772 0.4609982 -0.6738681 0.5773928 192 192 192 255 0.123378 0.702274
317.1149 458.1918 17.02089 0.5718145 -0.6910196 0.4421765 192 192 192 255 0.151251 0.720403
310.9456 465.718 36.7772 0.5717916 -0.690455 0.4430873 192 192 192 255 0.148346 0.723947
189.0546 500 36.7772 -0.558256 0.5766357 0.5965246 192 192 192 255 0.090956 0.739053
182.8851 500 30.79803 -0.6560762 0.6776765 0.3321427 192 192 192 255 0.088051 0.739053
310.9456 500 36.7772 0.3217577 0.3323501 0.8865751 192 192 192 255 0.148346 0.739053
317.1149 500 30.79803 0.6560784 0.6776769 0.3321373 192 192 192 255 0.151251 0.739053
204.2848 474.9395 36.7772 -0.4705732 -0.2359073 0.8502403 192 192 192 255 0.098127 0.727254
250 436.4496 36.7772 0.1136565 -0.4875725 0.865653 192 192 192 255 0.119651 0.709132
213.1006 477.4462 42.16045 -0.0004234895 -0.0002123034 0.9999999 192 192 192 255 0.102278 0.727254
247.724 447.0825 42.16045 -0.0001991143 -0.0006359688 0.9999998 192 192 192 255 0.119651 0.713342
295.7152 474.9395 36.7772 0.4520204 -0.2346575 0.860589 192 192 192 255 0.141175 0.727254
286.8994 474.9395 42.16045 0.0008126254 -0.0004218585 0.9999996 192 192 192 255 0.137025 0.727254
213.1006 500 42.16045 -0.2958312 0.567645 0.7682858 192 192 192 255 0.102278 0.739053
204.2848 500 36.7772 -0.3685125 0.7071068 0.6034886 192 192 192 255 0.098127 0.739053
286.8994 500 42.16045 0.1698571 0.3259241 0.9300119 192 192 192 255 0.137025 0.739053
295.7152 500 36.7772 0.3685125 0.7071068 0.6034887 192 192 192 255 0.141175 0.739053
0 152.8302 31.19531 -0.9998317 -0.009743241 0.01554463 192 192 192 255 0.001942 0.575594
0 161.2092 36.27903 -0.9974284 -0.01980256 0.06888021 192 192 192 255 0.001942 0.829539
0 171.7327 36.27903 -0.02954003 -0.08942892 0.9955551 192 192 192 255 0.001942 0.834494
0 176.6436 42.16045 0.05554551 -0.7635999 0.6432961 192 192 192 255 0.001942 0.586806
0 228.1336 42.16045 -0.2432016 0.2972796 0.9232973 192 192 192 255 0.001942 0.611049
250 196.4986 36.27903 0.0001692819 -0.001091104 0.9999994 192 192 192 255 0.119651 0.596154
218.9463 180.5579 42.16045 0.008124952 -0.01528029 0.9998503 192 192 192 255 0.10503 0.588649
226.8501 171.7327 36.27903 0.01303201 -0.02704844 0.9995492 192 192 192 255 0.108751 0.584494
0 233.0446 36.27903 -0.9987097 0.01031648 0.04972506 192 192 192 255 0.001942 0.613362
250 204.2401 42.16045 0.001617025 -0.002235075 0.9999962 192 192 192 255 0.119651 0.599799
154.3951 226.7986 42.16045 -0.0001132712 0.0003554636 0.9999999 192 192 192 255 0.074637 0.860421
250 316.4318 42.16045 -0.0144251 0.02314699 0.999628 192 192 192 255 0.119651 0.902623
150 233.0446 36.27903 -0.001450106 0.002235661 0.9999965 192 192 192 255 0.072568 0.863362
250 152.8302 31.19531 0.002209833 -0.5661453 0.8243026 192 192 192 255 0.119651 0.575594
250 159.9468 36.27903 1.017093e-05 -0.001002973 0.9999995 192 192 192 255 0.119651 0.828945
0 243.568 36.27903 -0.9993684 0.0109653 0.03380381 192 192 192 255 0.001942 0.618316
0 250.5795 31.19531 -0.9993513 0.02113992 0.02915638 192 192 192 255 0.001942 0.621618
284.2073 176.6436 42.16045 -0.0001980422 -0.0005841056 0.9999998 192 192 192 255 0.136211 0.586534
273.1499 171.7327 36.27903 -0.0004479451 -0.001321169 0.999999 192 192 192 255 0.130551 0.584494
250 335.1343 36.27903 -0.3698527 0.4145526 0.8314777 192 192 192 255 0.119651 0.661429
251.78 351.2254 36.27903 -0.05707763 0.1883066 0.9804503 192 192 192 255 0.120489 0.669005
250 362.8381 31.19531 0.1398759 0.385378 0.9120957 192 192 192 255 0.119651 0.674473
348.2171 235.0642 36.27903 0.09314405 0.3234187 0.9416605 192 192 192 255 0.166168 0.614149
345.6089 228.1336 42.16045 0.1800145 0.2920596 0.9393061 192 192 192 255 0.164667 0.611049
143.8265 243.568 36.27903 -0.1523934 0.1469162 0.9773392 192 192 192 255 0.069661 0.868316
137.115 250.5795 31.19531 -0.3348393 0.3218118 0.8856183 192 192 192 255 0.066501 0.621618
500 152.8302 31.19531 0.9993511 -0.01901414 0.03059035 192 192 192 255 0.23736 0.575594
500 161.2092 36.27903 0.9985361 -0.009853848 0.05318524 192 192 192 255 0.23736 0.579539
356.1736 243.568 36.27903 0.02131042 0.2663334 0.9636454 192 192 192 255 0.169641 0.618316
500 171.7327 36.27903 0.9987245 -0.02509946 0.04381068 192 192 192 255 0.23736 0.834494
362.8851 250.5795 31.19531 0.1265185 0.524995 0.8416492 192 192 192 255 0.172801 0.621618
500 176.6436 42.16045 0.7320327 -0.2563117 0.6312152 192 192 192 255 0.23736 0.586806
500 228.1336 42.16045 0.2572632 0.3766504 0.8899158 192 192 192 255 0.23736 0.861049
500 233.0446 36.27903 0.9988244 0.01247244 0.04684305 192 192 192 255 0.23736 0.613362
500 243.568 36.27903 0.9993684 0.01096529 0.03380382 192 192 192 255 0.23736 0.618316
500 250.5795 31.19531 0.9993273 0.02152728 0.02969067 192 192 192 255 0.23736 0.621618
0 0 31.19531 -0.3015114 -0.3015114 0.904534 192 192 192 255 0.001942 0.753636
500 0 31.19531 3.162591e-05 -3.162591e-05 1 192 192 192 255 0.23736 0.753636
0 500 31.19531 -0.0002530595 0.0001265297 1 192 192 192 255 0.001942 0.989053
500 500 31.19531 0.0002855625 0.0002855625 0.9999999 192 192 192 255 0.23736 0.989053
0 500 -14.23921 -0.6666667 0.6666667 -0.3333333 192 192 192 255 0.001942 0.989053
500 500 -14.23921 0.6666667 0.3333333 -0.6666667 192 192 192 255 0.23736 0.989053
0 0 -14.23921 -0.8017837 -0.2672613 -0.5345225 192 192 192 255 0.001942 0.753636
500 0 -14.23921 0.8728716 -0.4364358 -0.2182179 192 192 192 255 0.23736 0.753636
500 286 31.19531 6.325224e-05 1.93189e-05 1 192 192 192 255 0.23736 0.638295
389.4453 286 31.19531 1.336165e-05 5.2586e-05 1 192 192 192 255 0.185307 0.638295
500 464 31.19531 0.0006135919 -0.0003586492 0.9999998 192 192 192 255 0.23736 0.972103
286 385.066 31.19531 0.2582533 0.1564599 0.9533234 192 192 192 255 0.136601 0.934938
286 464 31.19531 0.0002295537 -0.0002205372 1 192 192 192 255 0.136601 0.972103
214 385.066 31.19531 -0.4678849 0.3556774 0.8090596 192 192 192 255 0.102701 0.934938
110.5548 286 31.19531 -0.102937 0.1907368 0.9762292 192 192 192 255 0.053995 0.638295
214 464 31.19531 -0.0001819506 -0.0001878567 1 192 192 192 255 0.102701 0.722103
0 286 31.19531 -0.3304431 0.403397 0.853275 192 192 192 255 0.001942 0.888295
0 464 31.19531 -0.0002198212 -0.0002772745 0.9999999 192 192 192 255 0.001942 0.972103
195.8 392.8363 17.1535 -0.4687207 0.3576857 0.8076892 192 192 192 255 0.094132 0.688597
103.2456 304.2 17.1535 -0.0002287696 0.6106626 0.7918909 192 192 192 255 0.050554 0.646864
195.8 445.8 17.1535 -0.2250961 -0.2324026 0.9462139 192 192 192 255 0.094132 0.713534
0 304.2 17.1535 -0.001760642 0.61159 0.7911729 192 192 192 255 0.001942 0.646864
0 445.8 17.1535 -0.8147305 -0.1284589 0.5654314 192 192 192 255 0.001942 0.713534
500 304.2 17.1535 0.5733749 0.3502475 0.7406538 192 192 192 255 0.23736 0.646864
396.7544 304.2 17.1535 0.421338 0.4403067 0.7928457 192 192 192 255 0.188748 0.646864
500 445.8 17.1535 0.7204825 -0.2085955 0.6613568 192 192 192 255 0.23736 0.963534
304.2 392.8363 17.1535 0.4223816 0.4403349 0.7922745 192 192 192 255 0.14517 0.688597
304.2 445.8 17.1535 0.1680445 -0.1614439 0.9724695 192 192 192 255 0.14517 0.713534
446.2674 250.5795 31.19531 0.0002441228 0.5870727 0.8095342 192 192 192 255 0.212061 0.621618
431.252 237.8008 36.27903 3.881457e-08 0.2347136 0.9720646 192 192 192 255 0.215987 0.616905
441.218 233.0445 36.27903 -4.586127e-05 0.01397578 0.9999024 192 192 192 255 0.209683 0.613362
442.114 226.5612 42.16045 0.003274072 0.4358552 0.9000109 192 192 192 255 0.208873 0.861049
409.5011 178.9377 42.16045 -0.001807165 -0.322276 0.9466441 192 192 192 255 0.196547 0.586806
411.102 171.7326 36.27903 0.0005880735 -0.3770213 0.9262044 192 192 192 255 0.195504 0.834494
357.7366 161.9495 36.27903 0.0004023224 -0.2822194 0.9593498 192 192 192 255 0.170377 0.579751
341.1821 154.0804 31.19531 0.005035133 -0.5550781 0.8317831 192 192 192 255 0.162583 0.575951
449.5864 243.568 36.27903 -0.03558105 0.2878737 0.9570072 192 192 192 255 0.22048 0.618316
433.3424 247.2354 33.62439 3.008245e-05 0.3116219 0.9502062 192 192 192 255 0.21147 0.620043
255.2448 321.5663 42.16045 -0.2708622 0.2856421 0.9192618 192 192 192 255 0.12212 0.655041
228.8409 305.1115 42.16045 -0.1073572 0.1205853 0.9868808 192 192 192 255 0.109688 0.647294
250 406.864 29.26369 -0.09394958 -0.4076054 0.9083124 192 192 192 255 0.119651 0.695202
236.2503 426.9491 36.7772 -0.4831798 -0.6580942 0.5774508 192 192 192 255 0.113177 0.704659
402.341 447.1099 17.1535 0.0004037091 -0.3709502 0.9286527 192 192 192 255 0.191379 0.714151
455.5905 467.277 31.19531 -3.828918e-06 -0.0002489656 1 192 192 192 255 0.21645 0.973646
134.9504 446.7218 17.1535 -8.361417e-12 -0.4005507 0.9162746 192 192 192 255 0.065482 0.713968
126.3222 463.0781 31.19531 5.223404e-14 -0.0002393901 1 192 192 192 255 0.061419 0.971669
102.5109 286 31.19531 -0.08306738 0.2443012 0.966135 192 192 192 255 0.050208 0.638295
12.30309 286 31.19531 0.03496403 0.3194718 0.9469506 192 192 192 255 0.007735 0.638295
80.74216 278.4928 31.19531 0 0.2974694 0.9547314 192 192 192 255 0.039959 0.88476
71.96924 291.1589 27.24197 -5.513328e-09 0.4898989 0.8717793 192 192 192 255 0.035828 0.640724
316.3526 355.9984 31.19531 0.0559819 0.3764527 0.9247429 192 192 192 255 0.150892 0.671252
295.7508 375.7281 31.19531 0.3561943 0.1119463 0.9276819 192 192 192 255 0.141192 0.930542
301.2297 358.1197 31.19531 0.2248266 0.2347648 0.9456947 192 192 192 255 0.144323 0.672826
311.9236 370.2683 25.60096 0.3833954 0.4003433 0.832306 192 192 192 255 0.148807 0.677971
228.4886 181.1793 41.72803 0.06150027 -0.219941 0.9735727 192 192 192 255 0.109523 0.588942
217.1655 176.6436 42.16045 0.4082341 -0.2107362 0.8882203 192 192 192 255 0.104191 0.586806
178.7989 280.0837 36.27903 -0.3337611 0.3196894 0.8867933 192 192 192 255 0.086127 0.635509
207.0491 289.3995 36.27903 -0.5470793 0.5138163 0.6608307 192 192 192 255 0.099428 0.639895
22.79626 178.6419 42.16045 0.06601149 -0.7572175 0.6498187 192 192 192 255 0.012676 0.837747
59.37911 222.5448 42.16045 1.54694e-06 0.0002505106 1 192 192 192 255 0.0299 0.608419
83.99265 233.0446 36.27903 2.068638e-05 0.003349941 0.9999944 192 192 192 255 0.041489 0.613362
119.6688 152.8302 31.19531 -0.001865828 -0.371115 0.9285851 192 192 192 255 0.058287 0.575594
135.684 160.5241 36.27903 -0.1150916 -0.3651332 0.9238136 192 192 192 255 0.065827 0.579343
95.5845 160.7266 36.27903 0.07374059 -0.369476 0.9263098 192 192 192 255 0.046947 0.579401
119.8383 165.5883 36.27903 -0.0005363163 -0.1062109 0.9943435 192 192 192 255 0.058361 0.580747
200.9046 367.9263 31.19531 -0.466323 0.3565233 0.8095888 192 192 192 255 0.096535 0.926868
189.0546 465.718 36.7772 -0.5690044 -0.691941 0.4443554 192 192 192 255 0.090956 0.973947
310.9456 465.718 36.7772 0.5717916 -0.690455 0.4430873 192 192 192 255 0.148346 0.973947
310.9456 500 36.7772 0.3217577 0.3323501 0.8865751 192 192 192 255 0.148346 0.989053
189.0546 500 36.7772 -0.558256 0.5766357 0.5965246 192 192 192 255 0.090956 0.989053
213.1006 477.4462 42.16045 -0.0004234895 -0.0002123034 0.9999999 192 192 192 255 0.102278 0.977254
286.8994 474.9395 42.16045 0.0008126254 -0.0004218585 0.9999996 192 192 192 255 0.137025 0.977254
286.8994 500 42.16045 0.1698571 0.3259241 0.9300119 192 192 192 255 0.137025 0.989053
213.1006 500 42.16045 -0.2958312 0.567645 0.7682858 192 192 192 255 0.102278 0.989053
247.724 447.0825 42.16045 -0.0001991143 -0.0006359688 0.9999998 192 192 192 255 0.119651 0.963342
95.5845 160.7266 36.27903 0.07374059 -0.369476 0.9263098 192 192 192 255 0.046947 0.829312
119.8383 165.5883 36.27903 -0.0005363163 -0.1062109 0.9943435 192 192 192 255 0.058366 0.831601
0 233.0446 36.27903 -0.9987097 0.01031648 0.04972506 192 192 192 255 0.001942 0.863362
83.99265 233.0446 36.27903 2.068638e-05 0.003349941 0.9999944 192 192 192 255 0.041489 0.863362
0 243.568 36.27903 -0.9993684 0.0109653 0.03380381 192 192 192 255 0.001942 0.868316
143.8265 243.568 36.27903 -0.1523934 0.1469162 0.9773392 192 192 192 255 0.069661 0.618316
250 196.4986 36.27903 0.0001692819 -0.001091104 0.9999994 192 192 192 255 0.119651 0.846154
226.8501 171.7327 36.27903 0.01303201 -0.02704844 0.9995492 192 192 192 255 0.108751 0.834494
273.1499 171.7327 36.27903 -0.0004479451 -0.001321169 0.999999 192 192 192 255 0.130551 0.834494
178.7989 280.0837 36.27903 -0.3337611 0.3196894 0.8867933 192 192 192 255 0.086127 0.885509
207.0491 289.3995 36.27903 -0.5470793 0.5138163 0.6608307 192 192 192 255 0.099428 0.889895
250 335.1343 36.27903 -0.3698527 0.4145526 0.8314777 192 192 192 255 0.119651 0.911429
251.78 351.2254 36.27903 -0.05707763 0.1883066 0.9804503 192 192 192 255 0.120497 0.919005
348.2171 235.0642 36.27903 0.09314405 0.3234187 0.9416605 192 192 192 255 0.165674 0.864313
356.1736 243.568 36.27903 0.02131042 0.2663334 0.9636454 192 192 192 255 0.169641 0.868316
357.7366 161.9495 36.27903 0.0004023224 -0.2822194 0.9593498 192 192 192 255 0.170377 0.829888
500 161.2092 36.27903 0.9985361 -0.009853848 0.05318524 192 192 192 255 0.23736 0.829539
411.102 171.7326 36.27903 0.0005880735 -0.3770213 0.9262044 192 192 192 255 0.195504 0.584494
500 171.7327 36.27903 0.9987245 -0.02509946 0.04381068 192 192 192 255 0.23736 0.584494
409.5011 178.9377 42.16045 -0.001807165 -0.322276 0.9466441 192 192 192 255 0.19531 0.83755
500 176.6436 42.16045 0.7320327 -0.2563117 0.6312152 192 192 192 255 0.23736 0.836806
442.114 226.5612 42.16045 0.003274072 0.4358552 0.9000109 192 192 192 255 0.208873 0.611049
500 228.1336 42.16045 0.2572632 0.3766504 0.8899158 192 192 192 255 0.23736 0.611049
284.2073 176.6436 42.16045 -0.0001980422 -0.0005841056 0.9999998 192 192 192 255 0.135957 0.836686
345.6089 228.1336 42.16045 0.1800145 0.2920596 0.9393061 192 192 192 255 0.164667 0.861049
255.2448 321.5663 42.16045 -0.2708622 0.2856421 0.9192618 192 192 192 255 0.12212 0.905041
250 204.2401 42.16045 0.001617025 -0.002235075 0.9999962 192 192 192 255 0.119651 0.849799
0 171.7327 36.27903 -0.02954003 -0.08942892 0.9955551 192 192 192 255 0.001942 0.584494
0 161.2092 36.27903 -0.9974284 -0.01980256 0.06888021 192 192 192 255 0.001942 0.579539
200.9046 367.9263 31.19531 -0.466323 0.3565233 0.8095888 192 192 192 255 0.09633 0.677082
214 385.066 31.19531 -0.4678849 0.3556774 0.8090596 192 192 192 255 0.102701 0.684938
134.9504 446.7218 17.1535 -8.361417e-12 -0.4005507 0.9162746 192 192 192 255 0.065482 0.713886
126.3222 463.0781 31.19531 5.223404e-14 -0.0002393901 1 192 192 192 255 0.061419 0.721752
0 464 31.19531 -0.0002198212 -0.0002772745 0.9999999 192 192 192 255 0.001942 0.722103
402.341 447.1099 17.1535 0.0004037091 -0.3709502 0.9286527 192 192 192 255 0.191379 0.714034
455.5905 467.277 31.19531 -3.828918e-06 -0.0002489656 1 192 192 192 255 0.21645 0.723354
286 464 31.19531 0.0002295537 -0.0002205372 1 192 192 192 255 0.136601 0.722103
286 385.066 31.19531 0.2582533 0.1564599 0.9533234 192 192 192 255 0.136601 0.684938
214 464 31.19531 -0.0001819506 -0.0001878567 1 192 192 192 255 0.102701 0.972103
110.5548 286 31.19531 -0.102937 0.1907368 0.9762292 192 192 192 255 0.053995 0.888295
102.5109 286 31.19531 -0.08306738 0.2443012 0.966135 192 192 192 255 0.050208 0.888295
389.4453 286 31.19531 1.336165e-05 5.2586e-05 1 192 192 192 255 0.185307 0.888295
500 286 31.19531 6.325224e-05 1.93189e-05 1 192 192 192 255 0.23736 0.888295
0 445.8 17.1535 -0.8147305 -0.1284589 0.5654314 192 192 192 255 0.001942 0.963534
0 304.2 17.1535 -0.001760642 0.61159 0.7911729 192 192 192 255 0.001942 0.896864
500 304.2 17.1535 0.5733749 0.3502475 0.7406538 192 192 192 255 0.23736 0.896864
250 159.9468 36.27903 1.017093e-05 -0.001002973 0.9999995 192 192 192 255 0.119651 0.579178
431.252 237.8008 36.27903 3.881457e-08 0.2347136 0.9720646 192 192 192 255 0.209212 0.865601
441.218 233.0445 36.27903 -4.586127e-05 0.01397578 0.9999024 192 192 192 255 0.209683 0.863362
449.5864 243.568 36.27903 -0.03558105 0.2878737 0.9570072 192 192 192 255 0.220448 0.868316
500 233.0446 36.27903 0.9988244 0.01247244 0.04684305 192 192 192 255 0.23736 0.863362
500 243.568 36.27903 0.9993684 0.01096529 0.03380382 192 192 192 255 0.23736 0.868316
250 316.4318 42.16045 -0.0144251 0.02314699 0.999628 192 192 192 255 0.11962 0.652673
236.2503 426.9491 36.7772 -0.4831798 -0.6580942 0.5774508 192 192 192 255 0.113177 0.954659
257.9156 421.8851 36.7772 0.4609982 -0.6738681 0.5773928 192 192 192 255 0.123378 0.952274
500 445.8 17.1535 0.7204825 -0.2085955 0.6613568 192 192 192 255 0.23736 0.713534
500 464 31.19531 0.0006135919 -0.0003586492 0.9999998 192 192 192 255 0.23736 0.722103
80.74216 278.4928 31.19531 0 0.2974694 0.9547314 192 192 192 255 0.039959 0.63476
12.30309 286 31.19531 0.03496403 0.3194718 0.9469506 192 192 192 255 0.007735 0.888295
0 286 31.19531 -0.3304431 0.403397 0.853275 192 192 192 255 0.001942 0.638295
295.7508 375.7281 31.19531 0.3561943 0.1119463 0.9276819 192 192 192 255 0.141192 0.680542
316.3526 355.9984 31.19531 0.0559819 0.3764527 0.9247429 192 192 192 255 0.150892 0.921252
301.2297 358.1197 31.19531 0.2248266 0.2347648 0.9456947 192 192 192 255 0.143772 0.922251
228.8409 305.1115 42.16045 -0.1073572 0.1205853 0.9868808 192 192 192 255 0.109689 0.897293
218.9463 180.5579 42.16045 0.008124952 -0.01528029 0.9998503 192 192 192 255 0.10503 0.838649
228.4886 181.1793 41.72803 0.06150027 -0.219941 0.9735727 192 192 192 255 0.109523 0.838942
59.37911 222.5448 42.16045 1.54694e-06 0.0002505106 1 192 192 192 255 0.0299 0.858418
0 228.1336 42.16045 -0.2432016 0.2972796 0.9232973 192 192 192 255 0.001942 0.861049
0 176.6436 42.16045 0.05554551 -0.7635999 0.6432961 192 192 192 255 0.001942 0.836806
22.79626 178.6419 42.16045 0.06601149 -0.7572175 0.6498187 192 192 192 255 0.012676 0.587228
150 233.0446 36.27903 -0.001450106 0.002235661 0.9999965 192 192 192 255 0.072568 0.613362
154.3951 226.7986 42.16045 -0.0001132712 0.0003554636 0.9999999 192 192 192 255 0.074637 0.610421
217.1655 176.6436 42.16045 0.4082341 -0.2107362 0.8882203 192 192 192 255 0.104191 0.836806
135.684 160.5241 36.27903 -0.1150916 -0.3651332 0.9238136 192 192 192 255 0.065827 0.829216
3 5 4 9 
3 5 9 8 
3 6 7 0 
3 6 0 2 
3 122 123 124 
3 122 124 125 
3 97 96 3 
3 6 8 9 
3 6 9 7 
3 15 14 19 
3 15 19 18 
3 16 17 10 
3 16 10 12 
3 126 127 128 
3 126 128 129 
3 10 11 13 
3 10 13 12 
3 11 14 15 
3 11 15 13 
3 16 18 19 
3 16 19 17 
3 126 130 127 
3 36 28 35 
3 26 27 110 
3 113 95 39 
3 117 120 119 
3 25 38 37 
3 25 37 29 
3 21 131 132 
3 21 132 22 
3 111 27 26 
3 40 41 45 
3 40 45 112 
3 24 115 116 
3 24 116 28 
3 39 94 43 
3 39 43 42 
3 133 134 44 
3 133 44 135 
3 36 35 136 
3 36 136 45 
3 41 40 48 
3 41 48 50 
3 34 137 138 
3 34 139 137 
3 140 141 142 
3 140 142 143 
3 46 47 90 
3 46 90 91 
3 143 142 144 
3 143 144 145 
3 89 146 147 
3 89 147 49 
3 88 148 149 
3 88 149 51 
3 52 87 150 
3 52 150 151 
3 86 152 153 
3 86 153 53 
3 53 149 46 
3 53 46 55 
3 92 93 85 
3 154 155 156 
3 154 156 31 
3 154 31 157 
3 28 158 23 
3 28 23 24 
3 158 20 159 
3 36 20 158 
3 36 158 28 
3 55 54 53 
3 51 149 53 
3 51 53 153 
3 46 149 47 
3 56 62 63 
3 56 63 57 
3 61 63 62 
3 61 62 60 
3 60 58 59 
3 60 59 61 
3 75 100 78 
3 75 78 77 
3 80 98 83 
3 80 83 82 
3 99 59 68 
3 121 107 67 
3 121 67 69 
3 101 58 73 
3 74 160 161 
3 161 71 76 
3 161 76 74 
3 162 163 164 
3 162 164 78 
3 75 105 102 
3 75 102 70 
3 65 64 79 
3 65 79 80 
3 165 166 167 
3 165 167 83 
3 82 109 80 
3 167 168 82 
3 167 82 83 
3 68 59 58 
3 68 58 169 
3 68 169 69 
3 68 69 67 
3 56 170 171 
3 56 171 104 
3 172 57 173 
3 56 57 172 
3 56 172 170 
3 174 73 58 
3 174 58 60 
3 175 62 56 
3 175 56 72 
3 174 60 62 
3 174 62 175 
3 81 176 63 
3 81 63 61 
3 81 61 59 
3 81 59 66 
3 63 176 173 
3 63 173 57 
3 93 48 85 
3 42 43 152 
3 42 152 86 
3 150 87 155 
3 150 155 154 
3 37 38 148 
3 37 148 88 
3 139 34 146 
3 139 146 89 
3 91 90 177 
3 91 177 33 
3 178 179 180 
3 180 179 181 
3 180 181 182 
3 93 92 84 
3 55 84 92 
3 55 92 54 
3 50 48 93 
3 50 93 84 
3 145 144 179 
3 145 179 178 
3 183 94 39 
3 39 95 183 
3 96 1 4 
3 96 4 3 
3 4 5 3 
3 122 184 185 
3 122 185 123 
3 0 1 96 
3 0 96 97 
3 0 97 2 
3 186 98 80 
3 186 80 79 
3 186 187 166 
3 186 166 165 
3 66 59 99 
3 75 74 76 
3 75 76 100 
3 76 71 163 
3 76 163 162 
3 169 58 101 
3 105 188 102 
3 103 188 105 
3 56 104 189 
3 56 189 72 
3 190 103 105 
3 190 105 77 
3 77 105 75 
3 106 109 108 
3 108 109 191 
3 168 191 109 
3 168 109 82 
3 80 109 106 
3 80 106 65 
3 170 172 192 
3 170 192 193 
3 110 27 25 
3 110 25 29 
3 31 194 157 
3 157 194 30 
3 157 30 195 
3 157 195 196 
3 114 197 198 
3 114 198 199 
3 158 200 23 
3 112 45 136 
3 44 32 141 
3 44 141 140 
3 201 202 95 
3 201 95 113 
3 158 27 111 
3 158 111 200 
3 197 114 203 
3 197 203 195 
3 195 30 197 
3 116 115 202 
3 116 202 201 
3 44 134 32 
3 33 177 118 
3 33 118 117 
3 117 119 159 
3 117 159 20 
3 117 118 120 
3 138 132 204 
3 138 204 34 
3 22 132 138 
3 70 160 74 
3 70 74 75 
3 193 107 121 
3 193 121 170 
