ply
format ascii 1.0
comment VCGLIB generated
comment TextureFile Dungeons_2_Texture_01_A.png
element vertex 349
property float x
property float y
property float z
property float nx
property float ny
property float nz
property uchar red
property uchar green
property uchar blue
property uchar alpha
property float texture_u
property float texture_v
element face 500
property list uchar int vertex_indices
end_header
0.091797 -22.81326 499.8252 -0.4755116 -0.6428444 0.600533 192 192 192 255 0.040603 0.54168
468.3545 3.874037 16.92383 0.1850137 0.980512 -0.06607728 192 192 192 255 0.220509 0.727517
353.6729 3.952598 17.72949 -0.1025761 0.9426196 -0.3177206 192 192 192 255 0.166512 0.980956
499.9971 -6.040583 115.9375 0.8794073 0.4758462 -0.01459714 192 192 192 255 0.232666 0.689414
148.6055 -21.57045 500.0371 -0.001161949 -0.1311483 0.9913621 192 192 192 255 0.097662 0.541598
153.7812 3.219644 335.3223 0.2774779 0.9176841 0.2843622 192 192 192 255 0.09965 0.604986
263.3486 3.841911 226.2207 0.04494844 0.9535137 0.2979787 192 192 192 255 0.141746 0.646973
262.7412 3.877764 17.40625 -0.1971887 0.9641415 -0.1776167 192 192 192 255 0.125087 0.981103
364.0332 0.640685 9.50293 -0.03741067 0.9700389 -0.2400521 192 192 192 255 0.180429 0.730373
44.36621 0.439617 462.5361 -0.2070043 0.9586462 -0.195312 192 192 192 255 0.057613 0.55603
139.0371 3.928264 418.0352 -0.03122375 0.9994131 -0.01408796 192 192 192 255 0.068731 0.798592
243.6875 0.194284 489.7412 0.07057377 0.9944354 0.07821592 192 192 192 255 0.134192 0.54556
398.1299 3.860691 218.7236 -0.1875332 0.9821875 0.01179192 192 192 192 255 0.186765 0.889391
253.7637 -0.02722 492.04 -0.0100524 0.9997859 0.01808696 192 192 192 255 0.138063 0.544676
491.4697 0.231754 332.8311 0.3605021 0.9319775 -0.03816281 192 192 192 255 0.22939 0.605945
491.6123 0.237015 65.41113 0.2382181 0.9701809 0.0447362 192 192 192 255 0.229445 0.708858
18.72363 0.014976 7.255859 -0.03742399 0.9979785 -0.05136462 192 192 192 255 0.047761 0.731238
81.07812 0.175112 261.4971 -0.00702354 0.9975592 -0.06947091 192 192 192 255 0.071718 0.633397
0.170898 -0.031204 0.133789 -0.5792294 0.5756302 -0.5771857 192 192 192 255 0.040633 0.733979
284.4678 3.931837 135.1953 0.008766191 0.9998984 -0.01124056 192 192 192 255 0.134985 0.927443
274.8516 3.928679 78.90918 0.0566071 0.9981525 0.02207365 192 192 192 255 0.130604 0.953085
102.6846 3.308176 14.8291 0.5713186 0.5357099 -0.6217797 192 192 192 255 0.080019 0.728324
81.44629 -0.039423 422.2217 -0.1024167 0.9772692 -0.1856227 192 192 192 255 0.071859 0.571544
338.4375 -7.678682 0.007813 -0.04600193 0.1935263 -0.9800161 192 192 192 255 0.170595 0.734027
299.4561 3.928939 138.2432 -0.004042783 0.9998971 -0.01376546 192 192 192 255 0.141813 0.926055
150.2285 0.197682 145.7295 -0.09603707 0.9946867 0.03708617 192 192 192 255 0.098285 0.677948
73.42383 -14.81813 0.006836 0.002325718 -0.0007543692 -0.999997 192 192 192 255 0.068777 0.734028
282.123 -0.035773 6.818359 0.04885266 0.9675514 -0.2479069 192 192 192 255 0.148959 0.731407
499.999 -5.524558 68.61621 0.9990426 0.04351285 0.004539091 192 192 192 255 0.232667 0.707624
255.8408 0.129885 264.7305 -0.01430909 0.9993575 -0.03286259 192 192 192 255 0.138861 0.632153
103.7139 1.155725 422.5254 -0.0361221 0.9895402 -0.1396617 192 192 192 255 0.052639 0.796546
491.5352 0.240935 391.9854 0.3280357 0.9353575 -0.1322839 192 192 192 255 0.229415 0.58318
3.998047 -22.90054 4.009766 -0.009819342 -0.9999042 -0.009760583 192 192 192 255 0.042103 0.732487
369.5342 3.69853 224.2637 0.1373219 0.9764723 0.1662669 192 192 192 255 0.173738 0.886867
0.007813 -5.830832 382.0908 -0.8071415 0.5816446 -0.1010561 192 192 192 255 0.04057 0.586988
0.353516 -0.106128 499.3047 -0.5778064 0.5860579 0.5680457 192 192 192 255 0.040703 0.54188
484.7031 2.091601 103.1289 0.2514623 0.9276263 -0.2761817 192 192 192 255 0.22679 0.694343
497.1113 -1.793746 341.4053 0.3367489 0.9315868 0.1369168 192 192 192 255 0.231557 0.602645
306.2227 3.932281 474.8936 -0.02478181 0.9966908 0.07741613 192 192 192 255 0.158218 0.551274
362.0059 3.833325 327.8242 -0.09059067 0.9957163 0.01850422 192 192 192 255 0.170308 0.839689
20.44043 0.31623 14.02441 -0.1714562 0.9847458 0.02963867 192 192 192 255 0.048421 0.728633
276.2178 3.924837 101.2871 0.04194242 0.9989859 -0.01636772 192 192 192 255 0.131226 0.942891
391.0342 1.727799 223.4492 -0.09514481 0.9914709 0.08906718 192 192 192 255 0.190803 0.648039
255.75 0.10588 472.0488 -0.2884958 0.9573323 -0.01688648 192 192 192 255 0.138826 0.552369
366.8389 3.932358 304.2822 -0.01498747 0.9997802 0.01465848 192 192 192 255 0.17251 0.850414
0.010742 -16.617 369.8047 -0.9985968 0.05295018 0.0008041151 192 192 192 255 0.040572 0.591716
335.501 0.398634 243.4697 0.03282534 0.9616526 0.2722992 192 192 192 255 0.169467 0.640335
85.59473 3.602056 427.0557 -0.1049641 0.9442618 -0.3120131 192 192 192 255 0.073453 0.569684
499.4922 -3.944484 98.05469 0.7323979 0.6803035 0.02793664 192 192 192 255 0.232472 0.696295
3.496094 -4.473513 399.7666 -0.7450414 0.6653386 -0.04730626 192 192 192 255 0.041911 0.580186
326.96 -4.179763 3.033203 0.01495782 0.8673051 -0.4975522 192 192 192 255 0.166185 0.732863
110.6074 3.931777 23.91895 0.005922042 0.9902609 -0.1390982 192 192 192 255 0.05578 0.978137
2.951172 -2.308364 310.2412 -0.3774089 0.9237695 0.06490368 192 192 192 255 0.041701 0.614639
135.2646 3.923894 17.11621 -0.0133858 0.9799666 -0.1987117 192 192 192 255 0.092536 0.727443
55.84473 3.930759 279.8818 0.0382947 0.9960615 -0.07996898 192 192 192 255 0.030832 0.861529
178.1143 -22.77407 0.164063 -0.001531439 -0.6931031 -0.7208369 192 192 192 255 0.108999 0.733967
323.2383 3.845486 484.0234 -0.009243743 0.9743369 0.2249048 192 192 192 255 0.164755 0.547761
275.3486 3.933635 237.6562 -0.2787882 0.959356 -0.04374206 192 192 192 255 0.146356 0.642572
499.5859 -0.123689 499.1211 0.6133465 0.7036693 0.3586862 192 192 192 255 0.232508 0.541951
-0.061523 -21.54826 414.1045 -0.9995072 -0.02819688 -0.01379089 192 192 192 255 0.040544 0.574668
432.0068 3.920797 235.374 -0.01822703 0.9766895 0.2138821 192 192 192 255 0.206544 0.64345
109.6572 -5.561208 0.470703 -0.0164359 0.5190855 -0.8545644 192 192 192 255 0.082698 0.733849
357.7783 2.645012 232.9707 0.08931331 0.9634788 0.2524515 192 192 192 255 0.178026 0.644375
499.833 -0.092228 243.5244 0.7156589 0.6984332 -0.004843105 192 192 192 255 0.232603 0.640314
329.5537 3.849436 305.8193 -0.07410513 0.9534872 0.2921829 192 192 192 255 0.155524 0.849713
105.8643 3.931432 285.7979 -0.02558382 0.9992689 -0.02840805 192 192 192 255 0.053619 0.858834
235.5986 3.953056 223.4297 0.02184002 0.9920242 0.1241408 192 192 192 255 0.131084 0.648047
20.96094 0.275421 491.457 -0.03564271 0.9988844 0.03097707 192 192 192 255 0.048621 0.5449
27.80469 3.338305 14.90918 -0.2073153 0.978228 0.009513108 192 192 192 255 0.05125 0.728293
130.584 3.334241 261.3125 -0.02882152 0.9595826 -0.2799476 192 192 192 255 0.090738 0.633468
15.5957 3.590377 469.7969 -0.1828832 0.9682587 0.1703788 192 192 192 255 0.012496 0.775011
264.0078 -0.107438 499.5811 -0.0033076 0.7125818 0.7015814 192 192 192 255 0.141999 0.541774
150.0137 0.236912 137.3945 -0.130909 0.9888483 0.0710068 192 192 192 255 0.098203 0.681156
491.6387 0.198238 138.4824 0.2854035 0.9561342 -0.06597123 192 192 192 255 0.229455 0.680737
0.426758 -0.080472 415.6719 -0.7049015 0.6978576 -0.1269203 192 192 192 255 0.040731 0.574065
483.6602 3.921292 326.5137 0.2245509 0.9743541 0.01452822 192 192 192 255 0.22639 0.608376
499.8535 -22.80074 202.377 0.7126217 -0.7015486 -0.0001995101 192 192 192 255 0.232611 0.656149
294.2881 0.256701 491.4082 -0.005418071 0.9879392 0.1547474 192 192 192 255 0.153633 0.544919
499.8203 -0.08732 0.108398 0.5813624 0.5721976 -0.5784529 192 192 192 255 0.232598 0.733989
18.08984 3.920532 327.8535 -0.2197554 0.9753006 0.02228113 192 192 192 255 0.047518 0.607861
456.4961 3.931885 370.083 0.02457993 0.9996974 -0.0009712296 192 192 192 255 0.213355 0.820437
105.1973 0.123179 100.4414 -0.196162 0.968286 0.1547344 192 192 192 255 0.080984 0.695377
321.7783 -22.80935 499.9014 0.0005567171 -0.7030866 0.711104 192 192 192 255 0.164195 0.541651
148.3232 3.933424 386.376 -0.01659212 0.9998596 0.00234054 192 192 192 255 0.072962 0.813015
60.53516 -0.026386 255.1367 0.0042288 0.9962503 -0.08641499 192 192 192 255 0.063825 0.635845
481.5713 0.500975 11.31055 0.04828568 0.9987316 -0.01427506 192 192 192 255 0.225587 0.729678
236.1221 3.964032 275.9102 0.07655548 0.9844112 -0.1583475 192 192 192 255 0.131285 0.62785
8.069336 0.057813 257.8096 -0.09747049 0.9944543 -0.03949961 192 192 192 255 0.043668 0.634816
110.5059 -0.882229 395.6641 0.04617 0.9962286 0.07346434 192 192 192 255 0.083024 0.581765
484.249 3.712949 135.9453 0.2344027 0.9720591 -0.01250669 192 192 192 255 0.225998 0.927102
450.5957 -0.004972 245.3018 0.006071017 0.9895931 0.1437665 192 192 192 255 0.213686 0.63963
375.8496 0.58498 229.8936 0.07981414 0.9866655 0.1418483 192 192 192 255 0.184969 0.645559
255.8135 0.032821 237.3555 -0.01457845 0.999391 0.03170255 192 192 192 255 0.138851 0.642688
388.4844 3.91599 483.5537 0.0007928033 0.976698 0.2146166 192 192 192 255 0.182371 0.768744
484.5264 3.570461 65.08105 0.2666063 0.9634026 0.0278683 192 192 192 255 0.226722 0.708985
262.6064 3.878027 338.3486 -0.2499009 0.9682714 -8.570147e-05 192 192 192 255 0.141461 0.603822
124.5654 0.029918 7.782227 -0.1065092 0.9766507 -0.1865727 192 192 192 255 0.088425 0.731036
361.8555 -0.126702 0.061523 -0.05059513 0.6975049 -0.7147915 192 192 192 255 0.179592 0.734007
3.580078 -22.90052 495.4297 0.01785289 -0.9936617 0.1109856 192 192 192 255 0.041943 0.543371
151.6357 3.932736 108.2109 -0.03564215 0.9982101 0.04802258 192 192 192 255 0.098826 0.692387
495.2021 -22.90052 495.3145 0.009551689 -0.9999111 0.009310914 192 192 192 255 0.230824 0.543416
17.64648 3.932773 32.86816 -0.1810696 0.9683947 -0.1715388 192 192 192 255 0.047347 0.721382
473.9541 3.930742 103.2461 0.09989946 0.9948215 -0.01871755 192 192 192 255 0.22266 0.694298
285.9287 -0.071545 211.4814 0.1857703 0.9650124 0.1850419 192 192 192 255 0.150421 0.652645
203.1934 -0.075881 299.6943 -0.175328 0.9691871 -0.1730217 192 192 192 255 0.118634 0.618697
5.979492 -0.014956 245.4355 -0.1504512 0.9872861 0.05128981 192 192 192 255 0.042865 0.639578
306.6289 0.539042 312.2188 0.2804492 0.9219043 -0.2672842 192 192 192 255 0.158374 0.613877
324.9727 3.932948 28.42578 -0.00761517 0.9943988 -0.1054189 192 192 192 255 0.153437 0.976084
15.41309 3.558359 410.0898 -0.2911658 0.9531033 -0.08256283 192 192 192 255 0.012413 0.802212
72.875 1.302522 279.0693 0.06436598 0.9678051 -0.2433314 192 192 192 255 0.03859 0.8619
255.6875 0.105208 11.38184 -0.08822844 0.9934245 -0.07296359 192 192 192 255 0.138802 0.72965
120.8955 -0.123111 0.112305 -0.2262349 0.7326652 -0.6418875 192 192 192 255 0.087015 0.733987
15.23242 3.48386 238.7061 -0.130541 0.9725273 0.1927425 192 192 192 255 0.04642 0.642168
122.4531 3.929041 237.8408 -0.0002828308 0.9627523 0.2703848 192 192 192 255 0.087614 0.642501
262.7041 -0.016071 245.5723 -0.02138012 0.9997372 0.008270676 192 192 192 255 0.141498 0.639525
484.1279 3.707051 237.8877 0.1363245 0.9274698 0.3481601 192 192 192 255 0.226569 0.642483
250.6309 0.017068 1.179688 0.001333936 0.9983414 -0.05755519 192 192 192 255 0.13686 0.733576
243.9033 0.154163 11.33496 0.08218684 0.9937221 -0.07590628 192 192 192 255 0.134275 0.729668
183.6387 3.963336 329.2646 -0.181831 0.966512 -0.1810855 192 192 192 255 0.111121 0.607318
491.8047 0.215101 480.0801 0.09784106 0.9937168 0.05435224 192 192 192 255 0.229519 0.549278
22.98047 3.933306 394.9492 -0.1871072 0.9816512 -0.03676802 192 192 192 255 0.01586 0.809109
1.28418 -8.38913 375.4658 -0.7591262 0.6085091 -0.23118 192 192 192 255 0.041061 0.589538
239.3242 2.797698 229.208 0.08679851 0.9600333 0.2660868 192 192 192 255 0.132516 0.645823
499.9893 -9.045291 371.7637 0.9242368 0.3815921 0.01318344 192 192 192 255 0.232663 0.590962
111.3574 3.938113 272.0527 -0.04866267 0.9927076 -0.1102889 192 192 192 255 0.056122 0.865096
0.107422 -22.79827 0.058594 -0.5809983 -0.5706425 -0.5803517 192 192 192 255 0.040609 0.734008
335.1064 2.285557 309.7852 -0.02088959 0.9702125 0.2413532 192 192 192 255 0.169315 0.614814
500.0176 -0.99027 330.5967 0.7539873 0.6556445 0.04041731 192 192 192 255 0.232674 0.606805
116.1621 0.318591 121.8379 0.1445014 0.9827883 -0.1150941 192 192 192 255 0.085197 0.687143
487.79 0.791899 257.2109 0.0949712 0.9908797 -0.09559286 192 192 192 255 0.227976 0.635046
78.91406 3.626367 91.44238 0.2677265 0.9248999 -0.269968 192 192 192 255 0.070886 0.69884
225.5566 3.835204 237.8604 0.2979151 0.9544089 0.01871761 192 192 192 255 0.127226 0.642493
167.3154 -0.096878 170.6914 0.1498326 0.9764757 -0.1550663 192 192 192 255 0.10485 0.668342
491.8369 0.165741 241.502 0.08839583 0.9897131 0.1124904 192 192 192 255 0.229531 0.641092
414.3867 3.679894 72.95703 0.223935 0.949124 0.2213974 192 192 192 255 0.199775 0.705954
262.627 3.89856 162.6074 -0.2592699 0.9658049 -0.0002998345 192 192 192 255 0.125035 0.914955
96.64062 0.565196 9.375 0.1122055 0.907155 -0.4055608 192 192 192 255 0.077697 0.730423
77.7666 -0.082002 0.126953 0.02155829 0.6831479 -0.7299618 192 192 192 255 0.070445 0.733982
301.9482 1.758696 87.02734 -0.1167478 0.9930347 -0.01587796 192 192 192 255 0.142948 0.949387
368.6543 3.84314 355.9541 -0.2282235 0.9505601 0.2105935 192 192 192 255 0.173337 0.826874
489.7266 -0.009094 15.19336 0.03386461 0.9993928 -0.008198006 192 192 192 255 0.22872 0.728184
12.14746 -0.058284 483.4443 -0.02355293 0.9993939 0.0256327 192 192 192 255 0.045234 0.547984
282.7637 3.883295 294.0527 0.2843206 0.9089025 -0.3050544 192 192 192 255 0.134208 0.855074
262.6836 3.879752 464.2949 -0.2332138 0.9719123 0.03159132 192 192 192 255 0.14149 0.555353
499.3496 -22.79697 499.4141 0.578423 -0.5820159 0.5715632 192 192 192 255 0.232417 0.541838
499.7354 -22.77184 449.248 0.7261634 -0.6875023 0.005231434 192 192 192 255 0.232566 0.561144
263.0156 3.897237 275.2832 0.08391302 0.9391217 -0.3331802 192 192 192 255 0.141618 0.628092
402.7207 0.990013 239.4863 -0.04956253 0.9922156 0.1142442 192 192 192 255 0.195293 0.641868
71.13574 -22.74846 499.5811 -0.000422792 -0.8117984 0.5839376 192 192 192 255 0.067898 0.541774
1.799805 -21.52373 500.0439 0.09170298 -0.4236877 0.9011544 192 192 192 255 0.041259 0.541596
400.165 3.934397 263.9902 0.002438158 0.9781529 -0.2078723 192 192 192 255 0.194311 0.632438
231.333 3.934898 482.0254 0.02057816 0.97763 0.2093233 192 192 192 255 0.110778 0.769441
131.2002 3.934419 146.4766 0.192404 0.9620154 -0.1936676 192 192 192 255 0.090974 0.677661
404.2529 3.933631 200.1104 -0.01558816 0.9997862 0.01358437 192 192 192 255 0.189554 0.89787
314.0459 3.783408 301.3418 -0.2306383 0.9375071 0.2605505 192 192 192 255 0.161224 0.618063
490.6279 -1.84941 369.0977 0.3985508 0.916469 -0.03523863 192 192 192 255 0.229066 0.591988
174.7139 3.8734 161.6338 -0.1948768 0.9640954 0.180397 192 192 192 255 0.084985 0.915399
495.2969 -22.90052 4.053711 0.01070022 -0.9998588 -0.01295826 192 192 192 255 0.23086 0.73247
26.37695 3.869778 373.3467 -0.1904908 0.9816388 -0.009929461 192 192 192 255 0.017407 0.81895
405.707 -1.766302 500.0322 -0.006746792 0.5529827 0.8331655 192 192 192 255 0.19644 0.5416
223.7832 3.932179 263.6357 0.2011418 0.97947 -0.01343547 192 192 192 255 0.126545 0.632574
236.7988 0.005825 255.1865 0.03360454 0.9993562 -0.01257264 192 192 192 255 0.131545 0.635826
483.5664 3.935144 263.7061 0.2565599 0.9529948 -0.1611766 192 192 192 255 0.225687 0.868899
139.7676 3.853542 373.0166 -0.1969631 0.9660968 -0.1669209 192 192 192 255 0.069064 0.819101
341.9355 1.153978 323.2021 -0.1475161 0.9826533 0.1123905 192 192 192 255 0.171939 0.609651
237.8955 3.538527 301.8018 0.3377261 0.9412442 -0.0006110728 192 192 192 255 0.131967 0.617886
411.6943 0.091592 255.5625 0.0003059507 0.9814119 -0.191913 192 192 192 255 0.19874 0.635681
322.6152 0.336193 172.333 0.1936202 0.9575157 0.2137171 192 192 192 255 0.164516 0.667711
218.0342 3.933665 263.3477 0.003883164 0.9767116 -0.2145216 192 192 192 255 0.10472 0.869062
499.5098 -0.095021 64.86816 0.6764457 0.7354231 0.03967403 192 192 192 255 0.232479 0.709067
212.8203 0.246432 208.5391 -0.2111896 0.9579239 0.1943729 192 192 192 255 0.122333 0.653777
304.708 3.763367 93.38184 -0.2458721 0.9603893 -0.1311466 192 192 192 255 0.144205 0.946492
229.1982 -0.081481 267.9775 0.1083361 0.9937478 0.02699257 192 192 192 255 0.128625 0.630903
301.9648 3.272902 59.21387 0.02080301 0.9982337 0.05564828 192 192 192 255 0.142956 0.962058
7.999023 0.096692 412.7656 -0.2866768 0.9501745 -0.1224132 192 192 192 255 0.043641 0.575183
62.81348 1.475604 261.7549 0.004920112 0.9871719 -0.1595857 192 192 192 255 0.0647 0.633298
84.89258 3.934156 99.60547 0.1397203 0.9826446 -0.1220164 192 192 192 255 0.073183 0.695699
290.1836 1.140516 82.86621 0.05695986 0.9983241 0.01022737 192 192 192 255 0.137589 0.951282
319.1465 0.421023 186.5586 -0.221713 0.9521918 -0.2101765 192 192 192 255 0.163183 0.662236
111.8027 3.93345 441.3564 -0.01011162 0.9990186 -0.04312363 192 192 192 255 0.056324 0.787968
499.5322 -0.089626 396.8086 0.6998848 0.7103888 -0.07422315 192 192 192 255 0.232488 0.581324
318.2354 2.316517 21.96777 0.02548274 0.9570826 -0.2886931 192 192 192 255 0.162833 0.725576
371.7881 3.766331 140.8926 -0.1356754 0.9787245 -0.1539176 192 192 192 255 0.183408 0.67981
469.1484 3.73005 483.9727 0.2796263 0.958618 -0.05348505 192 192 192 255 0.220814 0.54778
428.8496 0.239204 434.4043 0.184363 0.9654266 -0.1842873 192 192 192 255 0.205331 0.566856
-0.005859 -1.314865 292.5908 -0.6947845 0.7182972 0.03638512 192 192 192 255 0.040565 0.621431
0.248047 -0.10865 59.43555 -0.7745045 0.6325238 -0.007522302 192 192 192 255 0.040663 0.711157
375.418 3.934485 390.7461 0.1714977 0.9710151 -0.1664877 192 192 192 255 0.176418 0.811024
267.2656 3.933786 216.2109 -0.001301791 0.9999712 0.007480378 192 192 192 255 0.127148 0.890536
334.2979 3.915558 237.8945 0.04184891 0.9551342 0.293202 192 192 192 255 0.157685 0.880657
126.2617 2.839551 405.0957 -0.1179442 0.9920132 -0.04471004 192 192 192 255 0.089077 0.578135
324.9795 3.934191 338.29 0.1753155 0.9677061 -0.1811334 192 192 192 255 0.15344 0.834921
0.064453 -8.918802 354.1807 -0.8790421 0.4736182 0.05450467 192 192 192 255 0.040592 0.597729
236.1221 3.877953 17.0293 0.1297842 0.9641607 -0.231409 192 192 192 255 0.131285 0.727477
47.80859 0.054709 52.86621 0.168525 0.9719228 -0.1642117 192 192 192 255 0.058935 0.713686
233.8115 0.404898 243.4707 0.05617512 0.997935 0.03114723 192 192 192 255 0.130398 0.640334
480.4062 0.295652 491.3916 0.03321824 0.9985224 0.04300767 192 192 192 255 0.225139 0.544925
421.2266 0.88839 86.50684 -0.2440229 0.9386278 -0.2437844 192 192 192 255 0.202402 0.70074
121.9902 0.09649 255.374 -0.03989311 0.9869056 -0.1562882 192 192 192 255 0.087436 0.635753
499.498 -5.02316 361.2793 0.8925359 0.4508054 -0.01241775 192 192 192 255 0.232474 0.594997
385.9697 0.266693 491.4268 0.0004864009 0.9704384 0.2413484 192 192 192 255 0.188857 0.544912
239.748 2.528729 15.88672 0.3756345 0.9210117 -0.1031318 192 192 192 255 0.132679 0.727917
458.0156 3.933733 21.04492 0.005580293 0.999984 0.0009747314 192 192 192 255 0.214047 0.979446
72.41797 3.934267 87.41211 0.1023359 0.9869738 -0.1241373 192 192 192 255 0.038382 0.949211
136.5596 -0.332359 142.3809 0.1844779 0.9659222 -0.1815548 192 192 192 255 0.093034 0.679237
12.26562 -0.111021 352.0137 -0.4814412 0.8686915 0.1165745 192 192 192 255 0.04528 0.598563
342.207 3.910623 262.9961 -0.004971441 0.9646829 -0.2633669 192 192 192 255 0.172043 0.63282
305.3701 2.612025 115.083 -0.2003278 0.9755391 -0.09051058 192 192 192 255 0.144507 0.936606
114.4277 3.959658 100.0947 -0.1492006 0.9797267 0.1336966 192 192 192 255 0.05752 0.943434
9.324219 -2.321728 378.0391 -0.4110665 0.8708127 -0.2696472 192 192 192 255 0.04415 0.588547
371.4053 -0.640074 245.0742 0.03369876 0.9988525 -0.03403185 192 192 192 255 0.183261 0.639717
420.7812 -0.003851 74.32324 0.1761866 0.9693608 0.1711666 192 192 192 255 0.202231 0.705428
386.96 3.932762 196.8359 0.006431317 0.9994608 0.03219892 192 192 192 255 0.181676 0.899362
345.8271 -0.132401 341.0684 -0.03621402 0.9982999 -0.04567115 192 192 192 255 0.173434 0.602775
221.833 0.235972 227.0342 0.1332984 0.9813806 -0.1382886 192 192 192 255 0.125796 0.646659
484.0615 3.718623 390.2754 0.2547978 0.9639598 -0.07654917 192 192 192 255 0.225913 0.811238
394.6885 0.318114 110.876 -0.1965803 0.9587475 -0.2053275 192 192 192 255 0.192207 0.691361
487.9619 0.364173 481.4609 0.02102728 0.9932067 0.1144483 192 192 192 255 0.228042 0.548747
272.8008 3.338985 261.2305 -0.1958715 0.964866 -0.1751223 192 192 192 255 0.12967 0.870026
262.3877 0.114927 257.7432 -0.03016952 0.9993713 -0.01862417 192 192 192 255 0.141377 0.634842
237.7734 3.661531 115.917 0.2575967 0.9662525 0.0002840172 192 192 192 255 0.113712 0.936226
410.4854 3.935073 395.624 -0.1796519 0.9674333 0.1783204 192 192 192 255 0.192394 0.808802
336.4385 -1.285312 330.915 -0.01206253 0.9995236 -0.02840892 192 192 192 255 0.169827 0.606682
313.9189 3.933177 98.7832 -0.03620513 0.9993423 -0.00202399 192 192 192 255 0.148401 0.944031
343.3311 2.701902 352.8955 0.2409448 0.9425139 -0.2315452 192 192 192 255 0.172475 0.598224
77.59375 3.931044 285.2979 0.01616112 0.9806669 -0.1950162 192 192 192 255 0.04074 0.859062
499.791 -22.76776 0.09375 0.5794536 -0.5717041 -0.5808511 192 192 192 255 0.232587 0.733994
377.9463 0.334402 383.6221 0.1737397 0.9701616 -0.1691184 192 192 192 255 0.185774 0.586399
121.0889 -0.095263 382.04 -0.08556671 0.9960918 -0.02189699 192 192 192 255 0.08709 0.587008
134.9746 2.774538 108.875 -0.04970799 0.980935 0.1878712 192 192 192 255 0.092425 0.692131
426.9258 3.932793 315.25 0.0002162341 1 6.539119e-05 192 192 192 255 0.199883 0.845417
235.5488 3.933677 283.4062 0.04496276 0.9989667 0.006626107 192 192 192 255 0.112699 0.859924
165.4463 3.934319 179.2949 0.1755756 0.9686249 -0.1758949 192 192 192 255 0.104132 0.665031
142.7422 0.495623 350.6396 0.2875032 0.9141808 0.2856842 192 192 192 255 0.095409 0.599092
472.3438 3.896428 352.0234 0.1311798 0.9897039 0.05725488 192 192 192 255 0.220574 0.828664
431.1641 -0.058436 426.8613 -0.1541737 0.9755134 0.1568568 192 192 192 255 0.206221 0.569759
-0.016602 -0.909293 161.1289 -0.7902836 0.6127259 0.004355242 192 192 192 255 0.040561 0.672022
481.8945 3.968045 33.49414 0.03176662 0.9851587 -0.1686807 192 192 192 255 0.224925 0.973775
17.24023 3.94131 270.9453 -0.1650901 0.9817913 -0.09397449 192 192 192 255 0.013245 0.865601
243.7422 0.209608 265.0654 0.03141445 0.9980406 -0.0541116 192 192 192 255 0.134213 0.632024
389.2236 0.459605 382.7334 -0.2033287 0.9562257 0.2104516 192 192 192 255 0.190107 0.586741
235.874 3.924148 383.0879 0.1045109 0.9945237 0.0002865248 192 192 192 255 0.112847 0.814513
238.209 3.394464 483.7021 0.1991112 0.9548422 0.2205248 192 192 192 255 0.132087 0.547885
499.8154 -1.352067 499.96 0.7453117 0.2271659 0.6268222 192 192 192 255 0.232596 0.541628
484.3242 3.614185 470.4746 0.01847686 0.9823662 0.1860519 192 192 192 255 0.226645 0.552975
243.9531 0.181676 58.46875 0.2675183 0.9635528 0.000272327 192 192 192 255 0.134294 0.71153
245.9102 -0.019724 235.877 0.03845767 0.9990622 0.0198932 192 192 192 255 0.135046 0.643257
499.4326 -0.100642 140.2363 0.662993 0.7450937 -0.0726351 192 192 192 255 0.232449 0.680062
55.4834 3.937119 39.66211 -0.1695038 0.9725367 0.1595019 192 192 192 255 0.030667 0.970965
35.37793 3.940671 481.7324 -0.2196368 0.9753317 -0.02208962 192 192 192 255 0.05416 0.548643
475.9375 1.950349 364.6572 0.2031122 0.979151 -0.002960227 192 192 192 255 0.223422 0.593697
260.6709 -0.101112 0.077148 0.009178384 0.6946084 -0.7193295 192 192 192 255 0.140717 0.734001
236.1221 3.877953 17.0293 0.1297842 0.9641607 -0.231409 192 192 192 255 0.11296 0.981275
135.2646 3.923894 17.11621 -0.0133858 0.9799666 -0.1987117 192 192 192 255 0.067013 0.981236
410.4854 3.935073 395.624 -0.1796519 0.9674333 0.1783204 192 192 192 255 0.198276 0.58178
400.165 3.934397 263.9902 0.002438158 0.9781529 -0.2078723 192 192 192 255 0.187692 0.868769
35.37793 3.940671 481.7324 -0.2196368 0.9753317 -0.02208962 192 192 192 255 0.021508 0.769574
85.59473 3.602056 427.0557 -0.1049641 0.9442618 -0.3120131 192 192 192 255 0.044385 0.794483
114.4277 3.959658 100.0947 -0.1492006 0.9797267 0.1336966 192 192 192 255 0.084531 0.69551
484.0615 3.718623 390.2754 0.2547978 0.9639598 -0.07654917 192 192 192 255 0.226544 0.583839
18.08984 3.920532 327.8535 -0.2197554 0.9753006 0.02228113 192 192 192 255 0.013632 0.839675
481.8945 3.968045 33.49414 0.03176662 0.9851587 -0.1686807 192 192 192 255 0.225711 0.721141
473.9541 3.930742 103.2461 0.09989946 0.9948215 -0.01871755 192 192 192 255 0.221308 0.941998
432.0068 3.920797 235.374 -0.01822703 0.9766895 0.2138821 192 192 192 255 0.202198 0.881806
110.6074 3.931777 23.91895 0.005922042 0.9902609 -0.1390982 192 192 192 255 0.083063 0.724826
15.5957 3.590377 469.7969 -0.1828832 0.9682587 0.1703788 192 192 192 255 0.046559 0.553236
15.41309 3.558359 410.0898 -0.2911658 0.9531033 -0.08256283 192 192 192 255 0.046489 0.576213
174.7139 3.8734 161.6338 -0.1948768 0.9640954 0.180397 192 192 192 255 0.107692 0.671828
151.6357 3.932736 108.2109 -0.03564215 0.9982101 0.04802258 192 192 192 255 0.074471 0.939736
22.98047 3.933306 394.9492 -0.1871072 0.9816512 -0.03676802 192 192 192 255 0.049397 0.58204
306.2227 3.932281 474.8936 -0.02478181 0.9966908 0.07741613 192 192 192 255 0.144895 0.77269
323.2383 3.845486 484.0234 -0.009243743 0.9743369 0.2249048 192 192 192 255 0.152647 0.76853
334.2979 3.915558 237.8945 0.04184891 0.9551342 0.293202 192 192 192 255 0.169005 0.64248
103.7139 1.155725 422.5254 -0.0361221 0.9895402 -0.1396617 192 192 192 255 0.080414 0.571428
342.207 3.910623 262.9961 -0.004971441 0.9646829 -0.2633669 192 192 192 255 0.161289 0.869222
111.3574 3.938113 272.0527 -0.04866267 0.9927076 -0.1102889 192 192 192 255 0.083351 0.629335
484.249 3.712949 135.9453 0.2344027 0.9720591 -0.01250669 192 192 192 255 0.226616 0.681714
483.6602 3.921292 326.5137 0.2245509 0.9743541 0.01452822 192 192 192 255 0.22573 0.840286
472.3438 3.896428 352.0234 0.1311798 0.9897039 0.05725488 192 192 192 255 0.222042 0.598559
62.81348 1.475604 261.7549 0.004920112 0.9871719 -0.1595857 192 192 192 255 0.034007 0.869787
357.7783 2.645012 232.9707 0.08931331 0.9634788 0.2524515 192 192 192 255 0.168382 0.8829
369.5342 3.69853 224.2637 0.1373219 0.9764723 0.1662669 192 192 192 255 0.182542 0.647726
26.37695 3.869778 373.3467 -0.1904908 0.9816388 -0.009929461 192 192 192 255 0.050701 0.590353
484.5264 3.570461 65.08105 0.2666063 0.9634026 0.0278683 192 192 192 255 0.226124 0.959385
362.0059 3.833325 327.8242 -0.09059067 0.9957163 0.01850422 192 192 192 255 0.17965 0.607872
368.6543 3.84314 355.9541 -0.2282235 0.9505601 0.2105935 192 192 192 255 0.182204 0.597047
386.96 3.932762 196.8359 0.006431317 0.9994608 0.03219892 192 192 192 255 0.189237 0.658281
335.1064 2.285557 309.7852 -0.02088959 0.9702125 0.2413532 192 192 192 255 0.158054 0.847907
134.9746 2.774538 108.875 -0.04970799 0.980935 0.1878712 192 192 192 255 0.066881 0.939434
353.6729 3.952598 17.72949 -0.1025761 0.9426196 -0.3177206 192 192 192 255 0.176448 0.727208
17.24023 3.94131 270.9453 -0.1650901 0.9817913 -0.09397449 192 192 192 255 0.047191 0.629761
237.8955 3.538527 301.8018 0.3377261 0.9412442 -0.0006110728 192 192 192 255 0.113768 0.851544
487.79 0.791899 257.2109 0.0949712 0.9908797 -0.09559286 192 192 192 255 0.227611 0.871858
391.0342 1.727799 223.4492 -0.09514481 0.9914709 0.08906718 192 192 192 255 0.183532 0.887238
130.584 3.334241 261.3125 -0.02882152 0.9595826 -0.2799476 192 192 192 255 0.064881 0.869989
218.0342 3.933665 263.3477 0.003883164 0.9767116 -0.2145216 192 192 192 255 0.124336 0.632685
314.0459 3.783408 301.3418 -0.2306383 0.9375071 0.2605505 192 192 192 255 0.148459 0.851753
72.875 1.302522 279.0693 0.06436598 0.9678051 -0.2433314 192 192 192 255 0.068566 0.626635
55.84473 3.930759 279.8818 0.0382947 0.9960615 -0.07996898 192 192 192 255 0.062023 0.626322
55.4834 3.937119 39.66211 -0.1695038 0.9725367 0.1595019 192 192 192 255 0.061884 0.718767
27.80469 3.338305 14.90918 -0.2073153 0.978228 0.009513108 192 192 192 255 0.018058 0.982241
484.7031 2.091601 103.1289 0.2514623 0.9276263 -0.2761817 192 192 192 255 0.226205 0.942052
375.418 3.934485 390.7461 0.1714977 0.9710151 -0.1664877 192 192 192 255 0.184803 0.583657
388.4844 3.91599 483.5537 0.0007928033 0.976698 0.2146166 192 192 192 255 0.189823 0.547942
126.2617 2.839551 405.0957 -0.1179442 0.9920132 -0.04471004 192 192 192 255 0.062911 0.804487
484.3242 3.614185 470.4746 0.01847686 0.9823662 0.1860519 192 192 192 255 0.226032 0.774703
341.9355 1.153978 323.2021 -0.1475161 0.9826533 0.1123905 192 192 192 255 0.161165 0.841794
105.8643 3.931432 285.7979 -0.02558382 0.9992689 -0.02840805 192 192 192 255 0.08124 0.624045
468.3545 3.874037 16.92383 0.1850137 0.980512 -0.06607728 192 192 192 255 0.218757 0.981323
414.3867 3.679894 72.95703 0.223935 0.949124 0.2213974 192 192 192 255 0.194171 0.955797
262.6836 3.879752 464.2949 -0.2332138 0.9719123 0.03159132 192 192 192 255 0.125061 0.777518
282.7637 3.883295 294.0527 0.2843206 0.9089025 -0.3050544 192 192 192 255 0.149205 0.620868
262.627 3.89856 162.6074 -0.2592699 0.9658049 -0.0002998345 192 192 192 255 0.141469 0.671453
231.333 3.934898 482.0254 0.02057816 0.97763 0.2093233 192 192 192 255 0.129445 0.54853
324.9727 3.932948 28.42578 -0.00761517 0.9943988 -0.1054189 192 192 192 255 0.165422 0.723091
153.7812 3.219644 335.3223 0.2774779 0.9176841 0.2843622 192 192 192 255 0.075448 0.836273
183.6387 3.963336 329.2646 -0.181831 0.966512 -0.1810855 192 192 192 255 0.08905 0.839033
239.3242 2.797698 229.208 0.08679851 0.9600333 0.2660868 192 192 192 255 0.114419 0.884614
239.748 2.528729 15.88672 0.3756345 0.9210117 -0.1031318 192 192 192 255 0.114612 0.981796
165.4463 3.934319 179.2949 0.1755756 0.9686249 -0.1758949 192 192 192 255 0.080763 0.907353
122.4531 3.929041 237.8408 -0.0002828308 0.9627523 0.2703848 192 192 192 255 0.061176 0.880682
225.5566 3.835204 237.8604 0.2979151 0.9544089 0.01871761 192 192 192 255 0.108147 0.880673
17.64648 3.932773 32.86816 -0.1810696 0.9683947 -0.1715388 192 192 192 255 0.01343 0.97406
262.7412 3.877764 17.40625 -0.1971887 0.9641415 -0.1776167 192 192 192 255 0.141512 0.727332
139.7676 3.853542 373.0166 -0.1969631 0.9660968 -0.1669209 192 192 192 255 0.094266 0.59048
262.6064 3.878027 338.3486 -0.2499009 0.9682714 -8.570147e-05 192 192 192 255 0.125025 0.834894
484.1279 3.707051 237.8877 0.1363245 0.9274698 0.3481601 192 192 192 255 0.225943 0.88066
402.7207 0.990013 239.4863 -0.04956253 0.9922156 0.1142442 192 192 192 255 0.188856 0.879932
475.9375 1.950349 364.6572 0.2031122 0.979151 -0.002960227 192 192 192 255 0.222211 0.822909
371.7881 3.766331 140.8926 -0.1356754 0.9787245 -0.1539176 192 192 192 255 0.174765 0.924848
238.209 3.394464 483.7021 0.1991112 0.9548422 0.2205248 192 192 192 255 0.113911 0.768677
78.91406 3.626367 91.44238 0.2677265 0.9248999 -0.269968 192 192 192 255 0.041341 0.947375
84.89258 3.934156 99.60547 0.1397203 0.9826446 -0.1220164 192 192 192 255 0.044065 0.943657
131.2002 3.934419 146.4766 0.192404 0.9620154 -0.1936676 192 192 192 255 0.065161 0.922304
263.0156 3.897237 275.2832 0.08391302 0.9391217 -0.3331802 192 192 192 255 0.125212 0.863624
235.5986 3.953056 223.4297 0.02184002 0.9920242 0.1241408 192 192 192 255 0.112721 0.887247
318.2354 2.316517 21.96777 0.02548274 0.9570826 -0.2886931 192 192 192 255 0.150368 0.979025
469.1484 3.73005 483.9727 0.2796263 0.958618 -0.05348505 192 192 192 255 0.219119 0.768553
263.3486 3.841911 226.2207 0.04494844 0.9535137 0.2979787 192 192 192 255 0.125363 0.885975
15.23242 3.48386 238.7061 -0.130541 0.9725273 0.1927425 192 192 192 255 0.01233 0.880288
223.7832 3.932179 263.6357 0.2011418 0.97947 -0.01343547 192 192 192 255 0.107339 0.868931
72.41797 3.934267 87.41211 0.1023359 0.9869738 -0.1241373 192 192 192 255 0.06839 0.700391
272.8008 3.338985 261.2305 -0.1958715 0.964866 -0.1751223 192 192 192 255 0.145377 0.6335
102.6846 3.308176 14.8291 0.5713187 0.5357099 -0.6217797 192 192 192 255 0.05217 0.982278
324.9795 3.934191 338.29 0.1753155 0.9677061 -0.1811334 192 192 192 255 0.165424 0.603844
343.3311 2.701902 352.8955 0.2409448 0.9425139 -0.2315452 192 192 192 255 0.161801 0.828267
236.1221 3.964032 275.9102 0.07655548 0.9844112 -0.1583475 192 192 192 255 0.11296 0.863339
275.3486 3.933635 237.6562 -0.2787882 0.959356 -0.04374206 192 192 192 255 0.13083 0.880766
421.2266 0.88839 86.50684 -0.2440229 0.9386278 -0.2437844 192 192 192 255 0.197287 0.949624
3 59 125 0 
3 125 55 32 
3 157 100 98 
3 239 86 165 
3 3 63 226 
3 23 78 226 
3 6 167 134 
3 26 61 55 
3 105 195 112 
3 246 245 122 
3 183 200 196 
3 29 43 95 
3 180 58 144 
3 202 2 107 
3 61 251 55 
3 194 128 81 
3 85 8 1 
3 57 178 114 
3 78 28 226 
3 48 15 102 
3 87 52 79 
3 151 231 83 
3 5 172 160 
3 65 158 168 
3 35 59 0 
3 219 206 166 
3 133 73 115 
3 147 90 60 
3 168 120 70 
3 120 108 70 
3 80 221 215 
3 234 162 230 
3 166 206 150 
3 63 73 133 
3 63 123 226 
3 96 53 193 
3 252 156 220 
3 252 253 208 
3 116 246 92 
3 114 219 166 
3 202 24 188 
3 254 235 244 
3 20 7 135 
3 230 255 221 
3 23 226 55 
3 11 67 35 
3 174 35 141 
3 47 9 249 
3 179 256 151 
3 257 256 179 
3 151 83 10 
3 58 180 119 
3 30 257 179 
3 13 239 11 
3 246 195 92 
3 189 212 237 
3 229 258 128 
3 259 244 31 
3 54 260 158 
3 78 97 85 
3 195 105 84 
3 45 125 59 
3 59 34 45 
3 133 90 63 
3 141 35 67 
3 240 227 184 
3 128 130 176 
3 77 200 56 
3 42 91 210 
3 114 92 219 
3 15 140 261 
3 169 28 78 
3 78 85 140 
3 78 140 169 
3 251 23 55 
3 247 63 3 
3 18 16 136 
3 136 16 68 
3 251 116 27 
3 251 111 116 
3 174 49 74 
3 111 96 116 
3 92 161 239 
3 172 233 104 
3 124 65 168 
3 65 225 158 
3 54 238 260 
3 16 18 40 
3 107 7 20 
3 202 107 223 
3 41 19 138 
3 19 41 188 
3 89 262 263 
3 18 26 125 
3 51 248 208 
3 136 68 21 
3 264 61 136 
3 228 141 22 
3 14 129 75 
3 14 75 37 
3 137 18 136 
3 174 265 266 
3 169 15 48 
3 140 15 169 
3 155 31 123 
3 39 139 255 
3 99 72 267 
3 252 268 156 
3 209 49 269 
3 49 34 59 
3 219 92 239 
3 28 3 226 
3 151 10 179 
3 168 158 120 
3 10 30 179 
3 105 87 84 
3 38 13 77 
3 237 212 153 
3 45 192 125 
3 253 51 208 
3 187 270 271 
3 199 155 123 
3 202 223 24 
3 126 154 222 
3 195 113 112 
3 131 214 232 
3 72 204 25 
3 212 189 33 
3 57 46 272 
3 62 272 46 
3 190 88 273 
3 255 44 39 
3 255 274 64 
3 52 192 205 
3 15 94 102 
3 15 261 94 
3 28 48 3 
3 198 17 275 
3 219 239 29 
3 24 19 188 
3 138 19 24 
3 223 171 207 
3 107 20 173 
3 123 180 144 
3 31 180 123 
3 0 125 98 
3 3 73 247 
3 73 36 276 
3 96 61 264 
3 111 61 96 
3 162 234 277 
3 37 278 199 
3 230 221 80 
3 17 84 175 
3 279 54 109 
3 91 62 210 
3 33 189 280 
3 281 62 91 
3 205 192 282 
3 111 251 61 
3 177 41 138 
3 282 121 209 
3 209 34 49 
3 221 255 139 
3 164 126 222 
3 252 208 268 
3 283 237 262 
3 262 153 263 
3 133 115 60 
3 90 133 60 
3 258 81 128 
3 284 213 285 
3 35 0 149 
3 4 148 82 
3 162 255 230 
3 228 22 88 
3 286 281 91 
3 20 135 41 
3 174 266 269 
3 269 49 174 
3 153 12 263 
3 255 64 44 
3 44 64 287 
3 34 121 45 
3 121 192 45 
3 268 208 288 
3 1 8 289 
3 239 161 172 
3 88 22 273 
3 59 74 49 
3 267 170 66 
3 290 87 79 
3 25 132 170 
3 246 214 195 
3 72 25 267 
3 262 237 153 
3 178 103 114 
3 264 136 21 
3 16 40 68 
3 53 96 264 
3 119 31 244 
3 244 235 217 
3 225 54 158 
3 247 73 63 
3 97 78 23 
3 50 97 23 
3 157 76 100 
3 211 167 216 
3 104 228 118 
3 291 231 241 
3 219 29 106 
3 292 162 277 
3 119 196 58 
3 147 42 210 
3 153 212 293 
3 153 293 12 
3 192 121 282 
3 236 125 185 
3 87 185 52 
3 79 205 282 
3 85 97 8 
3 13 11 71 
3 251 27 50 
3 210 62 46 
3 132 204 152 
3 198 69 161 
3 168 294 124 
3 161 69 295 
3 210 46 166 
3 46 114 166 
3 199 278 250 
3 64 296 287 
3 274 296 64 
3 17 175 297 
3 117 193 201 
3 147 210 166 
3 173 177 138 
3 223 107 173 
3 134 85 1 
3 50 27 181 
3 224 222 106 
3 58 77 159 
3 24 223 207 
3 219 106 222 
3 109 54 225 
3 251 50 23 
3 169 48 28 
3 90 147 166 
3 265 141 5 
3 171 138 207 
3 79 52 205 
3 40 194 81 
3 159 4 243 
3 204 128 152 
3 58 200 77 
3 155 250 31 
3 87 290 84 
3 84 290 298 
3 180 31 119 
3 40 186 101 
3 76 145 100 
3 82 100 144 
3 299 81 258 
3 27 116 110 
3 99 229 72 
3 233 228 104 
3 51 300 248 
3 81 299 40 
3 301 262 89 
3 184 302 183 
3 137 26 18 
3 29 239 43 
3 103 6 92 
3 72 128 204 
3 243 58 159 
3 187 271 93 
3 183 303 200 
3 304 30 10 
3 127 14 37 
3 215 221 305 
3 44 287 306 
3 38 143 13 
3 32 157 98 
3 125 32 98 
3 100 82 98 
3 173 20 177 
3 17 297 307 
3 123 127 37 
3 37 199 123 
3 101 186 105 
3 84 298 175 
3 178 167 103 
3 216 167 182 
3 308 2 202 
3 308 202 309 
3 282 209 269 
3 157 226 76 
3 32 55 157 
3 66 214 122 
3 22 141 9 
3 117 96 193 
3 191 142 310 
3 18 186 40 
3 211 85 134 
3 106 29 311 
3 213 164 222 
3 234 230 80 
3 312 92 6 
3 104 118 86 
3 313 11 242 
3 116 96 117 
3 119 217 196 
3 8 314 289 
3 8 181 314 
3 114 46 57 
3 315 168 70 
3 110 116 92 
3 116 245 246 
3 316 83 231 
3 105 185 87 
3 105 186 236 
3 170 214 66 
3 170 132 214 
3 317 318 220 
3 275 17 307 
3 102 36 48 
3 43 239 13 
3 250 259 31 
3 63 127 123 
3 77 13 71 
3 63 129 14 
3 195 131 113 
3 319 320 321 
3 203 322 320 
3 90 166 129 
3 90 129 63 
3 227 213 224 
3 77 71 159 
3 140 197 261 
3 140 85 211 
3 140 211 197 
3 197 211 216 
3 41 135 188 
3 92 312 323 
3 207 138 24 
3 217 184 196 
3 196 184 183 
3 163 304 83 
3 118 228 324 
3 275 69 198 
3 97 50 8 
3 68 40 299 
3 98 82 148 
3 174 141 265 
3 324 228 190 
3 142 325 310 
3 95 43 143 
3 141 67 9 
3 86 172 104 
3 100 145 144 
3 123 144 145 
3 311 29 146 
3 83 304 10 
3 98 148 149 
3 35 149 4 
3 229 128 72 
3 241 231 151 
3 73 276 115 
3 326 89 263 
3 44 306 39 
3 152 128 176 
3 0 98 149 
3 25 204 132 
3 50 181 8 
3 226 123 76 
3 76 123 145 
3 3 36 73 
3 42 286 91 
3 226 157 55 
3 63 14 127 
3 202 188 309 
3 4 149 148 
3 263 12 327 
3 159 71 4 
3 303 56 200 
3 328 234 80 
3 160 172 161 
3 92 195 161 
3 191 310 270 
3 223 138 171 
3 273 22 47 
3 11 35 71 
3 316 163 83 
3 237 329 189 
3 65 109 225 
3 241 151 330 
3 137 61 26 
3 170 267 25 
3 167 211 134 
3 233 141 228 
3 233 5 141 
3 190 228 88 
3 52 185 192 
3 233 172 5 
3 174 74 35 
3 239 172 86 
3 182 178 57 
3 331 203 332 
3 332 203 320 
3 319 333 320 
3 132 152 232 
3 232 214 132 
3 142 334 325 
3 292 255 162 
3 220 156 335 
3 317 220 335 
3 161 295 160 
3 27 323 181 
3 107 336 7 
3 155 199 250 
3 337 187 93 
3 105 236 185 
3 47 22 9 
3 186 18 125 
3 192 185 125 
3 143 43 13 
3 309 188 338 
3 188 135 338 
3 320 322 339 
3 187 191 270 
3 11 165 242 
3 318 252 220 
3 168 315 340 
3 6 103 167 
3 58 243 144 
3 332 320 333 
3 341 194 101 
3 245 117 201 
3 116 117 245 
3 71 35 4 
3 217 235 184 
3 130 194 341 
3 218 296 274 
3 125 26 55 
3 61 137 136 
3 284 164 213 
3 216 182 197 
3 38 77 56 
3 285 213 240 
3 240 213 227 
3 217 119 244 
3 219 342 206 
3 343 300 51 
3 12 293 327 
3 177 20 41 
3 344 106 311 
3 195 84 198 
3 195 198 161 
3 219 222 154 
3 29 95 146 
3 222 224 213 
3 27 110 323 
3 110 92 323 
3 345 191 187 
3 173 138 223 
3 209 121 34 
3 235 240 184 
3 231 346 316 
3 291 346 231 
3 329 347 189 
3 342 219 154 
3 237 348 329 
3 243 4 82 
3 103 92 114 
3 235 254 240 
3 196 200 58 
3 236 186 125 
3 75 278 37 
3 328 80 215 
3 129 166 150 
3 194 40 101 
3 48 36 3 
3 184 227 302 
3 313 249 67 
3 198 84 17 
3 313 67 11 
3 291 241 330 
3 128 194 130 
3 243 82 144 
3 302 227 224 
3 35 74 59 
3 195 214 131 
3 245 201 122 
3 285 240 254 
3 214 246 122 
3 249 9 67 
3 11 239 165 
3 112 101 105 
3 167 178 182 
3 106 344 224 
