ply
format ascii 1.0
comment VCGLIB generated
comment TextureFile Dungeons_2_Texture_01_A.png
element vertex 337
property float x
property float y
property float z
property float nx
property float ny
property float nz
property uchar red
property uchar green
property uchar blue
property uchar alpha
property float texture_u
property float texture_v
element face 500
property list uchar int vertex_indices
end_header
45.75391 3.038532 19.75195 -0.1165126 0.9929698 -0.02087715 192 192 192 255 0.058146 0.726429
87.22168 3.074146 432.4385 -0.1085803 0.9774237 -0.1812546 192 192 192 255 0.074078 0.567613
25.45117 0.005454 9.209961 -0.01590266 0.999796 -0.01245073 192 192 192 255 0.050346 0.730486
266.8223 -0.153973 423.3428 0.02453064 0.9957501 -0.08876999 192 192 192 255 0.14308 0.571113
272.0186 3.037892 446.1201 0.01182129 0.998498 -0.05349728 192 192 192 255 0.129313 0.785798
457.9922 2.932269 481.376 0.09501471 0.9930696 0.06917434 192 192 192 255 0.214036 0.769736
450.6621 3.037024 204.9863 0.01199019 0.999916 0.00493322 192 192 192 255 0.210697 0.895649
409.4355 -9.84326 0.013672 0.01317504 0.1768437 -0.9841508 192 192 192 255 0.197872 0.734025
363.6006 -0.719828 410.3369 0.01803037 0.9995199 0.02519613 192 192 192 255 0.180263 0.576118
427.7002 2.867293 88.41504 -0.2405105 0.9702146 -0.02895553 192 192 192 255 0.200236 0.948755
16.8584 3.001039 38.68066 0.008659279 0.9794542 -0.2014807 192 192 192 255 0.047044 0.719145
418.5889 3.028422 30.07812 0.04009335 0.998427 -0.03919211 192 192 192 255 0.201389 0.722455
173.8154 -21.03906 -0.027344 0.006133557 -0.1783247 -0.9839526 192 192 192 255 0.107347 0.734041
431.127 -0.048552 499.8359 0.2930049 0.7078254 0.6427529 192 192 192 255 0.206206 0.541676
392.1621 -0.005313 8.40918 0.06112956 0.9822586 -0.1772884 192 192 192 255 0.191236 0.730794
116.7031 0.162159 10.35254 0.07533719 0.9365302 -0.3423969 192 192 192 255 0.085405 0.730046
94.90234 2.862594 290.8057 -0.3428749 0.9393526 0.007315871 192 192 192 255 0.077029 0.622118
427.6895 2.944675 481.1709 -0.05447818 0.9796822 0.1930154 192 192 192 255 0.200231 0.76983
467.1885 -0.692133 491.6875 -0.06379293 0.90063 0.4298791 192 192 192 255 0.220061 0.544811
178.8936 2.92351 481.3359 -0.02579324 0.986428 0.162156 192 192 192 255 0.109298 0.548795
63.89551 3.040295 40.51074 -0.1258808 0.984674 0.1207112 192 192 192 255 0.0345 0.970578
405.1172 2.93436 151.1455 0.2164717 0.9762731 -0.005549428 192 192 192 255 0.196213 0.675864
348.665 0.74705 175.2969 0.07960835 0.9954579 0.05221371 192 192 192 255 0.419014 0.909174
254.0859 2.947845 430.9199 0.02805405 0.9810298 -0.1918166 192 192 192 255 0.138187 0.568197
491.3984 0.226728 388.5586 0.2148252 0.9766525 0.0001356184 192 192 192 255 0.229362 0.584499
483.623 3.051729 253.708 0.1706032 0.9851773 -0.0178959 192 192 192 255 0.225713 0.873453
254.9336 3.038074 30.83594 0.0001439961 1 0.0001010726 192 192 192 255 0.12153 0.974985
195.8359 3.033588 176.3779 -0.008696598 0.9998221 -0.01673587 192 192 192 255 0.34939 0.908682
123.5557 -11.05215 499.8838 0.0266937 0.2497435 0.967944 192 192 192 255 0.088037 0.541657
284.751 -0.929247 89.28906 0.02976052 0.9949246 -0.0961218 192 192 192 255 0.149969 0.699669
421.2656 -0.004737 413.6377 -0.1413851 0.988315 0.05695283 192 192 192 255 0.202417 0.574848
428.2549 1.699867 344.6982 -0.113548 0.9935163 0.005688243 192 192 192 255 0.205103 0.601378
404.9072 2.399466 368.0537 0.2962359 0.9550192 0.01352048 192 192 192 255 0.444636 0.821362
220.3984 2.964323 68.86426 -0.1292336 0.9810238 0.1445374 192 192 192 255 0.105797 0.957661
297.0127 -0.026723 422.8018 -0.006919515 0.994332 -0.1060944 192 192 192 255 0.15468 0.571321
385.9824 3.034591 195.959 -0.03041743 0.999505 -0.008036995 192 192 192 255 0.436014 0.899762
55.95703 3.035338 240.0664 -0.008638677 0.9999627 0.0002218311 192 192 192 255 0.030883 0.879668
442.6758 3.03662 356.6631 -0.0352241 0.9993637 -0.00560812 192 192 192 255 0.207059 0.826551
345.834 2.752589 431.1943 -0.02080563 0.989838 -0.1406695 192 192 192 255 0.173437 0.568091
92.5625 0.378038 140.7021 -0.08026747 0.9967733 0.0004380737 192 192 192 255 0.07613 0.679883
77.78613 -0.018028 320.6689 0.1542316 0.9879884 0.009567657 192 192 192 255 0.070453 0.610626
209.3945 1.722599 332.8369 -0.09493544 0.9944008 0.04641499 192 192 192 255 0.355567 0.837405
91.15918 0.184976 243.9414 -0.3133545 0.9496362 0.0004203731 192 192 192 255 0.075591 0.640153
358.4277 0.044314 76.76465 -0.0004896756 0.9842936 0.1765383 192 192 192 255 0.178275 0.704489
219.7949 3.037258 60.29102 -0.03139623 0.9986924 0.04034572 192 192 192 255 0.105522 0.961567
76.93457 0.02799 176.7646 0.2137683 0.9768843 -0.0004113184 192 192 192 255 0.070126 0.666005
485.4648 2.756993 365.7178 0.2027543 0.9792289 0.001237613 192 192 192 255 0.226552 0.822426
497.4131 -8.653252 2.691406 0.4728781 0.6183288 -0.6277387 192 192 192 255 0.231673 0.732995
419.46 -0.570815 356.2646 -0.114637 0.9933578 0.009929502 192 192 192 255 0.201724 0.596927
397.2354 -2.809647 2.422852 0.1696761 0.8170995 -0.5509614 192 192 192 255 0.193185 0.733098
395.8096 2.893136 116.4824 0.1128455 0.9919475 -0.05749926 192 192 192 255 0.440491 0.935968
8.619141 -1.567316 225.5557 -0.3660383 0.9229131 0.1193621 192 192 192 255 0.043879 0.647229
103.6953 0.021198 490.8408 0.05511937 0.9509312 0.3044533 192 192 192 255 0.080407 0.545137
432.6855 -22.77244 499.8652 0.01611891 -0.675896 0.7368207 192 192 192 255 0.206805 0.541664
15.46387 -0.217386 285.251 -0.3539705 0.9337125 -0.05372035 192 192 192 255 0.046509 0.624256
397.2021 -3.633961 497.2559 0.112563 0.9499688 0.2913569 192 192 192 255 0.193172 0.542669
491.3779 0.226567 465.7773 0.2701645 0.9622971 0.03154948 192 192 192 255 0.229355 0.554783
205.3496 3.035581 134.1543 -0.004622785 0.9999798 0.004378157 192 192 192 255 0.353724 0.927917
0.078125 -0.104807 178.1191 -0.7108808 0.7031618 0.01456203 192 192 192 255 0.040597 0.665484
470.1279 3.035676 156.9111 0.04173901 0.9990196 0.01475376 192 192 192 255 0.219565 0.91755
0.104492 -0.081657 0.19043 -0.5785964 0.5781061 -0.575343 192 192 192 255 0.040608 0.733957
165.9521 2.04154 283.9873 0.02024211 0.9996513 0.01695722 192 192 192 255 0.335776 0.859659
3.117188 -5.106338 237.0205 -0.6957738 0.718245 0.00480934 192 192 192 255 0.041765 0.642816
231.5732 -2.789121 0.636719 -0.03195943 0.6322936 -0.7740694 192 192 192 255 0.129538 0.733785
383.1729 2.910921 481.1641 0.1645899 0.9684705 0.1870162 192 192 192 255 0.187782 0.548861
476.2422 -2.304362 498.5332 0.003638028 0.6897579 0.724031 192 192 192 255 0.223539 0.542177
174.5283 -8.947279 0.02832 -0.01144302 0.4414977 -0.8971894 192 192 192 255 0.107621 0.73402
0.21875 -1.25444 302.6963 -0.7210434 0.6911194 -0.04950196 192 192 192 255 0.040651 0.617542
456.6865 -0.192736 32.41504 0.003633604 0.9994776 0.03211593 192 192 192 255 0.216026 0.721556
184.8545 0.515607 331.5039 0.003608392 0.9998346 0.01782894 192 192 192 255 0.111588 0.606456
11.23926 0.571137 472.9219 -0.02609016 0.999012 0.03597822 192 192 192 255 0.044886 0.552033
429.5078 0.464057 488.6387 0.02817015 0.9643798 0.2630169 192 192 192 255 0.205584 0.545985
378.6045 3.035347 144.9727 -0.001592178 0.9998167 0.01908424 192 192 192 255 0.432653 0.922989
403.0029 -5.811234 499.4473 -0.04491699 0.3035691 0.9517501 192 192 192 255 0.195401 0.541825
94.72559 -8.152976 498.8428 0.06727908 0.2184039 0.9735365 192 192 192 255 0.076961 0.542058
411.4238 -0.038315 150.2676 0.2084079 0.9780194 -0.00664721 192 192 192 255 0.198636 0.676202
16.94336 2.925694 221.5654 -0.2270562 0.9705041 0.08103891 192 192 192 255 0.047077 0.648764
382.5391 0.018389 490.8975 0.1132297 0.9793082 0.1677333 192 192 192 255 0.187539 0.545116
71.53027 -0.23324 62.86035 -0.04759122 0.9966687 0.06623188 192 192 192 255 0.068049 0.709839
412.7402 3.041756 432.623 0.08338988 0.9832637 -0.1619839 192 192 192 255 0.193421 0.791946
277.4854 -0.004891 80.68652 0.003106164 0.9982951 0.05828635 192 192 192 255 0.147177 0.702979
493.334 -0.042682 206.2246 0.05188098 0.9985898 0.01126511 192 192 192 255 0.230106 0.654668
94.94727 2.930485 208.6533 -0.3312291 0.9435368 -0.005064144 192 192 192 255 0.077046 0.653733
257.7988 3.032927 20.19824 -0.00594168 0.9895682 -0.1439424 192 192 192 255 0.139614 0.726257
129.5615 3.033371 341.6738 0.03769957 0.9992885 0.0011432 192 192 192 255 0.319198 0.833379
9.25 0.033409 26.21191 -0.01752793 0.9995221 -0.02546346 192 192 192 255 0.044121 0.723943
112.7783 3.001841 358.9453 -0.08142916 0.9965952 0.01293544 192 192 192 255 0.311552 0.825511
366.2441 -0.019052 90.86523 0.00226414 0.9957733 -0.09181812 192 192 192 255 0.181278 0.699062
148.1357 3.018112 297.042 0.01686702 0.9997716 0.01312919 192 192 192 255 0.097481 0.619718
17.16113 3.037717 460.8604 -0.02450697 0.9867113 0.1606247 192 192 192 255 0.013209 0.779082
497.4863 0.039558 236.6309 0.4174102 0.9086788 -0.008463131 192 192 192 255 0.231701 0.642966
471.9629 3.021391 198.1396 0.06898339 0.9970981 0.032197 192 192 192 255 0.220401 0.898768
100.3809 -0.113573 0.822266 0.03167003 0.7493181 -0.6614525 192 192 192 255 0.079134 0.733714
499.8096 -21.43479 -0.016602 0.6062835 -0.5127456 -0.6078752 192 192 192 255 0.232594 0.734037
495.1484 -22.90052 495.7822 0.1062407 -0.9872033 0.1189229 192 192 192 255 0.230803 0.543236
175.1367 1.863064 344.9863 0.0177305 0.9994652 -0.02747563 192 192 192 255 0.33996 0.83187
391.7051 2.773512 469.8027 0.03138437 0.9956725 0.08747144 192 192 192 255 0.183838 0.775009
404.4434 0.082836 478.3506 -0.07975607 0.9378824 0.3376621 192 192 192 255 0.195954 0.549944
108.6455 2.88152 481.5342 0.01500839 0.9861421 0.1652229 192 192 192 255 0.082309 0.548719
371.6006 3.037462 388.6836 0.002589205 0.9976568 0.06836848 192 192 192 255 0.429462 0.811963
41.06738 2.940656 481.0947 -0.09794495 0.9922655 0.07626237 192 192 192 255 0.056345 0.548888
111.8184 2.984203 106.9365 -0.05816603 0.9949874 -0.08134343 192 192 192 255 0.311115 0.940317
3.588867 -22.90052 4.770508 -0.01443476 -0.9998455 -0.01003201 192 192 192 255 0.041946 0.732195
4.22168 -22.90051 496.3447 -0.009099949 -0.9998773 0.01275222 192 192 192 255 0.042189 0.543019
214.252 2.28952 362.4707 -0.02812732 0.997353 -0.06705104 192 192 192 255 0.35778 0.823905
319.1045 1.895311 95.34961 -0.001204351 0.9692497 -0.2460764 192 192 192 255 0.163167 0.697336
28.06738 1.745533 231.7979 -0.1018964 0.987528 0.1200237 192 192 192 255 0.018178 0.883435
55.78125 3.036618 365.5996 0.06967033 0.9975688 -0.001628826 192 192 192 255 0.030803 0.82248
87.36719 -1.185431 365.6279 -0.05256433 0.998103 -0.0320521 192 192 192 255 0.074134 0.593324
196.6191 3.030971 30.48633 -0.001799446 0.9923515 -0.1234315 192 192 192 255 0.094964 0.975145
59.53906 -11.04169 499.999 -0.0009214433 0.006138473 0.9999808 192 192 192 255 0.063442 0.541613
483.5547 3.042192 144.5869 0.1461299 0.9889229 0.02602962 192 192 192 255 0.225682 0.923165
299.748 -22.7577 0.514648 0.002106689 -0.7191445 -0.6948574 192 192 192 255 0.155731 0.733832
485.4688 2.741727 407.9941 0.2006517 0.9796627 0.0001837762 192 192 192 255 0.227084 0.57702
434.8193 -0.190698 6.948242 0.01454538 0.9644934 -0.2637062 192 192 192 255 0.207625 0.731357
410.2402 -0.382022 112.2539 0.0673289 0.997029 -0.03741739 192 192 192 255 0.198182 0.690831
498.6904 -6.550279 498.7754 0.6019545 0.486289 0.6333828 192 192 192 255 0.232164 0.542084
93.28906 0.299572 408.6846 -0.0868225 0.9929727 0.08041911 192 192 192 255 0.076409 0.576754
411.6367 -0.043761 340.6963 0.1589617 0.9868422 0.02955816 192 192 192 255 0.198718 0.602918
213.1465 0.065565 76.74707 -0.02424143 0.9942593 0.1042153 192 192 192 255 0.122458 0.704495
1.790039 -21.24988 -0.005859 -0.04694637 -0.0597953 -0.9971061 192 192 192 255 0.041255 0.734033
483.7754 3.044431 40.15527 0.06115722 0.9937489 -0.09339698 192 192 192 255 0.226434 0.718577
373.958 3.02729 37.92285 0.009620846 0.9997383 -0.02075794 192 192 192 255 0.175753 0.971757
269.5693 0.124626 10.24609 -0.01108816 0.9871117 -0.1596481 192 192 192 255 0.144136 0.730087
0 -6.29174 352.9023 -0.9583179 0.253454 -0.1318632 192 192 192 255 0.040567 0.598221
167.0264 1.670937 358.8262 -0.00429031 0.9986346 -0.05206243 192 192 192 255 0.336266 0.825565
352.4023 0.174089 408.2236 0.03600144 0.9905639 0.1322385 192 192 192 255 0.17596 0.576931
336.2607 3.030644 170.373 0.04996328 0.9984381 0.02500425 192 192 192 255 0.413363 0.911418
330.6152 3.036716 466.2832 -0.001409102 0.999625 -0.02735025 192 192 192 255 0.156008 0.776612
0.006836 -9.733551 192.1865 -0.9965078 0.07612316 0.03431428 192 192 192 255 0.04057 0.66007
491.5518 0.1932 43.56055 0.2086706 0.9779661 0.006244456 192 192 192 255 0.229421 0.717267
387.0547 -0.120651 0.814453 0.06591386 0.7332273 -0.6767815 192 192 192 255 0.189274 0.733717
0.151367 -0.085509 499.9121 -0.5780602 0.5728133 0.5811467 192 192 192 255 0.040626 0.541646
499.1631 -0.094551 48.58691 0.6674718 0.7446151 -0.005459858 192 192 192 255 0.232346 0.715332
499.7119 -14.66386 0.025391 0.6773815 0.1803373 -0.713185 192 192 192 255 0.232557 0.734021
347.3027 2.673711 448.3916 -0.03756255 0.9990273 -0.02310122 192 192 192 255 0.16361 0.784763
442.8301 3.023891 274.6074 -0.0562858 0.998295 0.0154585 192 192 192 255 0.207129 0.863932
396.8057 -0.93463 91.37695 -0.03466231 0.9993731 -0.007203329 192 192 192 255 0.19302 0.698865
198.8086 -5.650181 1.285156 -0.03404704 0.6337924 -0.7727535 192 192 192 255 0.11695 0.733536
491.499 0.205911 143.5518 0.2135132 0.9713732 -0.1041456 192 192 192 255 0.229401 0.678787
140.6299 -0.080694 90.65234 -0.04425617 0.9899036 -0.134656 192 192 192 255 0.094597 0.699144
485.6143 2.731947 463.0186 0.1147368 0.9897742 0.08475064 192 192 192 255 0.22714 0.555844
499.9785 -5.92545 36.66113 0.9990221 0.0436946 0.006756978 192 192 192 255 0.232659 0.719922
198.165 3.037165 294.1807 -0.007960097 0.9999437 0.007014489 192 192 192 255 0.350451 0.855016
177.4561 0.016483 490.7607 -0.02588987 0.9882371 0.1507222 192 192 192 255 0.108746 0.545168
109.8613 3.03539 339.7793 -0.1002408 0.9947696 0.01962524 192 192 192 255 0.310223 0.834243
481.4707 -0.035665 28.4707 -0.02849455 0.9963701 -0.08021695 192 192 192 255 0.225548 0.723074
9.374023 0.03293 348.0342 -0.3991444 0.9159901 -0.04057065 192 192 192 255 0.044169 0.600094
387.6289 3.039459 106.4072 0.06805759 0.9907741 -0.1171961 192 192 192 255 0.436764 0.940558
22.43945 0.236927 487.748 -0.03145656 0.9995039 0.001596374 192 192 192 255 0.049189 0.546328
500.0225 -21.91869 178.7305 0.7734463 -0.633862 -5.995701e-05 192 192 192 255 0.232676 0.665249
144.6992 3.036394 20.19824 0.02043069 0.9724227 -0.2323287 192 192 192 255 0.096161 0.726257
185.9023 3.035309 375.2598 -0.0005979681 0.9996113 -0.02787192 192 192 192 255 0.344865 0.818079
138.7812 3.037249 47.93945 0.003963215 0.9999799 0.004942385 192 192 192 255 0.068615 0.967194
143.7383 1.11525 332.9424 0.07671195 0.9969838 0.01177552 192 192 192 255 0.325656 0.837357
264.415 -0.110029 0.887695 -0.03714664 0.7508558 -0.6594208 192 192 192 255 0.142156 0.733689
405.457 -21.74992 -0.027344 0.002408793 -0.5673149 -0.8234974 192 192 192 255 0.196344 0.734041
100.4854 0.032745 76.91113 -0.03570734 0.9916931 0.1235706 192 192 192 255 0.079174 0.704432
163.3242 1.978334 323.0029 0.02335272 0.9996334 0.01370758 192 192 192 255 0.334579 0.841885
427.6953 2.887045 411.3438 -0.2232988 0.9685455 0.1098061 192 192 192 255 0.200234 0.80164
491.5176 0.191163 241.8955 0.1225571 0.9919637 -0.03142752 192 192 192 255 0.229408 0.64094
148.8125 3.034916 470.834 -0.003084249 0.9960335 0.08892471 192 192 192 255 0.073185 0.774539
146.5488 2.825614 94.80957 -0.1323546 0.9530356 -0.2724067 192 192 192 255 0.326937 0.945841
145.0723 3.037568 104.0703 -0.03251221 0.9977045 -0.05940313 192 192 192 255 0.326264 0.941623
421.4727 0.056581 264.6494 -0.1625401 0.9857793 0.04265878 192 192 192 255 0.202497 0.632184
437.4404 -5.41718 497.4092 0.3977537 0.607531 0.6875304 192 192 192 255 0.208632 0.54261
366.4688 3.041842 20.00195 0.03603509 0.9920039 -0.1209535 192 192 192 255 0.181365 0.726333
499.8926 -1.007594 18.51172 0.7135876 0.6838769 -0.1520037 192 192 192 255 0.232626 0.726906
2.583008 -0.727804 203.5107 -0.6644698 0.7441126 0.06911094 192 192 192 255 0.04156 0.655712
387.9014 2.155939 400.1221 0.0219622 0.9883724 0.1504581 192 192 192 255 0.436888 0.806753
2.943359 -3.972942 284.8975 -0.3392345 0.940676 0.00697164 192 192 192 255 0.041698 0.624392
414.9336 -0.003013 422.5742 0.03612709 0.9936455 -0.1066001 192 192 192 255 0.199985 0.571409
421.6172 0.09577 134.7676 -0.2247636 0.9744081 -0.003191101 192 192 192 255 0.202553 0.682167
69.92773 2.983875 88.4834 0.2328264 0.9652851 -0.118392 192 192 192 255 0.037248 0.948723
500.0195 -0.985964 459.2617 0.7538729 0.6567116 0.0201371 192 192 192 255 0.232675 0.55729
347.7031 -0.003048 412.6396 0.01376767 0.9994676 0.02957968 192 192 192 255 0.174155 0.575232
91.55664 -0.155458 162.6562 -0.08908955 0.9960165 -0.00378171 192 192 192 255 0.075743 0.671435
322.9297 0.548592 446.4199 0.2150168 0.9668267 -0.1378905 192 192 192 255 0.164637 0.562232
86.61328 -0.117354 499.8818 0.06235807 0.6663005 0.7430714 192 192 192 255 0.073844 0.541658
119.7656 3.03639 383.1836 -0.01748602 0.9997416 -0.01452866 192 192 192 255 0.314735 0.814469
378.9033 -0.121065 499.8975 0.06088584 0.7081912 0.7033904 192 192 192 255 0.186142 0.541652
499.3496 -0.091237 150.583 0.6941887 0.7197909 -0.001770355 192 192 192 255 0.232417 0.676081
312.8574 3.035798 106.4951 -0.0084787 0.9974028 -0.07152493 192 192 192 255 0.160767 0.693047
192.3721 -0.097909 499.9102 -0.01390157 0.7028158 0.7112361 192 192 192 255 0.114477 0.541647
123.21 -6.153335 0.074219 0.06390759 0.4978322 -0.8649156 192 192 192 255 0.087905 0.734002
191.4658 1.653353 157.7676 -0.03461028 0.9993764 -0.007001549 192 192 192 255 0.347399 0.91716
451.918 -12.16712 499.9844 -0.01633005 0.2815632 0.9594038 192 192 192 255 0.214194 0.541619
477.1719 -0.068982 486.9219 0.0556097 0.9926191 0.1077728 192 192 192 255 0.223897 0.546645
395.1348 0.450259 73.78516 0.02153957 0.994907 0.09846866 192 192 192 255 0.192378 0.705635
441.623 -1.760943 3.632813 -0.0002737146 0.7811337 -0.6243638 192 192 192 255 0.210239 0.732632
427.7812 2.905367 264.4189 -0.2555204 0.9452471 0.2030209 192 192 192 255 0.204921 0.632273
409.3604 -0.222644 407.9307 0.01476244 0.9995828 0.02482821 192 192 192 255 0.197844 0.577044
489.7188 -0.15358 482.8086 0.1932991 0.9704876 0.1441851 192 192 192 255 0.228717 0.548228
0.00293 -11.98516 251.7812 -0.9911168 0.1302359 -0.02694573 192 192 192 255 0.040569 0.637136
0.000977 -6.733625 296.7061 -0.9907286 0.1221905 -0.0593838 192 192 192 255 0.040568 0.619847
107.5723 2.919113 162.7314 -0.08202074 0.9965522 -0.01250791 192 192 192 255 0.30918 0.914899
378.7988 -22.80945 499.9043 0.002882108 -0.6970918 0.7169762 192 192 192 255 0.186102 0.541649
144.1465 -22.81912 499.9277 -0.001097801 -0.682138 0.7312227 192 192 192 255 0.095948 0.54164
408.6797 -0.095864 357.9053 0.3261398 0.9452474 0.01184307 192 192 192 255 0.197582 0.596296
97.02441 3.082379 402.708 -0.2288873 0.9588702 0.1678647 192 192 192 255 0.077844 0.579054
463.1152 1.812227 17.70605 -0.005860284 0.9994435 -0.03283755 192 192 192 255 0.218496 0.727216
173.9268 3.037038 172.0068 0.01274929 0.9998541 -0.01136888 192 192 192 255 0.339409 0.910673
104.5352 -22.7917 0.739258 0.0003228165 -0.8343945 -0.5511676 192 192 192 255 0.08073 0.733746
373.2334 1.920795 167.5176 -0.03986057 0.9990903 0.01515626 192 192 192 255 0.430206 0.912718
0.081055 -0.081553 356.8828 -0.7007031 0.6881669 -0.1882594 192 192 192 255 0.040599 0.596689
337.4482 3.034439 194.1328 0.0412695 0.9988024 -0.02628349 192 192 192 255 0.413904 0.900594
69.40137 3.057105 411.251 0.2143775 0.9706378 0.1091079 192 192 192 255 0.037008 0.801683
16.89355 2.939198 317.5791 -0.2888407 0.9569244 -0.02943982 192 192 192 255 0.013087 0.844356
422.6982 -0.044244 68.45801 -0.02452013 0.9996988 -0.001030251 192 192 192 255 0.202968 0.707685
94.91992 2.9471 379.8066 -0.2354003 0.9675978 -0.09133019 192 192 192 255 0.077036 0.587867
217.3398 2.967614 404.5176 -0.001903778 0.9753842 0.2205041 192 192 192 255 0.124069 0.578358
499.9844 -0.855407 338.9893 0.7688889 0.6393775 0.002532873 192 192 192 255 0.232661 0.603575
91.3457 -0.491821 329.9092 -0.1033523 0.9941784 0.03045752 192 192 192 255 0.075662 0.60707
312.0244 1.601115 430.6006 -0.003520915 0.9958891 -0.09051213 192 192 192 255 0.147538 0.792868
356.4648 2.954162 68.83691 0.008474342 0.9841636 0.1770598 192 192 192 255 0.167784 0.957674
16.40723 -0.247367 237.8652 -0.2530178 0.9669822 0.03045378 192 192 192 255 0.046871 0.642491
283.2666 3.033975 104.1182 0.03266426 0.9937888 -0.1063814 192 192 192 255 0.389221 0.941601
1.523438 -1.929307 267.2412 -0.6008316 0.7986735 0.03349666 192 192 192 255 0.041153 0.631186
405.0918 2.918154 340.2236 0.2222694 0.974826 0.01762427 192 192 192 255 0.196204 0.6031
0.099609 -22.81865 485.4111 -0.7150809 -0.6990407 0.001157069 192 192 192 255 0.040606 0.547227
0.160156 -22.78842 499.8857 -0.5789 -0.5719288 0.5811818 192 192 192 255 0.040629 0.541657
90.35352 -0.400972 92.33984 0.01040449 0.9999189 -0.007348883 192 192 192 255 0.075281 0.698495
355.7998 0.85877 190.8945 0.02586934 0.9971386 -0.07103125 192 192 192 255 0.422264 0.902069
166.167 3.035626 264.1787 2.48619e-05 0.9999472 0.01028439 192 192 192 255 0.335874 0.868683
106.0322 -2.344188 496.1455 0.0875589 0.7057195 0.7030601 192 192 192 255 0.081305 0.543096
473.4414 -1.358481 2.478516 0.06252442 0.7268824 -0.6839098 192 192 192 255 0.222463 0.733077
380.5615 3.033251 216.3369 -0.005831444 0.9999161 -0.01156914 192 192 192 255 0.433545 0.890478
183.4014 2.994027 307.0498 -0.01387451 0.9991523 0.03875817 192 192 192 255 0.11103 0.615867
151.8066 2.947707 68.71094 0.01841752 0.9878708 0.154182 192 192 192 255 0.098891 0.707588
105.9541 2.898424 68.83301 -0.03976092 0.9832144 0.1780688 192 192 192 255 0.05366 0.957676
139.3877 -0.457634 487.4629 0.01228678 0.8963894 0.4430973 192 192 192 255 0.09412 0.546437
172.6572 3.036324 149.0518 0.01801956 0.9997855 0.01021586 192 192 192 255 0.338831 0.921131
76.67871 -0.759602 358.6738 0.1230421 0.992311 0.01339954 192 192 192 255 0.070027 0.596
431.3242 2.05558 40.79102 0.07822314 0.995906 0.04530401 192 192 192 255 0.206282 0.718333
86.58203 0.04801 422.9551 -0.04183123 0.9929677 -0.1107495 192 192 192 255 0.073832 0.571262
57.29492 -0.000214 67.02441 0.1405472 0.9780728 -0.1536887 192 192 192 255 0.06258 0.708237
0.103516 -22.77248 0.229492 -0.5934019 -0.5851199 -0.5527287 192 192 192 255 0.040607 0.733942
269.7998 2.98231 95.00781 0.02519588 0.9547678 -0.2962832 192 192 192 255 0.383086 0.945751
24.49707 2.822677 261.3984 -0.1615014 0.986728 -0.01688715 192 192 192 255 0.016551 0.86995
75.56543 0.553759 87.92676 0.1700693 0.9836386 -0.05942762 192 192 192 255 0.0696 0.700193
0.09375 -22.82672 321.3301 -0.7117581 -0.7024248 0.0001889949 192 192 192 255 0.040603 0.610371
66.96484 3.039273 336.7236 0.1561283 0.9875468 0.01937417 192 192 192 255 0.035898 0.835634
377.4893 1.374806 18.34473 0.09537271 0.9954267 -0.005462789 192 192 192 255 0.185599 0.726971
494.9844 -22.90051 4.868164 0.1108787 -0.9878573 -0.1088291 192 192 192 255 0.23074 0.732157
141.207 -11.65348 499.1631 -0.007339465 0.389741 0.9208953 192 192 192 255 0.094819 0.541935
482.25 0.385635 220.9941 0.08996335 0.9958426 -0.01428762 192 192 192 255 0.225848 0.648984
77.19141 0.050673 412.2373 0.1378238 0.9897701 0.03687464 192 192 192 255 0.070224 0.575387
98.73242 2.865236 183.7617 -0.1400427 0.9897356 -0.02848694 192 192 192 255 0.305153 0.905318
500.0098 -21.52308 499.7803 0.6208461 -0.4762155 0.6227109 192 192 192 255 0.232671 0.541697
232.6494 3.037343 364.1885 -0.01161492 0.9999167 -0.005640217 192 192 192 255 0.366161 0.823123
9.185547 0.018471 205.3564 -0.2470767 0.9684626 0.03214611 192 192 192 255 0.044096 0.655002
500 -4.200035 159.5898 0.9949453 0.1000527 0.008560771 192 192 192 255 0.232667 0.672615
178.8936 2.92351 481.3359 -0.02579324 0.986428 0.162156 192 192 192 255 0.086889 0.769755
69.92773 2.983875 88.4834 0.2328264 0.9652851 -0.118392 192 192 192 255 0.067434 0.699979
312.8574 3.035798 106.4951 -0.0084787 0.9974028 -0.07152493 192 192 192 255 0.402701 0.940518
483.5547 3.042192 144.5869 0.1461299 0.9889229 0.02602962 192 192 192 255 0.226349 0.678388
483.7754 3.044431 40.15527 0.06115722 0.9937489 -0.09339698 192 192 192 255 0.225782 0.97074
427.7002 2.867293 88.41504 -0.2405105 0.9702146 -0.02895553 192 192 192 255 0.20489 0.700005
97.02441 3.082379 402.708 -0.2288873 0.9588702 0.1678647 192 192 192 255 0.304375 0.805575
144.6992 3.036394 20.19824 0.02043069 0.9724227 -0.2323287 192 192 192 255 0.071311 0.979832
366.4688 3.041842 20.00195 0.03603509 0.9920039 -0.1209535 192 192 192 255 0.172341 0.979921
427.6895 2.944675 481.1709 -0.05447818 0.9796822 0.1930154 192 192 192 255 0.204886 0.548859
17.16113 3.037717 460.8604 -0.02450697 0.9867113 0.1606247 192 192 192 255 0.047161 0.556675
412.7402 3.041756 432.623 0.08338988 0.9832637 -0.1619839 192 192 192 255 0.199142 0.567542
63.89551 3.040295 40.51074 -0.1258808 0.984674 0.1207112 192 192 192 255 0.065116 0.71844
105.9541 2.898424 68.83301 -0.03976092 0.9832144 0.1780688 192 192 192 255 0.081275 0.707541
427.6953 2.887045 411.3438 -0.2232988 0.9685455 0.1098061 192 192 192 255 0.204888 0.575731
442.6758 3.03662 356.6631 -0.0352241 0.9993637 -0.00560812 192 192 192 255 0.210643 0.596774
94.90234 2.862594 290.8057 -0.3428749 0.9393526 0.007315871 192 192 192 255 0.303408 0.856553
457.9922 2.932269 481.376 0.09501471 0.9930696 0.06917434 192 192 192 255 0.216528 0.54878
254.0859 2.947845 430.9199 0.02805405 0.9810298 -0.1918166 192 192 192 255 0.121144 0.792722
87.22168 3.074146 432.4385 -0.1085803 0.9774237 -0.1812546 192 192 192 255 0.045126 0.79203
41.06738 2.940656 481.0947 -0.09794495 0.9922655 0.07626237 192 192 192 255 0.0241 0.769864
108.6455 2.88152 481.5342 0.01500839 0.9861421 0.1652229 192 192 192 255 0.054886 0.769664
148.8125 3.034916 470.834 -0.003084249 0.9960335 0.08892471 192 192 192 255 0.097741 0.552837
383.1729 2.910921 481.1641 0.1645899 0.9684705 0.1870162 192 192 192 255 0.179951 0.769833
151.8066 2.947707 68.71094 0.01841752 0.9878708 0.154182 192 192 192 255 0.074549 0.957731
418.5889 3.028422 30.07812 0.04009335 0.998427 -0.03919211 192 192 192 255 0.196085 0.975331
405.0918 2.918154 340.2236 0.2222694 0.974826 0.01762427 192 192 192 255 0.44472 0.83404
45.75391 3.038532 19.75195 -0.1165126 0.9929698 -0.02087715 192 192 192 255 0.026235 0.980035
405.1172 2.93436 151.1455 0.2164717 0.9762731 -0.005549428 192 192 192 255 0.444731 0.920177
442.8301 3.023891 274.6074 -0.0562858 0.998295 0.0154585 192 192 192 255 0.210703 0.628352
148.1357 3.018112 297.042 0.01686702 0.9997716 0.01312919 192 192 192 255 0.32766 0.853712
470.1279 3.035676 156.9111 0.04173901 0.9990196 0.01475376 192 192 192 255 0.22119 0.673645
471.9629 3.021391 198.1396 0.06898339 0.9970981 0.032197 192 192 192 255 0.221895 0.657779
483.623 3.051729 253.708 0.1706032 0.9851773 -0.0178959 192 192 192 255 0.226375 0.636395
485.4648 2.756993 365.7178 0.2027543 0.9792289 0.001237613 192 192 192 255 0.227083 0.593289
391.7051 2.773512 469.8027 0.03138437 0.9956725 0.08747144 192 192 192 255 0.19106 0.553234
257.7988 3.032927 20.19824 -0.00594168 0.9895682 -0.1439424 192 192 192 255 0.122835 0.979832
377.4893 1.374806 18.34473 0.09537271 0.9954267 -0.005462789 192 192 192 255 0.177362 0.980676
16.89355 2.939198 317.5791 -0.2888407 0.9569244 -0.02943982 192 192 192 255 0.047058 0.611815
94.94727 2.930485 208.6533 -0.3312291 0.9435368 -0.005064144 192 192 192 255 0.303429 0.893978
356.4648 2.954162 68.83691 0.008474342 0.9841636 0.1770598 192 192 192 255 0.177521 0.70754
428.2549 1.699867 344.6982 -0.113548 0.9935163 0.005688243 192 192 192 255 0.200489 0.832002
312.0244 1.601115 430.6006 -0.003520915 0.9958891 -0.09051213 192 192 192 255 0.160447 0.56832
330.6152 3.036716 466.2832 -0.001409102 0.999625 -0.02735025 192 192 192 255 0.16759 0.554588
395.8096 2.893136 116.4824 0.1128455 0.9919475 -0.05749926 192 192 192 255 0.192637 0.689204
404.9072 2.399466 368.0537 0.2962359 0.9550192 0.01352048 192 192 192 255 0.196133 0.59239
112.7783 3.001841 358.9453 -0.08142916 0.9965952 0.01293544 192 192 192 255 0.083897 0.595895
119.7656 3.03639 383.1836 -0.01748602 0.9997416 -0.01452866 192 192 192 255 0.086581 0.586568
196.6191 3.030971 30.48633 -0.001799446 0.9923515 -0.1234315 192 192 192 255 0.116108 0.722298
109.8613 3.03539 339.7793 -0.1002408 0.9947696 0.01962524 192 192 192 255 0.082776 0.603271
345.834 2.752589 431.1943 -0.02080563 0.989838 -0.1406695 192 192 192 255 0.162941 0.792597
163.3242 1.978334 323.0029 0.02335272 0.9996334 0.01370758 192 192 192 255 0.103317 0.609727
111.8184 2.984203 106.9365 -0.05816603 0.9949874 -0.08134343 192 192 192 255 0.083528 0.692877
24.49707 2.822677 261.3984 -0.1615014 0.986728 -0.01688715 192 192 192 255 0.049979 0.633435
220.3984 2.964323 68.86426 -0.1292336 0.9810238 0.1445374 192 192 192 255 0.125244 0.707529
272.0186 3.037892 446.1201 0.01182129 0.998498 -0.05349728 192 192 192 255 0.145077 0.562347
209.3945 1.722599 332.8369 -0.09493544 0.9944008 0.04641499 192 192 192 255 0.121017 0.605943
219.7949 3.037258 60.29102 -0.03139623 0.9986924 0.04034572 192 192 192 255 0.125013 0.710828
138.7812 3.037249 47.93945 0.003963215 0.9999799 0.004942385 192 192 192 255 0.093887 0.715582
347.3027 2.673711 448.3916 -0.03756255 0.9990273 -0.02310122 192 192 192 255 0.174001 0.561473
107.5723 2.919113 162.7314 -0.08202074 0.9965522 -0.01250791 192 192 192 255 0.081897 0.671406
98.73242 2.865236 183.7617 -0.1400427 0.9897356 -0.02848694 192 192 192 255 0.0785 0.663312
214.252 2.28952 362.4707 -0.02812732 0.997353 -0.06705104 192 192 192 255 0.122883 0.594539
183.4014 2.994027 307.0498 -0.01387451 0.9991523 0.03875817 192 192 192 255 0.343725 0.849153
387.9014 2.155939 400.1221 0.0219622 0.9883724 0.1504581 192 192 192 255 0.189599 0.580049
387.6289 3.039459 106.4072 0.06805759 0.9907741 -0.1171961 192 192 192 255 0.189494 0.693081
94.91992 2.9471 379.8066 -0.2354003 0.9675978 -0.09133019 192 192 192 255 0.303416 0.816007
145.0723 3.037568 104.0703 -0.03251221 0.9977045 -0.05940313 192 192 192 255 0.096304 0.69398
66.96484 3.039273 336.7236 0.1561283 0.9875468 0.01937417 192 192 192 255 0.066295 0.604447
55.78125 3.036618 365.5996 0.06967033 0.9975688 -0.001628826 192 192 192 255 0.061999 0.593335
371.6006 3.037462 388.6836 0.002589205 0.9976568 0.06836848 192 192 192 255 0.183336 0.584451
217.3398 2.967614 404.5176 -0.001903778 0.9753842 0.2205041 192 192 192 255 0.359187 0.80475
28.06738 1.745533 231.7979 -0.1018964 0.987528 0.1200237 192 192 192 255 0.051351 0.644826
146.5488 2.825614 94.80957 -0.1323546 0.9530356 -0.2724067 192 192 192 255 0.096871 0.697544
485.4688 2.741727 407.9941 0.2006517 0.9796627 0.0001837762 192 192 192 255 0.226554 0.803166
69.40137 3.057105 411.251 0.2143775 0.9706378 0.1091079 192 192 192 255 0.067231 0.575766
450.6621 3.037024 204.9863 0.01199019 0.999916 0.00493322 192 192 192 255 0.213712 0.655144
16.94336 2.925694 221.5654 -0.2270562 0.9705041 0.08103891 192 192 192 255 0.01311 0.888096
16.8584 3.001039 38.68066 0.008659279 0.9794542 -0.2014807 192 192 192 255 0.013071 0.971412
427.7812 2.905367 264.4189 -0.2555204 0.9452471 0.2030209 192 192 192 255 0.200273 0.868574
175.1367 1.863064 344.9863 0.0177305 0.9994652 -0.02747563 192 192 192 255 0.107855 0.601267
185.9023 3.035309 375.2598 -0.0005979681 0.9996113 -0.02787192 192 192 192 255 0.111991 0.589617
283.2666 3.033975 104.1182 0.03266426 0.9937888 -0.1063814 192 192 192 255 0.149398 0.693962
269.7998 2.98231 95.00781 0.02519588 0.9547678 -0.2962832 192 192 192 255 0.144224 0.697468
485.6143 2.731947 463.0186 0.1147368 0.9897742 0.08475064 192 192 192 255 0.22662 0.778099
3 234 149 100 
3 226 249 99 
3 243 94 103 
3 180 183 196 
3 251 248 142 
3 15 0 151 
3 194 193 240 
3 14 123 166 
3 234 1 23 
3 144 64 19 
3 46 37 159 
3 128 4 252 
3 250 76 10 
3 132 234 70 
3 173 36 241 
3 108 117 199 
3 175 126 210 
3 214 26 44 
3 172 75 164 
3 105 182 87 
3 80 119 140 
3 78 85 235 
3 235 85 10 
3 90 160 24 
3 45 239 253 
3 193 236 240 
3 85 60 250 
3 60 236 58 
3 175 234 3 
3 213 4 128 
3 254 57 148 
3 124 240 132 
3 147 132 70 
3 168 58 129 
3 116 53 248 
3 94 196 197 
3 144 77 64 
3 71 165 186 
3 5 79 17 
3 100 149 98 
3 178 132 220 
3 144 183 77 
3 52 132 178 
3 183 197 196 
3 230 224 244 
3 28 220 197 
3 111 9 59 
3 139 121 255 
3 134 167 142 
3 47 225 167 
3 68 208 146 
3 175 34 171 
3 176 42 82 
3 45 40 42 
3 118 21 218 
3 256 9 111 
3 172 190 257 
3 99 179 258 
3 191 8 171 
3 107 207 89 
3 36 238 241 
3 114 242 11 
3 200 68 146 
3 116 186 53 
3 165 13 53 
3 6 9 136 
3 25 37 46 
3 133 130 139 
3 259 20 153 
3 153 20 229 
3 127 72 50 
3 120 12 202 
3 184 12 120 
3 155 123 14 
3 260 26 214 
3 261 97 71 
3 79 128 96 
3 119 80 43 
3 70 262 147 
3 70 246 262 
3 15 2 0 
3 60 184 120 
3 114 11 233 
3 171 38 263 
3 223 143 226 
3 264 157 265 
3 249 152 99 
3 88 69 227 
3 226 143 249 
3 204 124 132 
3 92 2 15 
3 60 2 92 
3 60 85 2 
3 117 232 234 
3 246 70 234 
3 162 57 237 
3 39 239 45 
3 30 141 266 
3 164 31 267 
3 25 136 37 
3 87 29 105 
3 216 237 57 
3 184 92 15 
3 184 15 151 
3 42 16 82 
3 201 268 223 
3 71 55 13 
3 261 71 269 
3 52 149 132 
3 234 132 149 
3 270 271 161 
3 271 272 273 
3 230 144 274 
3 96 128 275 
3 157 239 221 
3 228 265 157 
3 276 153 229 
3 232 246 234 
3 98 149 52 
3 125 84 86 
3 152 179 99 
3 91 9 6 
3 163 101 195 
3 122 214 277 
3 110 178 220 
3 52 178 224 
3 215 217 170 
3 217 62 193 
3 76 51 215 
3 62 217 215 
3 278 226 99 
3 32 99 169 
3 259 279 20 
3 113 141 56 
3 280 35 278 
3 190 164 281 
3 54 170 67 
3 209 108 199 
3 68 114 233 
3 223 145 282 
3 143 41 249 
3 91 59 9 
3 81 283 284 
3 6 136 25 
3 160 285 286 
3 123 63 83 
3 162 163 57 
3 77 55 287 
3 97 55 71 
3 166 123 83 
3 288 26 260 
3 122 260 214 
3 289 260 122 
3 152 86 179 
3 147 262 290 
3 201 291 268 
3 163 195 201 
3 208 292 188 
3 43 80 29 
3 80 140 29 
3 201 247 291 
3 57 185 27 
3 163 201 231 
3 109 259 153 
3 176 45 42 
3 95 158 154 
3 244 224 28 
3 48 266 31 
3 37 293 159 
3 212 40 232 
3 171 8 175 
3 133 167 130 
3 177 294 295 
3 109 153 26 
3 30 191 171 
3 157 78 239 
3 48 30 266 
3 198 191 30 
3 193 129 236 
3 137 296 115 
3 191 198 297 
3 133 251 142 
3 133 181 251 
3 224 178 74 
3 251 211 248 
3 192 116 174 
3 225 200 167 
3 44 33 214 
3 175 3 34 
3 223 61 143 
3 148 57 127 
3 231 185 57 
3 34 294 38 
3 298 108 299 
3 150 248 94 
3 138 151 300 
3 270 161 252 
3 104 152 249 
3 249 41 104 
3 264 78 157 
3 95 125 152 
3 223 268 145 
3 16 212 301 
3 107 89 206 
3 81 160 90 
3 77 180 55 
3 79 302 135 
3 73 180 196 
3 55 180 73 
3 22 205 222 
3 88 303 69 
3 79 96 17 
3 208 68 233 
3 277 289 122 
3 115 296 21 
3 172 115 75 
3 75 115 21 
3 81 181 283 
3 84 145 86 
3 304 221 39 
3 44 26 153 
3 39 45 176 
3 241 238 207 
3 305 54 290 
3 282 145 84 
3 97 287 55 
3 50 72 280 
3 155 131 63 
3 71 18 269 
3 47 167 134 
3 36 106 238 
3 49 189 7 
3 79 135 128 
3 119 43 306 
3 189 114 200 
3 200 114 68 
3 76 250 51 
3 3 23 307 
3 270 252 4 
3 52 230 98 
3 308 227 69 
3 13 55 73 
3 189 225 7 
3 139 255 181 
3 181 133 139 
3 309 310 119 
3 110 220 28 
3 74 110 28 
3 178 110 74 
3 63 300 83 
3 288 109 26 
3 57 163 231 
3 38 177 311 
3 176 312 39 
3 131 155 14 
3 131 49 7 
3 19 274 144 
3 250 60 58 
3 250 58 168 
3 35 222 226 
3 35 226 278 
3 134 93 7 
3 119 157 140 
3 140 157 221 
3 186 165 53 
3 236 60 120 
3 203 222 35 
3 203 35 280 
3 313 176 82 
3 8 126 175 
3 117 234 175 
3 127 27 223 
3 147 290 54 
3 124 194 240 
3 63 12 138 
3 77 287 64 
3 192 187 65 
3 18 187 269 
3 66 138 12 
3 255 283 181 
3 308 69 314 
3 195 247 201 
3 102 243 103 
3 271 273 161 
3 48 198 30 
3 168 51 250 
3 114 14 242 
3 49 14 114 
3 208 115 172 
3 187 18 65 
3 99 32 278 
3 63 131 12 
3 203 22 222 
3 71 186 18 
3 143 61 315 
3 93 134 142 
3 142 248 150 
3 187 171 263 
3 212 232 108 
3 118 75 21 
3 228 157 119 
3 316 8 191 
3 253 239 235 
3 65 186 116 
3 280 72 203 
3 292 43 188 
3 188 87 137 
3 87 182 317 
3 179 318 258 
3 233 11 208 
3 105 29 182 
3 284 245 81 
3 93 142 150 
3 51 168 62 
3 319 221 304 
3 90 24 56 
3 155 63 123 
3 170 217 194 
3 154 125 95 
3 320 321 232 
3 181 90 251 
3 90 211 251 
3 211 174 248 
3 198 118 218 
3 167 146 121 
3 130 167 121 
3 112 243 102 
3 243 150 94 
3 72 22 203 
3 322 210 126 
3 199 117 210 
3 99 258 323 
3 50 148 127 
3 158 282 154 
3 13 196 53 
3 164 118 31 
3 102 103 240 
3 202 112 102 
3 103 94 197 
3 127 223 205 
3 22 127 205 
3 170 54 305 
3 215 305 324 
3 140 319 325 
3 132 240 219 
3 63 138 300 
3 225 47 134 
3 7 112 12 
3 7 93 156 
3 7 156 112 
3 48 118 198 
3 46 159 326 
3 24 286 113 
3 121 146 257 
3 140 221 319 
3 192 65 116 
3 188 137 115 
3 129 58 236 
3 185 201 27 
3 132 219 220 
3 267 281 164 
3 232 321 327 
3 257 208 172 
3 38 294 177 
3 228 119 310 
3 205 223 226 
3 127 57 27 
3 311 177 295 
3 61 282 315 
3 143 315 41 
3 94 53 196 
3 131 7 12 
3 167 133 142 
3 24 160 286 
3 71 13 165 
3 299 108 209 
3 65 18 186 
3 77 183 180 
3 43 29 87 
3 51 62 215 
3 30 171 187 
3 164 75 118 
3 67 124 147 
3 147 54 67 
3 245 328 285 
3 174 56 192 
3 221 239 39 
3 304 39 312 
3 119 306 309 
3 141 192 56 
3 137 87 317 
3 49 131 14 
3 12 112 202 
3 211 90 56 
3 156 243 112 
3 156 93 243 
3 94 248 53 
3 262 246 327 
3 146 208 257 
3 183 230 244 
3 36 329 106 
3 173 329 36 
3 67 194 124 
3 230 52 224 
3 137 317 296 
3 231 201 185 
3 222 205 226 
3 171 34 38 
3 40 320 232 
3 66 151 138 
3 151 66 184 
3 108 232 117 
3 312 176 313 
3 191 297 316 
3 8 316 322 
3 215 170 305 
3 212 42 40 
3 235 10 253 
3 173 330 329 
3 9 331 136 
3 34 3 294 
3 294 3 307 
3 239 78 235 
3 56 24 113 
3 69 332 333 
3 184 66 12 
3 117 175 210 
3 40 45 253 
3 301 212 298 
3 298 212 108 
3 243 93 150 
3 69 333 314 
3 230 274 98 
3 284 328 245 
3 92 184 60 
3 194 217 193 
3 192 30 187 
3 141 30 192 
3 188 43 87 
3 130 121 139 
3 324 76 215 
3 154 282 84 
3 322 126 8 
3 269 187 263 
3 40 253 320 
3 167 200 146 
3 43 292 306 
3 90 181 81 
3 14 166 242 
3 182 29 334 
3 225 189 200 
3 172 164 190 
3 211 56 174 
3 234 100 1 
3 103 197 220 
3 208 188 115 
3 193 62 129 
3 62 168 129 
3 2 78 264 
3 2 264 0 
3 224 74 28 
3 261 287 97 
3 183 244 197 
3 27 201 223 
3 225 134 7 
3 147 204 132 
3 11 292 208 
3 72 127 22 
3 174 116 248 
3 67 170 194 
3 197 244 28 
3 85 250 10 
3 335 140 325 
3 29 140 335 
3 254 216 57 
3 326 159 336 
3 198 218 297 
3 125 86 152 
3 219 103 220 
3 154 84 125 
3 144 230 183 
3 223 282 61 
3 128 252 275 
3 2 85 78 
3 69 303 332 
3 42 212 16 
3 81 245 160 
3 335 334 29 
3 219 240 103 
3 3 234 23 
3 236 202 102 
3 120 202 236 
3 160 245 285 
3 236 102 240 
3 107 241 207 
3 246 232 327 
3 189 49 114 
3 13 73 196 
3 31 118 48 
3 147 124 204 
